<?xml version="1.0" encoding="utf-8"?>
<!-- Generator: Adobe Illustrator 16.0.0, SVG Export Plug-In . SVG Version: 6.00 Build 0)  -->
<!DOCTYPE svg PUBLIC "-//W3C//DTD SVG 1.1//EN" "http://www.w3.org/Graphics/SVG/1.1/DTD/svg11.dtd">
<svg version="1.1" id="Layer_1" xmlns="http://www.w3.org/2000/svg" xmlns:xlink="http://www.w3.org/1999/xlink" x="0px" y="0px"
	 width="120.19px" height="128.977px" viewBox="0 0 120.19 128.977" enable-background="new 0 0 120.19 128.977"
	 xml:space="preserve">
<path fill="#543465" d="M119.584,86.113c0.125,0.13,0.348,0.448,0.232,0.636c-0.059,0.094-0.273,0.05-0.355,0.036
	c-0.186-0.029-0.352-0.108-0.523-0.151c-0.088-0.059-0.168-0.115-0.238-0.174c-0.238-0.225-0.123-0.49,0.121-0.643
	C119.088,85.659,119.413,85.918,119.584,86.113"/>
<path fill="#543465" d="M84.252,96.794c0.586,0.181,0.361,0.865-0.238,0.902c-0.23,0.008-0.391-0.08-0.504-0.217l0.008-0.043
	l-0.074-0.08c-0.043-0.079-0.08-0.158-0.1-0.252l0.137-0.15C83.733,96.896,83.993,96.845,84.252,96.794"/>
<line fill="none" x1="0" y1="0" x2="0" y2="128.977"/>
<line fill="none" x1="120.19" y1="128.977" x2="120.19" y2="0"/>
<path fill="#6D4983" d="M23.904,95.329c-0.014,0.202-0.123,0.369-0.309,0.491l-0.053,0.028l-0.1-0.071
	C23.154,95.597,23.615,95.417,23.904,95.329"/>
<path fill="#543465" d="M119.723,85.796c0.252,0.238,0.635,0.773,0.383,1.126c-0.16,0.231-0.498,0.274-0.814,0.209
	c-0.031,0.462-0.133,2.028-0.385,2.194c-0.078,0.051-0.201-0.015-0.193-0.108c0.006-0.224,0.094-0.44,0.121-0.657
	c0.045-0.303,0.072-0.605,0.123-0.908c0.008-0.072,0.045-0.377,0.131-0.578c-0.203-0.065-0.383-0.181-0.471-0.311v-0.086
	c-0.092-0.064-0.18-0.145-0.238-0.246c-0.158-0.268-0.078-0.576,0.16-0.771C118.915,85.349,119.391,85.485,119.723,85.796
	 M119.817,86.749c0.115-0.188-0.107-0.506-0.232-0.637c-0.172-0.193-0.496-0.453-0.762-0.295c-0.246,0.152-0.361,0.418-0.123,0.643
	c0.07,0.058,0.15,0.115,0.238,0.173c0.172,0.044,0.338,0.123,0.523,0.151C119.543,86.8,119.758,86.843,119.817,86.749"/>
<path fill="#6D4983" d="M83.147,100.063c0-0.556,0.074-1.097,0.166-1.638l0.016-0.065c0.037-0.181,0.064-0.354,0.102-0.527
	c0.238,0.145,0.533,0.218,0.793,0.16c0.744-0.166,0.959-0.924,0.268-1.351c-0.238-0.144-0.506-0.144-0.75-0.065
	c-0.166,0.008-0.326,0.045-0.484,0.095l-0.035-0.007l-0.029,0.027c-0.094,0.037-0.195,0.065-0.281,0.123
	c-0.152,0.088-0.037,0.275,0.107,0.245l-0.008,0.009l0.059-0.016c-0.029,0.095-0.035,0.188-0.021,0.275
	c-0.08,0.244-0.129,0.504-0.166,0.771c-0.275-0.087-0.57-0.107-0.865-0.152c-0.449-0.064-0.902-0.121-1.336-0.273l-0.021-0.102
	c0.115-0.547,0.426-1.01,0.809-1.422c0.1-0.107,0.1-0.324-0.051-0.389c-0.838-0.391-1.754-0.614-2.67-0.771
	c0.289-0.334,0.605-0.593,0.953-0.773c3.311-2.742,8.227-4.063,12.088-5.232c3.91-1.184,8.025-1.595,12.102-1.609
	c3.443-0.008,7.209-0.021,10.572,0.766c0.064,0.107,0.117,0.209,0.18,0.316c0.109,0.188,0.334,0.131,0.412-0.014
	c0.418,0.231,0.982,0.454,1.379,0.317c0.219-0.072,0.391-0.267,0.549-0.491c0.332,0.096,0.715,0.123,0.98,0.16
	c0.197,0.021,0.514,0.072,0.838,0.086c0.016-0.079,0.029-0.158,0.043-0.238v-0.181c-0.246,0.015-0.482,0.03-0.736,0.015"/>
<path fill="#6D4983" d="M64.522,29.823c-3.096,0.483-6.172,1.075-9.239,1.717c-3.008,0.635-5.967,1.393-9.064,1.472
	c-0.967,0.022-1.84-0.029-2.799,0.116c-0.195,0.029-0.506,0.101-0.852,0.173c-3.832-0.548-7.707,0.152-10.617,3.11
	c-0.707-0.158-1.443-0.454-2.15-0.504c-1.342-0.109-1.877,0.966-2.193,2.128c-0.217,0.802-0.195,1.675-0.201,2.49
	c-0.01,0.628-0.109,1.22,0.15,1.804c0.064,0.159,0.244,0.289,0.434,0.376c-4.662,7.022-9.086,14.152-12.883,21.679
	c-1.963,3.896-3.781,7.867-5.498,11.879c-0.961,2.259-2.533,4.706-3.098,7.209c-0.129,0.578-0.201,1.154-0.201,1.738
	c-0.158,0.188-0.273,0.392-0.367,0.6c-0.434,0.116-0.896,0.253-1.352,0.196c-0.014-0.218-0.057-0.427-0.1-0.636l0.143-0.037
	c0.08-0.006,0.051-0.129-0.02-0.137l-0.152,0.008c-0.072-0.34-0.152-0.686-0.188-1.032c0.721-0.058,1.609-0.253,2.172-0.656
	l0.021-0.051l-0.051-0.058c-0.771-0.086-1.559,0.397-2.344,0.412c-0.102,0.006-0.189,0.086-0.189,0.187
	C3.9,84.425,4,84.821,4.102,85.226c-0.477,0.073-0.93,0.268-1.379,0.448c-0.498,0.209-0.951,0.346-1.436,0.446
	c-0.006,0.102-0.006,0.203-0.014,0.311c0.961-0.158,1.941-0.714,2.871-0.98c0.059,0.237,0.102,0.476,0.109,0.721
	c0.006,0.072,0.051,0.158,0.129,0.174h0.006c0.762-0.126,1.492-0.381,2.254-0.428c0.025-0.074,0.051-0.149,0.092-0.211l-0.063-0.019
	c0.049-0.151,0.094-0.296,0.145-0.44c1.096-0.815,2.287-1.449,3.471-2.193c1.775-1.111,3.377-2.316,5.354-3.038
	c-0.244,0.49-0.469,0.987-0.627,1.494v0.021c-0.166,0.383-0.324,0.772-0.477,1.162c-0.043,0.123,0.072,0.231,0.18,0.231
	c3.408,0.166,6.295,2.179,9.275,3.614c2.223,1.07,4.488,2.021,6.299,3.703c-0.461,1.465-0.93,2.931-1.5,4.359l0.188,0.016v0.071
	c-0.088,0.021-0.174,0.036-0.254,0.058c-0.15,0.381-0.316,0.765-0.488,1.147c-0.037,0.072-0.016,0.129,0.027,0.173l-0.043,0.014
	c-0.043,0.08-0.088,0.16-0.131,0.231l0.037,0.065h0.094c0.244-0.108,0.49-0.217,0.744-0.297c-0.217,0.029-0.412,0.045-0.543,0.052
	l0.088-0.08c0.822-1.774,1.486-3.63,2.113-5.507l0.051,0.059c0.115,0.115,0.281-0.037,0.223-0.174
	c-0.043-0.086-0.1-0.166-0.15-0.245c0.707-2.129,1.371-4.265,2.158-6.343c1.848-4.901,3.666-9.809,5.5-14.708
	c1.854-4.944,3.693-9.902,5.918-14.694c0.49-1.054,0.943-2.122,1.428-3.182c0.23-0.498,0.729-2.266,1.248-2.598
	c0.131,0.137,0.273,0.267,0.449,0.375c0.1,0.058,0.193-0.079,0.123-0.159c-0.08-0.086-0.152-0.181-0.219-0.274l0.016,0.007
	c0.584,0.202,1.146,0.39,1.711,0.657c0.504,0.245,0.98,0.563,1.521,0.721c0.102,0.029,0.139-0.1,0.066-0.151
	c-0.744-0.57-1.957-1.184-2.967-1.27v-0.008c-0.613-1.638-0.506-3.016,0.289-4.582c0.324-0.635,1.023-2.115,1.891-2.288
	c0.309,0.354,0.801,0.498,1.291,0.585l0.102,0.014l0.021,0.015h0.086c0.326,0.043,0.65,0.072,0.975,0.108
	c0.238,0.021,0.455,0.079,0.678,0.137l-0.021,0.022l-0.094,0.007l-0.006-0.022c-0.037,0-0.174-0.079-0.174,0.015l0.008,0.028
	c-0.645,0.202-1.076,1.126-1.342,1.631c-0.621,1.191-1.006,2.534-1.135,3.861c-0.057,0.65-0.014,1.292,0.447,1.682
	c0.102,0.094,0.217,0.166,0.361,0.224c0.852,0.346,1.494-1.148,1.725-1.66c0.246-0.549,1.365-3.435,1.191-4.756l0.072,0.101
	l0.094-0.043v-0.008c1.307,0.751,2.432,2.945,3.211,4.049c1.43,2.006,2.729,4.128,4.02,6.228c2.799,4.554,4.85,9.389,6.625,14.418
	c1.639,4.635,3.572,9.16,5.096,13.836c0.729,2.244,1.379,4.524,1.861,6.834c0.514,2.396,1.17,4.771,1.617,7.174
	c-3.443-1.407-7.182-2.569-10.783-3.355c-4.055-0.888-8.278-0.759-12.375-0.391c-4.129,0.376-8.25,1.018-12.328,1.732
	c-2.285,0.396-4.574,0.801-6.861,1.184c-1.357,0.216-2.707,0.41-4.064,0.592c-0.078,0.007-0.295,0.043-0.547,0.072
	c0.049,0.064,0.049,0.166-0.037,0.23c-0.064,0.051-0.137,0.094-0.209,0.137c1.428-0.078,2.887-0.381,4.258-0.592
	c2.064-0.316,4.127-0.678,6.186-1.039c4.287-0.736,8.594-1.363,12.918-1.826c4.314-0.453,8.667-0.519,12.946,0.311
	c3.623,0.7,7.008,2.223,10.521,3.284l0.037,0.087c-0.086-0.008-0.172-0.021-0.26-0.036c0.189,0.065,0.377,0.144,0.563,0.237
	l0.094,0.044l-0.123-0.095c0.174,0.015,0.342,0.015,0.514,0c0.094,0.029,0.18,0.059,0.273,0.08l0.023,0.008l0.057,0.021l0.072-0.102
	c0.238,0.13,0.49,0.26,0.758,0.367c0.57,0.225,1.162,0.506,1.76,0.672c-0.027,0.108,0.021,0.254,0.123,0.295l0.096,0.045
	c0.172,0.072,0.344,0,0.389-0.182c0.295,0.16,0.613,0.254,0.953,0.34c0.412,0.102,0.857,0.209,1.299,0.224
	c-0.037,0.526-0.029,1.062-0.029,1.552"/>
<path fill="#6D4983" d="M118.106,88.112c-0.273-0.015-0.648-0.007-1.004-0.035c0.16-0.268,0.297-0.549,0.42-0.736
	c0.064-0.102,0-0.217-0.102-0.246c-0.988-0.361-2.07-0.375-3.088-0.648l-0.109,0.064v0.079c-1.342-2.612-2.633-5.231-3.736-7.953
	c-1.279-3.14-2.275-6.372-3.414-9.556c-1.068-2.973-2.273-5.896-3.789-8.674c-1.689-3.117-3.053-6.408-5.146-9.28
	c-3.377-4.612-6.891-9.368-10.992-13.373c-3.779-3.695-8.557-6.921-13.971-7.296l-0.057,0.021c-0.246-0.31-0.514-0.57-0.779-0.663"
	/>
<path fill="#6D4983" d="M83.479,96.952c0.252-0.057,0.514-0.106,0.773-0.158c0.586,0.181,0.361,0.865-0.238,0.902
	c-0.23,0.008-0.389-0.08-0.506-0.217l0.008-0.043l-0.072-0.08c-0.043-0.078-0.078-0.158-0.102-0.252L83.479,96.952"/>
<path fill="#6D4983" d="M6.627,84.778c0.008-0.13,0.029-0.267,0.051-0.396c0.029-0.159,0.059-0.318,0.088-0.477
	c0.021-0.094,0.051-0.188,0.078-0.281L6.809,83.71c0.707-2.951,2.445-5.816,3.615-8.53c1.646-3.804,3.42-7.548,5.275-11.251
	c1.834-3.644,3.746-7.26,5.896-10.724c2.15-3.457,4.668-6.798,6.459-10.464c0.115,0.043,0.225,0.079,0.318,0.086
	c0.453,0.037,0.916,0.058,1.371,0.08c-1.242,0.779-2.182,3.081-2.902,4.027c-3.066,4.034-5.709,8.566-8.219,12.961
	c-2.484,4.33-4.67,8.826-6.762,13.351c-1.033,2.238-2.008,4.49-3.111,6.69C7.955,81.517,7.176,83.104,6.627,84.778"/>
<path fill="#6D4983" d="M10.129,82.794c-0.795,0.469-2.109,1.025-3.082,1.753c1.285-3.615,3.219-7.044,4.82-10.507
	c1.898-4.129,3.896-8.213,6.078-12.196c2.098-3.861,4.443-7.585,6.848-11.259c0.982-1.493,2.043-2.944,2.988-4.467
	c0.525-0.844,1.27-2.569,2.236-3.197c0.723,0.029,1.436,0.058,2.158,0.13l0.029,0.101l0.014,0.058h0.006l0.023,0.057h-0.023
	l-0.014,0.051l0.08,0.015l0.035,0.036c-1.141,1.154-1.543,3.37-2.229,4.633c-1.992,3.695-3.617,7.635-5.334,11.453
	c-1.797,3.998-3.479,8.041-5.189,12.074c-0.836,1.979-1.732,3.934-2.598,5.91c-0.23,0.506-0.498,1.018-0.779,1.521
	c0.059-0.18,0.123-0.359,0.166-0.541l-0.043-0.014c-0.123,0.368-0.26,0.729-0.404,1.084c-0.051,0.094-0.102,0.187-0.145,0.281
	C13.693,79.799,11.816,81.782,10.129,82.794"/>
<path fill="#6D4983" d="M33.604,81.083c-0.447,1.184-0.9,2.367-1.35,3.552c-0.453,1.19-0.887,2.38-1.299,3.579
	c-0.18,0.513-0.346,1.031-0.512,1.544c-0.715-0.845-1.855-1.415-2.785-1.905c-1.762-0.931-3.588-1.725-5.348-2.656
	c-1.74-0.908-3.465-1.811-5.355-2.345c-0.859-0.237-2.158,0.05-1.76-1.155l0.027-0.072l0.043-0.049
	c0.398-1.365,1.322-2.715,1.898-4.027c0.766-1.762,1.566-3.508,2.332-5.276c1.652-3.796,3.291-7.606,4.979-11.395
	c1.545-3.472,3.125-6.928,4.734-10.371c0.592-1.285,1.307-2.511,1.805-3.839c0.354-0.939,0.736-2.339,1.465-3.226l0.166-0.044
	c0.195,0.022,0.383,0.015,0.57-0.007c-0.145-0.014-0.303-0.036-0.477-0.057l0.107-0.087c0.109,0,0.225,0.007,0.332,0.007
	c0.117,0.007,0.232,0.022,0.348,0.036l0.014,0.022c0.08,0.029,0.166,0.036,0.254,0.051c-0.195,0-0.391,0.014-0.578,0.028
	c0.715,0.087,1.111,0.109,1.305,0.101c-0.092-0.036-0.186-0.058-0.279-0.079c0.086,0.007,0.172,0.014,0.266,0.014v-0.029
	c-0.209,0-0.396-0.021-0.598-0.057c0.123,0.014,0.236,0.022,0.354,0.014l0.043-0.108l-0.051-0.036
	c0.346,0.137,0.578,0.26,0.275,0.281l0.049,0.015c0.26,0.108,0.52,0.216,0.771,0.325c-0.143,0.151-0.273,0.31-0.395,0.49
	l-0.059-0.029c-5.305,8.805-10.162,18.006-13.611,27.7c-0.787,2.201-1.393,4.662-0.98,6.955c-0.059,0.059-0.125,0.109-0.182,0.182
	l0.014,0.014l0.182-0.13c0.15,0.83,0.439,1.631,0.908,2.396c2.094,3.428,7.283,4.476,10.861,3.32
	c0.066-0.021,0.109-0.064,0.131-0.115c0.035-0.115-0.059-0.273-0.23-0.246c-2.814,0.463-5.189,0.455-7.773-0.916
	c-1.783-0.945-3.002-2.41-3.471-4.373c-0.021-0.102-0.043-0.209-0.059-0.317c1.012-0.577,2.295-0.636,3.4-0.909
	c1.277-0.311,2.547-0.671,3.838-0.939c2.578-0.533,5.182-0.937,7.773-1.42C35.004,77.352,34.305,79.222,33.604,81.083"/>
<path fill="#6D4983" d="M33.893,42.697c-1.197-1.046-0.648-4.337,0.541-5.34l0.037,0.029c2.445,0.714,4.936,1.169,7.434,1.631
	c2.627,0.476,4.949,1.458,7.332,2.627c-2.359,0.526-3.84,4.518-2.584,6.581c-2.252-1.284-4.77-2.251-7.217-3.074
	c-1.422-0.476-2.793-1.111-4.186-1.667c-0.369-0.151-0.887-0.426-1.357-0.57C33.951,42.855,33.965,42.755,33.893,42.697"/>
<path fill="#6D4983" d="M34.506,37.002c-0.123,0.008-0.238,0.015-0.361,0.015v0.036c0.096,0.014,0.195,0.022,0.297,0.029
	c-0.029,0.05-0.051,0.108-0.051,0.195l0.016,0.036c-1.205,0.577-2.166,4.748-1.02,5.521c-0.092,0.014,0.066,0.079,0.305,0.166
	c-0.225-0.022-0.463-0.015-0.701,0.014l-0.029-0.022c0.08-0.057,0.152-0.122,0.232-0.166l-0.016-0.036
	c-0.18,0.065-0.332,0.159-0.482,0.267h-0.021c-0.484-0.094-0.182-2.107-0.137-2.461c0.166-1.378,0.605-2.872,1.781-3.731
	c0.201,0.072,0.305,0.094,0.34,0.101L34.506,37.002"/>
<path fill="#6D4983" d="M46.162,49.842c-0.592,1.09-1.111,2.223-1.604,3.356c-1.803,4.142-3.586,8.277-5.188,12.506
	c-1.205,3.168-2.396,6.351-3.58,9.525c-2.887,0.318-5.766,0.96-8.604,1.581c-1.471,0.325-2.914,0.794-4.371,1.155
	c-0.809,0.201-1.523,0.281-2.152,0.691c-0.555-3.174,1.012-6.666,2.18-9.511c1.617-3.94,3.277-7.845,5.182-11.655
	c2.107-4.193,4.439-8.271,6.568-12.449c-0.117,0.289-0.211,0.584-0.26,0.88l0.1,0.029c0.268-0.736,0.527-1.458,1.018-2.078
	c1.098,0.454,2.188,0.923,3.291,1.357c1.559,0.599,3.133,1.075,4.654,1.789c1.092,0.513,2.174,1.141,3.363,1.371l0.008-0.007
	c0.051,0.073,0.109,0.13,0.166,0.195C46.594,48.781,46.313,49.561,46.162,49.842"/>
<path fill="#6D4983" d="M47.49,48.557h-0.115l-0.029,0.029c-1.473-2.078-0.65-6.293,2.027-6.877l0.029,0.014
	C47.873,42.734,46.133,46.912,47.49,48.557"/>
<path fill="#6D4983" d="M49.705,41.563l-0.08-0.101c-2.041-1.118-4.141-2.027-6.416-2.547c-1.436-0.332-2.914-0.527-4.365-0.801
	c-0.627-0.116-1.256-0.246-1.883-0.375c-0.406-0.087-1.344-0.484-1.898-0.585c2.713,0.253,5.375,0.094,8.039,0.924
	c2.273,0.707,4.475,1.934,6.545,3.204c0.037,0.094,0.08,0.18,0.131,0.26L49.705,41.563"/>
<path fill="#6D4983" d="M52.656,47.979c-0.23,0.635-1.508,2.959-2.084,1.141c-0.232-0.722,0-1.632,0.156-2.339
	c0.268-1.205,0.896-3.774,2.281-4.193c0.102,0.123,0.217,0.224,0.34,0.325c-0.115,0.007-0.246,0.036-0.396,0.101
	c-1.199,0.484-2.592,4.907-1.307,5.665c0.123,0.072,0.238-0.115,0.115-0.187c-0.787-0.477-0.131-2.295,0.051-2.923
	c0.115-0.412,0.268-0.808,0.447-1.191c0.123-0.26,1.414-1.927,1.537-0.505C53.898,45.036,53.068,46.869,52.656,47.979"/>
<path fill="#6D4983" d="M76.559,93.973c-0.354-1.487-0.787-2.966-1.082-4.46c-0.49-2.533-1.197-5.01-1.979-7.462
	c-1.68-5.319-3.977-10.457-5.873-15.704c-1.74-4.828-3.955-9.346-6.684-13.698c-1.444-2.309-2.924-4.59-4.553-6.776
	c-0.637-0.859-1.314-1.992-2.316-2.447c-0.066-0.115-0.145-0.223-0.238-0.31l-0.059-0.058c-0.225-0.187-0.49-0.324-0.729-0.505
	c0.145,0.036,0.289,0.079,0.439,0.101c0.059,0.007,0.131-0.036,0.109-0.108c-0.16-0.433-0.867-0.411-1.242-0.447
	c-0.316-0.029-0.686-0.037-1.061-0.08c-0.975-0.974-2.223-1.544-3.449-2.158c-1.35-0.671-2.6-1.443-4.02-1.984
	c-2.932-1.119-5.926-0.996-8.992-0.881l-0.037-0.043c-0.527-0.289-0.266-0.195-0.887-0.303l-0.016,0.05
	c0.158,0.065,0.281,0.116,0.391,0.152c-0.195,0.108-0.375,0.245-0.541,0.39c-1.084,0.967-1.48,2.619-1.646,4.012
	c-0.027,0.246-0.072,0.989,0.021,1.537c-1.088-0.195-2.186-0.166-3.291-0.209c-0.244-0.007-0.439-0.079-0.6-0.188l0.029-0.058
	l-0.014-0.014l-0.035,0.058c-0.896-0.657-0.572-2.692-0.514-3.5c0.059-0.888,0.324-1.776,0.924-2.454
	c0.527-0.606,1.436-0.289,2.051-0.115c1.01,0.295,2.041,0.368,2.979,0.866h0.037l-0.008-0.036c-0.475-0.426-0.98-0.571-1.607-0.701
	c2.67-2.172,5.635-3.023,8.658-2.958c0.484,0.266,1.156,0.252,1.834,0.151c2.309,0.318,4.625,1.119,6.842,2.245
	c5.953,3.016,10.227,7.859,13.516,13.56c4.014,6.971,6.705,14.672,9.051,22.336c1.219,3.978,2.268,7.989,3.053,12.074
	c0.563,2.908,1.004,5.839,1.559,8.746C76.567,93.049,76.567,93.511,76.559,93.973"/>
<path fill="#6D4983" d="M72.092,29.989c0.627,0.072,1.545,2.179,1.717,2.605c0.471,1.147,0.672,2.425,0.896,3.637
	c0.533,2.88,0.664,5.853,0.801,8.776c0.252,5.564,0.164,11.121,0.504,16.685c0.355,5.651,0.838,11.293,1.004,16.952
	c0.123,3.941-0.195,7.859-0.361,11.785c-2.865-15.242-6.59-30.7-15.082-43.842"/>
<path fill="#6D4983" d="M61.571,46.586c-3.334-5.153-8.141-9.468-13.85-11.835c-1.35-0.563-2.779-1.011-4.223-1.292
	c0.273-0.05,0.527-0.101,0.736-0.13c0.678-0.08,1.363-0.072,2.053-0.064c0.625,0.007,1.252,0.014,1.873-0.044
	c1.307-0.116,2.621-0.339,3.896-0.628c6.445-1.48,13.303-3.262,19.948-2.771"/>
<path fill="#6D4983" d="M77.424,96.354c-0.137-0.014-0.266-0.021-0.41-0.014c-0.029-0.261-0.072-0.527-0.123-0.787
	c0.066-0.035,0.115-0.086,0.115-0.181c0.008-0.209,0.016-0.41,0.021-0.621c0.102,0.463,0.188,0.932,0.305,1.394
	c0.014,0.072,0.064,0.103,0.121,0.116L77.424,96.354"/>
<path fill="#6D4983" d="M80.881,96.073c-0.115,0.137-0.217,0.28-0.316,0.426c0.064,0.244-0.072,0.426-0.268,0.49
	c-0.057,0.123-0.1,0.252-0.137,0.383c-0.404-0.274-1.01-0.383-1.457-0.52c-0.355-0.115-0.707-0.225-1.068-0.324L77.7,96.52v-0.13
	l-0.043-0.007c0.209-0.289,0.432-0.577,0.672-0.845c0.049-0.071,0.1-0.129,0.15-0.201C79.288,95.567,80.102,95.747,80.881,96.073"/>
<path fill="#6D4983" d="M109.807,87.138c-1.971-0.072-3.941-0.201-5.918-0.216c-4.344-0.036-8.689,0.563-12.852,1.819
	c-2.795,0.844-5.609,1.897-8.258,3.125c-1.451,0.67-3.369,1.651-4.525,3.053c-0.092-0.016-0.195-0.037-0.287-0.051v0.014
	c-0.166-0.044-0.268,0.201-0.08,0.275l0.137,0.041c-0.145,0.196-0.273,0.405-0.383,0.623c-0.18-1.004-0.359-2.008-0.549-3.01
	c0.211-5.203,0.572-10.372,0.391-15.589c-0.223-6.358-0.83-12.687-1.154-19.038c-0.311-6.005-0.129-12.009-0.643-17.999
	c-0.225-2.605-0.549-5.239-1.465-7.7c-0.123-0.339-0.463-1.09-0.889-1.711c5.883,0.78,10.631,4.28,14.666,8.458
	c1.963,2.028,3.723,4.251,5.391,6.524c1.898,2.577,4.014,5.002,5.723,7.708c1.639,2.583,2.879,5.557,4.295,8.278
	c1.543,2.965,2.684,6.133,3.789,9.288c1.982,5.68,3.955,11.338,6.957,16.569C112.752,87.219,111.25,87.188,109.807,87.138"/>
<path fill="#6D4983" d="M116.721,88.005c-0.08-0.023-0.16-0.037-0.225-0.065l-0.051,0.065c0.045,0.05,0.123,0.086,0.188,0.123
	c-0.092,0.107-0.18,0.201-0.287,0.273c-0.289,0.194-1.018-0.246-1.371-0.361c-0.238-0.447-0.463-0.887-0.693-1.336
	c0.051,0.029,0.123,0.037,0.209,0.037l0.014-0.015c0.094,0.036,0.268,0.087,0.275,0.095c0.303,0.101,0.621,0.144,0.932,0.201
	c0.475,0.088,0.951,0.182,1.406,0.332C116.995,87.564,116.866,87.794,116.721,88.005"/>
<line fill="none" x1="0" y1="28.75" x2="0" y2="100.228"/>
<line fill="none" x1="120.19" y1="100.228" x2="120.19" y2="28.75"/>
<path fill="#8D60A8" d="M117.118,87.354c-0.123,0.209-0.252,0.44-0.396,0.65c-0.08-0.023-0.16-0.037-0.225-0.064l-0.051,0.064
	c0.045,0.05,0.123,0.086,0.188,0.123c-0.092,0.107-0.18,0.201-0.287,0.273c-0.289,0.194-1.018-0.246-1.371-0.361
	c-0.24-0.447-0.463-0.887-0.693-1.336c0.051,0.029,0.121,0.037,0.211,0.037l0.014-0.015c0.092,0.036,0.266,0.087,0.273,0.095
	c0.303,0.101,0.619,0.144,0.932,0.201C116.186,87.11,116.663,87.204,117.118,87.354"/>
<path fill="#39B8B7" d="M107.194,71.03c1.986,5.68,3.955,11.338,6.957,16.57c-1.398-0.383-2.9-0.412-4.344-0.463
	c-1.971-0.071-3.941-0.201-5.918-0.215c-4.344-0.037-8.689,0.562-12.854,1.817c-2.793,0.845-5.607,1.897-8.256,3.125
	c-1.451,0.671-3.371,1.653-4.523,3.054c-0.096-0.016-0.195-0.037-0.289-0.052v0.015c-0.166-0.043-0.268,0.203-0.08,0.274
	l0.137,0.043c-0.145,0.194-0.273,0.403-0.383,0.621c-0.18-1.003-0.361-2.007-0.547-3.009c0.209-5.204,0.57-10.371,0.389-15.59
	c-0.223-6.357-0.83-12.687-1.154-19.038c-0.311-6.004-0.131-12.009-0.643-17.999c-0.223-2.605-0.549-5.239-1.465-7.7
	c-0.123-0.339-0.463-1.09-0.887-1.71c5.881,0.779,10.629,4.279,14.664,8.458c1.963,2.028,3.723,4.25,5.391,6.524
	c1.896,2.576,4.012,5.001,5.723,7.707c1.639,2.584,2.879,5.557,4.293,8.278C104.95,64.708,106.09,67.876,107.194,71.03"/>
<path fill="#8D60A8" d="M80.881,96.073c-0.113,0.137-0.217,0.281-0.316,0.426c0.064,0.244-0.072,0.425-0.268,0.49
	c-0.057,0.123-0.102,0.252-0.137,0.383c-0.404-0.274-1.01-0.383-1.457-0.52c-0.355-0.115-0.709-0.225-1.07-0.324l0.066-0.008V96.39
	l-0.045-0.007c0.211-0.289,0.434-0.577,0.672-0.844c0.051-0.072,0.102-0.13,0.152-0.202C79.288,95.567,80.104,95.748,80.881,96.073"
	/>
<path fill="#8D60A8" d="M72.092,29.988c0.627,0.073,1.545,2.18,1.717,2.605c0.471,1.148,0.672,2.426,0.896,3.638
	c0.533,2.879,0.664,5.853,0.801,8.776c0.252,5.564,0.164,11.121,0.504,16.685c0.355,5.65,0.838,11.293,1.004,16.952"/>
<path fill="#8D60A8" d="M77.014,78.644c0.123,3.94-0.195,7.86-0.361,11.785c-2.865-15.242-6.59-30.7-15.082-43.842
	c-3.334-5.153-8.141-9.469-13.85-11.836c-1.35-0.562-2.779-1.01-4.223-1.291c0.273-0.051,0.527-0.101,0.736-0.13
	c0.678-0.08,1.363-0.072,2.053-0.064c0.625,0.007,1.252,0.014,1.873-0.045c1.307-0.115,2.621-0.339,3.896-0.628
	c6.445-1.479,13.303-3.261,19.948-2.771"/>
<path fill="#BFD47A" d="M76.569,93.37c0.004-0.258,0.004-0.521,0.012-0.776c-0.168-0.882-0.322-1.767-0.479-2.651
	c-0.236-2.119-0.439-4.246-1.047-6.279c-0.971-5.504-2.502-10.93-4.082-16.264c-1.031-3.481-2.689-6.651-3.936-10.042
	c-0.68-1.855-1.227-4.143-2.789-5.487c-0.43-0.819-0.867-1.632-1.33-2.433c-3.292-5.701-7.563-10.544-13.516-13.561
	c-1.959-0.995-3.998-1.735-6.039-2.113c-1.918-0.904-4.795-0.984-6.781-0.102c-1.791,0.492-3.422,1.397-4.334,2.563l-0.01,0.088
	l-0.172,0.127c0.629,0.13,1.133,0.275,1.611,0.7l0.006,0.036l0.057,0.066c0.166-0.145,0.348-0.282,0.543-0.39
	c-0.109-0.036-0.23-0.087-0.391-0.152l0.014-0.05c0.621,0.108,0.361,0.014,0.889,0.303l0.035,0.043
	c0.582-0.022,1.162-0.039,1.738-0.052c2.287,0.528,4.736,0.401,7.023,1.1c0.969,0.297,1.932,0.669,2.863,1.093
	c0.459,0.245,0.916,0.49,1.389,0.724c0.189,0.096,0.383,0.191,0.572,0.287c0.533,0.317,1.057,0.638,1.617,0.897
	c0.447,0.284,0.879,0.593,1.26,0.974c0.375,0.043,0.742,0.051,1.061,0.079c0.375,0.036,1.082,0.015,1.242,0.448
	c0.021,0.072-0.053,0.115-0.109,0.108c-0.152-0.022-0.295-0.065-0.439-0.101c0.238,0.18,0.506,0.317,0.729,0.505l0.057,0.058
	c0.096,0.086,0.174,0.195,0.238,0.31c1.004,0.455,1.682,1.588,2.318,2.447c1.631,2.186,3.109,4.467,4.553,6.776
	c2.729,4.352,4.943,8.87,6.684,13.698c1.896,5.247,4.191,10.385,5.873,15.704c0.025,0.075,0.045,0.151,0.07,0.226
	c0.709,2.977,1.418,5.976,2.285,8.892c0.23,0.936,0.482,1.868,0.705,2.805c0.002-0.133,0.006-0.262,0.006-0.396
	c0.088,0.4,0.18,0.799,0.262,1.199l0.033-0.011C76.792,94.296,76.68,93.833,76.569,93.37"/>
<path fill="#39B8B7" d="M74.973,88.993c0.512,2.396,1.168,4.771,1.615,7.174c-3.443-1.408-7.182-2.569-10.781-3.356
	c-4.057-0.888-8.28-0.758-12.377-0.39c-4.129,0.376-8.25,1.018-12.326,1.732c-2.289,0.396-4.576,0.801-6.865,1.184
	c-1.355,0.216-2.705,0.41-4.063,0.592c-0.078,0.007-0.297,0.043-0.549,0.072c-0.027-0.043-0.086-0.072-0.158-0.059
	c-0.174,0.029-0.34,0.08-0.506,0.137c-0.215,0.029-0.41,0.045-0.541,0.052l0.088-0.08c0.822-1.774,1.486-3.63,2.113-5.506
	l0.051,0.058c0.115,0.115,0.281-0.037,0.225-0.174c-0.043-0.086-0.102-0.166-0.152-0.245c0.707-2.129,1.371-4.265,2.158-6.344
	c1.848-4.899,3.666-9.808,5.5-14.707c1.855-4.944,3.695-9.902,5.916-14.694c0.492-1.054,0.947-2.122,1.43-3.182
	c0.23-0.498,0.729-2.267,1.248-2.599c0.131,0.138,0.275,0.268,0.447,0.376c0.102,0.058,0.195-0.08,0.123-0.159
	c-0.078-0.087-0.15-0.181-0.215-0.274l0.014,0.007c0.584,0.202,1.148,0.39,1.709,0.657c0.506,0.245,0.982,0.563,1.523,0.721
	c0.102,0.029,0.137-0.101,0.064-0.151l0.051-0.065c0.102,0.094,0.217,0.166,0.361,0.224c0.852,0.346,1.494-1.148,1.725-1.66
	c0.246-0.549,1.363-3.435,1.191-4.756l0.072,0.101l0.094-0.043v-0.008c1.305,0.751,2.432,2.945,3.211,4.049
	c1.428,2.006,2.729,4.128,4.02,6.228c2.801,4.554,4.85,9.389,6.625,14.418c1.639,4.633,3.572,9.16,5.096,13.836
	C73.838,84.403,74.489,86.684,74.973,88.993"/>
<path fill="#8D60A8" d="M53.797,43.874c0.102,1.162-0.729,2.995-1.141,4.106c-0.23,0.635-1.508,2.959-2.086,1.141
	c-0.23-0.722,0-1.632,0.16-2.339c0.266-1.205,0.895-3.774,2.279-4.193c0.102,0.123,0.217,0.224,0.34,0.325
	c-0.115,0.007-0.246,0.036-0.396,0.101c-1.199,0.484-2.592,4.907-1.307,5.665c0.123,0.072,0.238-0.115,0.115-0.187
	c-0.785-0.477-0.131-2.295,0.051-2.923c0.115-0.412,0.268-0.808,0.447-1.191C52.383,44.119,53.674,42.452,53.797,43.874
	 M51.992,47.771c0.678-1.076,1.09-2.244,0.938-3.515h-0.043c0.008,1.285-0.555,2.302-0.994,3.472L51.992,47.771"/>
<path fill="#8D60A8" d="M53.031,42.545l-0.021,0.022l-0.094,0.007l-0.008-0.022c-0.035,0-0.172-0.079-0.172,0.015l0.006,0.029
	c-0.641,0.202-1.074,1.126-1.342,1.631c-0.619,1.19-1.002,2.533-1.133,3.861c-0.059,0.649-0.014,1.291,0.447,1.681l-0.051,0.065
	c-0.744-0.57-1.955-1.184-2.965-1.27v-0.007c-0.615-1.639-0.506-3.017,0.289-4.583c0.324-0.635,1.023-2.114,1.889-2.288
	c0.313,0.354,0.803,0.498,1.293,0.585l0.102,0.014l0.021,0.015h0.086c0.324,0.043,0.65,0.072,0.975,0.108
	C52.592,42.43,52.809,42.488,53.031,42.545"/>
<path fill="#6D4983" d="M52.932,44.256c0.15,1.27-0.26,2.439-0.939,3.515l-0.102-0.044c0.441-1.169,1.004-2.186,0.998-3.471H52.932z
	"/>
<path fill="#8D60A8" d="M49.646,41.282c0.037,0.094,0.08,0.18,0.131,0.26l-0.072,0.022l-0.078-0.102
	c-2.043-1.118-4.145-2.027-6.416-2.547c-1.438-0.332-2.916-0.527-4.367-0.801c-0.627-0.116-1.256-0.246-1.883-0.375
	c-0.404-0.087-1.344-0.484-1.898-0.585c2.713,0.253,5.377,0.094,8.039,0.924C45.375,38.786,47.576,40.012,49.646,41.282"/>
<path fill="#BFD47A" d="M49.373,41.708l0.029,0.015c-1.531,1.01-3.27,5.188-1.912,6.834h-0.117l-0.027,0.028
	C45.873,46.507,46.695,42.293,49.373,41.708"/>
<path fill="#BFD47A" d="M46.768,48.384l-0.008,0.007c-1.189-0.231-2.271-0.859-3.361-1.371c-1.523-0.715-3.098-1.191-4.656-1.79
	c-1.104-0.433-2.193-0.902-3.291-1.357l-0.076,0.108l-0.016,0.001c-0.256,0.246-0.436,0.539-0.59,0.859
	c-0.039,0.081-0.08,0.164-0.121,0.248c-0.047,0.073-0.102,0.143-0.148,0.216c0.031-0.088,0.059-0.176,0.092-0.263
	c-0.131,0.257-0.268,0.511-0.4,0.768l-0.1,0.191c-1.99,3.844-4.121,7.62-6.066,11.49c-1.904,3.811-3.564,7.716-5.182,11.655
	c-1.17,2.844-2.734,6.337-2.18,9.512c0.629-0.411,1.342-0.491,2.152-0.692c1.457-0.36,2.9-0.83,4.373-1.154
	c2.836-0.621,5.715-1.264,8.602-1.581c1.184-3.175,2.375-6.358,3.58-9.526c1.602-4.229,3.385-8.364,5.189-12.507
	c0.488-1.133,1.01-2.266,1.602-3.355c0.15-0.282,0.432-1.061,0.771-1.263C46.875,48.513,46.818,48.456,46.768,48.384 M46.695,48.492
	c-0.383,0.895-0.699,1.862-1.451,2.533l-0.072-0.072c0.621-0.765,0.967-1.66,1.438-2.519L46.695,48.492"/>
<path fill="#6D4983" d="M46.609,48.435l0.086,0.058c-0.383,0.894-0.699,1.862-1.451,2.533l-0.07-0.072
	C45.793,50.188,46.141,49.293,46.609,48.435"/>
<path fill="#8D60A8" d="M49.236,41.643c-2.361,0.527-3.84,4.518-2.584,6.582c-2.252-1.285-4.77-2.252-7.217-3.074
	c-1.422-0.477-2.793-1.112-4.186-1.668c-0.367-0.151-0.889-0.426-1.357-0.57c0.059-0.057,0.072-0.159,0-0.216
	c-1.197-1.047-0.65-4.338,0.541-5.341l0.037,0.029c2.445,0.715,4.936,1.169,7.434,1.631C44.531,39.492,46.854,40.474,49.236,41.643"
	/>
<path fill="#95A861" d="M35.697,75.491c-0.693,1.86-1.393,3.73-2.094,5.593c-0.447,1.183-0.902,2.366-1.348,3.551l-0.037-0.022
	c0.037-0.115-0.059-0.273-0.23-0.246c-2.814,0.463-5.189,0.455-7.773-0.916c-1.781-0.945-3.002-2.41-3.471-4.373
	c-0.021-0.102-0.043-0.209-0.059-0.317c1.01-0.577,2.295-0.636,3.4-0.909c1.277-0.311,2.547-0.671,3.838-0.939
	C30.502,76.378,33.105,75.974,35.697,75.491"/>
<path fill="#8D60A8" d="M35.352,43.83c-0.254-0.108-0.514-0.217-0.773-0.325l-0.051-0.014h-0.006
	c-0.195,0.007-0.594-0.015-1.307-0.101c-0.188,0.021-0.375,0.028-0.57,0.007l-0.166,0.043c-0.729,0.888-1.111,2.288-1.465,3.226
	c-0.498,1.328-1.213,2.555-1.805,3.84c-1.609,3.442-3.189,6.899-4.734,10.37c-1.688,3.789-3.326,7.6-4.979,11.395
	c-0.766,1.77-1.566,3.516-2.332,5.277c-0.578,1.313-1.5,2.662-1.896,4.026l-0.045,0.051l-0.027,0.072
	c-0.398,1.205,0.9,0.916,1.76,1.153c1.891,0.535,3.615,1.438,5.355,2.347c1.76,0.931,3.586,1.726,5.348,2.655
	c0.93,0.49,2.07,1.062,2.785,1.906c0.166-0.514,0.332-1.033,0.512-1.545c0.412-1.199,0.844-2.389,1.299-3.58l-0.035-0.021
	c-0.021,0.05-0.064,0.094-0.131,0.115l-0.125,0.033c-0.055-0.065-0.131-0.111-0.225-0.103c-1.086,0.106-2.104,0.03-3.188-0.017
	c-0.506-0.022-0.998-0.012-1.486-0.035c-0.252-0.031-0.51-0.055-0.762-0.079c-0.094-0.015-0.188-0.039-0.281-0.06
	c-1.764-0.75-3.201-1.179-4.361-2.91c-0.814-1.217-0.957-2.517-1.242-3.824c0.059-1.975,0.684-3.992,1.291-5.801
	c1.197-3.551,2.768-7.023,4.348-10.417c1.484-3.187,3.182-6.272,4.771-9.407c0.801-1.579,1.641-3.142,2.494-4.695
	c0.32-0.584,0.572-1.338,0.91-2.002c0.109-0.184,0.219-0.37,0.328-0.554c0.15-0.218,0.316-0.417,0.514-0.576
	c0.068-0.054,0.08-0.123,0.061-0.186C35.207,44.007,35.273,43.912,35.352,43.83"/>
<path fill="#BFD47A" d="M34.658,36.967l-0.152,0.036c-0.121,0.007-0.238,0.015-0.359,0.015v0.036
	c0.092,0.014,0.193,0.022,0.295,0.029c-0.029,0.05-0.051,0.108-0.051,0.194l0.014,0.036c-1.205,0.578-2.164,4.749-1.016,5.522
	c-0.096,0.014,0.064,0.079,0.303,0.166c-0.225-0.022-0.463-0.015-0.701,0.014l-0.029-0.022c0.08-0.058,0.152-0.123,0.232-0.166
	l-0.014-0.036c-0.182,0.065-0.332,0.159-0.484,0.267h-0.023c-0.482-0.094-0.18-2.107-0.137-2.461
	c0.166-1.378,0.607-2.872,1.783-3.731C34.521,36.938,34.621,36.96,34.658,36.967"/>
<path fill="#8D60A8" d="M33.684,37.176l0.059,0.065c-1.084,0.967-1.48,2.62-1.646,4.012c-0.027,0.246-0.072,0.989,0.021,1.538
	c-1.09-0.195-2.188-0.166-3.291-0.209c-0.244-0.008-0.439-0.08-0.6-0.188l0.029-0.058l-0.014-0.014l-0.035,0.057
	c-0.896-0.656-0.572-2.692-0.514-3.5c0.059-0.887,0.324-1.775,0.924-2.454c0.527-0.606,1.436-0.288,2.051-0.115
	c1.01,0.296,2.041,0.368,2.98,0.866H33.684z"/>
<path fill="#009A8A" d="M32.291,43.332l0.035,0.036c-1.139,1.155-1.545,3.37-2.229,4.633c-1.992,3.695-3.617,7.636-5.334,11.453
	c-1.797,3.998-3.479,8.04-5.189,12.074c-0.836,1.979-1.73,3.934-2.598,5.911c-0.23,0.505-0.498,1.017-0.779,1.522
	c0.057-0.182,0.123-0.361,0.166-0.541l-0.043-0.016c-0.123,0.368-0.26,0.729-0.404,1.083c-0.051,0.094-0.102,0.187-0.145,0.282
	c-2.078,0.027-3.955,2.013-5.645,3.023c-0.793,0.469-2.105,1.024-3.08,1.754c1.283-3.617,3.219-7.045,4.82-10.508
	c1.898-4.128,3.898-8.213,6.076-12.197c2.1-3.861,4.445-7.585,6.85-11.258c0.98-1.494,2.041-2.945,2.988-4.467
	c0.525-0.845,1.268-2.57,2.236-3.198c0.721,0.029,1.436,0.058,2.156,0.13l0.029,0.102l0.016,0.057h0.008l0.021,0.058h-0.021
	l-0.016,0.051L32.291,43.332"/>
<path d="M29.627,96.001c0.051,0.064,0.051,0.166-0.035,0.23c-0.064,0.051-0.137,0.094-0.209,0.138
	c-0.391,0.028-0.779,0.028-1.162,0.007c0.246-0.109,0.49-0.217,0.744-0.296C29.18,96.06,29.418,96.028,29.627,96.001"/>
<path d="M29.469,95.943c0.072-0.015,0.131,0.014,0.16,0.058c-0.209,0.028-0.449,0.059-0.664,0.079
	C29.131,96.022,29.297,95.972,29.469,95.943"/>
<path fill="#6D4983" d="M26.533,97.229c0.27-0.065,0.545-0.093,0.824-0.099c0.699-0.116,1.434-0.387,2.025-0.762
	c-0.391,0.028-0.779,0.028-1.162,0.008c-0.447,0.188-0.902,0.375-1.414,0.404h-0.008c-0.021-0.066-0.051-0.131-0.08-0.195
	l0.117-0.101l-0.051-0.065l-0.115,0.043c-0.217-0.533-0.441-1.125-0.297-1.154c0.447-0.102,0.895-0.18,1.35-0.266l0.006,0.006
	l0.023-0.006c0.289-0.059,0.576-0.117,0.865-0.189l-0.008-0.043c-0.086,0.007-0.166,0.014-0.252,0.021
	c0.123-0.029,0.246-0.058,0.367-0.086l0.066-0.145c-0.318,0-0.613,0.123-0.896,0.268c-0.619,0.043-1.24,0.064-1.854,0.158
	c-0.072,0.016-0.129,0.094-0.129,0.165c0.027,0.506,0.209,0.96,0.396,1.416c-0.455,0.173-0.924,0.324-1.387,0.483l-0.043-0.094
	c-0.268-0.037-0.432,0.151-0.584,0.338l-0.021-0.078c-0.094-0.441-0.152-0.875-0.305-1.299l-0.043-0.022l0.059-0.05
	c0.209-0.211,0.252-0.514,0.195-0.795c-0.016-0.072-0.109-0.123-0.182-0.101c-0.266,0.087-1.133,0.324-0.932,0.786
	c0.053,0.109,0.139,0.174,0.232,0.217l-0.051,0.057l0.051,0.123c0.137,0.059,0.281,0.009,0.412-0.071l0.166,0.014
	c0.014,0.47,0.043,0.931,0.1,1.401c0.037,0.273,0.059,0.736,0.361,0.857c0.109,0.045,0.188-0.078,0.174-0.172
	c-0.045-0.246-0.123-0.498-0.188-0.744c0.07-0.037,0.143-0.072,0.223-0.108l0.029,0.153c0.137-0.045,0.273-0.088,0.383-0.125
	c0.461-0.158,0.996-0.287,1.436-0.547C26.449,96.962,26.492,97.095,26.533,97.229 M23.594,95.82l-0.049,0.028l-0.102-0.072
	c-0.289-0.18,0.174-0.359,0.461-0.447C23.891,95.531,23.783,95.697,23.594,95.82"/>
<path fill="#39B8B7" d="M28.371,42.827c0.455,0.036,0.918,0.058,1.371,0.079c-1.24,0.78-2.178,3.082-2.9,4.027
	c-3.066,4.035-5.707,8.567-8.221,12.962c-2.48,4.33-4.668,8.826-6.762,13.35c-1.031,2.238-2.006,4.49-3.109,6.691
	c-0.795,1.58-1.574,3.168-2.121,4.842c0.006-0.129,0.027-0.267,0.049-0.396c0.029-0.159,0.059-0.318,0.088-0.477
	c0.02-0.094,0.049-0.188,0.078-0.281c0.072-0.159,0.137-0.311,0.188-0.463c0.043-0.078,0.088-0.15,0.139-0.209l-0.066-0.036
	c-0.014,0.079-0.043,0.159-0.072,0.245c-0.07,0.138-0.137,0.297-0.188,0.463L6.809,83.71c0.707-2.952,2.447-5.816,3.615-8.53
	c1.645-3.804,3.422-7.549,5.275-11.251c1.832-3.645,3.746-7.26,5.896-10.724c2.15-3.457,4.67-6.798,6.459-10.465
	C28.17,42.784,28.277,42.82,28.371,42.827"/>
<path d="M28.979,94.615v0.072c-0.086,0.021-0.174,0.036-0.252,0.058l0.064-0.145L28.979,94.615z"/>
<path fill="#8D60A8" d="M28.234,95.893c0.174-0.384,0.34-0.765,0.492-1.147c-0.123,0.028-0.246,0.057-0.369,0.086
	c0.086-0.007,0.166-0.014,0.252-0.021l0.008,0.044c-0.289,0.071-0.578,0.13-0.865,0.188l-0.021,0.006l-0.008-0.006
	c-0.35,0.065-0.693,0.133-1.037,0.205l-0.055-0.011l-0.016,0.022l-0.18,0.037c-0.088-0.059-0.184-0.103-0.291-0.109
	c-0.117-0.008-0.217,0.125-0.18,0.234c0.154,0.459,0.35,0.879,0.42,1.365c0.059,0.411,0.629,0.309,0.707-0.044
	c0.398-0.067,0.766-0.214,1.129-0.366h-0.094l-0.037-0.064c0.045-0.072,0.088-0.153,0.131-0.232l0.043-0.014
	C28.221,96.022,28.199,95.964,28.234,95.893"/>
<path d="M27.621,96.246c0.008,0.123-0.195,0.123-0.188,0l0.008-0.151c0.008-0.108,0.166-0.108,0.174,0L27.621,96.246z"/>
<path d="M7.104,82.916l0.066,0.037c-0.051,0.058-0.094,0.129-0.139,0.208C7.061,83.075,7.09,82.996,7.104,82.916"/>
<path d="M7.031,83.161c-0.051,0.152-0.115,0.303-0.188,0.463C6.895,83.458,6.961,83.298,7.031,83.161"/>
<path fill="#8D60A8" d="M4.346,85.968l0.08,0.069l0.016,0.044c0.055,0.117,0.174,0.146,0.283,0.119
	c0.068,0.02,0.139,0.029,0.207,0.037c0.41-0.094,0.816-0.2,1.227-0.266c0.115-0.048,0.229-0.094,0.334-0.138
	c0.121-0.051,0.189-0.13,0.201-0.265c0.016-0.207,0.078-0.393,0.053-0.602c-0.023-0.179-0.197-0.244-0.326-0.15
	c-0.014-0.111-0.033-0.221-0.041-0.336L6.371,84.29c0.035-0.273,0.08-0.545,0.141-0.818l-0.043-0.008l-0.021,0.051l-0.195,0.109
	c-0.295-0.121-0.563-0.048-0.871,0.008c-0.424,0.076-0.848,0.162-1.266,0.271c-0.15,0.039-0.254,0.211-0.205,0.361
	c0.043,0.135,0.092,0.267,0.139,0.398C4.037,85.108,4.135,85.627,4.346,85.968 M5.314,84.454c0.072-0.094,0.158-0.123,0.268-0.073
	l0.166,0.08c0.064,0.036,0.064,0.138,0,0.173L5.582,84.72l-0.195-0.014l-0.094,0.064C5.098,84.612,5.213,84.584,5.314,84.454"/>
<path fill="#8D60A8" d="M5.748,84.461c0.064,0.036,0.064,0.138,0,0.173L5.582,84.72l-0.195-0.014l-0.094,0.064
	c-0.195-0.158-0.08-0.187,0.021-0.316c0.072-0.094,0.158-0.123,0.268-0.073L5.748,84.461z"/>
<path fill="#6D7D47" d="M0.27,85.089l0.064,0.029L0.27,85.089z M0.379,85.14c0.158,0.107,0.338,0.244,0.504,0.18
	c0.158-0.064,0.246-0.252,0.275-0.404c0.123-0.707-0.578-0.346-0.91-0.107c0.145,0.188,0.354,0.267,0.584,0.303l-0.006,0.072
	C0.66,85.197,0.508,85.19,0.379,85.14 M0.219,85.067c-0.08-0.059-0.145-0.131-0.201-0.225l0.014-0.129
	c0.268-0.232,0.707-0.607,1.098-0.441c0.244,0.102,0.311,0.396,0.289,0.643c-0.023,0.195-0.109,0.404-0.26,0.541
	c0.094,0.426,0.07,0.902,0.078,1.321c0,0.245,0.115,0.7-0.121,0.858H1.02c-0.252-0.172-0.129-0.736-0.123-0.996
	c0.016-0.338-0.006-0.707,0.053-1.054c-0.326,0.095-0.693-0.106-0.795-0.418L0.219,85.067z"/>
<path fill="#543465" d="M0.248,84.808c0.332-0.238,1.031-0.6,0.908,0.107c-0.027,0.152-0.113,0.34-0.273,0.404
	c-0.166,0.064-0.346-0.072-0.504-0.18c0.129,0.051,0.281,0.058,0.447,0.043l0.006-0.072C0.602,85.074,0.393,84.995,0.248,84.808"/>
<path d="M0.27,85.089l0.064,0.029L0.27,85.089z"/>
<path fill="#09ADB0" d="M76.502,96.097c-1.066-0.529-2.199-0.939-3.342-1.318c0.164-0.123,0.213-0.402-0.012-0.513
	c-6.346-3.129-14.661-2.461-21.469-1.856c-3.721,0.33-7.418,0.858-11.086,1.558c-1.793,0.341-3.584,0.69-5.383,0.997
	c-1.088,0.184-2.182,0.334-3.277,0.465c-0.281,0.033-1.834,0.348-2.576,0.176c0.297-0.927,0.582-1.854,0.863-2.779h0.002
	c1.58-3.356,2.656-7.09,3.799-10.615c1.295-3.989,2.707-7.94,4.141-11.881c1.516-4.176,3.145-8.263,4.986-12.308
	c0.463-1.017,3.756-9.095,3.582-9.165c0.172,0.069,0.268-0.198,0.121-0.288l-0.146-0.09c0.418,0.087,0.842,0.334,1.27,0.283
	c0.059-0.007,0.084-0.097,0.016-0.111c-0.568-0.115-1.268-0.498-1.83-0.206l0.018,0.041l0.174-0.03
	c-2.305,2.825-3.209,6.833-4.615,10.137c-1.637,3.845-3.01,7.796-4.432,11.724c-1.506,4.163-2.9,8.366-4.377,12.538
	c-1.436,4.056-3.164,8.095-3.951,12.347l0.008-0.064l-0.025-0.012c-0.164,0.236-0.328,0.47-0.494,0.705
	c-0.123,0.135-0.035,0.342,0.145,0.351c3.383,0.169,6.836-0.579,10.146-1.19c3.836-0.711,7.658-1.34,11.541-1.75
	c3.682-0.386,7.381-0.554,11.081-0.477c1.641,0.036,3.213,0.206,4.762,0.465c1.457,0.443,2.922,0.865,4.365,1.357
	c1.881,0.643,3.828,1.675,5.783,2.017C76.577,96.651,76.801,96.245,76.502,96.097"/>
<path fill="#09A3A5" d="M49.953,49.853c-0.463-0.398-1.049-0.565-1.617-0.767c-0.668-0.238-1.338-0.495-2.014-0.713l0.1-0.14
	l-0.014-0.024c-0.076,0.029-0.137,0.073-0.191,0.128l-0.111-0.038l0.01-0.076l-0.121-0.033c-0.445,1.035-0.969,2.076-1.328,3.143
	c-0.025,0.074,0.078,0.107,0.117,0.05c0.357-0.512,0.711-1.11,0.969-1.735c0.135-0.212,0.225-0.455,0.326-0.682
	c0.051-0.114,0.104-0.272,0.162-0.42c0.398,0.261,0.844,0.433,1.291,0.608c0.754,0.295,1.553,0.676,2.348,0.826
	C49.947,49.993,50.018,49.907,49.953,49.853"/>
<path fill="#09A3A5" d="M114.973,87.325c-7.617-0.932-16.006-0.963-23.471,0.984c-3.387,0.885-6.893,2.064-9.859,3.949
	c-1.52,0.965-3.924,1.957-4.67,3.754c-0.129-0.52-0.361-1.076-0.486-1.524c-0.375-1.33-0.703-2.674-1.031-4.017
	c-0.648-2.662-1.201-5.349-1.967-7.981c-1.42-4.879-3.129-9.8-4.953-14.543c-1.695-4.418-3.986-8.617-6.219-12.781
	c-2.154-4.017-4.684-8.644-8.266-11.576c-0.07-0.057-0.201,0.021-0.137,0.106c1.357,1.813,2.863,3.493,4.148,5.366
	c1.281,1.87,2.395,3.849,3.471,5.843c2.318,4.298,4.607,8.662,6.396,13.209c1.781,4.525,3.283,9.26,4.729,13.904
	c0.742,2.395,1.262,4.85,1.828,7.289c0.262,1.121,0.527,2.242,0.803,3.358c0.291,1.173,1.078,2.75,1.078,3.939
	c0,0.459,0.711,0.459,0.711,0v-0.142c1.287-2.058,3.898-3.244,5.939-4.412c2.973-1.699,6.627-2.648,9.941-3.434
	c3.611-0.855,7.363-1.014,11.059-1.07c3.66-0.056,7.316,0.024,10.955,0.477C115.418,88.079,115.415,87.38,114.973,87.325"/>
<path fill="#09A3A5" d="M72.981,29.94c0.004,0.091,0.023,0.173,0.051,0.251l-0.006-0.002c-0.125-0.025-0.211,0.145-0.09,0.212
	l0.027,0.028c0.006,0.062,0.037,0.123,0.107,0.149l0.051,0.019c-0.029,0.068-0.012,0.161,0.076,0.198
	c2.715,1.124,5.58,1.903,8.215,3.214c2.617,1.303,4.836,3.51,6.805,5.629c4.09,4.401,7.75,9.552,10.947,14.631
	c3.184,5.064,5.9,10.762,7.938,16.38c1.969,5.434,3.477,11.4,6.707,16.25c0.264,0.398,0.908,0.025,0.643-0.375"/>
<path fill="#09A3A5" d="M114.452,86.524c-3.563-5.338-5.021-11.977-7.34-17.899c-2.217-5.659-5.066-11.29-8.408-16.364
	c-3.201-4.859-6.803-9.766-10.84-13.969c-1.791-1.866-3.838-3.613-6.121-4.846c-0.291-0.156-0.592-0.287-0.889-0.426l0.002-0.146
	c-2.063-1.487-5.084-2.626-7.65-2.612l-0.076-0.074h-0.021l-0.021,0.014c-0.035-0.079-0.07-0.159-0.078-0.262"/>
<path fill="#09A3A5" d="M74.122,30.77l0.088,0.002c0.73,0.086,1.447,0.33,2.123,0.595l0.135,0.062
	C75.688,31.203,74.901,30.989,74.122,30.77"/>
<path fill="#09A3A5" d="M30.018,42.667c-0.092-0.284-0.525-0.264-0.77-0.277c-0.461-0.023-0.92,0.062-1.373,0.128
	c-0.066,0.01-0.041,0.099,0.014,0.106l0.068,0.005c-0.041,0.038-0.043,0.12,0.029,0.144l0.066,0.011l0.059,0.032h0.037l0.002-0.015
	c0.201,0.037,0.404,0.041,0.609,0.039c0.162-0.001,0.32-0.011,0.48,0.016c0.146,0.025,0.287,0.114,0.428,0.162L29.732,43
	l-0.072,0.152l0.059,0.044c0.08-0.096,0.123-0.298,0.236-0.35l-0.021-0.071l0.045-0.01L30.018,42.667z"/>
<path fill="#39B8B7" d="M29.781,42.578c-0.459,0.08-0.264,0.025-0.701,0.213l0.018,0.041c0.26-0.042-0.008,0.31-0.279,0.62
	c-0.561,0.477-1.033,1.072-1.459,1.711c0.246-0.503,0.48-1.006,0.68-1.503l-0.053-0.03c-0.365,0.413-0.723,0.854-1.068,1.311
	l-0.135,0.071c-0.098,0.164-0.188,0.332-0.279,0.499c-0.17,0.235-0.344,0.463-0.508,0.704c0.654-1.081,1.311-2.164,1.969-3.241
	c0.051-0.084-0.07-0.178-0.139-0.105c-1.014,1.082-1.65,2.541-2.451,3.787c-1.025,1.592-2.096,3.155-3.115,4.751
	c-2.121,3.324-4.037,6.86-5.928,10.32c-1.959,3.586-3.648,7.319-5.316,11.049c-0.814,1.824-1.572,3.671-2.355,5.51
	c-0.666,1.566-1.574,3.042-1.877,4.736l0.004,0.137c-0.057,0.193-0.098,0.376-0.113,0.539c-0.203,0.492-0.32,0.977,0.02,1.064
	l0.111-0.045l0.018-0.056l-0.006,0.091l-0.01,0.027l0.063,0.025c0.068-0.097,0.123-0.207,0.188-0.307
	c0.24,0.007,0.451-0.264,0.297-0.482c0.479-0.849,0.842-1.787,1.127-2.719c0.043-0.076,0.078-0.14,0.098-0.176
	c0.879-1.648,1.637-3.355,2.441-5.041c1.951-4.077,3.842-8.189,5.857-12.235c3.699-7.428,8.203-14.373,13.037-21.098
	C29.979,42.657,29.871,42.563,29.781,42.578 M23.027,51.597c-0.229,0.364-0.459,0.728-0.674,1.104
	c-2.389,4.176-4.822,8.309-6.934,12.637c-1.896,3.888-3.738,7.808-5.576,11.724c0.561-1.326,1.117-2.658,1.703-3.975
	c1.666-3.734,3.381-7.447,5.309-11.054c2.086-3.901,4.314-7.748,6.586-11.563c-0.168,0.312-0.33,0.622-0.488,0.928
	C22.912,51.478,22.961,51.561,23.027,51.597"/>
<path fill="#00887A" d="M32.725,43.25c-0.174-0.092-0.375-0.171-0.588-0.236l0.031-0.153c-0.26-0.23-0.625-0.205-0.957-0.21
	c-0.506-0.007-1.014,0.052-1.52-0.015l-0.025,0.1c0.07,0.032,0.141,0.057,0.211,0.08c-2.355,1.834-3.506,4.845-5.068,7.306
	c-2.313,3.649-4.496,7.381-6.514,11.202c-2.023,3.832-3.877,7.75-5.789,11.637c-1.863,3.788-3.396,7.7-5.16,11.53
	c-0.146,0.143-0.289,0.288-0.422,0.439c-0.066,0.074-0.043,0.192,0.059,0.223l0.09,0.025l0.037-0.021
	c-0.006,0.02,0.111-0.059,0.281-0.173c0.084,0.032,0.178,0.015,0.23-0.091l0.045-0.1c0.477-0.334,1.057-0.752,0.844-0.592
	c0.75-0.561,1.582-1.032,2.363-1.552c1.578-1.052,3.381-1.621,4.98-2.601c0.223-0.138,0.07-0.455-0.172-0.408
	c-1.83,0.352-3.578,1.477-5.115,2.486c-0.795,0.524-1.672,1.077-2.461,1.703c1.535-3.324,2.836-6.75,4.467-10.035
	c1.824-3.681,3.59-7.391,5.465-11.047c1.871-3.647,3.922-7.191,6.074-10.677c1.891-3.057,3.494-6.596,6.021-9.182l0.002-0.004
	l0.189,0.024l-0.035,0.004l0.006,0.033c0.078-0.009,0.156-0.011,0.234-0.012c0.07,0.007,0.137,0.022,0.209,0.026
	c0.094,0.007,0.188,0.008,0.281,0.011c0.561,0.085,1.123,0.289,1.668,0.365L32.725,43.25z"/>
<path fill="#916CAF" d="M34.762,43.382c-0.492-0.227-1-0.17-1.518-0.128c-0.172-0.018-0.344-0.042-0.514-0.067l-0.018-0.062
	c-0.127-0.032-0.25-0.037-0.375-0.033c-0.111-0.01-0.223-0.012-0.34-0.036l-0.035-0.03l-0.02,0.018l-0.049-0.009
	c-0.072-0.025-0.152,0.028-0.174,0.099l-0.053,0.16c-0.324,0.378-0.471,0.908-0.621,1.425c-0.645,1.158-0.986,2.683-1.449,3.668
	c-0.92,1.958-1.633,4.014-2.559,5.975c-1.055,2.237-2.234,4.418-3.305,6.649c-3.268,6.799-6.158,13.8-9.033,20.769
	c-0.158,0.24-0.301,0.489-0.377,0.784c-0.045,0.171,0.107,0.305,0.271,0.272l0.129-0.047h0.1c0.08-0.029,0.131-0.07,0.166-0.121
	c0.072,0.106,0.174,0.162,0.307,0.026l0.029-0.172l0.002-0.003l0.002,0.001v-0.003l0.045-0.137c0.004-0.103,0.025-0.203,0.049-0.305
	c1.18-2.207,2.047-4.585,2.986-6.896c1.715-4.217,3.506-8.395,5.438-12.516c1.723-3.675,3.697-7.234,5.26-10.981
	c0.611-1.467,1.215-2.94,1.752-4.436c0.389-1.079,0.779-3.013,1.801-3.697c0.066-0.044,0.078-0.123,0.061-0.19
	c0.516,0.127,1.111,0.204,1.557,0.097v-0.09c0.152,0.017,0.305,0.035,0.459,0.077L34.762,43.382"/>
<path fill="#916CAF" d="M32.242,42.577c-0.758-0.414-1.764-0.471-2.607-0.541c-0.385-0.031-1.053-0.117-1.506,0.068l0.047-0.116
	c0.053,0.039,0.088,0.034,0.199-0.001l-0.006-0.038c-0.303,0.035,0.361-0.1,0.363-0.1c0.287-0.025,0.58,0.011,0.865,0.034
	c0.592,0.048,1.23,0.257,1.813,0.085c0.121-0.036,0.115-0.2,0-0.239c-0.561-0.192-1.227-0.169-1.813-0.203
	c-0.479-0.028-0.963,0.02-1.4,0.214c-0.012-0.098-0.045-0.199-0.074-0.32c-0.127-0.536-0.107-1.12-0.096-1.666
	c0.023-1.108,0.262-2.174,0.791-3.147c0.043-0.078-0.027-0.172-0.115-0.149c-1,0.265-1.211,1.869-1.33,2.702
	c-0.09,0.637-0.426,2.807,0.441,3.075l0.098-0.006c-0.068,0.056-0.131,0.121-0.174,0.204l0.031,0.051
	c1.463-0.081,2.881,0.174,4.299,0.502C32.311,43.042,32.471,42.702,32.242,42.577"/>
<line fill="none" x1="0" y1="0" x2="0" y2="128.977"/>
<line fill="none" x1="120.19" y1="128.977" x2="120.19" y2="0"/>
<path fill="#916CAF" d="M35.238,43.871c-0.338-0.232-0.697-0.245-1.096-0.236v0.034c0.389,0.011,0.725,0.064,1.07,0.246
	L35.238,43.871z"/>
<path fill="#916CAF" d="M65.067,29.62c-3.689,0.509-7.336,1.238-10.977,2.022c-3.602,0.776-7.215,1.084-10.84,1.661
	c-0.123,0.02-0.125,0.233,0,0.25c2.521,0.341,5.145-0.153,7.629-0.59c2.961-0.521,5.889-1.224,8.84-1.787
	c0.832-0.158,11.119-2.505,12.691-0.909c-0.021,0.056-0.006,0.124,0.072,0.146l0.055,0.026c0.035,0.069,0.063,0.142,0.072,0.223
	c0.025,0.215,0.238,0.296,0.387,0.232c0.578,0.994,0.742,3.186,0.936,3.855c0.789,2.756,1.127,5.466,1.305,8.322
	c0.346,5.576,0.494,11.141,0.551,16.726c0.055,5.327,0.668,10.61,0.936,15.927c0.266,5.274-0.275,10.531-0.221,15.801
	c0.004,0.287,0.418,0.278,0.439,0c0.443-5.51,0.887-10.945,0.604-16.487"/>
<path fill="#916CAF" d="M77.545,75.037c-0.309-6.026-0.898-11.985-0.936-18.026c-0.037-5.815-0.314-11.652-0.795-17.448
	c-0.195-2.342-1.148-4.49-1.594-6.769c-0.162-0.833-0.391-1.891-1.115-2.37c-0.352-2.514-6.541-1.011-8.039-0.804"/>
<line fill="none" x1="0" y1="28.75" x2="0" y2="100.228"/>
<line fill="none" x1="120.19" y1="100.228" x2="120.19" y2="28.75"/>
<path fill="#916CAF" d="M58.93,43.65l-0.018,0.004c0.037,0.159,0.131,0.249,0.244,0.365l0.012-0.012
	C59.059,43.91,58.979,43.792,58.93,43.65"/>
<path fill="#6D4983" d="M77.596,76.489h-0.063c-0.191,5.985-0.807,12.059-0.691,18.041c0.002,0.158,0.232,0.155,0.242,0
	C77.43,88.538,77.76,82.491,77.596,76.489"/>
<path fill="#6D4983" d="M32.477,42.745c-0.371-0.139-0.822-0.115-1.215-0.191c-0.428-0.082-0.881-0.249-1.32-0.238
	c-0.197,0.005-2.006,0.165-2.035,0.009h-0.033c-0.068,0.405,1.219,0.274,1.379,0.272c0.307-0.003,0.592,0.021,0.879,0.056
	c-0.109,0.041-0.215,0.085-0.324,0.146l0.014,0.024c0.148-0.066,0.293-0.118,0.439-0.157c0.303,0.042,0.605,0.099,0.924,0.17
	c0.375,0.082,0.969,0.288,1.311,0.033L32.477,42.745z"/>
<path fill="#6D4983" d="M31.594,43.044c-0.4,1.512-1.322,3.091-1.895,4.566c-0.678,1.754-1.57,3.428-2.293,5.168
	c-1.625,3.917-3.402,7.756-5.217,11.589c-1.654,3.491-3.102,7.065-4.713,10.573c-0.709,1.545-1.307,3.127-1.977,4.688
	c-0.373,0.872-0.857,1.757-0.984,2.706l0.006,0.102c0.043,0.127,0.27,0.114,0.289-0.055l0.002-0.01
	c0.117-0.047,0.227-0.111,0.344-0.199l-0.027-0.066c-0.098,0.035-0.195,0.084-0.293,0.127c0.184-1.153,0.848-2.237,1.283-3.309
	c0.688-1.693,1.5-3.345,2.172-5.042c1.508-3.819,3.266-7.524,5.016-11.236c1.527-3.236,2.996-6.489,4.35-9.801
	c0.715-1.746,1.578-3.422,2.285-5.169c0.594-1.466,1.553-3.052,1.701-4.626L31.594,43.044"/>
<path fill="#6D4983" d="M33.75,37.045l-0.088-0.101c-0.416,0.003-0.893-0.087-1.178-0.412l-0.055,0.04
	c0.264,0.399,0.754,0.528,1.207,0.555l-0.127,0.132l0.051,0.05c0.184-0.12,0.371-0.237,0.586-0.294
	c0.314-0.083,0.465,0.159,0.693,0.303l0.07-0.053C34.805,36.672,34.154,36.773,33.75,37.045"/>
<path fill="#6D4983" d="M35.641,43.839c-0.262-0.253-0.68-0.338-1.014-0.463c-0.332-0.125-0.66-0.245-1.012-0.273
	c0.088-0.023,0.168-0.064,0.209-0.148l-0.029-0.07c-0.367-0.123-0.826,0.064-1.217,0.011c-0.125-0.018-0.176,0.149-0.053,0.192
	c0.246,0.083,0.527,0.059,0.781,0.048l0.178-0.011l0.037,0.12c0.34,0.143,0.688,0.268,1.029,0.408
	c0.324,0.134,0.678,0.353,1.035,0.316L35.641,43.839z"/>
<path fill="#6D4983" d="M48.35,48.778c-0.424-0.134-0.727-0.292-1.057-0.593l-0.076,0.075c0.285,0.313,0.67,0.7,1.133,0.61V48.778z"
	/>
<path fill="#6D4983" d="M53.303,42.629l-0.109-0.037c-0.328-0.149-0.189-0.107-0.639-0.173l-0.016,0.06
	c0.066,0.019,0.121,0.035,0.168,0.052c-0.693,0.098-1.178,0.98-1.498,1.83c-0.15,0.296-0.283,0.601-0.4,0.895
	c-0.404,1.022-0.957,3.109-0.211,4.162c0.008,0.094,0.031,0.187,0.064,0.274c-0.098-0.021-0.189-0.059-0.27-0.158l-0.025,0.02
	c0.049,0.099,0.121,0.167,0.205,0.215l-0.18-0.023l-0.033,0.077c0.256,0.167,0.584,0.232,0.877,0.13v-0.092
	c-0.074-0.026-0.15-0.041-0.229-0.05l-0.002-0.004l-0.014-0.058l-0.035-0.007c-0.059-0.077-0.121-0.152-0.17-0.228
	c-0.363-1.115-0.35-3.021,0.207-4.532c-0.086,0.274-0.154,0.518-0.205,0.695c-0.025,0.087,0.092,0.126,0.139,0.058
	c0.766-1.09,0.846-2.666,2.359-2.977L53.303,42.629"/>
<path fill="#6D4983" d="M52.666,44.775c-0.371-0.048-0.461,0.387-0.529,0.667l0.092,0.04c0.053-0.077,0.096-0.174,0.143-0.264
	c0.344-0.006-0.094,1.488-0.152,1.668c-0.086,0.267-0.324,1.14-0.666,1.428c-0.258-0.4-0.34-0.986-0.188-1.409l-0.041-0.017
	c-0.254,0.47-0.24,1.062,0.016,1.529l-0.037,0.07l0.123,0.07l0.07,0.114c0.053,0.061,0.158,0.04,0.195-0.025
	c0.16-0.273,0.344-0.461,0.426-0.771l-0.09-0.051l-0.133,0.144c0.484-0.994,0.961-2.871,0.498-2.793
	c0.055-0.094,0.117-0.177,0.213-0.214c0.014,0.086,0.023,0.172,0.047,0.258h0.027c0.033-0.122,0.049-0.24,0.066-0.365L52.666,44.775
	z"/>
<path fill="#6D4983" d="M53.508,43.338c-0.117,0.003-0.072,0.192,0.037,0.137l0.004,0.002l-0.025,0.008l0.051,0.012l0.049,0.036
	l0.012-0.001l-0.002-0.022c0.598,0.235,0.1,2.311-0.004,2.618c-0.432,1.276-1.361,2.355-1.73,3.646l0.088,0.037
	c0.789-1.337,1.678-2.748,2.07-4.26C54.17,45.118,54.273,43.321,53.508,43.338"/>
<path fill="#8D60A8" d="M30.375,89.192c-3.025-1.576-5.971-3.342-8.975-4.971c-1.416-0.768-2.783-1.256-4.355-1.611
	c-0.652-0.146-1.238-0.435-1.828-0.287l0.021-0.062l-0.035-0.067c0.025-0.066-0.002-0.131-0.051-0.168
	c0.115-0.355,0.225-0.711,0.258-1.088l-0.061-0.008c-0.053,0.232-0.137,0.452-0.23,0.667l0.035-0.141
	c0.115-0.452,0.219-0.911,0.365-1.354l-0.037-0.016c-0.207,0.365-0.379,0.736-0.518,1.132c-0.154,0.44-0.393,0.937-0.4,1.404
	c0,0.071,0.059,0.096,0.111,0.083c0.01,0.074,0.066,0.141,0.162,0.152c5.617,0.617,10.178,4.707,15.135,7.026
	C30.434,90.101,30.838,89.435,30.375,89.192"/>
<path fill="#8D60A8" d="M28.635,96.375c-0.309-0.056-0.594,0.081-0.883,0.173l-0.037,0.012l0.021-0.043l0.145-0.19
	c0.184-0.239-0.119-0.589-0.383-0.499c-0.117,0.04-0.229,0.1-0.332,0.167l-0.041-0.028l-0.09,0.068l-0.006,0.066
	c-0.17,0.154-0.291,0.349-0.303,0.596c-0.002,0.078,0.021,0.143,0.064,0.193l0.023,0.135c0.248,0.173,0.572,0.13,0.854,0.086
	c0.355-0.057,0.785-0.116,1.068-0.348C28.867,96.655,28.799,96.405,28.635,96.375"/>
<path fill="#8D60A8" d="M29.627,94.077c-0.076-0.039-0.195,0.027-0.158,0.121c0.082,0.212,0.143,0.388,0.375,0.439
	c0.064,0.014,0.148-0.031,0.141-0.107C29.959,94.303,29.83,94.183,29.627,94.077"/>
<path fill="#8D60A8" d="M30.047,94.777c-0.135-0.125-0.342,0.034-0.252,0.195l0.072,0.132l0.16,0.092l0.086-0.009
	c0.074-0.007,0.133-0.067,0.111-0.146C30.191,94.915,30.143,94.866,30.047,94.777"/>
<path fill="#8D60A8" d="M30.34,95.507c-0.096-0.09-0.252-0.025-0.256,0.107l-0.002,0.09c-0.002,0.08,0.061,0.164,0.141,0.182
	l0.1,0.021c0.068,0.014,0.16-0.033,0.15-0.113C30.455,95.655,30.443,95.604,30.34,95.507"/>
<path fill="#8D60A8" d="M6.646,85.409c0.311-0.388,0.709-0.701,0.93-1.153l-0.029-0.017c-0.232,0.389-0.555,0.703-0.836,1.053
	c0.049-0.299-0.035-0.61-0.1-0.903c-0.064-0.31-0.08-0.644-0.174-0.944l-0.121-0.051c-0.23,0.156-0.248,0.499-0.232,0.753
	c0.021,0.372,0.045,0.81,0.16,1.163c0.049,0.145,0.225,0.199,0.348,0.145h0.018l0.006-0.006L6.646,85.409z"/>
<path fill="#8D60A8" d="M76.971,92.472c-0.02-0.657-0.063-1.313-0.074-1.971h-0.045c-0.004,0.426,0.012,0.85,0.029,1.274
	c-0.025-0.216-0.051-0.433-0.082-0.647l-0.027,0.004c-0.064-0.364-0.123-0.727-0.148-1.082l-0.041-0.004
	c-0.209,1.172-0.037,2.475,0.215,3.634c0.016,0.073,0.139,0.077,0.152,0C77.018,93.284,77.01,92.878,76.971,92.472"/>
<path fill="#8D60A8" d="M81.303,96.188c0.098-0.152,0.096-0.369-0.104-0.486c-0.635-0.371-1.377-0.523-2.096-0.637
	c-0.207-0.031-0.563-0.148-0.754-0.035c-0.379,0.22-0.793,0.755-1.111,1.07c-0.094,0.092-0.09,0.203-0.035,0.287l-0.043,0.062
	c-0.105,0.196,0.156,0.37,0.291,0.237c0.602,0.617,1.758,0.873,2.605,1.047c0.07,0.166,0.279,0.268,0.443,0.095
	c0.115-0.12,0.195-0.251,0.256-0.392c0.209-0.334,0.396-0.674,0.533-1.053l0.002-0.005l0,0l0.021-0.049L81.303,96.188z
	 M77.721,96.343c0.295-0.244,0.596-0.477,0.867-0.748c0.766,0.131,1.602,0.307,2.258,0.711v0.002l-0.043,0.065
	c-0.273,0.142-0.463,0.341-0.678,0.595l-0.055,0.067c-0.789-0.233-1.615-0.47-2.42-0.604L77.721,96.343z"/>
<path fill="#8D60A8" d="M116.973,87.03l-0.033,0.039c-0.199-0.103-0.459-0.098-0.691-0.117c-0.436-0.037-0.873-0.033-1.307-0.088
	l-0.088,0.041l-0.174-0.09l-0.043-0.008c-0.041-0.074-0.076-0.148-0.096-0.225c-0.033-0.132-0.262-0.148-0.281,0
	c-0.012,0.08-0.016,0.156-0.021,0.232l-0.018-0.004l-0.08,0.104l0.053,0.161l-0.008,0.089c-0.115,0.259-0.045,0.623-0.006,0.896
	c0.029,0.207,0.199,0.246,0.355,0.207l0.002,0.008c0.107,0.238,0.537,0.348,0.762,0.412c0.258,0.076,0.604,0.191,0.877,0.102
	c0.07,0.018,0.143,0.033,0.209,0.051c0.178,0.049,0.365-0.059,0.416-0.234c0.127-0.467,0.451-0.778,0.668-1.193
	C117.635,87.097,117.239,86.778,116.973,87.03 M116.356,87.894l-0.047-0.043c-0.092-0.051-0.219-0.082-0.355-0.109l-0.045-0.076
	l-0.049-0.034c0.002-0.073-0.025-0.144-0.084-0.206c0.08,0.016,0.164,0.03,0.248,0.043c0.162,0.024,0.346,0.073,0.527,0.098
	C116.481,87.673,116.413,87.778,116.356,87.894"/>
<path fill="#59396C" d="M116.862,88.677c0.262-0.515,0.768-1.023,0.619-1.632l-0.104-0.081c-0.766,0.084-1.492-0.205-2.254-0.173
	v0.022c0.721,0.076,1.391,0.356,2.121,0.36c-0.09,0.54-0.512,0.949-0.738,1.435l-0.004,0.064c-0.838,0.014-1.752-0.172-2.391-0.709
	l0.088-0.051c0.107-0.219,0.1-0.572,0.133-0.814c0.027-0.201,0.043-0.424-0.102-0.578l-0.025,0.02
	c0.082,0.145-0.113,0.586-0.152,0.736c-0.041,0.15-0.139,0.406-0.092,0.578l-0.047,0.053c0.428,0.917,2.049,1.081,2.922,0.998
	C116.975,88.894,116.981,88.697,116.862,88.677"/>
<path fill="#59396C" d="M81.446,95.976c-0.219,0.217-0.311,0.574-0.42,0.854c-0.135,0.352-0.33,1.012-0.76,1.113
	c-0.328-0.418-0.938-0.592-1.424-0.756c-0.344-0.116-0.697-0.207-1.049-0.301c-0.16-0.041-0.322-0.082-0.484-0.123
	c-0.084-0.018-0.166-0.037-0.25-0.058L77.055,96.7l-0.15-0.029c-0.082-0.039-0.137,0.088-0.049,0.116
	c1.148,0.388,2.275,0.618,3.316,1.267l0.113-0.049c0.064,0,0.131,0.002,0.197,0v-0.033l-0.1,0.002
	c0.246-0.096,0.41-0.348,0.533-0.577c0.232-0.429,0.439-0.923,0.596-1.382L81.446,95.976z"/>
<path fill="#59396C" d="M77.174,94.29h-0.061l-0.004,0.074c-0.051,0.51-0.275,1.056-0.188,1.561h0.082l0.018-0.118l0.002,0.024
	h0.061l0.023-0.193l0.002,0.096h0.068C77.227,95.258,77.184,94.768,77.174,94.29"/>
<path fill="#BFD47A" d="M35.23,43.988c-0.51,0.638-0.93,1.487-1.223,2.249l0.104,0.06c0.545-0.612,0.879-1.528,1.143-2.295
	L35.23,43.988"/>
<path fill="#BFD47A" d="M34.068,37.1c-0.996-0.008-1.43,1.214-1.715,1.992c-0.375,1.025-0.662,2.794,0.334,3.542l0.109,0.01
	l-0.029,0.037l-0.176-0.032l-0.033,0.078c0.195,0.105,0.381,0.218,0.59,0.303c0.072,0.029,0.168,0.068,0.268,0.104l0.025,0.065
	c0.035,0.096,0.176,0.093,0.197-0.005c0.123,0.024,0.242,0.029,0.332-0.026c0.094-0.057,0.082-0.175,0-0.234l-0.146-0.069
	l-0.002-0.125c-0.076-0.039-0.162-0.067-0.25-0.088l-0.125-0.131c-0.199-0.579-0.332-1.15-0.311-1.803
	c0.025-0.802,0.326-1.559,0.365-2.358l-0.088-0.077c0.164-0.249,0.365-0.465,0.625-0.615l-0.016-0.063
	c-0.113,0.008-0.219,0.035-0.32,0.072c0.121-0.171,0.248-0.34,0.395-0.505L34.068,37.1z"/>
<path fill="#BFD47A" d="M49.969,41.453l-0.031-0.113c-0.055-0.094-0.15-0.117-0.252-0.102c-0.156,0.024-0.303,0.079-0.463,0.089
	l-0.094,0.034l-0.121-0.052c-1.121,0.031-1.947,1.602-2.313,2.486c-0.502,1.215-0.934,3.105,0.018,4.203
	c0.139,0.16,0.396,0.026,0.398-0.166c0.021-1.11-0.277-2.039,0.01-3.172c0.082-0.322,0.439-1.287,0.891-2.032
	c0.084,0.05,0.199,0.059,0.283-0.01c0.207-0.171,0.566-0.39,0.771-0.658c0.092-0.038,0.188-0.066,0.293-0.073
	c0.107-0.006,0.166-0.068,0.195-0.14c0.104-0.026,0.203-0.059,0.303-0.101C49.932,41.615,49.963,41.525,49.969,41.453"/>
<path fill="#BFD47A" d="M70.975,68.63c-0.156-3.18-1.764-6.517-2.85-9.373c-0.93-2.439-1.887-5.602-3.59-7.82
	c-0.982-2.065-2.066-4.079-3.318-5.998c-2.157-3.305-4.924-5.9-8.258-7.992c-1.801-1.13-3.744-2.034-5.732-2.786
	c-1.813-0.687-4.176-1.638-6.137-1.345l-0.086,0.112c0.006,0.12,0.014,0.24,0.02,0.36c0.006,0.124,0.186,0.124,0.191,0
	c0.002-0.015,0.135,0.011,0.346,0.06c-0.053,0.041-0.057,0.127,0.018,0.145c0.998,0.251,1.879,0.482,2.779,1.014
	c0.721,0.426,1.355,1.006,2.143,1.307c0.123,0.047,0.197-0.123,0.121-0.208c-0.377-0.408-0.91-0.872-1.518-1.282
	c0.668,0.194,1.195,0.351,1.32,0.395c1.633,0.576,3.201,1.305,4.717,2.136l-0.174,0.042c-0.051,0.02-0.068,0.109,0,0.12
	c0.93,0.156,1.592,1.061,2.299,1.625c1.074,0.854,2.076,1.826,3.055,2.784c1.846,1.804,3.01,4,4.606,5.974
	c0.145,0.179,0.443-0.013,0.377-0.219c-0.184-0.578-0.445-1.135-0.742-1.679c0.287,0.427,0.566,0.862,0.836,1.306
	c2.07,3.399,3.609,7.115,5.063,10.809c1.625,4.139,2.701,8.543,4.553,12.581c0.104,0.225,0.416,0.057,0.377-0.158
	C71.27,69.903,71.129,69.267,70.975,68.63"/>
<path fill="#95A861" d="M35.463,75.199l0.02-0.019l-0.021-0.037c-0.139,0.024-0.281,0.061-0.424,0.101
	c-0.066-0.073-0.16-0.121-0.283-0.099c-2.627,0.479-5.217,1.152-7.816,1.769c-1.289,0.306-2.553,0.563-3.809,0.989
	c-0.77,0.26-1.814,0.359-2.482,0.826l0.025,0.095c1.969-0.082,3.803-0.759,5.73-1.183c2.4-0.526,4.779-1.146,7.186-1.646
	l0.096,0.061c0.273-0.047,0.578-0.135,0.873-0.257c0.119-0.022,0.238-0.05,0.359-0.071c0.133-0.025,0.197-0.112,0.211-0.213
	l0.055-0.02c-0.096,0.161-0.146,0.339-0.061,0.525h0.15c0.127-0.219,0.18-0.504,0.262-0.746L35.463,75.199"/>
<path fill="#D8E379" d="M48.664,41.814c-1.285,1.102-2.594,2.845-2.256,4.639c0.023,0.129,0.219,0.119,0.25,0
	c0.209-0.816,0.395-1.61,0.777-2.367c0.387-0.763,0.891-1.465,1.303-2.214L48.664,41.814"/>
<path fill="#E8EB8B" d="M34.396,37.111c-1.82-0.547-2.572,4.353-1.521,5.284c0.074,0.066,0.168,0,0.156-0.091
	c-0.238-1.657-0.131-4.065,1.377-5.106L34.396,37.111z"/>
<path fill="#E8EB8B" d="M49.719,41.547c-1.313-1.333-3.039,2.751-3.195,3.633c-0.02,0.121,0.125,0.236,0.223,0.129
	c0.469-0.516,0.74-1.213,1.068-1.82c0.318-0.586,0.975-1.932,1.822-1.801C49.717,41.702,49.783,41.612,49.719,41.547"/>
<path fill="#DADD77" d="M77.395,95.44c-1.82-7.246-2.756-14.697-4.604-21.955c-1.779-6.992-4.082-13.92-6.984-20.529
	c-2.646-6.022-6.645-11.258-11.983-15.132c-4.729-3.43-11.764-6.156-17.537-4.109c-0.09,0.033-0.055,0.172,0.041,0.147
	c6.4-1.691,13.65,1.552,18.6,5.441c5.35,4.203,8.856,9.962,11.391,16.182c2.576,6.317,4.654,12.829,6.309,19.446
	c1.705,6.817,2.658,13.812,4.387,20.614C77.077,95.792,77.456,95.688,77.395,95.44"/>
<path fill="#C2D57A" d="M36.268,54.201c-3.5,2.208-5.205,6.328-8.078,9.207c0.566-1.61,2.004-3.282,2.822-4.592
	c1.086-1.739,2.047-3.564,3.18-5.27c0.736-1.108,1.473-2.207,2.131-3.363c0.287-0.503,0.902-1.486,0.652-2.098
	c-0.031-0.079-0.158-0.049-0.129,0.036c0.305,0.907-1.391,2.81-1.863,3.491c-0.676,0.974-1.371,1.927-1.984,2.941
	c-1.221,2.024-2.539,3.99-3.758,6.014c-0.738,1.224-1.734,2.306-1.902,3.773c-0.035,0.299,0.348,0.372,0.529,0.22
	c3.02-2.525,4.643-6.538,7.672-9.036c-0.682,1.142-1.6,2.237-2.326,3.271c-1.014,1.446-1.99,2.911-2.957,4.389
	c-1.936,2.961-3.822,5.954-5.537,9.049c-0.188,0.338,0.236,0.635,0.516,0.397c0.824-0.706,1.326-1.614,1.975-2.472
	c1.094-1.44,2.086-2.937,3.238-4.338c1.535-1.866,2.961-4.167,5.008-5.54c-0.822,1.999-2.463,3.891-3.523,5.696
	c-1.113,1.895-3.137,4.021-3.516,6.215c-0.049,0.28,0.211,0.51,0.48,0.369c1.461-0.77,2.342-2.481,3.188-3.828
	c0.088-0.138-0.123-0.254-0.213-0.125c-0.75,1.063-1.533,2.19-2.598,2.955c0.717-2.023,2.52-4.039,3.553-5.798
	c1.152-1.96,2.943-3.939,3.561-6.148c0.082-0.294-0.234-0.502-0.486-0.374c-2.244,1.138-3.654,3.321-5.186,5.233
	c-0.854,1.066-1.723,2.114-2.551,3.198c0.98-1.584,1.992-3.152,3.012-4.715c0.965-1.48,1.961-2.934,2.975-4.382
	c0.891-1.273,1.992-2.575,2.586-4.015C36.848,54.296,36.488,54.062,36.268,54.201"/>
<path fill="#C2D57A" d="M37.383,64.145c-1.098,1.884-2.49,3.595-3.457,5.552c-0.064,0.129,0.115,0.235,0.193,0.114
	c1.201-1.817,2.447-3.62,3.521-5.515C37.734,64.128,37.479,63.978,37.383,64.145"/>
<path fill="#CED979" d="M65.469,53.795c-0.848-1.956-1.811-3.762-2.867-5.605c-0.646-1.132-1.352-2.152-2.584-2.668l-0.043,0.103
	c1.525,0.882,2.162,2.544,2.977,4.016c1.1,1.992,1.955,4.105,2.82,6.217c1.559,3.802,2.922,7.683,4.539,11.46
	c0.082,0.188,0.393,0.054,0.33-0.14C69.172,62.632,67.368,58.179,65.469,53.795"/>
<path fill="#916CAF" d="M44.135,45.716c-1.682-0.934-3.574-1.547-5.346-2.305c-1.35-0.578-2.785-1.409-4.285-1.46
	c-0.137-0.005-0.189,0.192-0.07,0.257c2.807,1.53,6.334,3.756,9.572,3.986C44.264,46.213,44.352,45.836,44.135,45.716"/>
<path fill="#916CAF" d="M34.357,42.514c-0.102-0.147-0.297,0.049-0.148,0.15l0.158,0.085l0.076-0.076L34.357,42.514z"/>
<path fill="#916CAF" d="M53.268,42.292c-0.549-0.065-1.016,0.153-1.41,0.514c-0.926,0.144-1.393,1.066-1.697,1.922
	c-0.279,0.78-0.691,2.217-0.537,3.187l-0.008-0.008c-0.188-0.184-0.561-0.002-0.463,0.269l0.057,0.141
	c-0.234-0.123-0.473-0.237-0.713-0.346c-0.25-0.165-0.51-0.315-0.752-0.485l-0.018,0.03c0.154,0.118,0.313,0.228,0.473,0.34
	c-0.125-0.001-0.209,0.111-0.215,0.235c-0.182-0.068-0.391-0.151-0.461-0.246l-0.063,0.017c0.02,0.206,0.264,0.347,0.416,0.452
	c0.348,0.239,0.723,0.458,1.125,0.596c0.07,0.024,0.127,0,0.174-0.038c0.195,0.106,0.385,0.215,0.588,0.303
	c0.168,0.074,0.422-0.007,0.404-0.231c-0.01-0.129-0.041-0.243-0.08-0.351c0.014-0.077,0.014-0.155,0.01-0.235l0.023,0.11
	l0.039-0.01c-0.014-0.086-0.031-0.171-0.045-0.256l0.008-0.08c0.223-0.696,0.148-1.627,0.27-2.326l0.016-0.073l0.012-0.004
	c0.35-0.748,0.746-1.974,1.418-2.72c0.111-0.064,0.227-0.122,0.355-0.162l-0.01-0.055l-0.135,0.01
	c0.336-0.294,0.732-0.469,1.219-0.427V42.292z"/>
<path fill="#916CAF" d="M71.12,63.797c-0.752-2.307-1.596-4.577-2.525-6.818c-0.805-1.944-1.535-3.905-2.928-5.518l-0.021,0.017
	c2.1,4.168,3.625,8.695,5.004,13.148c1.412,4.563,2.25,9.273,3.662,13.822c0.041,0.137,0.275,0.119,0.26-0.035
	C74.043,73.413,72.668,68.567,71.12,63.797"/>
<path fill="#916CAF" d="M26.836,87.948c-1.471-2.051-3.973-3.24-6.248-4.188c-1.389-0.578-3.736-1.969-5.25-1.328
	c-0.063,0.025-0.049,0.141,0.02,0.15c1.695,0.238,3.385,1.177,4.945,1.852c2.295,0.992,4.219,2.4,6.295,3.752
	C26.74,88.28,26.939,88.091,26.836,87.948"/>
<path fill="#916CAF" d="M6.076,85.411c0.285-0.227,0.227-0.651,0.146-0.959C6.15,84.188,5.9,84.146,5.719,84.248
	c-0.102-0.181-0.32-0.242-0.514-0.149c-0.305,0.147-0.42,0.393-0.404,0.643c-0.07,0.18-0.059,0.486-0.076,0.596
	c-0.014,0.098,0.023,0.223,0.139,0.243l0.113,0.021l0.096-0.014l0.053,0.074c0.18,0.207,0.443,0.105,0.578-0.08l0.129-0.055
	C5.918,85.506,6.002,85.472,6.076,85.411"/>
<path fill="#916CAF" d="M27.994,95.952c-0.191-0.044-0.391-0.035-0.586-0.039c-0.273-0.033-0.41,0.195-0.406,0.422
	c-0.004,0.227,0.133,0.455,0.406,0.422c0.195-0.004,0.395,0.004,0.586-0.039c0.223-0.051,0.297-0.217,0.279-0.383
	C28.291,96.169,28.217,96.003,27.994,95.952"/>
<path fill="#916CAF" d="M80.204,96.97l-0.09-0.097c0.066-0.116,0.074-0.259-0.021-0.39l-0.006-0.014
	c0.053-0.101,0.031-0.24-0.045-0.326c-0.143-0.161-0.223-0.266-0.439-0.334c-0.189-0.059-0.385,0.054-0.48,0.214
	c-0.113-0.019-0.227-0.029-0.342-0.025l-0.021-0.026c-0.102-0.045-0.18-0.072-0.291-0.063c-0.164,0.016-0.254,0.164-0.4,0.188
	c-0.461,0.074-0.279,0.748,0.164,0.717c0.328,0.589,1.068,0.895,1.729,0.759C80.2,97.523,80.36,97.175,80.204,96.97"/>
<path fill="#916CAF" d="M116.551,88.007l-0.002-0.184c-0.059-0.143-0.17-0.267-0.34-0.26c-0.279,0.014-0.654,0.141-0.914-0.032
	c-0.113-0.077-0.295,0.052-0.244,0.187c0.037,0.1,0.094,0.168,0.148,0.236c-0.107-0.002-0.215-0.008-0.322-0.018
	c0.082-0.297,0.068-0.602-0.025-0.896c-0.029-0.088-0.125-0.109-0.189-0.067v-0.005c0.01-0.066-0.082-0.096-0.104-0.028
	c-0.07,0.226-0.127,0.453-0.182,0.685l-0.02,0.074c-0.137,0.098-0.162,0.295-0.074,0.409l0.002,0.072l0.146,0.038l0.018-0.03
	l0.031,0.003c0.547,0.368,1.318,0.414,1.957,0.383C116.778,88.558,116.815,88.12,116.551,88.007"/>
<path fill="#916CAF" d="M119.838,86.134c-0.229-0.164-0.475-0.125-0.738-0.082c-0.301,0.051-0.297,0.547,0,0.6
	c0.275,0.048,0.775,0.258,0.893-0.141C120.036,86.356,119.959,86.222,119.838,86.134"/>
<path fill="#9E78B5" d="M48.631,40.928c-2.549-0.785-5.119-1.506-7.711-2.14c-1.885-0.461-4.35-1.403-6.295-1.167l-0.004,0.033
	c1.914,0.752,4.164,1.112,6.17,1.603c2.59,0.635,5.15,1.387,7.73,2.068C48.779,41.393,48.885,41.006,48.631,40.928"/>
<path fill="#9E78B5" d="M52.816,42.519c-0.529-0.238-1.139-0.172-1.732-0.159c-0.354-0.046-0.705-0.099-1.057-0.175l-0.014,0.049
	c0.08,0.027,0.166,0.049,0.248,0.074l-0.008,0.046c0.207,0.059,0.414,0.093,0.621,0.118c0.549,0.125,1.113,0.195,1.67,0.143
	l0.006-0.005c0.078,0.006,0.156,0.014,0.236,0.019L52.816,42.519z"/>
<path fill="#9E78B5" d="M32.611,36.98c-0.656-0.413-1.535-0.618-2.275-0.83c-0.102-0.03-1.104-0.342-1.018,0.048l0.027-0.004
	c0.004-0.142,2.906,0.916,3.234,0.907C32.645,37.1,32.668,37.015,32.611,36.98"/>
<line fill="none" x1="0" y1="0" x2="0" y2="128.977"/>
<line fill="none" x1="120.19" y1="128.977" x2="120.19" y2="0"/>
<path fill="#9E78B5" d="M32.076,44.121c-0.365,0.529-0.693,1.077-1.008,1.633c0.305-0.753,0.652-1.478,1.16-2.091l-0.02-0.02
	c-0.869,0.796-1.268,1.96-1.674,3.083c-0.434,0.841-0.834,1.7-1.223,2.568l0.039,0.023c0.291-0.6,0.584-1.201,0.881-1.799
	c-0.057,0.14-0.111,0.28-0.174,0.414c-0.918,1.998-2.08,3.849-2.799,5.937l0.055,0.015c0.74-1.821,1.709-3.528,2.598-5.277
	c0.363-0.712,0.635-1.493,0.924-2.264c0.398-0.749,0.816-1.488,1.285-2.197L32.076,44.121z"/>
<path fill="#9E78B5" d="M68.571,28.929c-2.439,0.376-4.863,0.876-7.291,1.326c-5.698,1.058-11.315,2.148-17.051,2.988
	c-0.076,0.011-0.057,0.134,0.018,0.133c4.842-0.071,9.623-1.344,14.35-2.245c2.528-0.482,5.073-0.872,7.602-1.333"/>
<line fill="none" x1="0" y1="28.75" x2="0" y2="100.228"/>
<line fill="none" x1="120.19" y1="100.228" x2="120.19" y2="28.75"/>
<path fill="#09ADB0" d="M53.727,48.272l-0.078,0.011c0.387,3.012,0.092,6.046-0.215,9.052c-0.33,3.256-0.455,6.525-0.805,9.78
	c-0.779,7.242-1.475,14.532-2.799,21.693c-0.061,0.329,0.385,0.452,0.5,0.138c1.174-3.201,1.465-6.712,1.785-10.084
	c0.35-3.693,0.818-7.368,1.24-11.053c0.396-3.483,0.506-6.981,0.771-10.474C54.357,54.305,54.615,51.221,53.727,48.272"/>
<path fill="#51BBB7" d="M31.732,94.634c-0.082,0-0.123-0.113-0.066-0.175c0.256-0.278,0.531-0.522,0.818-0.747
	c-1.516-1.033-1.471-3.544,0.057-4.814c0.781-1.325,1.402-2.778,1.984-4.254c0.643-4.881,3.814-11.547,4.58-13.422
	c1.504-3.68,2.934-7.392,4.441-11.069c0.18-0.494,0.357-0.988,0.537-1.484c0.918-2.528,1.5-5.566,3.404-7.564
	c0.035-0.036,0.076-0.051,0.117-0.051c0.082,0,0.162,0.06,0.184,0.138c0.176-0.146,0.377-0.239,0.586-0.273
	c0.021-0.063,0.063-0.121,0.141-0.149c0.168-0.06,0.344-0.118,0.521-0.157c0.102-0.04,0.209-0.067,0.324-0.067
	c0.041,0,0.082,0.004,0.123,0.011l0.098,0.03c0.355,0.041,0.609,0.177,0.9,0.421c0.416,0.345,0.117,1.062-0.383,1.109
	c-0.02,0.077-0.051,0.148-0.094,0.216c0.24,0.575,0.416,1.186,0.523,1.83c0.197-0.928,0.426-1.848,0.713-2.753l0.082-0.113
	c0.066-0.382,0.141-0.761,0.229-1.136c0.045-0.182,0.229-0.3,0.408-0.3c0.102,0,0.199,0.037,0.271,0.12
	c0.787,0.927,1.273,2.009,1.553,3.167c-0.068,1.399-0.209,2.797-0.352,4.189c-0.32,3.142-0.445,6.296-0.77,9.439
	c-0.287,0.987-0.635,1.952-1.063,2.872c-0.068,1.197-0.166,2.398-0.309,3.605c-0.383,3.258-0.988,6.573-1.123,9.852
	c-0.098,2.394-0.221,4.437-1.053,6.666c0.18,0.168,0.346,0.355,0.488,0.591c0.135,0.224,0.117,0.594-0.098,0.769
	c-1.957,1.582-6.059,1.735-8.551,2.155c-1.682,0.284-3.393,0.365-5.086,0.542c-0.381,0.2-0.814,0.326-1.307,0.339
	c-0.121,0.003-0.24,0.007-0.361,0.009c-0.031,0.002-0.064,0.002-0.096,0.002c-0.158,0-0.307-0.01-0.451-0.027
	c-0.637,0.121-1.268,0.271-1.891,0.48C31.754,94.632,31.742,94.634,31.732,94.634"/>
<path fill="#42B5B3" d="M52.664,66.774c0.322-3.143,0.449-6.297,0.77-9.439c0.143-1.392,0.281-2.79,0.354-4.189
	c0.564,2.325,0.311,4.953,0.057,7.224C53.605,62.479,53.273,64.679,52.664,66.774"/>
<path fill="#51BBB7" d="M79.038,87.148c-0.326,0-0.631-0.177-0.693-0.581c-0.32-2.111-0.547-4.238-0.705-6.372
	c0.002-0.517,0-1.035-0.006-1.551c0-1.199-0.025-2.4-0.088-3.606c-0.078-1.531-0.176-3.055-0.275-4.578
	c-0.039-3.352-0.025-6.704-0.068-10.032c-0.057-4.411,0.014-8.817,0.012-13.227c0-3.519,1-9.129-0.863-12.253
	c-0.066-0.113,0.031-0.227,0.139-0.227c0.035,0,0.07,0.012,0.102,0.043c2.514,2.446,3.008,6.204,3.576,9.515
	c0.756,4.394,0.922,8.982,1.141,13.426c0.471,9.516,1.623,19.663-1.396,28.862C79.792,86.931,79.401,87.148,79.038,87.148"/>
<path fill="#8293B5" d="M77.635,78.644c-0.006-0.719-0.02-1.437-0.039-2.154h-0.063c-0.014,0.434-0.029,0.869-0.049,1.304
	c-0.129-2.438-0.186-4.886-0.215-7.333c0.1,1.523,0.197,3.049,0.275,4.577C77.608,76.244,77.633,77.445,77.635,78.644"/>
<path fill="#707B9B" d="M77.639,80.195c-0.061-0.8-0.109-1.601-0.152-2.401c0.018-0.436,0.033-0.871,0.047-1.305h0.063
	c0.02,0.717,0.031,1.436,0.039,2.155C77.639,79.161,77.639,79.679,77.639,80.195"/>
<path fill="#51BBB7" d="M70.612,93.239c-2.328-0.76-4.836-1.131-7.381-1.271c-3.549-0.425-7.252-0.406-10.565-0.679
	c-0.162-0.013-0.164-0.239,0-0.253c2.51-0.204,5.029-0.333,7.549-0.333c1.664,0,3.328,0.058,4.99,0.185
	c2.121,0.166,4.039,0.435,5.35,2.248C70.581,93.171,70.598,93.205,70.612,93.239"/>
<path fill="#42B5B3" d="M70.196,93.688c-0.057,0-0.109-0.01-0.16-0.031c-2.086-0.914-4.41-1.402-6.805-1.689
	c2.545,0.141,5.053,0.512,7.381,1.271C70.696,93.485,70.44,93.688,70.196,93.688"/>
<path fill="#42B5B3" d="M71.887,94.315c-0.08-0.08-0.162-0.16-0.242-0.24l0.051-0.051c0.08,0.08,0.16,0.16,0.242,0.24L71.887,94.315
	"/>
<path fill="#51BBB7" d="M74.083,95.095c-0.305-0.109-0.613-0.215-0.922-0.318c0.164-0.121,0.213-0.4-0.012-0.51
	c-0.459-0.228-0.93-0.434-1.406-0.621c-1.697-2.592-1.918-6.436-2.426-9.291c-0.789-4.444-1.139-9.426-3.135-13.523
	c-0.08-0.166,0.057-0.352,0.207-0.352c0.051,0,0.104,0.022,0.15,0.074c2.727,3.043,3.664,6.782,4.568,10.678
	c0.568,2.451,1.059,4.938,1.77,7.353c0.201,0.683,0.439,1.353,0.662,2.021c0.201,0.474,0.387,0.955,0.541,1.453
	c0.027,0.092-0.002,0.172-0.057,0.229c0.182,0.807,0.277,1.627,0.18,2.484C74.192,94.884,74.149,94.995,74.083,95.095"/>
<path fill="#42B5B3" d="M73.584,95.399c-0.098,0-0.197-0.031-0.297-0.104c-0.623-0.451-1.129-1.014-1.547-1.651
	c0.48,0.188,0.949,0.396,1.408,0.621c0.225,0.11,0.176,0.39,0.012,0.512c0.309,0.103,0.617,0.208,0.924,0.317
	C73.967,95.269,73.784,95.399,73.584,95.399"/>
<path fill="#51BBB7" d="M80.354,92.14c-0.152,0-0.314-0.144-0.268-0.322c0.785-2.985,4.496-3.791,7.029-4.719
	c4.164-1.524,8.932-3.451,13.527-3.451c0.906,0,1.805,0.074,2.691,0.242c0.574,0.107,0.486,0.918,0,1.076
	c-4.34,1.396-9.033,1.635-13.449,2.852c-2.711,0.748-7.996,1.391-9.336,4.195C80.506,92.103,80.432,92.14,80.354,92.14"/>
<path fill="#707B9B" d="M56.438,45.938c-0.098-0.112-0.195-0.222-0.293-0.332c0.041,0.032,0.08,0.064,0.119,0.096
	c0.041,0.058,0.082,0.115,0.123,0.171C56.404,45.894,56.42,45.916,56.438,45.938"/>
<path fill="#9ACA97" d="M57.674,47.483c-0.398-0.533-0.809-1.05-1.238-1.545c-0.016-0.022-0.031-0.044-0.047-0.065
	c-0.043-0.056-0.084-0.113-0.125-0.171c0.574,0.47,1.086,1.02,1.543,1.624C57.746,47.364,57.695,47.419,57.674,47.483"/>
<path fill="#51BBB7" d="M55.225,45.375c-0.342-0.311-0.705-0.592-1.094-0.837c0-0.021-0.002-0.042-0.002-0.063
	c0.193,0.071,0.383,0.149,0.566,0.235C54.871,44.932,55.047,45.153,55.225,45.375 M65.381,66.189c-0.082,0-0.162-0.042-0.205-0.146
	c-1.324-3.042-2.252-6.271-3.779-9.221c-1.607-3.104-3.598-5.95-5.428-8.922c-0.037-0.06,0.014-0.11,0.066-0.11
	c0.023,0,0.047,0.01,0.064,0.033c1.18,1.564,2.316,3.082,3.381,4.609c-0.619-1.445-1.281-2.956-2.096-4.317
	c0.23,0.311,0.457,0.626,0.676,0.947c0.945,1.374,1.797,2.808,2.608,4.263c0.16,0.491,0.307,0.973,0.447,1.438v0.132
	c2.064,3.296,3.707,6.765,4.57,10.934C65.725,66.023,65.545,66.189,65.381,66.189"/>
<path fill="#3FAEAC" d="M60.668,53.326c-0.813-1.455-1.663-2.889-2.608-4.264c-0.219-0.32-0.445-0.635-0.676-0.946
	c-0.617-1.032-1.322-1.977-2.16-2.742c-0.178-0.221-0.354-0.442-0.529-0.665c0.523,0.245,1.006,0.548,1.449,0.897
	c0.098,0.11,0.195,0.22,0.291,0.332c0.43,0.495,0.84,1.012,1.238,1.545c-0.023,0.062-0.021,0.132,0.02,0.2
	c0.83,1.381,1.648,2.763,2.456,4.149C60.336,52.333,60.508,52.834,60.668,53.326"/>
<path fill="#707B9B" d="M54.131,44.538c-0.01-0.007-0.021-0.014-0.033-0.022l0.02-0.046c0.004,0.002,0.008,0.003,0.012,0.005
	C54.129,44.496,54.131,44.517,54.131,44.538"/>
<path fill="#956CAF" d="M75.303,75.419c-0.166,0-0.338-0.096-0.391-0.272c-0.393-1.335-0.729-2.731-1.039-4.147
	c-1.232-3.272-1.863-6.774-2.723-10.188c-3.725-8.491-6.58-16.577-14.499-22.396c-0.172-0.127-0.074-0.381,0.1-0.381
	c0.033,0,0.07,0.009,0.105,0.031c1.035,0.599,2.061,1.265,3.061,1.99c-1.188-1.368-2.504-2.579-3.924-3.111
	c-0.162-0.061-0.135-0.286,0.041-0.3c0.145-0.011,0.291-0.016,0.438-0.016c2.395,0,4.833,1.477,6.579,3.015
	c0.455,0.402,0.906,0.812,1.352,1.23c0.08,0.005,0.16,0.016,0.24,0.033c-0.027-0.08-0.059-0.162-0.082-0.24
	c-0.379-1.268,0.764-2.398,1.906-2.398c0.412,0,0.826,0.148,1.166,0.491c0.014-0.137,0.018-0.274,0.035-0.412
	c0.09-0.661,0.74-1.019,1.377-1.019c0.498,0,0.986,0.219,1.193,0.684c0.051,0.112,0.09,0.225,0.137,0.338l0.006-0.003l0.006,0.032
	c0.574,1.36,0.979,2.738,1.299,4.134c-0.191-2.364-0.563-4.691-1.291-6.899c-0.018-0.056,0.027-0.094,0.074-0.094
	c0.023,0,0.049,0.011,0.064,0.035c3.227,4.998,3.389,10.874,3.682,16.636c0.379,7.507,2.904,15.482,1.43,22.956
	C75.61,75.333,75.459,75.419,75.303,75.419"/>
<path fill="#956CAF" d="M46.146,44.515c-0.037,0-0.074-0.004-0.111-0.012c-1.43-0.316-2.666-1.02-3.951-1.715
	c-1.092-0.59-2.547-1.467-3.887-1.467c-0.186,0-0.371,0.017-0.551,0.054c-0.045,0.01-0.088,0.014-0.129,0.014
	c-0.547,0-0.709-0.78-0.141-0.992c0.441-0.165,0.916-0.233,1.404-0.233c1.225,0,2.529,0.428,3.59,0.803
	c1.625,0.574,3.275,1.307,4.238,2.79c0.025,0.038,0.043,0.076,0.055,0.113c-0.066,0.169-0.133,0.349-0.193,0.538
	C46.377,44.475,46.264,44.515,46.146,44.515"/>
<path fill="#ADA5A1" d="M46.471,44.408c0.061-0.189,0.127-0.369,0.193-0.538C46.736,44.08,46.639,44.287,46.471,44.408"/>
<path fill="#845F9B" d="M22.859,68.806c0.648-1.641,1.355-3.264,2.084-4.869c-0.133,0.407-0.275,0.811-0.428,1.209
	c-0.277,0.645-0.549,1.291-0.818,1.938C23.432,67.663,23.15,68.236,22.859,68.806 M20.611,75.934
	c0.053-0.31,0.119-0.619,0.189-0.927c-0.049,0.242-0.094,0.484-0.131,0.728C20.65,75.8,20.631,75.866,20.611,75.934 M22.516,82.575
	c-0.301-0.281-0.586-0.615-0.855-1.017c-0.047-0.069-0.09-0.138-0.133-0.208c0.121,0.052,0.238,0.105,0.355,0.162
	c0.271,0.357,0.582,0.685,0.926,0.982c-0.033,0.03-0.076,0.053-0.131,0.061S22.568,82.57,22.516,82.575"/>
<path fill="#ADA5A1" d="M23.697,67.084c0.27-0.647,0.543-1.294,0.816-1.938C24.264,65.8,23.99,66.446,23.697,67.084 M20.67,75.733
	c0.037-0.241,0.08-0.484,0.131-0.727c0.154-0.665,0.344-1.32,0.543-1.958c-0.074,0.339-0.133,0.677-0.176,1.011
	C21.004,74.617,20.836,75.176,20.67,75.733"/>
<path fill="#9B9491" d="M22.809,82.495c-0.344-0.297-0.654-0.625-0.926-0.982c0.291,0.139,0.576,0.297,0.867,0.486
	C22.908,82.103,22.947,82.373,22.809,82.495"/>
<path fill="#956CAF" d="M21.771,70.851c-0.445,0.811-0.9,1.617-1.348,2.426c-0.33,1.678-0.881,3.295-1.303,4.959
	c-0.092,0.365-0.104,1.183-0.215,1.946l0.148,0.089C19.729,77.073,20.771,73.967,21.771,70.851 M27.1,87.413
	c-0.533-0.299-1.064-0.598-1.594-0.898c-1.424-1.218-3.234-2.052-4.918-2.754c-0.535-0.223-1.215-0.566-1.932-0.869
	c-0.525-0.301-1.043-0.619-1.537-0.977c-0.018,0.006-0.037,0.009-0.057,0.009c-0.082,0-0.164-0.05-0.152-0.144l0.004-0.017
	l-0.182-0.133c-0.098-0.079-0.006-0.214,0.098-0.214c0.02,0,0.037,0.004,0.057,0.014l0.08,0.039l0.008-0.041L16.783,81.3
	c-0.23-0.16-0.387-0.502-0.201-0.762l0.102-0.156c-0.025-0.303-0.029-0.604-0.02-0.905c0.615-1.42,1.166-2.87,1.746-4.297
	c1.715-4.216,3.506-8.394,5.438-12.516c0.057-0.121,0.113-0.242,0.172-0.363c0.201-0.286,0.408-0.568,0.623-0.845
	c0.094-0.12,0.207-0.169,0.322-0.169c0.299,0,0.6,0.339,0.525,0.663c-0.15,0.674-0.336,1.335-0.547,1.986
	c-0.729,1.606-1.436,3.229-2.084,4.87c-0.137,0.268-0.277,0.534-0.418,0.801c-0.043,0.161-0.088,0.323-0.133,0.485
	c-0.41,0.991-0.75,1.985-0.963,2.957c-0.201,0.638-0.391,1.294-0.545,1.958c-0.07,0.307-0.137,0.617-0.189,0.927
	c-0.445,1.49-0.891,2.979-1.324,4.47c0.404,0.209,0.811,0.377,1.111,0.494c0.398,0.156,0.77,0.297,1.129,0.453
	c0.043,0.069,0.086,0.139,0.133,0.207c0.27,0.403,0.557,0.736,0.855,1.018c-0.107,0.012-0.215,0.017-0.322,0.017
	c-1.1,0-2.076-0.56-2.992-1.204c-0.16-0.111-0.322-0.234-0.484-0.363l-0.07,0.166c1.137,0.713,2.279,1.414,3.234,2.346
	c0.25,0.135,0.498,0.279,0.738,0.44c1.5,1.011,3.057,2.042,4.451,3.193C27.15,87.237,27.146,87.337,27.1,87.413"/>
<path fill="#9872B2" d="M16.666,79.477c0.053-1.353,0.441-2.687,0.949-3.986c0.209-0.476,0.412-0.952,0.605-1.433
	c0.352-0.788,0.717-1.561,1.047-2.316c1.404-3.219,2.729-6.556,4.752-9.441c-0.059,0.121-0.115,0.242-0.172,0.364
	c-1.932,4.122-3.723,8.299-5.438,12.516C17.832,76.605,17.279,78.057,16.666,79.477"/>
<path fill="#845F9B" d="M17.615,75.49c0.189-0.481,0.395-0.96,0.604-1.433C18.027,74.538,17.824,75.015,17.615,75.49"/>
<path fill="#956CAF" d="M26.867,87.518c-0.129,0-0.258-0.007-0.381-0.021c-0.299-0.354-0.629-0.68-0.98-0.982
	c0.529,0.301,1.061,0.6,1.594,0.898c-0.037,0.059-0.102,0.103-0.174,0.104C26.906,87.518,26.887,87.518,26.867,87.518"/>
<path fill="#9872B2" d="M26.486,87.497c-1.748-0.191-2.984-1.658-4.395-2.619c-1.098-0.748-2.289-1.328-3.436-1.985
	c0.717,0.302,1.395,0.646,1.932,0.868c1.684,0.701,3.494,1.536,4.916,2.754C25.859,86.817,26.188,87.143,26.486,87.497"/>
<path fill="#956CAF" d="M16.582,81.336v-0.071V81.336z"/>
<path fill="#C8D779" d="M28.189,63.408c0.566-1.611,2.006-3.282,2.822-4.592c1.084-1.739,2.047-3.564,3.178-5.271
	c0.736-1.107,1.477-2.206,2.135-3.362c0.016-0.028,0.031-0.058,0.049-0.088c0.031,1.632-0.316,3.103-0.799,4.584
	C32.529,56.966,30.865,60.725,28.189,63.408 M28.164,67.675c0.98-1.584,1.992-3.152,3.012-4.715c0.965-1.48,1.961-2.935,2.973-4.382
	c0.029-0.04,0.057-0.08,0.086-0.121c-0.014,0.04-0.027,0.08-0.039,0.119c-0.326,0.972-0.682,1.931-1.057,2.884
	c-0.865,0.955-1.627,2.022-2.424,3.017C29.861,65.543,28.992,66.591,28.164,67.675 M26.395,73.3c-1.172,0-2.322-0.647-2.652-1.736
	c0.145-0.502,0.305-0.995,0.49-1.475c1.107-2.861,2.578-5.578,3.791-8.396c0.943-2.192,1.973-4.322,2.988-6.452
	c1.422-2.207,3.008-4.413,3.479-6.894c0.08-0.424,0.471-0.638,0.859-0.638s0.775,0.212,0.854,0.638
	c0.084,0.469,0.133,0.92,0.158,1.361c-0.467,0.758-1.113,1.522-1.379,1.904c-0.676,0.973-1.371,1.927-1.984,2.941
	c-1.221,2.023-2.539,3.99-3.758,6.014c-0.738,1.224-1.734,2.305-1.902,3.773c-0.023,0.198,0.137,0.297,0.301,0.297
	c0.084,0,0.168-0.026,0.229-0.078c2.895-2.421,4.506-6.21,7.305-8.719c-0.066,0.186-0.135,0.374-0.203,0.563
	c-0.576,0.827-1.219,1.626-1.756,2.392c-1.014,1.446-1.992,2.911-2.957,4.389c-1.936,2.961-3.822,5.954-5.537,9.049
	c-0.141,0.253,0.063,0.484,0.289,0.484c0.076,0,0.156-0.027,0.227-0.086c0.822-0.707,1.326-1.615,1.977-2.472
	c1.09-1.44,2.084-2.938,3.236-4.339c0.645-0.783,1.27-1.643,1.93-2.479c-0.205,0.494-0.412,0.987-0.621,1.48
	c0.234,0.118,0.439,0.29,0.574,0.512c-0.141,0.216-0.273,0.431-0.398,0.644c-1.113,1.895-3.137,4.021-3.516,6.215
	c-0.039,0.222,0.115,0.41,0.314,0.41c0.053,0,0.109-0.012,0.164-0.043c1.465-0.769,2.346-2.48,3.191-3.826
	c0.059-0.096-0.023-0.182-0.111-0.182c-0.037,0-0.076,0.018-0.104,0.057c-0.75,1.063-1.533,2.191-2.6,2.953
	c0.658-1.852,2.227-3.698,3.279-5.348c0.242,2.536-1.402,4.245-2.955,6.211c-0.24,0.305-0.561,0.434-0.891,0.434
	c-0.191,0-0.385-0.045-0.568-0.122C27.629,73.122,27.008,73.3,26.395,73.3"/>
<path fill="#C9D779" d="M27.639,64.637c-0.164,0-0.324-0.099-0.301-0.296c0.168-1.468,1.164-2.55,1.902-3.774
	c1.219-2.024,2.535-3.99,3.76-6.014c0.611-1.014,1.307-1.967,1.982-2.941c0.266-0.381,0.912-1.146,1.377-1.904
	c0.006,0.093,0.01,0.185,0.012,0.277l0.01,0.062l-0.008,0.021c0,0.009,0,0.018,0.002,0.027c-0.02,0.031-0.035,0.06-0.051,0.088
	c-0.658,1.156-1.398,2.255-2.133,3.363c-1.133,1.706-2.096,3.531-3.18,5.27c-0.818,1.31-2.256,2.982-2.822,4.592
	c2.676-2.682,4.34-6.442,7.385-8.729c-0.125,0.386-0.262,0.771-0.402,1.161c-2.799,2.509-4.41,6.299-7.305,8.72
	C27.807,64.61,27.723,64.637,27.639,64.637 M28.73,72.603c-0.199,0-0.354-0.189-0.314-0.41c0.379-2.195,2.402-4.32,3.516-6.216
	c0.125-0.213,0.26-0.427,0.398-0.643c0.074,0.12,0.127,0.256,0.154,0.405c0.029,0.162,0.053,0.319,0.066,0.475
	c-1.053,1.648-2.621,3.496-3.279,5.35c1.066-0.765,1.85-1.893,2.6-2.955c0.027-0.039,0.066-0.057,0.104-0.057
	c0.088,0,0.17,0.086,0.111,0.182c-0.846,1.346-1.729,3.059-3.191,3.827C28.84,72.59,28.783,72.603,28.73,72.603 M25.008,72.717
	c-0.227,0-0.43-0.229-0.289-0.483c1.715-3.096,3.602-6.088,5.537-9.05c0.965-1.478,1.945-2.943,2.957-4.389
	c0.537-0.766,1.18-1.565,1.756-2.392c-0.244,0.665-0.496,1.345-0.734,2.055c-0.029,0.04-0.057,0.08-0.086,0.12
	c-1.012,1.448-2.008,2.902-2.973,4.382c-1.02,1.563-2.031,3.131-3.012,4.715c0.828-1.084,1.697-2.132,2.551-3.198
	c0.797-0.994,1.559-2.061,2.424-3.017c-0.246,0.63-0.502,1.257-0.762,1.883c-0.66,0.835-1.285,1.695-1.928,2.479
	c-1.154,1.401-2.148,2.897-3.238,4.338c-0.65,0.857-1.152,1.766-1.979,2.472C25.164,72.69,25.084,72.717,25.008,72.717"/>
<path fill="#C8D779" d="M50.775,39.66c-0.012,0-0.021-0.001-0.035-0.002c-2.289-0.234-4.605-1.786-6.73-2.576
	c-1.596-0.593-4.338-1.969-6.389-1.969c-0.371,0-0.719,0.044-1.031,0.146c-0.014,0.005-0.027,0.007-0.041,0.007
	c-0.08,0-0.154-0.072-0.152-0.154c0.01-0.744,0.838-1.052,2.1-1.052c1.691,0,4.164,0.554,6.48,1.352
	c0.488,0.339,0.967,0.69,1.523,0.902c0.014,0.006,0.027,0.008,0.041,0.008c0.098,0,0.146-0.141,0.08-0.215
	c-0.039-0.041-0.078-0.083-0.119-0.125c0.26,0.105,0.514,0.213,0.764,0.323c-0.359-0.251-0.734-0.464-1.117-0.662
	c-0.133-0.121-0.275-0.243-0.428-0.364c0.58,0.291,1.15,0.597,1.678,0.992l-0.006,0.091c1.957,0.877,3.479,1.869,3.789,2.718
	C51.273,39.332,51.045,39.66,50.775,39.66"/>
<path fill="#C8D779" d="M46.15,35.643c-0.479-0.247-0.969-0.469-1.461-0.706c-0.076-0.037-0.029-0.141,0.041-0.141
	c0.012,0,0.023,0.003,0.037,0.009c0.318,0.161,0.637,0.315,0.953,0.473C45.873,35.399,46.016,35.522,46.15,35.643 M46.541,36.322
	c-0.014,0-0.027-0.003-0.043-0.008c-0.555-0.212-1.033-0.564-1.521-0.902c0.52,0.179,1.031,0.37,1.525,0.57
	c0.041,0.042,0.08,0.084,0.117,0.125C46.689,36.181,46.639,36.322,46.541,36.322"/>
<path fill="#AFC370" d="M44.764,50.785l-0.072-0.072c0.195-0.206,0.242-0.414,0.252-0.686h0.051
	C45.002,50.327,44.957,50.549,44.764,50.785"/>
<path fill="#979C7B" d="M21.98,71.265c0.051-0.18,0.102-0.36,0.152-0.541c0.201-0.559,0.41-1.114,0.627-1.668
	c0.258-0.563,0.531-1.121,0.813-1.672c-0.244,0.586-0.486,1.174-0.729,1.762C22.566,69.82,22.268,70.531,21.98,71.265
	 M20.551,77.437c-0.037-0.137-0.029-0.273,0.002-0.409c-0.002,0.083-0.004,0.165-0.004,0.247
	C20.549,77.328,20.549,77.384,20.551,77.437"/>
<path fill="#AFC370" d="M21.186,77.964c-0.209,0-0.424-0.127-0.533-0.299c-0.049-0.076-0.082-0.152-0.102-0.228
	c-0.002-0.056-0.002-0.108-0.002-0.164c0-0.082,0.002-0.164,0.004-0.246c0.059-0.252,0.197-0.501,0.301-0.747
	c0.078-0.188,0.172-0.367,0.266-0.544c-0.043-0.545-0.023-1.106,0.049-1.678c0.275-0.931,0.547-1.86,0.811-2.793
	c0.289-0.733,0.588-1.444,0.865-2.119c0.242-0.588,0.484-1.176,0.729-1.763c1.006-1.98,2.092-3.855,2.783-5.419
	c2.617-5.936,6.217-11.373,8.947-17.255l0.092,0.039c-1.16,3.669-2.756,7.081-4.385,10.493c-0.574,0.893-1.123,1.787-1.561,2.699
	c-1.914,3.999-4.172,7.852-5.633,12.051c-0.207,0.59-0.211,1.119-0.074,1.572c-0.531,1.822-0.898,3.732-1.801,5.346l-0.033,0.028
	c-0.035,0.365-0.102,0.688-0.447,0.94C21.377,77.938,21.281,77.964,21.186,77.964"/>
<path fill="#A1A683" d="M22.133,70.724c0.059-0.211,0.117-0.422,0.176-0.632c0.143-0.346,0.295-0.692,0.451-1.036
	C22.545,69.608,22.334,70.165,22.133,70.724"/>
<path fill="#9FA580" d="M21.561,72.382c0.049-0.151,0.1-0.301,0.15-0.449c0.135-0.404,0.275-0.807,0.422-1.21
	c-0.051,0.181-0.104,0.362-0.154,0.543C21.836,71.632,21.693,72.005,21.561,72.382"/>
<path fill="#ABB77C" d="M21.168,74.059c0.043-0.333,0.102-0.67,0.178-1.01c0.07-0.226,0.141-0.447,0.215-0.667
	c0.133-0.377,0.275-0.749,0.418-1.116C21.715,72.198,21.443,73.128,21.168,74.059"/>
<path fill="#A4AA84" d="M21.344,73.049c0.215-0.972,0.555-1.966,0.965-2.957c-0.059,0.21-0.117,0.421-0.176,0.632
	c-0.146,0.401-0.287,0.805-0.424,1.209c-0.049,0.148-0.1,0.299-0.148,0.449C21.488,72.603,21.416,72.823,21.344,73.049"/>
<path fill="#B1C370" d="M23.742,71.563c-0.137-0.453-0.133-0.982,0.074-1.572c1.461-4.199,3.719-8.051,5.633-12.05
	c0.438-0.912,0.986-1.806,1.561-2.699c-1.014,2.129-2.043,4.259-2.986,6.452c-1.211,2.817-2.684,5.534-3.791,8.394
	C24.047,70.567,23.889,71.063,23.742,71.563"/>
<path fill="#979C7B" d="M65.122,60.296c-0.035-0.006-0.068-0.017-0.102-0.033c-0.881-1.713-1.797-3.408-2.703-5.097
	c-0.43-0.805-0.877-1.633-1.344-2.468C62.52,55.169,63.901,57.692,65.122,60.296"/>
<path fill="#AFC370" d="M65.204,60.304c-0.025,0-0.055-0.002-0.082-0.007c-1.221-2.604-2.602-5.128-4.148-7.598
	c-0.502-0.898-1.027-1.803-1.584-2.691c-0.447-0.952-0.965-1.867-1.582-2.681c0.049-0.031,0.105-0.049,0.16-0.049
	c0.072,0,0.141,0.03,0.189,0.102c2.704,3.953,5.999,7.842,7.413,12.489C65.651,60.139,65.43,60.304,65.204,60.304"/>
<path fill="#8EB57D" d="M65.02,60.264c-0.068-0.032-0.127-0.083-0.166-0.155c-1.545-2.783-3.107-5.537-4.705-8.277
	c-0.229-0.613-0.48-1.226-0.76-1.824c0.557,0.889,1.083,1.794,1.584,2.691c0.467,0.835,0.914,1.663,1.344,2.467
	C63.223,56.855,64.139,58.551,65.02,60.264"/>
<path fill="#A7C077" d="M59.389,50.008c-0.541-0.864-1.109-1.712-1.715-2.525c0.023-0.064,0.072-0.119,0.133-0.156
	C58.422,48.141,58.943,49.056,59.389,50.008"/>
<path fill="#95B97F" d="M60.151,51.832c-0.809-1.386-1.627-2.768-2.458-4.149c-0.041-0.068-0.043-0.138-0.02-0.2
	c0.605,0.812,1.174,1.661,1.715,2.525C59.668,50.606,59.92,51.219,60.151,51.832"/>
<line fill="none" x1="0" y1="0" x2="0" y2="128.977"/>
<line fill="none" x1="120.19" y1="128.977" x2="120.19" y2="0"/>
</svg>
