<?xml version="1.0" encoding="utf-8"?>
<!-- Generator: Adobe Illustrator 16.0.0, SVG Export Plug-In . SVG Version: 6.00 Build 0)  -->
<!DOCTYPE svg PUBLIC "-//W3C//DTD SVG 1.1//EN" "http://www.w3.org/Graphics/SVG/1.1/DTD/svg11.dtd">
<svg version="1.1" id="Layer_1" xmlns="http://www.w3.org/2000/svg" xmlns:xlink="http://www.w3.org/1999/xlink" x="0px" y="0px"
	 width="85.521px" height="112.758px" viewBox="0 0 85.521 112.758" enable-background="new 0 0 85.521 112.758"
	 xml:space="preserve">
<path fill="#B27C22" d="M84.906,30.781c-0.024-0.119-0.058-0.25-0.088-0.381c-0.021-0.09,0.099-0.17,0.159-0.082
	c0.052,0.076,0.095,0.152,0.126,0.234c-0.022,0.014-0.042,0.02-0.062,0.025C85.01,30.639,84.967,30.707,84.906,30.781"/>
<line fill="none" x1="0" y1="0" x2="0" y2="112.758"/>
<line fill="none" x1="85.521" y1="112.758" x2="85.521" y2="0"/>
<g>
	<defs>
		<rect id="SVGID_1_" y="20.775" width="85.521" height="71.205"/>
	</defs>
	<clipPath id="SVGID_2_">
		<use xlink:href="#SVGID_1_"  overflow="visible"/>
	</clipPath>
	<path clip-path="url(#SVGID_2_)" fill="#B27C22" d="M81.338,31.9c-0.001-0.047-0.008-0.107-0.027-0.158
		c-0.025-0.109,0.123-0.193,0.2-0.094c0.015,0.021,0.022,0.033,0.028,0.053c-0.053,0.066-0.11,0.121-0.17,0.178
		C81.36,31.887,81.348,31.893,81.338,31.9"/>
	<path clip-path="url(#SVGID_2_)" fill="#D3922B" d="M81.162,31.438c-0.778-0.459-2.647-3.162-3.049-3.547
		c-1.845-1.727-4.075-3.043-6.343-4.127c0.002-0.01,0.012-0.008,0.016-0.027c1.643-5.15,7.654-0.764,9.92,1.447
		c0.653,0.652,3.913,3.621,3.301,4.988c-0.029-0.053-0.058-0.098-0.105-0.145c-0.35-0.309-1.042-0.426-1.493-0.361
		C82.544,29.793,81.268,30.457,81.162,31.438"/>
	<path clip-path="url(#SVGID_2_)" fill="#DAD224" d="M69.624,36.672c2.961-1.43,5.929-2.172,9.1-2.922
		c0.709-0.164,3.648-0.75,2.824-2.047c0.406-0.463,0.682-1.039,1.305-1.297c0.309-0.111,0.622-0.201,0.953-0.195
		c0.16,0.004,0.775,0.039,0.97,0.258c-0.022,0.025-0.036,0.041-0.06,0.064c-0.053,0.027-0.021,0.102,0.027,0.102
		c0.039-0.002,0.061-0.018,0.09-0.02c0.008,0.059-0.004,0.121-0.049,0.199c-0.025,0.033,0.025,0.063,0.051,0.039
		c0.022-0.023,0.047-0.049,0.072-0.072c0.655,3.887-5.41,4.953-8.046,5.406c-2.477,0.42-4.747,1.1-7.155,1.711
		c-0.018-0.441-0.156-0.896-0.373-1.303C69.39,36.693,69.497,36.732,69.624,36.672"/>
	<path clip-path="url(#SVGID_2_)" fill="#D8BC28" d="M76.897,36.73c-2.438,0.473-4.755,1.143-7.156,1.768
		c-0.05,0.01-0.098,0.01-0.134,0.002c0.065-0.188,0.097-0.391,0.099-0.602c2.408-0.611,4.679-1.291,7.156-1.709
		c2.635-0.455,8.7-1.523,8.045-5.408c0.062-0.074,0.104-0.143,0.135-0.203c0.02-0.006,0.039-0.012,0.062-0.025
		c0.829,1.795-1.192,3.924-2.685,4.574C80.639,35.893,78.792,36.359,76.897,36.73"/>
</g>
<path fill="#B27C22" d="M69.706,37.898c-0.002,0.209-0.033,0.414-0.099,0.602c-0.267-0.053-0.376-0.475-0.051-0.563
	C69.606,37.928,69.656,37.908,69.706,37.898"/>
<path fill="#B27C22" d="M72.057,24.678c-0.107-0.078-0.205-0.164-0.301-0.258c0.045-0.031,0.088-0.061,0.129-0.08
	c0.215-0.111,0.408,0.156,0.209,0.307C72.083,24.654,72.071,24.672,72.057,24.678"/>
<line fill="none" x1="0" y1="0" x2="0" y2="112.758"/>
<line fill="none" x1="85.521" y1="112.758" x2="85.521" y2="0"/>
<g>
	<defs>
		<rect id="SVGID_3_" y="20.775" width="85.521" height="71.205"/>
	</defs>
	<clipPath id="SVGID_4_">
		<use xlink:href="#SVGID_3_"  overflow="visible"/>
	</clipPath>
	<path clip-path="url(#SVGID_4_)" fill="#D8BC28" d="M69.432,36.139c2.145-1.064,4.539-1.939,6.895-2.373
		c0.842-0.158,5.08-0.525,5.012-1.865c0.01-0.008,0.021-0.014,0.031-0.021c0.06-0.057,0.117-0.111,0.17-0.176h0.009
		c0.823,1.297-2.116,1.883-2.825,2.049c-3.171,0.75-6.139,1.49-9.1,2.92c-0.127,0.061-0.233,0.021-0.291-0.074
		c-0.022-0.035-0.036-0.057-0.043-0.076C69.241,36.387,69.274,36.213,69.432,36.139"/>
	<path clip-path="url(#SVGID_4_)" fill="#B27C22" d="M85.43,30.313c0-0.004-0.006-0.004-0.01-0.006
		c0.758-1.146-3.054-5.191-3.586-5.688c-1.994-1.881-7.137-5.316-9.469-3.152c-0.002,0.01-0.002,0.01-0.014,0.016
		c-0.01,0.01-0.021,0.016-0.043,0.031c-0.023,0.023-0.037,0.041-0.061,0.064c-0.434,0.459-0.757,1.129-0.93,2.066
		c-0.024,0.119,0.029,0.188,0.097,0.23c-0.022,0.063-0.034,0.125,0.019,0.193c0.102,0.125,0.211,0.242,0.322,0.35
		c0.045-0.029,0.088-0.059,0.129-0.08c0.215-0.109,0.408,0.158,0.209,0.309c-0.012,0.008-0.023,0.025-0.037,0.031
		c1.181,0.986,2.896,1.523,4.092,2.426c1.244,0.951,2.188,1.975,3.15,3.176c0.23,0.293,1.332,1.77,1.902,1.586
		c0.04,0.035,0.092,0.064,0.137,0.035c-0.002-0.047-0.008-0.105-0.027-0.156c-0.024-0.111,0.123-0.195,0.201-0.096
		c0.014,0.021,0.021,0.033,0.027,0.053l0.008,0.002c0.406-0.463,0.682-1.039,1.305-1.297c0.309-0.111,0.621-0.201,0.953-0.193
		c0.074,0,0.244,0.012,0.422,0.039c0.076,0.039,0.154,0.07,0.234,0.127c0.084,0.059,0.159,0.129,0.237,0.197
		c-0.001,0.027,0.013,0.059,0.045,0.059c0.009,0,0.013-0.004,0.021-0.006c0.018,0.016,0.035,0.029,0.055,0.045
		c-0.004,0.045-0.004,0.086-0.035,0.141c-0.025,0.033,0.025,0.063,0.05,0.039s0.048-0.049,0.072-0.072
		c-0.003-0.014-0.009-0.029-0.011-0.043c0.056,0.047,0.111,0.092,0.166,0.137c0.061,0.051,0.134,0.039,0.188-0.01
		C85.412,30.713,85.485,30.531,85.43,30.313 M85.006,30.172c-0.029-0.053-0.058-0.098-0.104-0.145
		c-0.351-0.309-1.042-0.426-1.494-0.361c-0.863,0.127-2.14,0.791-2.246,1.771c-0.778-0.459-2.647-3.164-3.049-3.547
		c-1.845-1.727-4.075-3.043-6.341-4.127c0.002-0.01,0.01-0.008,0.014-0.025c1.643-5.152,7.654-0.766,9.92,1.445
		C82.359,25.836,85.619,28.805,85.006,30.172"/>
</g>
<path fill="#D8BC28" d="M72.057,24.678c-1.313,1.059-1.549,3.129-1.989,4.643c-0.577,1.967-1.119,3.949-1.724,5.898
	c-0.021,0.063-0.049,0.105-0.093,0.135c-0.114-0.09-0.254-0.164-0.396-0.221l0.002-0.01c0.289-2.336,1.289-4.57,1.933-6.818
	c0.372-1.311,0.695-3.145,1.966-3.885C71.852,24.514,71.95,24.6,72.057,24.678"/>
<path fill="#DE9927" d="M68.251,35.354c-0.14,0.135-0.416,0.033-0.396-0.221C67.999,35.189,68.136,35.264,68.251,35.354"/>
<path fill="#DAD224" d="M72.249,21.578c-0.434,0.459-0.758,1.129-0.93,2.066c-0.024,0.119,0.029,0.188,0.097,0.23
	c-0.022,0.063-0.034,0.127,0.019,0.193c0.102,0.125,0.211,0.242,0.321,0.352c-1.271,0.74-1.592,2.574-1.965,3.885
	c-0.644,2.248-1.644,4.482-1.933,6.818c-0.463-0.215-1.039-0.338-1.597-0.313c1.167-4.482,1.222-10.824,5.742-13.146
	c0.069-0.016,0.142-0.039,0.211-0.055C72.235,21.604,72.245,21.596,72.249,21.578"/>
<path fill="#D8BC28" d="M68.52,24.582c0.398-0.914,0.98-2.029,1.832-2.615c0.33-0.23,0.594-0.311,0.854-0.365
	c0.269-0.205,0.641-0.256,0.957-0.117c0.058-0.008,0.117-0.025,0.179-0.041c0.013-0.006,0.026,0.016,0.024,0.023
	c-0.002,0.01-0.002,0.01-0.012,0.018c-0.012,0.008-0.021,0.014-0.045,0.029c-0.018-0.004-0.041,0.012-0.062,0.025
	c0.006,0.012,0.004,0.029,0.001,0.039c-0.004,0.018-0.014,0.025-0.034,0.031c-0.069,0.014-0.142,0.039-0.211,0.053
	c-4.521,2.326-4.575,8.666-5.742,13.148c-0.151-0.012-0.305-0.004-0.463,0.021C66.245,31.354,67.132,27.811,68.52,24.582"/>
<path fill="#B27C22" d="M66.229,34.918c-0.074,0.281-0.468,0.203-0.43-0.084c0.156-0.027,0.313-0.035,0.462-0.023
	C66.252,34.846,66.237,34.881,66.229,34.918"/>
<path fill="#D3922B" d="M64.003,43.082c0.128-0.213,0.183-0.488,0.181-0.719c-0.035-0.797-0.465-1.512-0.969-2.105
	c-0.675-0.791-1.748-1.488-2.742-1.381c1.478-1.311,3.121-2.342,4.674-3.543c0.892,0.215,1.834-0.164,2.682,0.375
	c0.996,0.615,1.443,1.686,1.498,2.803c-0.764,1.127-1.818,1.883-2.859,2.758C65.838,41.803,64.908,42.803,64.003,43.082"/>
<path fill="#785305" d="M62.635,43.203c0.092-0.076,0.225,0.072,0.132,0.15c-0.034,0.031-0.06,0.064-0.104,0.094
	c-0.051-0.076-0.082-0.158-0.103-0.248c0.022-0.016,0.05-0.01,0.074,0.014l0.007,0.01c0.001-0.008-0.007-0.01-0.007-0.01
	L62.635,43.203z"/>
<path fill="#D3922B" d="M62.881,42.928c0.057-0.971-0.367-1.969-1.076-2.625c-0.42-0.387-1.514-1.041-2.114-0.652
	c0.022-0.111,0.042-0.213,0.073-0.32c1.084-0.283,2.228,0.305,2.955,1.115c0.418,0.453,0.861,1.055,0.928,1.689
	c0.062,0.508-0.223,0.691-0.371,1.109l-0.002,0.008c-0.038,0.051-0.043,0.125-0.03,0.205c-0.104-0.049-0.188-0.105-0.245-0.211
	C62.944,43.141,62.918,43.031,62.881,42.928"/>
<path fill="#785305" d="M59.477,39.816c0.137-0.059,0.271-0.109,0.414-0.156c0.111-0.035,0.203,0.125,0.095,0.191
	c-0.085,0.049-0.164,0.109-0.253,0.168c-0.068,0.006-0.133,0.002-0.207-0.012c-0.055-0.021-0.09-0.074-0.063-0.117
	c0.014-0.018,0.023-0.023,0.035-0.041c0,0-0.017-0.002-0.015-0.012C59.485,39.828,59.477,39.826,59.477,39.816"/>
<path fill="#B27C22" d="M69.556,37.938c0.049-0.01,0.101-0.029,0.149-0.037c-0.018-0.443-0.156-0.898-0.373-1.305
	c-0.022-0.033-0.036-0.055-0.043-0.074c-0.246-0.439-0.582-0.82-0.928-1.098c-0.033-0.025-0.065-0.053-0.111-0.07
	c-0.139,0.135-0.416,0.033-0.395-0.221l0.002-0.01c-0.463-0.215-1.037-0.338-1.597-0.314c-0.009,0.037-0.024,0.072-0.032,0.109
	c-0.074,0.281-0.468,0.203-0.43-0.084c-0.186,0.02-0.367,0.07-0.533,0.133c-0.018-0.004-0.027-0.006-0.057-0.002
	c-2.014,0.787-3.957,2.227-5.446,3.793c-0.083,0.078-0.081,0.16-0.056,0.238c-0.039,0.064-0.075,0.135-0.106,0.211
	c-0.024,0.031-0.058,0.049-0.077,0.086c-0.046,0.037-0.098,0.057-0.146,0.104c-0.022,0.023,0.007,0.068,0.029,0.055
	c0.021-0.006,0.041-0.012,0.062-0.018c-0.033,0.117-0.05,0.248,0.01,0.383c0.136-0.059,0.269-0.109,0.412-0.156
	c0.112-0.035,0.204,0.125,0.097,0.189c-0.087,0.051-0.166,0.111-0.254,0.17c0.297-0.008,0.569-0.127,0.891-0.025
	c0.423,0.141,0.772,0.391,1.065,0.707c0.47,0.512,0.851,1.197,0.997,1.902c-0.027,0.004-0.061,0.016-0.074,0.043
	c-0.061-0.375-0.185-0.715-0.408-1.025c-0.024-0.023-0.058,0-0.045,0.029c0.203,0.375,0.328,0.762,0.4,1.168
	c-0.035,0.125-0.031,0.258,0.001,0.381c0.022-0.016,0.05-0.01,0.074,0.014l0.001-0.01c0.092-0.076,0.225,0.074,0.132,0.15
	c-0.034,0.031-0.06,0.064-0.104,0.094v0.01c0.052,0.078,0.105,0.135,0.172,0.186c0.324,0.246,0.679,0.238,1.027,0.061
	c0.012-0.008,0.012-0.008,0.014-0.018c1.164-0.189,2.197-1.465,3.033-2.131c0.869-0.686,2.226-1.572,2.549-2.73
	c0.011-0.008,0.029-0.004,0.033-0.023c0.047-0.094,0.094-0.191,0.116-0.301C69.34,38.447,69.231,38.025,69.556,37.938
	 M63.276,43.244l-0.002,0.008c-0.037,0.051-0.043,0.125-0.031,0.205c-0.104-0.049-0.188-0.105-0.244-0.211
	c-0.055-0.105-0.08-0.215-0.117-0.318c0.056-0.971-0.367-1.969-1.077-2.625c-0.419-0.387-1.513-1.041-2.113-0.652
	c0.007-0.035,0.017-0.066,0.022-0.098c0.029,0.004,0.06,0.006,0.088-0.002c0.133-0.043,0.164-0.092,0.254-0.193
	c0.02-0.021,0.021-0.047,0.018-0.068c0.988-0.113,1.988,0.422,2.647,1.156c0.417,0.453,0.86,1.055,0.927,1.689
	C63.709,42.643,63.425,42.826,63.276,43.244 M66.468,41.268c-0.629,0.535-1.56,1.535-2.464,1.814
	c0.127-0.213,0.182-0.49,0.179-0.717c-0.033-0.799-0.464-1.514-0.967-2.109c-0.677-0.791-1.749-1.488-2.743-1.379
	c1.479-1.311,3.121-2.342,4.673-3.543c0.894,0.213,1.835-0.164,2.683,0.375c0.996,0.615,1.442,1.686,1.498,2.803
	C68.563,39.639,67.508,40.395,66.468,41.268"/>
<path fill="#785305" d="M54.045,45.471c0.044,0.02,0.029,0.094-0.018,0.094c-0.037-0.01-0.074-0.016-0.121-0.025
	c-0.063-0.012-0.045-0.104,0.02-0.09C53.971,45.457,54.008,45.465,54.045,45.471"/>
<path fill="#897531" d="M62.663,43.457c-4.414,4.357-10.037,7.59-14.906,11.439c-4.766,3.773-9.477,7.557-14.396,11.129
	c-0.096-0.182-0.286-0.285-0.526-0.18l-0.073,0.033c-0.042,0.021-0.075,0.043-0.118,0.063l-0.015-0.021
	c1.942-1.727,4.189-3.115,6.27-4.67c2.693-2.008,5.266-4.182,7.891-6.287c2.426-1.953,4.957-3.773,7.498-5.592
	c1.41-1,2.828-2.008,4.23-3.029c1.194-0.881,2.411-2.119,3.768-2.758c-0.01-0.002-0.008-0.012-0.008-0.012
	c-0.021-0.004-0.006-0.029,0.004-0.018c0.018,0.002,0.016,0.012,0.024,0.014c0.104-0.047,0.199-0.094,0.293-0.133
	c-0.062,0.025-0.118-0.033-0.104-0.098c-0.004-0.029,0.002-0.057,0.009-0.094c0.006-0.027,0.03-0.051,0.057-0.045
	c0.021,0.088,0.052,0.172,0.103,0.248V43.457z"/>
<path fill="#897531" d="M59.733,40.02c-4.937,3.236-9.303,7.25-14.111,10.662c-5.156,3.666-10.217,7.479-15.383,11.154
	c0.002-0.01,0.011-0.008,0.013-0.018c0.001-0.01,0.001-0.01,0.022-0.014c0.139-0.078,0.208-0.189,0.221-0.301
	c0.098-0.162,0.091-0.324,0.013-0.455c4.958-3.584,9.844-7.236,14.848-10.764c2.668-1.879,5.155-3.906,7.66-5.979
	c1.218-1,2.507-1.883,3.827-2.729c0.885-0.57,1.691-1.326,2.636-1.762c-0.002,0.01,0.007,0.012,0.007,0.021
	c-0.003,0.008,0.014,0.012,0.014,0.012c-0.012,0.016-0.022,0.025-0.035,0.041c-0.028,0.041,0.009,0.096,0.063,0.117
	C59.599,40.021,59.665,40.025,59.733,40.02"/>
<path fill="#56606A" d="M30.024,61.994c0,0,0.009,0,0.012-0.008L30.024,61.994z"/>
<path fill="#9A833A" d="M62.306,43.568c0.104-0.047,0.199-0.094,0.294-0.133c-0.063,0.025-0.119-0.033-0.105-0.098
	c-0.004-0.029,0.002-0.057,0.008-0.094c0.007-0.027,0.031-0.051,0.058-0.045c-0.032-0.123-0.036-0.256-0.001-0.383
	c-0.072-0.406-0.197-0.791-0.4-1.166c-0.013-0.031,0.021-0.053,0.045-0.029c0.224,0.311,0.348,0.65,0.408,1.025
	c0.014-0.027,0.047-0.039,0.074-0.043c-0.146-0.705-0.527-1.391-0.997-1.904c-0.293-0.314-0.643-0.564-1.065-0.705
	c-0.321-0.1-0.594,0.018-0.891,0.025c-4.937,3.236-9.303,7.25-14.111,10.662c-4.876,3.469-9.672,7.059-14.549,10.547
	c0.041-0.051,0.078-0.104,0.12-0.154c0.028-0.035-0.006-0.096-0.051-0.076c-0.369,0.156-0.652,0.42-0.966,0.66
	c-0.095,0.074-0.093,0.184-0.048,0.266c-0.031,0.02-0.058,0.051-0.091,0.063l-0.011,0.008c-0.033,0.021-0.066,0.045-0.099,0.066
	c0.717,0.521,1.376,1.443,1.743,1.955c0.374,0.521,0.81,1.254,0.904,1.951c0.02-0.016,0.034-0.031,0.055-0.047
	c1.942-1.727,4.189-3.115,6.27-4.67c2.693-2.008,5.267-4.18,7.892-6.287c2.426-1.953,4.957-3.773,7.498-5.592
	c1.41-1,2.828-2.008,4.231-3.029c1.192-0.881,2.41-2.119,3.767-2.76c-0.011-0.002-0.008-0.01-0.008-0.01
	c-0.021-0.004-0.006-0.031,0.004-0.018C62.299,43.557,62.297,43.566,62.306,43.568"/>
<path fill="#657C84" d="M25.08,85.49c2.751-2.348,5.792-4.43,8.134-7.221c0.323-0.385,1.186-1.377,1.33-2.113
	c1.043,1.826-0.781,5.674-1.927,6.842c-1.802,1.838-4.175,3.098-6.404,4.348c-3.816,2.137-7.439,3.59-11.414,3.914
	C18.777,90.432,22.02,88.104,25.08,85.49"/>
<path fill="#56606A" d="M22.024,73.629c-2.447,0.463-2.505-3.27-1.972-4.766c0.007-0.037,0.07-0.016,0.064,0.021
	c-0.473,1.574-0.265,4.545,1.901,4.59C22.11,73.482,22.115,73.607,22.024,73.629"/>
<path fill="#99A8B6" d="M33.848,75.477c1.462,0.469-2.541,4.287-3.009,4.73c-2.342,2.256-5.021,4.334-7.605,6.322
	c-3.485,2.691-8.975,5.438-13.639,4.422c3.121,0.328,6.39-0.584,9.274-2.305c2.646-1.568,5.21-3.457,7.504-5.514
	C29,80.779,31.947,78.498,33.848,75.477"/>
<path fill="#56606A" d="M6.188,84.713c3.239-4.006,7.502-7.25,11.786-10.07c0.03-0.014,0.052,0.02,0.027,0.043
	c-4.267,2.986-8.195,6.275-11.732,10.1C6.222,84.834,6.149,84.762,6.188,84.713"/>
<path fill="#99A8B6" d="M7.24,65.742c2.838-2.941,6.207-5.33,9.676-7.691c0.078,0.035,0.165,0.08,0.251,0.127
	c0.08,0.082,0.15,0.152,0.216,0.262c0.051,0.076,0.083,0.16,0.125,0.244c-0.005,0.066-0.019,0.139-0.036,0.223
	c-0.576,0.943-4.054,2.385-4.743,2.832C10.811,62.953,8.953,64.258,7.24,65.742"/>
<line fill="none" x1="0" y1="0" x2="0" y2="112.758"/>
<line fill="none" x1="85.521" y1="112.758" x2="85.521" y2="0"/>
<g>
	<defs>
		<rect id="SVGID_5_" y="20.775" width="85.521" height="71.205"/>
	</defs>
	<clipPath id="SVGID_6_">
		<use xlink:href="#SVGID_5_"  overflow="visible"/>
	</clipPath>
	<path clip-path="url(#SVGID_6_)" fill="#56606A" d="M1.208,80.9c0.439-3.689,2.009-6.824,4.236-9.752
		c2.526-3.348,6.531-5.238,9.945-7.514c0.046-0.039,0.087,0.037,0.043,0.066c-2.883,2.207-6.088,3.951-8.692,6.529
		c-3.054,3.014-4.194,6.727-5.367,10.703C1.341,81.041,1.195,81.012,1.208,80.9"/>
	<path clip-path="url(#SVGID_6_)" fill="#7B959E" d="M20.116,68.885c0.007-0.037-0.056-0.059-0.063-0.021
		c-0.533,1.496-0.475,5.227,1.972,4.766c0.09-0.021,0.085-0.146-0.008-0.154C19.852,73.428,19.644,70.461,20.116,68.885
		 M5.443,71.148c-2.226,2.928-3.796,6.063-4.235,9.752c-0.013,0.111,0.133,0.141,0.164,0.033c1.173-3.975,2.314-7.689,5.367-10.703
		c2.605-2.576,5.809-4.32,8.693-6.529c0.044-0.029,0.003-0.105-0.044-0.066C11.975,65.91,7.97,67.803,5.443,71.148 M8.415,65.248
		c2.836-2.246,5.908-3.998,9.019-5.807c-0.052,0.266-0.08,0.547-0.13,0.803c-0.062,0.313-0.288,0.889-0.149,1.203
		c0.038,0.092,0.157,0.115,0.238,0.045c1.235,2.055,2.966,4.465,5.118,5.689c-0.202,0.104-0.387,0.219-0.53,0.363
		c-0.047,0.047-0.002,0.113,0.054,0.115c0.039-0.002,0.072-0.023,0.111-0.035c-0.067,0.053-0.132,0.098-0.191,0.154
		c-0.057,0.045-0.006,0.121,0.068,0.088c0.043-0.021,0.088-0.059,0.139-0.076c-0.098,0.064-0.19,0.143-0.262,0.225
		c-0.029,0.041,0.008,0.098,0.057,0.086c0.357-0.109,0.695-0.424,1-0.67c0.01,0.002,0.009,0.01,0.017,0.014
		c0.149,0.066,0.282-0.127,0.161-0.236c-0.033-0.025-0.057-0.049-0.082-0.074c0.013-0.016,0.035-0.031,0.057-0.045l0.011-0.008
		c0.027,0.006,0.054,0.02,0.085,0.008c0.184-0.068,0.525-0.346,0.961-0.717c0.098-0.059,0.196-0.123,0.302-0.18
		c0.033-0.021,0.024-0.07-0.015-0.07c1.575-1.406,4.033-3.822,4.801-3.803c0.582,0.533,1.258,0.98,1.753,1.613
		c0.581,0.732,1.479,1.986,1.145,2.998c-0.618,0.908-2.649,2.369-3.867,3.617c-0.305,0.189-0.601,0.387-0.881,0.6
		c-0.203,0.15-0.65,0.434-0.842,0.74c-0.219,0.137-0.419,0.289-0.555,0.492c-0.054,0.084,0.005,0.172,0.104,0.154
		c0.149-0.029,0.286-0.098,0.425-0.174c0.041,0.035,0.112,0.012,0.131-0.041c0.017-0.035,0.045-0.078,0.072-0.121
		c0.135-0.105,0.266-0.232,0.386-0.361c0.012,0.031,0.007,0.059,0.02,0.09c1.242,1.883,2.722,3.863,4.594,5.156
		c0.092,0.064,0.188,0.057,0.257,0.004l0.023,0.023c-3.63,3.576-7.376,7.102-11.658,9.912c-4.016,2.623-9.442,4.656-13.894,2.521
		c-0.099-0.076-0.203-0.135-0.293-0.209C6.117,89.295,6.051,89.291,6,89.311c-0.696-0.395-1.372-0.881-2.003-1.502
		c-4.732-4.648-3.698-11.941-0.551-17.178c0.028-0.041,0.048-0.094,0.075-0.137c0.067-0.102,0.144-0.201,0.213-0.311
		C4.997,68.371,6.529,66.738,8.415,65.248 M18.001,74.686c0.025-0.023,0.003-0.057-0.028-0.043
		c-4.283,2.82-8.546,6.064-11.785,10.07c-0.038,0.049,0.034,0.121,0.081,0.072C9.806,80.961,13.734,77.672,18.001,74.686"/>
	<path clip-path="url(#SVGID_6_)" fill="#56606A" d="M12.729,61.738c0.689-0.445,4.167-1.889,4.743-2.834
		c0.017-0.082,0.031-0.154,0.036-0.221c-0.042-0.086-0.074-0.168-0.125-0.244c-0.065-0.107-0.136-0.18-0.216-0.262
		c-0.086-0.045-0.173-0.092-0.251-0.127c-3.469,2.359-6.838,4.75-9.676,7.691C8.953,64.258,10.811,62.953,12.729,61.738
		 M33.213,78.27c-2.342,2.791-5.383,4.873-8.134,7.221c-3.06,2.613-6.302,4.941-10.28,5.77c3.974-0.324,7.597-1.775,11.413-3.914
		c2.23-1.25,4.602-2.51,6.405-4.35c1.145-1.166,2.97-5.014,1.926-6.84C34.399,76.893,33.536,77.885,33.213,78.27 M30.839,80.207
		c0.468-0.443,4.471-4.262,3.009-4.73c-1.901,3.021-4.848,5.303-7.475,7.656c-2.293,2.057-4.858,3.945-7.503,5.514
		c-2.885,1.721-6.153,2.633-9.275,2.305c4.664,1.014,10.154-1.73,13.639-4.422C25.819,84.541,28.498,82.463,30.839,80.207
		 M17.434,59.441c-3.111,1.811-6.183,3.561-9.02,5.807c-1.885,1.488-3.417,3.123-4.68,4.936c-0.069,0.109-0.146,0.209-0.214,0.309
		c-0.027,0.043-0.046,0.098-0.075,0.139c-3.146,5.236-4.18,12.529,0.551,17.178c0.632,0.621,1.308,1.107,2.003,1.502
		c0.052-0.02,0.117-0.016,0.175,0.025c0.091,0.074,0.195,0.133,0.294,0.209c4.452,2.135,9.878,0.102,13.894-2.521
		c4.282-2.811,8.028-6.336,11.658-9.912c0.598-0.568,1.181-1.15,1.76-1.725c0.002-0.008,0.021-0.004,0.023-0.014l0.001-0.01
		l0.009,0.002c0.014-0.018,0.016-0.033,0.044-0.029c0.485,0.057,0.679,0.275,0.708,0.566c1.06,0.867,0.64,2.521,0.206,3.705
		c-1.158,3.176-2.703,4.635-5.484,6.502c-5.271,3.531-12.291,7.119-18.743,5.449c-1.619-0.109-3.219-0.5-4.214-1.459
		c-0.986-0.422-1.921-0.998-2.812-1.744c-3.505-2.939-4.025-7.611-3.138-11.881c0.105-1.896,0.845-3.668,1.888-5.283
		c3.108-5.959,8.914-10.072,14.376-13.699c0.265-0.186,0.533,0.105,0.456,0.348c0.101,0.066,0.181,0.15,0.258,0.242
		c0.123,0.053,0.241,0.133,0.322,0.254c0.096,0.143,0.1,0.314,0.049,0.477c0.041,0.084,0.074,0.158,0.115,0.242
		c0.027,0.053,0.022,0.129-0.033,0.164c-0.033,0.023-0.064,0.037-0.086,0.051c0.03,0.283-0.021,0.596-0.041,0.84
		c-0.021,0.205-0.029,0.539-0.081,0.842c0.076,0.008,0.137,0.037,0.186,0.123c1.373,2.33,3.153,4.092,5.095,5.904
		c0.011-0.008,0.023-0.014,0.033-0.021c-0.048-0.096-0.032-0.227,0.08-0.311c1.223-0.883,2.28-1.99,3.419-2.979
		c0.516-0.451,1.59-1.594,2.492-1.713c-0.024-0.023-0.041-0.035-0.056-0.059c0.214-0.072,0.422-0.156,0.611-0.053
		c0.019,0.006,0.035,0.018,0.05,0.041l0.008,0.002c0.01,0,0.01,0,0.018,0.012c0.009,0.002,0.006,0.01,0.016,0.012
		c0.119,0.131,0.315,0.148,0.47,0.084c-0.033,0.021-0.066,0.043-0.098,0.066c0.716,0.523,1.375,1.443,1.743,1.953
		c0.373,0.521,0.809,1.256,0.903,1.953c0.02-0.016,0.034-0.031,0.055-0.047l0.015,0.021c-0.192,0.152-0.262,0.416-0.116,0.645
		c0.007,0.012,0.008,0.002,0.016,0.014c0.151,0.592-0.704,1.348-1.057,1.689c-1.107,1.07-2.99,2.109-3.571,3.607
		c1.247,1.752,2.624,3.291,4.109,4.861c0.108,0.127,0.072,0.262-0.027,0.33c-0.069,0.053-0.166,0.061-0.258-0.004
		c-1.871-1.293-3.351-3.273-4.593-5.156c-0.013-0.031-0.008-0.061-0.02-0.09c-0.12,0.129-0.251,0.256-0.387,0.361
		c-0.026,0.043-0.054,0.084-0.071,0.119c-0.019,0.055-0.09,0.08-0.131,0.043c-0.139,0.076-0.276,0.145-0.425,0.172
		c-0.099,0.02-0.158-0.068-0.104-0.152c0.136-0.203,0.336-0.355,0.555-0.492c0.192-0.305,0.639-0.59,0.842-0.74
		c0.28-0.213,0.576-0.412,0.881-0.6c1.218-1.248,3.249-2.707,3.867-3.617c0.333-1.01-0.564-2.266-1.145-2.998
		c-0.496-0.633-1.171-1.08-1.753-1.615c-0.768-0.016-3.226,2.398-4.802,3.805c0.04-0.002,0.049,0.049,0.016,0.07
		c-0.106,0.057-0.205,0.123-0.302,0.178c-0.436,0.373-0.777,0.65-0.961,0.719c-0.032,0.012-0.058-0.002-0.085-0.008L23.11,67.09
		c-0.022,0.014-0.044,0.029-0.057,0.047c0.025,0.021,0.048,0.047,0.082,0.072c0.12,0.109-0.013,0.303-0.161,0.234
		c-0.008-0.002-0.007-0.01-0.017-0.012c-0.305,0.246-0.644,0.559-1,0.67c-0.05,0.01-0.087-0.045-0.058-0.086
		c0.073-0.082,0.164-0.16,0.263-0.225c-0.051,0.018-0.097,0.057-0.139,0.076c-0.074,0.033-0.125-0.043-0.068-0.09
		c0.058-0.055,0.124-0.1,0.191-0.152c-0.039,0.012-0.072,0.033-0.111,0.035c-0.057-0.002-0.101-0.066-0.054-0.115
		c0.143-0.145,0.328-0.26,0.53-0.363c-2.152-1.225-3.883-3.635-5.118-5.689c-0.081,0.07-0.201,0.047-0.238-0.047
		c-0.139-0.313,0.087-0.889,0.149-1.201C17.354,59.988,17.381,59.707,17.434,59.441"/>
</g>
<path fill="#9A833A" d="M31.149,61.021c-0.053,0.025-0.105,0.045-0.157,0.068c-0.017,0.004-0.04,0.012-0.058,0.016
	c-0.005-0.018-0.019-0.035-0.042-0.025c-0.029,0.01-0.062,0.02-0.093,0.029c0.003,0,0.005-0.004,0.008-0.004
	c0.014-0.016-0.005-0.045-0.024-0.037c-0.131,0.061-0.265,0.129-0.395,0.203c-0.269,0.121-0.519,0.281-0.654,0.543
	c-0.019,0.035,0,0.068,0.027,0.09c-0.027,0.053-0.048,0.111-0.052,0.18c-0.002,0.055,0.074,0.057,0.097,0.02
	c0.013-0.021,0.028-0.049,0.043-0.076c0.077,0.113,0.234,0.17,0.373,0.033c0.342-0.344,0.718-0.57,0.954-1.006
	C31.185,61.037,31.167,61.014,31.149,61.021"/>
<path fill="#9A833A" d="M34.415,64.801c0.04-0.068-0.057-0.119-0.108-0.072c-0.061,0.057-0.124,0.113-0.186,0.168
	c-0.025-0.014-0.056-0.023-0.083-0.006c-0.091,0.055-0.195,0.119-0.297,0.182c-0.016-0.02-0.041-0.031-0.071-0.02
	c-0.267,0.113-0.502,0.299-0.718,0.502c-0.056-0.035-0.136-0.037-0.196,0.018c-0.019,0.021-0.047,0.029-0.069,0.047
	c-0.008-0.047-0.068-0.059-0.093-0.016c-0.002,0.002-0.102,0.152-0.108,0.158c-0.057,0.07-0.031,0.186,0.048,0.223
	c-0.011,0.018-0.029,0.023-0.04,0.039c-0.056,0.086-0.005,0.186,0.074,0.238c0.022,0.047,0.074,0.08,0.124,0.037
	c0.006-0.006,0.014-0.012,0.021-0.018c0.018-0.006,0.039-0.002,0.056-0.016c0.021-0.018,0.046-0.029,0.069-0.045
	c0.028-0.006,0.057-0.002,0.085-0.023c0.069-0.051,0.14-0.096,0.209-0.146C33.655,65.76,34.129,65.303,34.415,64.801"/>
<path fill="#748C95" d="M26.483,82.426c0.016-0.01,0-0.035-0.015-0.023c-0.639,0.414-1.267,0.848-1.895,1.275
	c0.031-0.045,0.069-0.086,0.101-0.131c0.131-0.197-0.147-0.355-0.309-0.27c-1.574,0.824-2.952,2.102-4.459,3.068
	c-1.879,1.205-3.822,2.275-5.942,2.99c-3.735,1.26-8.374-0.293-10.886-3.381c-0.603-1.561-1.329-2.912-1.481-4.691
	C1.501,80.127,1.595,79.01,1.744,77.9c0.009-0.014,0.025-0.016,0.031-0.031c1.492-3.65,2.706-6.902,5.358-9.898
	c3.102-2.734,6.212-5.363,9.747-7.566c0.028-0.018,0.014-0.064-0.02-0.061c-0.194,0.029-0.388,0.08-0.581,0.135
	c-0.005-0.014-0.019-0.027-0.038-0.023c-3.579,0.635-6.709,3.635-9.253,6.07C3.983,69.4,1.429,73.521,1.25,77.766
	c-0.001,0.053,0.024,0.092,0.05,0.129c-0.674,3.186-0.913,6.623,1.683,8.896c0.023,0.02,0.049,0.021,0.074,0.029
	c1.717,2.475,5.476,3.836,8.182,3.855c2.518,0.02,4.978-1.203,7.121-2.398c2.107-1.174,4.726-2.539,6.17-4.543
	C25.183,83.301,25.839,82.873,26.483,82.426"/>
<path fill="#748C95" d="M31.456,64.428c-0.392-0.563-1.413-1.904-2.236-1.527c-0.17,0.076-0.196,0.373,0.027,0.398
	c0.668,0.078,1.313,1.27,1.636,1.762c0.256,0.389,0.462,0.824,0.557,1.281c0.059,0.287,0.004,0.559,0.069,0.818
	c-0.761,0.727-1.71,1.359-2.481,1.99c-1.111,0.912-2.601,1.811-3.419,2.996c-0.095,0.137,0.011,0.305,0.177,0.264
	c0.057-0.014,0.111-0.041,0.168-0.059c-0.136,0.201-0.226,0.414-0.223,0.643c0.002,0.088,0.112,0.113,0.167,0.057
	c0.219-0.229,0.38-0.508,0.576-0.762c0.157-0.129,0.315-0.258,0.468-0.391c1.206-0.713,2.306-1.914,3.281-2.748
	c0.585-0.5,1.297-0.984,1.659-1.643c0.039-0.008,0.078-0.004,0.111-0.023C32.997,66.891,31.9,65.064,31.456,64.428"/>
<path fill="#748C95" d="M29.056,62.492c-1.461,0.486-2.596,1.551-3.703,2.584c-1.395,1.299-3.053,2.576-4.248,4.055
	c-0.082,0.102,0.013,0.256,0.142,0.211c1.408-0.482,2.506-1.742,3.537-2.766c1.4-1.389,2.9-2.648,4.328-4.002
	C29.15,62.537,29.103,62.479,29.056,62.492"/>
<path fill="#7B959E" d="M22.325,66.771c-0.948-1.213-2.195-2.164-3.144-3.389c-0.631-0.809-1.02-2.025-2.086-2.361
	c-0.09-0.027-0.18,0.104-0.116,0.176c0.731,0.838,1.143,1.887,1.785,2.785c0.849,1.188,2.02,2.086,2.911,3.227
	C21.985,67.604,22.636,67.17,22.325,66.771"/>
<path fill="#7B959E" d="M31.946,77.291c0.012-0.037-0.024-0.053-0.056-0.049c0.015-0.021,0.033-0.043,0.048-0.066
	c0.012-0.018-0.014-0.039-0.032-0.027c-0.081,0.059-0.157,0.123-0.236,0.182c-0.016-0.021-0.039-0.037-0.058-0.008
	c-0.033,0.049-0.075,0.09-0.109,0.137c-0.922,0.711-1.775,1.51-2.662,2.266c-1.038,0.883-2.204,1.617-3.161,2.594
	c-0.073,0.076,0.009,0.205,0.107,0.182c-0.311,0.279-0.612,0.564-0.891,0.867c-0.072,0.08,0.033,0.188,0.121,0.137
	c0.975-0.58,1.894-1.273,2.76-2.021c-0.769,0.771-1.567,1.5-2.583,1.986c-0.005,0.004-0.002,0.01,0.001,0.008
	c1.801-0.832,3.356-2.465,4.701-3.896c0.173-0.148,0.348-0.293,0.515-0.445C31.111,78.707,31.71,78.072,31.946,77.291"/>
<path fill="#7B959E" d="M31.86,76.99c-0.032-0.029-0.061-0.059-0.093-0.086c0.011-0.018,0.009-0.039-0.014-0.047
	c-0.022-0.01-0.042-0.018-0.063-0.025c-0.045-0.043-0.093-0.084-0.137-0.131c-0.015-0.016-0.028-0.014-0.039-0.004
	c-0.021-0.018-0.042-0.037-0.063-0.055c0.03-0.045,0.046-0.102,0.005-0.162c-0.454-0.695-1.224-1.232-1.791-1.848
	c-0.732-0.799-1.384-1.666-2.179-2.406c-0.128-0.119-0.329,0.057-0.23,0.201c0.622,0.887,1.323,1.717,2.034,2.533
	c0.542,0.623,1.167,1.461,1.957,1.76c0.054,0.02,0.104,0.006,0.15-0.018c-0.004,0.006-0.008,0.012-0.003,0.02
	c0.059,0.076,0.108,0.125,0.164,0.156c0.058,0.109,0.108,0.164,0.258,0.201C31.868,77.092,31.897,77.023,31.86,76.99"/>
<path fill="#56606A" d="M31.368,60.615c0.011-0.01-0.001-0.025-0.011-0.018c-0.04,0.031-0.082,0.059-0.123,0.088
	c-0.004-0.004-0.009-0.01-0.017-0.008c-0.196,0.088-0.376,0.203-0.551,0.324c0.014-0.014,0.028-0.027,0.043-0.039
	c0.014-0.014-0.008-0.033-0.023-0.02c-0.084,0.076-0.172,0.15-0.256,0.229c-0.15,0.115-0.299,0.23-0.44,0.355
	c-0.16,0.115-0.314,0.238-0.458,0.373c-0.002,0.004,0.002,0.006,0,0.01c-0.042,0.029-0.079,0.064-0.122,0.094
	c-0.011,0.006,0.002,0.025,0.012,0.018c0.038-0.025,0.072-0.059,0.11-0.084c0.009,0.01,0.024,0.018,0.038,0.008
	c0.036-0.027,0.072-0.051,0.106-0.076c-0.016,0.018-0.035,0.035-0.046,0.053c-0.017,0.029,0.01,0.07,0.042,0.064
	c0.126-0.018,0.244-0.105,0.353-0.197c0.307-0.164,0.545-0.426,0.782-0.684c0.019-0.021-0.013-0.047-0.033-0.029
	c0.156-0.117,0.313-0.234,0.463-0.359C31.278,60.682,31.326,60.65,31.368,60.615"/>
<path fill="#56606A" d="M33.895,65.408c0.014-0.02-0.01-0.051-0.03-0.033c-0.158,0.129-0.304,0.266-0.458,0.395
	c-0.035,0.027-0.07,0.049-0.104,0.076c-0.132,0.105-0.266,0.211-0.422,0.289c-0.021,0.012-0.002,0.049,0.02,0.039
	c0.02-0.008,0.038-0.021,0.055-0.033c-0.055,0.049-0.108,0.102-0.162,0.152c-0.05-0.457-0.362-0.947-0.611-1.256
	c-0.022-0.029-0.075-0.008-0.058,0.027c0.136,0.283,0.212,0.566,0.28,0.871c0.052,0.229,0.064,0.447,0.129,0.656
	c0.002,0.002,0,0.004,0.002,0.006c0.014,0.043,0.014,0.088,0.036,0.131c-0.411,0.672-0.966,1.201-1.488,1.791
	c-0.032,0.037,0.021,0.078,0.056,0.049c0.369-0.334,0.711-0.701,1.011-1.102c0.012,0.004,0.023,0.012,0.035,0.006
	c0.312-0.172,0.508-0.422,0.673-0.717c0,0.002,0.001,0.004,0.001,0.006c0.019,0.045,0.081,0.021,0.07-0.025
	c-0.005-0.023-0.016-0.043-0.024-0.066c0.023-0.045,0.047-0.086,0.071-0.133c0.023-0.047-0.045-0.078-0.072-0.035
	c-0.013,0.02-0.028,0.035-0.042,0.055c-0.013-0.033-0.023-0.066-0.036-0.1c0.136-0.105,0.259-0.227,0.375-0.355
	c0.183-0.158,0.365-0.314,0.546-0.475c0.025-0.023,0.005-0.045-0.022-0.055C33.78,65.516,33.843,65.469,33.895,65.408"/>
<path fill="#99A8B6" d="M17.175,58.25c-0.094-0.059-0.201-0.1-0.303-0.143c-0.07-0.057-0.133-0.121-0.187-0.199
	c-0.007-0.012-0.018-0.012-0.027-0.018c-0.004-0.002-0.008-0.008-0.014-0.008c-0.015-0.004-0.027-0.002-0.04,0.006
	c-0.006,0-0.01-0.002-0.015,0.002c-0.038,0.02-0.074,0.047-0.112,0.066c-0.023,0.002-0.042,0.014-0.054,0.031
	c-1.868,1.043-3.599,2.508-5.311,3.781c-1.53,1.137-2.969,2.352-4.231,3.766c-1.401,1.527-3.341,2.996-4.063,4.98
	c-1.425,1.48-2.003,4.088-2.257,5.967c-0.004,0.029,0.036,0.035,0.043,0.008c0.543-1.992,1.026-4.051,2.222-5.742
	c0.003-0.002,0.007,0,0.009-0.004c0.026-0.043,0.059-0.078,0.085-0.119c0.154-0.211,0.314-0.416,0.492-0.611
	c0.006-0.008-0.002-0.016-0.009-0.012c-0.042,0.029-0.075,0.07-0.115,0.102c0.951-1.328,2.087-2.486,3.083-3.766
	c1.77-1.627,3.621-3.141,5.557-4.57c1.257-0.932,3.56-2.045,4.474-3.445c0.104,0.033,0.099,0.029,0.275,0.035
	c0.042,0.002,0.056-0.068,0.017-0.082c-0.137-0.051-0.156-0.061-0.216-0.068c0.003-0.004,0.007-0.01,0.01-0.014
	c0.045-0.023,0.085-0.023,0.124-0.02c0.026,0.012,0.051,0.02,0.075,0.029c0.029,0.018,0.059,0.029,0.086,0.063
	c0.023,0.02,0.048,0.014,0.066,0c0.101,0.039,0.203,0.068,0.32,0.066C17.207,58.332,17.208,58.271,17.175,58.25"/>
<path fill="#99A8B6" d="M34.338,75.975c-0.004-0.029-0.025-0.059-0.056-0.063c-0.028-0.004-0.059-0.008-0.088-0.012
	c-0.04-0.006-0.074,0.047-0.037,0.076c0.09,0.072-0.172,0.424-0.545,0.842c0.125-0.219,0.249-0.438,0.357-0.66
	c0.035-0.072-0.054-0.123-0.107-0.074c-1.059,1.016-2.013,2.135-2.996,3.229c-0.572,0.41-1.145,0.82-1.648,1.311
	c-0.09,0.088,0.022,0.254,0.139,0.205c0.046-0.02,0.091-0.045,0.137-0.064c-0.169,0.168-0.329,0.346-0.502,0.508
	c-1.93,1.816-4.174,3.17-6.205,4.846c-0.113,0.094-0.033,0.314,0.123,0.248c2.214-0.971,4.105-2.598,5.907-4.18
	c0.89-0.781,1.816-1.635,2.668-2.551c0.393-0.273,0.775-0.561,1.125-0.869C33.358,78.107,34.46,77.09,34.338,75.975"/>
<path fill="#99A8B6" d="M31.981,64.83c-0.153-0.416-0.427-0.777-0.76-1.096c-0.414-0.496-0.934-0.896-1.521-1.156
	c-0.186-0.193-0.411-0.26-0.69-0.318c-0.036-0.008-0.048,0.051-0.012,0.059c0.217,0.041,0.397,0.088,0.561,0.205
	c-0.114-0.045-0.221-0.098-0.337-0.131c-0.063-0.02-0.095,0.08-0.037,0.109c0.206,0.1,0.393,0.217,0.569,0.346
	c0.021,0.016,0.042,0.031,0.064,0.049c0.528,0.404,0.94,0.926,1.303,1.508c0.422,0.676,0.532,1.541,0.99,2.174
	c0.074,0.104,0.228,0.07,0.258-0.051C32.501,65.984,32.283,65.375,31.981,64.83"/>
<path fill="#85A2AB" d="M31.499,66.328c-0.01,0.012-0.022,0.023-0.032,0.037c0.005-0.047,0.01-0.096,0.013-0.141
	c0.003,0,0.005,0.002,0.008,0.002c0.081,0.01,0.153-0.059,0.125-0.143c-0.032-0.094-0.085-0.166-0.147-0.232
	c-0.108-0.754-0.653-1.516-1.204-1.949c0.032-0.453-0.55-0.736-0.88-0.441c-0.197-0.162-0.403-0.314-0.63-0.432
	c-0.038-0.018-0.087,0.029-0.058,0.064c0.079,0.092,0.166,0.176,0.25,0.262c-0.097-0.055-0.215-0.064-0.332,0.031
	c-0.024,0.02-0.041,0.043-0.064,0.064l-0.005-0.006c-0.005,0.008-0.008,0.012-0.013,0.018c-0.551,0.152-1.024,0.402-1.481,0.779
	c-0.129,0.107-0.284,0.238-0.433,0.381c-1.441,0.953-2.783,2.229-3.957,3.568c-0.789,0.527-1.364,1.338-1.804,2.166
	c-0.331,0.625-0.805,1.766-0.138,2.338c0.059,0.051,0.125,0.074,0.188,0.078c0.168,0.238,0.434,0.412,0.838,0.469
	c0.289,0.039,0.585-0.016,0.877-0.105c0.086,0.059,0.189,0.098,0.325,0.096c2.093-0.064,3.958-1.656,5.39-3.137
	c0.168-0.146,0.328-0.301,0.486-0.457c0.468-0.322,0.909-0.707,1.31-1.051c0.725-0.621,1.249-1.283,1.463-2.213
	C31.606,66.322,31.533,66.285,31.499,66.328"/>
<path fill="#85A2AB" d="M31.856,76.893c-0.346-1.031-1.477-1.918-2.229-2.666c-0.114-0.115-1.785-1.623-1.804-1.441
	c0.003-0.037-0.038-0.078-0.074-0.049c-0.354,0.287,0.557,1.014,0.721,1.184c0.465,0.484,0.913,0.984,1.369,1.475
	c0.529,0.57,0.972,1.309,1.577,1.795C31.627,77.359,31.945,77.162,31.856,76.893"/>
<path fill="#85A2AB" d="M22.083,66.734c-0.284-0.361-0.421-0.859-0.727-1.191c-0.409-0.447-0.873-0.836-1.304-1.262
	c-0.855-0.848-1.813-1.787-2.525-2.756c-0.052-0.07-0.161-0.016-0.137,0.068c0.341,1.15,1.522,2.137,2.271,3.029
	c0.496,0.594,1.171,0.998,1.492,1.73c0.175,0.4,0.312,0.572,0.713,0.707C22.042,67.119,22.191,66.871,22.083,66.734"/>
<path fill="#A08D59" d="M35.4,60.242c0.226-0.188,0.475-0.352,0.715-0.523c-0.253,0.154-0.508,0.309-0.766,0.445
	C35.294,60.193,35.354,60.281,35.4,60.242"/>
<path fill="#A08D59" d="M36.116,59.719c0.66-0.402,1.303-0.844,1.938-1.293c-0.088,0.053-0.175,0.104-0.248,0.15
	C37.244,58.953,36.672,59.326,36.116,59.719"/>
<path fill="#A08D59" d="M60.72,42.23c-0.474,0.561-0.994,1.061-1.532,1.541c-0.057-0.195-0.304-0.336-0.521-0.211
	c-3.514,2.045-6.479,5.178-9.562,7.807c-0.101,0.086-0.205,0.17-0.307,0.258c-0.25,0.184-0.5,0.371-0.749,0.557
	c-2.809,2.082-5.781,4.098-8.57,6.297c-1.228,0.836-2.434,1.705-3.577,2.654c-0.28,0.232-0.627,0.514-0.94,0.83
	c-0.054,0.023-0.105,0.049-0.159,0.07c-0.43,0.176-0.873,0.314-1.319,0.436c0.442-0.119,0.866-0.695,1.234-0.992
	c1.527-1.23,3.283-2.289,4.51-3.848c0.007-0.01-0.004-0.023-0.015-0.016c-0.384,0.266-0.771,0.539-1.159,0.813
	c0.301-0.174,0.659-0.359,0.853-0.535c-0.493,0.445-0.973,0.895-1.493,1.307c-1.425,1.133-2.963,2.096-4.275,3.369
	c-0.093,0.09,0.025,0.207,0.125,0.186c0.458-0.098,0.91-0.24,1.358-0.4c-0.322,0.41-0.533,0.865-0.476,1.352
	c-0.135,0.088-0.268,0.18-0.403,0.268c0.079-0.064,0.151-0.135,0.24-0.199c0.038-0.027,0-0.086-0.04-0.061
	c-0.33,0.207-0.599,0.443-0.883,0.705c-0.592-0.438-1.075-0.838-1.246-1.604c-0.014-0.066-0.12-0.041-0.114,0.021
	c0.062,0.814,0.526,1.455,1.3,1.717c0.023,0.057,0.091,0.098,0.152,0.059c0.407-0.264,0.822-0.521,1.237-0.781
	c0,0.035,0.034,0.066,0.068,0.033c0.122-0.117,0.259-0.217,0.386-0.326c0.983-0.629,1.942-1.297,2.738-2.15
	c0.008-0.008,0.008-0.016,0.009-0.023c1.894-1.201,3.732-2.527,5.537-3.896c2.525-1.584,4.822-3.537,7.084-5.467
	c3.716-2.787,8.391-5.486,10.738-9.613C61.028,42.246,60.821,42.111,60.72,42.23 M34.274,63.619
	c0.091-0.313,0.474-0.695,0.983-1.086c0.083,0.07,0.204,0.105,0.314,0.043c0.445-0.252,0.882-0.523,1.319-0.791
	C36.056,62.449,35.169,63.039,34.274,63.619"/>
<path fill="#A08D59" d="M55.428,45.264c-4.639,2.969-9.146,6.137-13.603,9.371c-2.254,1.635-4.722,3.238-6.963,5.051
	c-0.941,0.609-1.865,1.248-2.685,2.012c-0.039,0.037,0.02,0.104,0.063,0.07c0.419-0.314,0.845-0.615,1.265-0.926
	c-0.824,0.738-1.604,1.516-2.307,2.348c-0.014,0.014,0.009,0.033,0.022,0.02c3.299-3.441,7.657-6.1,11.521-8.859
	c4.229-3.023,8.515-5.971,12.765-8.971C55.579,45.328,55.503,45.217,55.428,45.264"/>
<path fill="#A08D59" d="M38.864,55.904c0.032-0.021-0.001-0.068-0.033-0.047c-2.254,1.479-4.606,2.953-6.474,4.92
	c-0.04,0.041,0.021,0.113,0.066,0.074c0.525-0.445,1.053-0.885,1.585-1.316c-0.678,0.617-1.343,1.25-1.992,1.906
	c-0.017,0.016,0.01,0.041,0.027,0.023c0.889-0.881,1.804-1.738,2.754-2.551C36.118,57.871,37.463,56.867,38.864,55.904"/>
<path fill="#A08D59" d="M33.853,62.984c-0.367,0.273-0.644,0.656-0.915,1.021c-0.016,0.021,0.015,0.051,0.034,0.029
	c0.284-0.352,0.548-0.732,0.915-1.004C33.916,63.01,33.883,62.959,33.853,62.984"/>
<path fill="#A08D59" d="M62.2,42.42c0.053,0.061,0.131-0.018,0.116-0.08c-0.024-0.109-0.069-0.225-0.122-0.34
	c0.014-0.023,0.033-0.049,0.049-0.072c0.08-0.133-0.074-0.234-0.191-0.191c-0.139-0.217-0.322-0.426-0.523-0.613
	c0.021-0.018,0.043-0.037,0.063-0.057c0.043-0.039-0.019-0.092-0.063-0.07c-0.027,0.014-0.053,0.033-0.082,0.049
	c-0.259-0.227-0.553-0.41-0.851-0.508c0.05-0.043,0.101-0.084,0.147-0.127c0.02-0.016-0.008-0.047-0.028-0.031
	c-0.062,0.045-0.13,0.092-0.193,0.137c-0.179-0.049-0.356-0.078-0.528-0.055c-0.039,0.006-0.035,0.059,0.002,0.059
	c0.153,0.002,0.293,0.029,0.424,0.07c-0.068,0.051-0.139,0.1-0.209,0.15c-0.01,0-0.022-0.004-0.033-0.004
	c-0.023,0-0.026,0.023-0.018,0.039c-3.131,2.236-6.268,4.529-9.271,6.926c-0.081,0.063,0.003,0.191,0.09,0.135
	c3.204-2.141,6.38-4.488,9.293-7.023c0.339,0.039,0.565,0.17,0.749,0.34c-2.337,1.391-4.279,3.285-6.396,4.967
	c-2.739,1.729-5.295,3.783-7.471,6.127c-0.039,0.043,0.026,0.1,0.064,0.059c1.896-1.91,3.982-3.662,6.199-5.219
	c0.012,0.025,0.035,0.047,0.063,0.025c0.472-0.313,0.923-0.648,1.37-0.99c1.387-0.895,2.814-1.719,4.287-2.445
	c0.021-0.01,0.011-0.043-0.012-0.033c-1.176,0.555-2.338,1.174-3.473,1.846c1.788-1.453,3.475-3.031,5.418-4.281
	c0.006-0.004,0-0.01,0.002-0.014c0.017,0.018,0.039,0.025,0.055,0.043c-1.485,0.852-2.803,2.049-4.11,3.129
	c-0.095,0.078-0.003,0.219,0.106,0.158c1.494-0.834,2.83-2.002,4.115-3.145c0.149,0.219,0.258,0.475,0.362,0.748
	c-1.317,1.262-2.681,2.461-4.028,3.688c-1.1,0.834-2.178,1.699-3.246,2.557c-0.088,0.072,0,0.203,0.099,0.146
	c1.179-0.678,2.274-1.482,3.354-2.313c0.976-0.555,1.926-1.297,2.756-2.133c0.543-0.416,1.084-0.828,1.646-1.213
	c0.048-0.031,0.001-0.098-0.048-0.072c-0.316,0.17-0.615,0.369-0.924,0.555c0.205-0.244,0.404-0.488,0.586-0.74
	c0.027,0.066,0.053,0.131,0.084,0.193c0.023,0.049,0.104,0.043,0.1-0.021c-0.01-0.119-0.039-0.236-0.063-0.355
	c0.043-0.064,0.086-0.129,0.129-0.193C62.096,42.291,62.147,42.359,62.2,42.42"/>
<path fill="#DEBD27" d="M70.518,26.816c-0.111,0.184-0.209,0.371-0.304,0.561c0.405-0.945,0.921-1.846,1.499-2.684
	c0.021-0.035-0.024-0.078-0.051-0.043c-0.963,1.219-1.568,2.586-1.976,4.033c0.121-0.9,0.349-1.781,0.786-2.576
	c0.016-0.025-0.023-0.043-0.039-0.02c-0.175,0.271-0.339,0.588-0.488,0.93c0.373-1.152,0.881-2.238,1.647-2.783
	c0.073-0.051,0.017-0.182-0.071-0.145c-1.395,0.623-1.846,2.791-2.281,4.096c-0.451,1.342-0.8,2.721-1.137,4.094
	c-0.154,0.631-0.549,1.523-0.359,2.172c0.026,0.092,0.158,0.115,0.217,0.043c0.775-0.955,0.844-3.164,1.162-4.34
	c0.067-0.254,0.14-0.551,0.215-0.863c-0.031,0.316-0.033,0.625-0.012,0.92c-0.039,0.215-0.08,0.432-0.115,0.648
	c-0.016,0.086,0.111,0.109,0.131,0.025c0.02-0.088,0.038-0.174,0.058-0.262c0.019,0.104,0.024,0.215,0.054,0.313
	c0.02,0.063,0.106,0.039,0.106-0.021c0-0.375,0.007-0.754,0.026-1.137c0.224-1.012,0.473-2.012,0.99-2.932
	C70.598,26.809,70.54,26.781,70.518,26.816"/>
<line fill="none" x1="0" y1="0" x2="0" y2="112.758"/>
<line fill="none" x1="85.521" y1="112.758" x2="85.521" y2="0"/>
<g>
	<defs>
		<rect id="SVGID_7_" y="20.775" width="85.521" height="71.205"/>
	</defs>
	<clipPath id="SVGID_8_">
		<use xlink:href="#SVGID_7_"  overflow="visible"/>
	</clipPath>
	<path clip-path="url(#SVGID_8_)" fill="#DEBD27" d="M84.665,30.256c-0.021-0.236-0.377-0.334-0.477-0.094
		c-0.266,0.645-0.334,1.166-0.433,1.859c-0.255,1.795-2.499,2.33-3.907,2.682c-1.36,0.342-2.748,0.613-4.117,0.928
		c-0.797,0.182-3.977,0.549-4.946,1.451c-0.054-0.154-0.187-0.279-0.322-0.416c0.026-0.018,0.05-0.031,0.078-0.051
		c0.017-0.01,0-0.033-0.015-0.023c-0.03,0.016-0.066,0.029-0.1,0.043c-0.078-0.074-0.162-0.139-0.254-0.195
		c-0.136-0.084-0.175-0.008-0.318-0.021c-0.056-0.006-0.086,0.068-0.032,0.096c0.038,0.02,0.083,0.1,0.126,0.188
		c-0.012,0.02-0.02,0.043-0.004,0.07c0.021,0.051,0.035,0.1,0.051,0.146c-0.007,0.008-0.016,0.014-0.02,0.023
		c-0.002,0.004-0.004,0.01-0.006,0.014c-0.041-0.057-0.08-0.117-0.117-0.178c-0.002-0.027,0-0.057-0.002-0.084
		c-0.002-0.035-0.037-0.045-0.065-0.033c-0.044-0.08-0.086-0.162-0.118-0.256c-0.023-0.066-0.119-0.031-0.104,0.035
		c0.035,0.143,0.076,0.275,0.125,0.4c-0.037,0.102-0.065,0.207-0.055,0.322c0.004,0.043,0.039,0.07,0.081,0.068
		c0.074-0.002,0.142,0.012,0.214,0.025c0-0.002,0-0.004,0.002-0.002c0.08,0.096,0.18,0.182,0.295,0.258
		c0.014,0.08,0.031,0.158,0.043,0.242c0.006,0.049,0.064,0.047,0.078,0.004c0.018-0.049,0.014-0.105,0.017-0.16
		c0.047-0.004,0.091-0.029,0.081-0.084c-0.006-0.025-0.018-0.051-0.025-0.078c0.034,0.018,0.066,0.037,0.107,0.045
		c-0.006,0.023-0.02,0.047-0.023,0.07c-0.012,0.088,0.113,0.137,0.15,0.051c0.213-0.445,2.955-0.727,3.398-0.826
		c1.35-0.299,2.707-0.561,4.055-0.871C81.458,35.131,85.065,34.525,84.665,30.256"/>
	<path clip-path="url(#SVGID_8_)" fill="#DFA427" d="M85.289,28.695c-1.396-0.85-2.106-2.465-3.297-3.576
		c-1.235-1.148-2.571-2.17-4.003-3.064c-2.041-1.275-5.15-1.82-5.475,1.35c-0.015,0.146,0.183,0.23,0.254,0.086
		c1.97-3.922,5.91-0.137,8.021,1.793c1.034,0.945,1.735,1.965,2.557,3.092c0.468,0.641,1.199,1.451,1.979,0.883
		C85.533,29.105,85.499,28.824,85.289,28.695"/>
</g>
<path fill="#DFA427" d="M68.594,36.484c-0.201-0.41-0.552-0.6-0.945-0.715c0.008-0.008,0.017-0.016,0.022-0.023
	c0.289-0.324-0.168-0.744-0.478-0.5c-0.989-0.484-2.815,0.529-3.666,0.975c-0.856,0.447-2.307,1.264-2.381,2.389
	c-0.055,0.039-0.11,0.072-0.164,0.127c-0.069,0.07,0.031,0.158,0.105,0.119c0.016-0.008,0.03-0.008,0.045-0.014
	c0.001,0.002,0,0.002,0,0.004c0.01,0.092,0.133,0.178,0.217,0.104c0.071-0.063,0.139-0.117,0.211-0.18
	c1.19,0.115,2.435,2.568,2.68,3.385c0.031,0.1,0.109,0.129,0.188,0.129c0.114,0.141,0.38,0.176,0.511-0.025
	c0.781-1.191,1.928-2.047,2.752-3.197c0.17-0.238-0.01-0.494-0.231-0.494c0.206-0.25,0.415-0.5,0.617-0.754
	c0.006,0.047,0.047,0.061,0.089,0.051c-0.012,0.086-0.014,0.174,0.02,0.268c0.037,0.098,0.15,0.131,0.237,0.078
	C68.917,37.906,68.817,36.936,68.594,36.484 M62.895,38.738c-0.102,0.109-0.11,0.225-0.07,0.324
	c-0.17-0.166-0.342-0.297-0.516-0.404c0.32-0.285,0.637-0.566,0.957-0.838c-0.072,0.082-0.15,0.158-0.221,0.242
	c-0.126,0.152-0.068,0.359,0.057,0.475C63.035,38.604,62.963,38.67,62.895,38.738 M63.879,40.08
	c-0.051,0.051-0.089,0.115-0.117,0.191c-0.234-0.365-0.492-0.727-0.777-1.033c0.064,0.037,0.137,0.053,0.213,0.045
	c0.007,0.238,0.318,0.439,0.568,0.301c0.131-0.074,0.25-0.162,0.375-0.24c-0.082,0.098-0.171,0.193-0.25,0.293
	C63.78,39.773,63.8,39.947,63.879,40.08 M64.571,41.783c-0.102-0.258-0.276-0.609-0.483-0.979c0.218,0.029,0.456-0.082,0.601-0.238
	c0.006-0.006,0.004-0.016,0.01-0.023c0.08,0.041,0.173,0.047,0.265-0.02c0.009,0.016,0.019,0.033,0.028,0.047
	c-0.01,0.012-0.018,0.023-0.028,0.033c-0.173,0.188-0.04,0.402,0.146,0.451C64.914,41.283,64.739,41.531,64.571,41.783"/>
<path fill="#DFA427" d="M60.885,39.545c-0.072-0.02-0.16,0.018-0.208,0.07c-0.025,0.029-0.015,0.029-0.039,0.021
	c-0.03-0.006-0.039,0.035-0.017,0.049c0.021,0.014,0.01,0.004,0.006,0.033c-0.012,0.072,0.009,0.158,0.07,0.205
	c0.45,0.346,0.934,0.621,1.301,1.066c0.25,0.301,0.396,0.643,0.461,1.025c0.037,0.205,0.137,0.428,0.385,0.35
	c0.084-0.027,0.166-0.113,0.177-0.205C63.153,40.988,61.927,39.857,60.885,39.545"/>
<path fill="#DFA427" d="M71.995,24.252c-0.986,1.555-1.541,3.438-2.119,5.174c-0.608,1.826-1.504,3.875-1.57,5.816
	c-0.004,0.111,0.174,0.145,0.215,0.043c0.652-1.639,0.957-3.459,1.484-5.148c0.617-1.969,1.49-3.883,2.019-5.875
	C72.026,24.244,72.002,24.238,71.995,24.252"/>
<path fill="#DFA427" d="M81.296,32.002c-0.616,1.557-3.565,1.775-4.974,2.1c-2.36,0.545-4.459,1.736-6.897,1.977
	c-0.091,0.01-0.077,0.141,0.011,0.139c2.599-0.031,4.926-1.373,7.428-1.939c1.439-0.326,4.068-0.52,4.714-2.135
	C81.653,31.957,81.371,31.814,81.296,32.002"/>
<path fill="#6B828A" d="M21.141,69.164c0.115-0.178,0.237-0.35,0.363-0.516c-0.123,0.223-0.239,0.449-0.352,0.67
	c-0.02,0.039,0.037,0.064,0.06,0.029c0.242-0.398,0.463-0.842,0.734-1.236c0.28-0.313,0.57-0.59,0.856-0.818
	c0.035-0.029-0.002-0.086-0.041-0.059c-0.08,0.051-0.171,0.133-0.256,0.199c-0.004,0-0.006-0.004-0.009-0.002
	c-0.032,0.023-0.054,0.055-0.085,0.076c-0.104,0.088-0.206,0.176-0.313,0.279c-0.016,0.016-0.035,0.033-0.051,0.049
	c-0.117,0.115-0.234,0.223-0.352,0.355c0.267-0.414,0.568-0.811,0.93-1.18c0.027-0.027-0.016-0.08-0.048-0.053
	c-1.107,0.875-2.106,2.365-2.483,3.832c-0.312,0.922-0.318,1.832,0.277,2.492c0.043,0.049,0.134-0.012,0.105-0.07
	c-0.311-0.629-0.345-1.328-0.199-2.031C20.545,70.492,20.816,69.814,21.141,69.164"/>
<path fill="#6B828A" d="M27.413,71.771c0.028-0.043-0.023-0.092-0.061-0.053c-0.194,0.197-0.401,0.371-0.614,0.535
	c-0.724,0.084-1.382,0.434-2.055,0.701c-0.2,0.078-0.399,0.143-0.598,0.205c-0.244,0.064-0.482,0.109-0.715,0.133
	c-0.187-0.016-0.376-0.037-0.568-0.076c-0.012-0.002-0.019,0.016-0.006,0.02c0.082,0.035,0.167,0.059,0.254,0.086
	c-0.388,0.01-0.779-0.023-1.206-0.086c-0.043-0.006-0.068,0.057-0.025,0.076c0.097,0.047,0.195,0.078,0.295,0.109
	c-0.177-0.012-0.353-0.02-0.535-0.051c-0.098-0.018-0.158,0.135-0.058,0.172c1.082,0.414,2.382,0.215,3.554-0.229
	c0.61-0.158,1.193-0.441,1.669-0.83c0.032-0.02,0.067-0.039,0.099-0.059c0.026-0.018,0.035-0.043,0.038-0.068
	C27.08,72.178,27.265,71.984,27.413,71.771"/>
<path fill="#6B828A" d="M17.724,61.459c-0.314-0.102-0.523-0.273-0.639-0.508c0.008,0.002,0.012,0.006,0.022,0.008
	c0.048,0.004,0.094-0.061,0.046-0.096c-0.029-0.021-0.048-0.051-0.06-0.086c0-0.004,0-0.006,0-0.008
	c0.046,0.068,0.102,0.133,0.186,0.193c0.009,0.012,0.012,0.027,0.022,0.039c0.037,0.041,0.103,0.008,0.114-0.039
	c0.033-0.143-0.116-0.676-0.129-0.98c0.006-0.012,0.011-0.023,0.015-0.037c0.034-0.072,0.065-0.135,0.081-0.168
	c0.024-0.053-0.048-0.088-0.079-0.041c0,0.002-0.003,0.006-0.004,0.008c-0.013,0.002,0.001,0.014-0.079,0.027
	c-0.038,0.008-0.061,0.027-0.073,0.066c-0.02,0.07-0.034,0.152-0.042,0.236c-0.002,0-0.002,0-0.002,0
	c0.003-0.041,0.004-0.078,0.012-0.123c0.011-0.061-0.079-0.078-0.094-0.02c-0.032,0.143-0.048,0.275-0.051,0.404l-0.004,0.023
	c-0.007,0.018-0.014,0.031-0.019,0.049c-0.084,0.004-0.165-0.002-0.252-0.018c0.163-0.125,0.256-0.234,0.298-0.463
	c0.009-0.049-0.008-0.094-0.037-0.129c0.054-0.021,0.108-0.047,0.164-0.066c0.027-0.01,0.013-0.049-0.014-0.043
	c-0.071,0.02-0.136,0.051-0.206,0.072c-0.011-0.006-0.017-0.018-0.03-0.02c-0.089-0.018-0.177-0.031-0.264-0.047
	c-0.098-0.021-0.158,0.047-0.171,0.121c-0.008,0.035-0.003,0.07,0.011,0.102c-0.142,0.053-0.293,0.09-0.432,0.148
	c-4.175,1.162-7.603,5.211-10.632,8.025c-0.07,0.063,0.031,0.17,0.104,0.119c3.772-2.617,6.795-5.865,10.875-8.033
	c-0.025,0.109-0.048,0.217-0.072,0.326c-0.022,0.102,0.05,0.199,0.149,0.219c0.086,0.021,0.158,0.029,0.223,0.033
	c-0.054,0.076-0.108,0.152-0.166,0.225c-0.238,0.102-0.478,0.193-0.696,0.336c-0.068,0.043,0.001,0.141,0.069,0.102
	c0.133-0.074,0.272-0.133,0.41-0.195c-0.001,0.041,0.034,0.074,0.074,0.064c-0.039,0.039-0.077,0.08-0.117,0.119
	c-0.009,0.01-0.008,0.02-0.012,0.027c-0.001,0.006-0.005,0.01-0.006,0.016c-0.001,0.016,0.002,0.027,0.012,0.041
	c0.002,0.006,0.003,0.01,0.007,0.012c0.004,0.004,0.008,0.008,0.014,0.01c0.011,0.012,0.025,0.018,0.041,0.018
	c0.001,0,0.003,0,0.004,0c0.014,0,0.028,0.002,0.041-0.008c0.209-0.135,0.332-0.342,0.495-0.521
	c-0.024,0.219-0.002,0.434,0.102,0.625c0.031,0.059,0.105,0.014,0.108-0.035c0.007-0.156,0.018-0.293,0.027-0.434
	c0.125,0.193,0.341,0.33,0.64,0.383C17.76,61.547,17.771,61.475,17.724,61.459"/>
<path fill="#6B828A" d="M16.182,60.699c-0.404,0.291-0.741,0.668-1.143,0.967c-0.03,0.023,0.001,0.07,0.033,0.049
	c0.423-0.279,0.74-0.666,1.144-0.967C16.246,60.727,16.214,60.678,16.182,60.699"/>
<path fill="#6B828A" d="M32.191,66.732c0.003-0.008-0.008-0.016-0.013-0.008c-0.092,0.111-0.192,0.213-0.289,0.32
	c-0.045-0.332-0.048-0.633,0.002-0.963c0.088,0.271,0.024,0.541-0.011,0.826c-0.004,0.037,0.048,0.047,0.058,0.01
	c0.088-0.326,0.125-0.623-0.039-0.918c0.003-0.014,0.002-0.029,0.004-0.041c0.012-0.057-0.075-0.072-0.086-0.018
	c-0.032,0.166-0.054,0.324-0.067,0.48c-0.101-0.801-0.668-1.541-1.149-2.15c-0.43-0.543-1.008-1.205-1.722-1.348
	c-0.071-0.014-0.086,0.086-0.021,0.107c0.686,0.223,1.233,0.975,1.647,1.521c0.483,0.643,0.851,1.367,1.175,2.102
	c0.015,0.033,0.044,0.031,0.067,0.014c0.006,0.146,0.028,0.295,0.077,0.449c-1.65,1.816-3.713,3.115-5.663,4.588
	c-0.053,0.041,0.001,0.119,0.057,0.086c2.02-1.199,4.226-2.686,5.652-4.619c0.016,0,0.03-0.012,0.027-0.031v-0.006
	C31.995,67.002,32.101,66.871,32.191,66.732"/>
<path fill="#6F6A4F" d="M62.75,43.254c0.052-0.191,0.036-0.402-0.064-0.586c-0.002-0.002-0.004,0-0.006,0
	c-0.039-0.139-0.078-0.281-0.128-0.412c0.001-0.025-0.004-0.045-0.001-0.07c0.002-0.025-0.023-0.033-0.039-0.023
	c-0.044-0.107-0.087-0.215-0.137-0.32c0.227,0.336,0.384,0.717,0.447,1.119c0.005,0.027,0.05,0.025,0.043-0.004
	c-0.076-0.453-0.277-0.873-0.557-1.236c-0.346-0.668-0.834-1.25-1.468-1.697c0.138,0.059,0.265,0.137,0.376,0.25
	c0.018,0.02,0.047-0.008,0.032-0.029c-0.072-0.1-0.162-0.168-0.263-0.227c0.021,0.002,0.043,0.01,0.063,0.008
	c0.043,0,0.056-0.064,0.017-0.082c-0.246-0.107-0.563-0.127-0.826-0.16c-0.028-0.008-0.043,0.01-0.045,0.031
	c-0.006,0.021,0,0.043,0.029,0.049c0.111,0.029,0.232,0.064,0.355,0.094c0.462,0.34,0.85,0.754,1.165,1.217
	c-0.063-0.047-0.119-0.102-0.188-0.143c-0.007-0.008-0.014,0.006-0.005,0.012c0.087,0.053,0.158,0.125,0.238,0.188
	c0.335,0.508,0.573,1.078,0.69,1.693c0.013,0.066,0.055,0.094,0.102,0.107c0.023,0.076,0.052,0.156,0.079,0.236
	c-0.044,0.113-0.109,0.221-0.203,0.314c-0.024,0.023,0.012,0.063,0.039,0.045c0.094-0.066,0.155-0.15,0.204-0.242
	c0.006,0.016,0.01,0.029,0.016,0.047c0.018,0.049,0.088,0.023,0.076-0.025C62.782,43.354,62.764,43.305,62.75,43.254"/>
<path fill="#6F6A4F" d="M62.563,43.143c-0.11,0.432-0.41,0.715-0.683,1.053c-0.006,0.008,0.006,0.018,0.011,0.01
	c0.276-0.344,0.575-0.621,0.688-1.061C62.581,43.135,62.567,43.133,62.563,43.143"/>
<path fill="#6F6A4F" d="M38.354,62.246c0.045-0.039-0.019-0.107-0.066-0.076c-1.666,1.09-3.582,2.078-5.071,3.412
	c-0.264-0.395-0.719-0.789-0.975-1.098c-0.569-0.688-1.138-1.391-1.83-1.959c-0.048-0.041-0.103,0.025-0.063,0.07
	c0.645,0.678,1.191,1.453,1.739,2.209c0.253,0.352,0.69,1.258,1.171,1.309c0.096,0.01,0.166-0.068,0.14-0.162
	c-0.027-0.1-0.086-0.197-0.146-0.297C34.944,64.543,36.852,63.604,38.354,62.246"/>
<path fill="#6F6A4F" d="M44.264,53.799c-0.06-0.012-0.078,0.08-0.019,0.092C44.304,53.902,44.323,53.811,44.264,53.799"/>
<path fill="#6F6A4F" d="M28.002,70.9c-0.362,0.41-0.941,0.707-1.202,1.197c-0.017,0.031,0.024,0.07,0.053,0.045
	c0.424-0.34,0.853-0.779,1.188-1.209C28.062,70.906,28.024,70.875,28.002,70.9"/>
<path fill="#94ABB5" d="M29.416,64.979c0.506-0.398,0.234-1.053-0.251-1.146c-0.147-0.109-0.339-0.145-0.551-0.045
	c-1.716,0.801-3.113,2.148-4.328,3.652c-1.033,1.102-1.97,2.299-2.808,3.523c-0.262,0.383-0.109,0.84,0.21,1.012
	c0.081,0.277,0.489,0.467,0.709,0.234c0.57-0.357,1.08-0.783,1.562-1.24c0.827-0.516,1.567-1.139,2.197-1.873
	c1.225-1.133,2.281-2.426,2.993-3.879C29.238,65.141,29.322,65.055,29.416,64.979"/>
<line fill="none" x1="0" y1="0" x2="0" y2="112.758"/>
<line fill="none" x1="85.521" y1="112.758" x2="85.521" y2="0"/>
</svg>
