<?xml version="1.0" encoding="utf-8"?>
<!-- Generator: Adobe Illustrator 16.0.0, SVG Export Plug-In . SVG Version: 6.00 Build 0)  -->
<!DOCTYPE svg PUBLIC "-//W3C//DTD SVG 1.1//EN" "http://www.w3.org/Graphics/SVG/1.1/DTD/svg11.dtd">
<svg version="1.1" id="Layer_1" xmlns="http://www.w3.org/2000/svg" xmlns:xlink="http://www.w3.org/1999/xlink" x="0px" y="0px"
	 width="86.569px" height="114.139px" viewBox="0 0 86.569 114.139" enable-background="new 0 0 86.569 114.139"
	 xml:space="preserve">
<path fill="#7C695A" d="M70.006,9.506c-2.551,2.576-5.463,4.76-7.99,7.363c-2.328,2.4-4.912,4.557-7.168,7.02
	c-4.703,5.119-9.27,10.422-13.579,15.881c-1.85,2.338-3.613,4.74-5.297,7.193l-0.117-0.063c-0.145-0.066-0.301,0.016-0.369,0.141
	l-0.053-0.035c1.852-2.721,3.793-5.377,5.861-7.947c2.254-2.811,4.518-5.637,6.934-8.301c2.25-2.48,4.367-5.109,6.689-7.52
	c2.455-2.543,5.094-4.918,7.598-7.422c2.098-2.105,4.396-4.072,6.736-5.922"/>
<polyline fill="none" points="73.549,6.932 0,52.891 0,94.995 11.963,114.139 "/>
<polyline fill="none" points="18.137,114.139 86.569,71.381 86.569,27.766 73.549,6.932 "/>
<path fill="#867262" d="M69.641,10.368c-2.375,1.908-4.717,3.953-6.846,6.129c-1.117,1.146-2.266,2.264-3.412,3.383
	c-1.389,1.352-2.773,2.711-4.105,4.117c-2.293,2.439-4.381,5.09-6.604,7.592c-0.455,0.512-0.904,1.033-1.35,1.559
	c-0.082-0.039-0.166-0.057-0.256-0.053c-0.17,0.004-0.223,0.213-0.143,0.332l0.078,0.094c-1.777,2.105-3.477,4.279-5.182,6.439
	c-1.885,2.393-3.654,4.861-5.346,7.379c-0.15-0.148-0.314-0.279-0.504-0.373c1.684-2.455,3.447-4.857,5.297-7.195
	c4.309-5.459,8.875-10.76,13.579-15.881c2.256-2.463,4.84-4.619,7.168-7.02c2.527-2.604,5.439-4.787,7.99-7.363"/>
<path fill="#605044" d="M71.495,9.424c-0.654,2.766-1.412,5.484-2.004,8.271c-0.586,2.725-1.518,5.303-2.613,7.867
	c-1.68,3.941-3.631,7.924-6.244,11.338c-2.516,3.281-5.492,6.172-8.643,8.84c-1.705,1.439-3.412,2.928-5.217,4.238
	c-1.42,1.039-2.977,1.891-4.385,2.949c-1.77,1.334-3.76,3.232-3.592,5.668c0.139,1.869,1.082,3.527,2.344,4.885
	c2.387,2.57,6.485,3.924,8.133,7.139c1.107,2.141,0.945,4.986-1.467,6.141c-2.646,1.27-5.196-0.047-7.907,0.477
	c-3.703,0.715-1.02,7.166,1.309,8.736l0.004,0.006c0.01,0.088,0.025,0.18,0.033,0.262c-1.846-0.9-2.904-3.021-3.359-4.98
	c-0.4-1.707-0.66-3.717,1.373-4.361c2.646-0.832,5.481,0.883,8.11-0.381c2.045-0.988,2.777-3.303,1.711-5.355
	c-0.998-1.924-2.822-3.166-4.566-4.355c-2.477-1.688-5.327-3.895-5.989-7.014c-0.697-3.258,1.432-5.729,3.961-7.482
	c6.87-4.756,13.918-9.924,18.698-16.924c2.639-3.869,4.68-8.197,6.318-12.578c0.895-2.398,1.461-4.797,1.973-7.295
	c0.324-1.541,0.748-3.035,1.17-4.543"/>
<path fill="#7C695A" d="M69.497,10.84c-2.344,2.295-4.922,4.336-7.186,6.717c-0.803,0.848-1.643,1.672-2.488,2.484
	c-0.059-0.096-0.129-0.158-0.215-0.189c-0.08-0.033-0.156-0.014-0.213,0.041l-0.012-0.016c1.146-1.117,2.295-2.236,3.412-3.381
	c2.129-2.176,4.471-4.221,6.846-6.129"/>
<path fill="#605044" d="M69.708,11.331c-1.373,1.568-2.352,3.609-3.857,5.023c-1.135,1.072-2.059,2.336-3.191,3.396
	c-0.77,0.723-1.66,1.146-2.482,1.754c-0.006-0.096-0.018-0.189-0.031-0.275c0.113-0.119,0.264-0.219,0.447-0.332
	c0.813-0.49,1.51-1.066,2.148-1.775c1.041-1.154,2.154-2.279,3.158-3.457c1.098-1.275,2.209-2.666,3.131-4.066"/>
<path fill="#C4A790" d="M59.823,20.042c0.195,0.293,0.268,0.842,0.307,1.102l0.014,0.086c-0.121,0.121-0.219,0.266-0.301,0.455
	l-0.002,0.027l-0.012,0.006c-0.031-0.066-0.098-0.111-0.172-0.135c-0.029-0.316-0.096-0.631-0.191-0.932
	c-0.018-0.059-0.045-0.125-0.072-0.193C59.534,20.315,59.674,20.18,59.823,20.042"/>
<path fill="#C4A790" d="M59.608,19.852c0.086,0.031,0.156,0.094,0.215,0.189c-0.148,0.139-0.289,0.273-0.43,0.416
	c-0.063-0.172-0.123-0.352-0.045-0.5l0.047-0.064C59.452,19.838,59.528,19.819,59.608,19.852"/>
<path fill="#C4A790" d="M60.145,21.229c0.014,0.086,0.025,0.18,0.031,0.275c-0.096,0.072-0.191,0.143-0.285,0.219l-0.051-0.012
	l0.002-0.027C59.922,21.495,60.022,21.35,60.145,21.229"/>
<path fill="#C4A790" d="M59.891,21.723c0.094-0.076,0.189-0.146,0.285-0.219c0.039,0.371,0.02,0.779-0.203,1.07
	c-0.23,0.324-0.582,0.426-0.916,0.363c0.107-0.174,0.225-0.352,0.355-0.518c0.096-0.057,0.15-0.145,0.186-0.238l0.004-0.008
	c0.063-0.07,0.125-0.141,0.189-0.207c0.084-0.086,0.088-0.18,0.037-0.252l0.012-0.004L59.891,21.723z"/>
<path fill="#7C695A" d="M59.383,19.877l0.012,0.016l-0.045,0.064c-0.078,0.15-0.02,0.328,0.045,0.5
	c-0.387,0.365-0.764,0.727-1.145,1.096c0.004-0.055,0.014-0.109,0.039-0.18l-0.049-0.02c-0.025,0.082-0.029,0.156-0.02,0.225
	c-1.033,0.994-2.049,2.006-3.004,3.066c-2.572,2.863-5.1,5.777-7.563,8.75c-0.094-0.119-0.207-0.203-0.33-0.246
	c0.445-0.527,0.895-1.051,1.35-1.561c2.223-2.502,4.311-5.152,6.604-7.592C56.61,22.588,57.995,21.231,59.383,19.877"/>
<path fill="#C4A790" d="M59.829,21.717c0.049,0.07,0.047,0.164-0.035,0.25c-0.066,0.064-0.129,0.137-0.191,0.207
	c0.07-0.166,0.072-0.369,0.063-0.541l-0.008-0.051C59.731,21.606,59.795,21.651,59.829,21.717"/>
<path fill="#605044" d="M59.657,21.583l0.008,0.051c0.01,0.172,0.008,0.375-0.063,0.541l-0.004,0.008
	c-0.061,0.078-0.127,0.156-0.186,0.24l-0.053,0.033c-0.195,0.1-0.383,0.037-0.553-0.092c0.174-0.246,0.367-0.482,0.586-0.707
	C59.469,21.573,59.569,21.559,59.657,21.583"/>
<path fill="#C4A790" d="M59.36,22.456l0.053-0.035c-0.131,0.164-0.248,0.344-0.355,0.518c-0.178-0.02-0.354-0.1-0.492-0.213
	c0.074-0.123,0.158-0.24,0.24-0.359C58.975,22.493,59.165,22.555,59.36,22.456"/>
<path fill="#C4A790" d="M58.807,22.366c-0.084,0.117-0.166,0.236-0.242,0.357c-0.271-0.197-0.438-0.516-0.389-0.896l0.072-0.082
	c-0.018-0.059-0.031-0.111-0.029-0.166l0.031-0.025c-0.002,0.061,0.006,0.115,0.025,0.18c0.051-0.008,0.104,0.012,0.127,0.066
	C58.479,21.973,58.622,22.217,58.807,22.366"/>
<path fill="#007F58" d="M58.241,21.354l0.049,0.02c-0.025,0.07-0.035,0.125-0.039,0.182l-0.029,0.023
	C58.211,21.51,58.217,21.436,58.241,21.354"/>
<path fill="#605044" d="M58.565,22.723c0.139,0.115,0.314,0.195,0.492,0.215c-0.561,0.914-0.916,1.936-1.482,2.871
	c-0.771,1.287-1.66,2.479-2.65,3.6c-0.994,1.127-1.883,2.377-3.018,3.371c-1.156,1.012-2.414,1.5-3.715,2.221
	c-0.004-0.117-0.02-0.242-0.043-0.363c1.121-0.793,2.447-1.242,3.473-2.227c1.178-1.137,2.199-2.426,3.24-3.678
	c1.021-1.238,1.982-2.512,2.664-3.973C57.846,24.063,58.163,23.366,58.565,22.723"/>
<path fill="#C4A790" d="M47.655,33.395c0.26,0.301,0.424,0.793,0.494,1.242c-0.145,0.096-0.289,0.209-0.426,0.328
	c-0.008-0.088-0.025-0.18-0.043-0.271c-0.068-0.299-0.174-0.631-0.365-0.875l-0.01-0.008C47.42,33.672,47.538,33.528,47.655,33.395"
	/>
<path fill="#C4A790" d="M47.655,33.395c-0.117,0.133-0.234,0.277-0.35,0.416c-0.084-0.111-0.203-0.193-0.301-0.291
	c0.107-0.123,0.213-0.25,0.32-0.373C47.446,33.19,47.561,33.276,47.655,33.395"/>
<path fill="#C4A790" d="M48.149,34.637c0.023,0.121,0.039,0.246,0.041,0.363c-0.117,0.066-0.24,0.135-0.361,0.205l-0.1,0.014
	c0-0.08,0-0.164-0.008-0.246l0.002-0.008C47.86,34.844,48.004,34.735,48.149,34.637"/>
<path fill="#C4A790" d="M47.827,35.206c0.125-0.068,0.248-0.139,0.363-0.205c0.016,0.17,0.012,0.322-0.004,0.441
	c-0.057,0.381-0.195,0.752-0.537,0.91l-0.008,0.029c-0.232,0.141-0.443,0.107-0.629-0.016c0.082-0.117,0.176-0.227,0.27-0.338
	c0.184-0.047,0.369-0.24,0.4-0.422c0.025-0.129,0.041-0.254,0.047-0.387L47.827,35.206z"/>
<path fill="#C4A790" d="M47.325,33.149c-0.107,0.121-0.213,0.248-0.32,0.371l-0.078-0.094c-0.08-0.119-0.027-0.33,0.143-0.332
	C47.159,33.09,47.245,33.11,47.325,33.149"/>
<path fill="#B3479A" d="M47.68,35.002l0.041-0.029c0.008,0.082,0.008,0.166,0.008,0.246C47.637,35.204,47.59,35.086,47.68,35.002"/>
<path fill="#7C695A" d="M47.004,33.52c0.098,0.098,0.217,0.18,0.301,0.291c-0.34,0.412-0.68,0.818-1.01,1.232l-0.008-0.018
	l-0.068,0.029l0.018,0.059c-1.5,1.83-2.981,3.686-4.428,5.559c-1.76,2.281-3.443,4.619-5.051,7.004
	c-0.082-0.123-0.18-0.234-0.281-0.338c1.691-2.518,3.461-4.986,5.346-7.379C43.528,37.799,45.227,35.625,47.004,33.52"/>
<path fill="#605044" d="M47.317,35.385c0.197-0.191,0.461,0.154,0.256,0.342c-0.1,0.094-0.195,0.197-0.291,0.301l-0.119,0.016
	c-0.094-0.053-0.184-0.115-0.266-0.207C47.024,35.68,47.165,35.526,47.317,35.385"/>
<path fill="#605044" d="M47.163,36.043l0.119-0.016c-0.094,0.111-0.188,0.221-0.27,0.34c-0.109-0.076-0.207-0.174-0.303-0.293
	c0.061-0.082,0.121-0.158,0.188-0.238C46.977,35.928,47.069,35.991,47.163,36.043"/>
<path fill="#C4A790" d="M46.866,35.809l0.031,0.027c-0.066,0.078-0.127,0.156-0.186,0.238c-0.232-0.299-0.402-0.703-0.475-0.961
	l0.059-0.07C46.463,35.311,46.649,35.583,46.866,35.809"/>
<path fill="#605044" d="M46.709,36.075c0.096,0.119,0.193,0.219,0.303,0.291c-0.988,1.336-1.414,3.172-2.227,4.588
	c-0.725,1.27-1.524,2.488-2.375,3.678c-0.756,1.064-1.6,2.092-2.631,2.914c-0.779,0.623-1.697,1.025-2.467,1.631
	c-0.006-0.076-0.014-0.158-0.031-0.236c0.404-0.607,1.359-0.916,1.895-1.361c1.42-1.176,2.479-2.547,3.51-4.055
	c1.106-1.625,2.094-3.303,2.842-5.117C45.87,37.583,46.202,36.778,46.709,36.075"/>
<polygon fill="#007F58" points="46.288,35.026 46.295,35.043 46.237,35.114 46.221,35.053 "/>
<path fill="#C4A790" d="M36.758,47.676c0.268,0.371,0.441,0.818,0.523,1.264c-0.045,0.07-0.086,0.146-0.113,0.223l0.076,0.061
	l0.068-0.047c0.021,0.154,0.025,0.311,0.014,0.461c-0.047,0.725-0.537,1.119-1.068,0.875c0.039-0.113,0.078-0.229,0.121-0.33
	C36.531,50.2,36.67,50.17,36.732,50c0.059-0.162,0.074-0.338,0.066-0.52l-0.008-0.133c-0.008-0.084-0.02-0.164-0.037-0.236
	c-0.063-0.32-0.174-0.643-0.336-0.932C36.533,48.01,36.643,47.842,36.758,47.676"/>
<path fill="#B3479A" d="M37.281,48.94c0.018,0.078,0.025,0.16,0.029,0.236l-0.066,0.047l-0.076-0.061
	C37.195,49.084,37.238,49.01,37.281,48.94"/>
<path fill="#C4A790" d="M36.758,47.676c-0.115,0.166-0.225,0.334-0.34,0.504c-0.07-0.127-0.162-0.254-0.266-0.365
	c0.109-0.154,0.219-0.318,0.324-0.477C36.578,47.442,36.676,47.553,36.758,47.676"/>
<path fill="#C4A790" d="M36.477,47.338c-0.104,0.16-0.215,0.322-0.324,0.477c-0.086-0.102-0.186-0.186-0.297-0.266l-0.078-0.016
	c-0.055-0.035-0.092-0.061-0.129-0.092c0.105-0.16,0.211-0.32,0.324-0.477C36.162,47.059,36.326,47.188,36.477,47.338"/>
<path fill="#C4A790" d="M35.855,46.901l0.117,0.064c-0.113,0.156-0.219,0.316-0.324,0.477c-0.043-0.027-0.08-0.066-0.127-0.117
	c-0.08-0.088-0.078-0.199-0.035-0.283C35.555,46.917,35.711,46.834,35.855,46.901"/>
<path fill="#605044" d="M36.703,49.2l0.063,0.02l-0.012,0.07l0.037,0.059l0.008,0.133l-0.014,0.033
	c-0.172,0.207-0.305,0.43-0.406,0.666c-0.125-0.014-0.256-0.066-0.359-0.109l-0.141,0.057l-0.008-0.004
	c0.127-0.352,0.334-0.652,0.719-0.865l0.1-0.014L36.703,49.2z"/>
<path fill="#B3479A" d="M36.791,49.348l0.008,0.133L36.791,49.348z"/>
<path fill="#7C695A" d="M36.152,47.815c0.104,0.111,0.195,0.238,0.266,0.365c-2.299,3.43-4.457,6.947-6.527,10.521
	c-0.533,0.922-1.057,1.85-1.563,2.787c-0.096-0.121-0.195-0.223-0.309-0.322c0.67-1.232,1.361-2.457,2.082-3.664
	C32.049,54.229,34.043,50.985,36.152,47.815"/>
<path fill="#867262" d="M36.152,47.815c-2.109,3.17-4.104,6.414-6.051,9.688c-0.721,1.207-1.412,2.432-2.082,3.664
	c-0.129-0.125-0.271-0.236-0.424-0.32c-0.053-0.031-0.123-0.063-0.207-0.08c0.572-1.043,1.168-2.07,1.771-3.092
	c2.063-3.48,4.209-6.9,6.488-10.232c0.039,0.031,0.074,0.055,0.129,0.092l0.078,0.016C35.965,47.629,36.066,47.713,36.152,47.815"/>
<path fill="#7C695A" d="M35.434,47.006l0.053,0.035c-0.045,0.084-0.045,0.195,0.035,0.283c0.047,0.051,0.082,0.09,0.127,0.117
	c-2.279,3.33-4.426,6.752-6.488,10.23c-0.604,1.023-1.199,2.051-1.771,3.094c-0.15-0.045-0.326-0.072-0.467-0.049
	c0.785-1.43,1.605-2.842,2.457-4.24C31.336,53.27,33.324,50.096,35.434,47.006"/>
<path fill="#605044" d="M36.379,50.18c-0.043,0.104-0.082,0.219-0.121,0.332c-0.121-0.057-0.242-0.145-0.365-0.271l-0.014-0.113
	l0.141-0.057C36.123,50.114,36.254,50.167,36.379,50.18"/>
<path fill="#605044" d="M35.893,50.241c0.123,0.127,0.244,0.215,0.365,0.271c-0.271,0.836-0.283,1.785-0.621,2.621
	c-0.57,1.41-1.295,2.75-2.004,4.098c-0.662,1.283-1.352,2.512-2.242,3.65c-0.635,0.813-1.682,1.209-2.344,2.02l-0.037,0.035
	c-0.018-0.104-0.041-0.213-0.076-0.316c0.52-1.021,1.814-1.447,2.471-2.385c0.99-1.43,1.725-2.988,2.521-4.523
	c0.822-1.584,1.428-3.02,1.742-4.777c0.053-0.291,0.107-0.561,0.203-0.811l0.008,0.004L35.893,50.241z"/>
<line fill="none" x1="0" y1="0" x2="0" y2="114.139"/>
<line fill="none" x1="86.569" y1="114.139" x2="86.569" y2="0"/>
<path fill="#BFBFB6" d="M46.674,93.12c0.254,0.271,0.266,0.725,0.254,1.07c-0.021,0.756-0.355,1.604-0.895,2.137
	c-0.957,0.943-1.518-0.502-1.881-1.902c0.338,1.031,0.871,1.949,1.85,1.561c0.645-0.252,0.818-1.168,0.855-1.76
	c0.018-0.248,0.023-0.82-0.189-1.104L46.674,93.12z"/>
<path fill="#717375" d="M46.307,92.586c-0.068-0.025-0.152-0.004-0.18,0.072c-0.211,0.551-0.264,1.037,0.012,1.574
	c0.035,0.066,0.145,0.047,0.131-0.033c-0.033-0.248-0.127-1.031,0.051-1.205l0.027,0.047c0.457,0.195,0.371,1.082,0.324,1.455
	c-0.078,0.699-0.543,1.674-1.408,1.354c-0.592-0.219-0.85-1.281-1.02-1.816c-0.166-0.508-0.273-1.049-0.48-1.549
	c0.049-0.051,0.096-0.111,0.137-0.172c0.125-0.395,0.199-0.793,0.238-1.195c-0.002-0.27-0.01-0.539-0.031-0.807
	c-0.031-0.48-0.078-0.955-0.125-1.434c-0.066-0.326-0.137-0.65-0.223-0.973c-0.217-0.422-0.491-0.811-0.838-1.105
	c-0.078-0.07-0.18-0.137-0.277-0.205c0.441,0.471,0.727,1.104,0.918,1.754c-0.323,0.193-0.575,0.492-0.883,0.703
	c-0.305,0.199-0.648,0.26-1.006,0.248c-0.121-0.006-0.479-0.045-0.629-0.174l-0.035-0.137c-0.221-0.906-0.207-1.764,0.342-2.26
	l0.068-0.053c0.148-0.119,0.32-0.217,0.545-0.279c0.037,0.109,0.225,0.092,0.195-0.033l-0.006-0.012
	c0.064-0.014,0.121-0.023,0.186-0.031l-0.068-0.127l-0.146-0.033c-0.152-0.797-0.16-1.631-0.391-2.41
	c-0.209-0.682-0.332-0.533-0.967-0.711l-0.113,0.111c0.094,0.736,0.244,1.48,0.486,2.195c0.006,0.063,0.014,0.133,0.021,0.201
	c0,0.145,0.018,0.287,0.047,0.426l0.004,0.006c0.107,0.074,0.217,0.135,0.316,0.186c-0.098-0.354-0.191-0.701-0.287-1.055
	c-0.072-0.469-0.176-0.939-0.303-1.398c-0.021-0.15-0.049-0.301-0.072-0.457c0.1,0.02,0.195,0.047,0.291,0.061
	c0.449,0.055,0.469,0.852,0.521,1.178c0.092,0.553,0.139,1.105,0.232,1.65c-0.123-0.002-0.236,0.01-0.348,0.041
	c0.107,0.055,0.033,0.217-0.078,0.17c-0.084-0.033-0.166-0.072-0.24-0.113l0.006,0.082c-0.563,0.375-0.74,1.266-0.674,2.045
	c0.42,1.213,0.955,2.383,1.559,3.518l0.055,0.063c0.277,0.221,0.561,0.436,0.854,0.637c0.055,0.037,0.084,0.082,0.102,0.129
	c0.094,0.016,0.184,0.012,0.266-0.01c0.012,0.029,0.031,0.074,0.055,0.15l0.08,0.02c0.031,0.178,0.074,0.43,0.086,0.471
	c0.07,0.357,0.131,0.713,0.201,1.066c0.115,0.568,0.246,1.197,0.541,1.699c0.4,0.684,1.049,1.027,1.744,0.543
	C47.17,95.928,47.948,93.077,46.307,92.586 M41.117,89.385c0.359,0.17,0.945,0.131,1.219,0.059c0.469-0.117,0.983-0.5,1.274-0.914
	c0.082,0.283,0.143,0.561,0.191,0.828c-0.324,0.287-0.637,0.551-1.083,0.713c-0.432,0.152-0.889,0.154-1.34,0.094
	C41.275,89.905,41.188,89.639,41.117,89.385 M42.625,92.067c-0.543-0.438-0.928-1.115-1.209-1.814
	c0.859,0.186,1.824,0.025,2.436-0.602C43.987,90.489,44.102,93.272,42.625,92.067 M46.928,94.19
	c-0.021,0.756-0.355,1.604-0.895,2.137c-0.957,0.943-1.518-0.502-1.881-1.902c0.338,1.031,0.871,1.949,1.85,1.561
	c0.645-0.252,0.818-1.168,0.855-1.76c0.018-0.248,0.023-0.82-0.189-1.104l0.006-0.002C46.928,93.391,46.94,93.844,46.928,94.19"/>
<polyline fill="none" points="73.549,6.932 0,52.891 0,94.995 11.963,114.139 "/>
<polyline fill="none" points="18.137,114.139 86.569,71.381 86.569,27.766 73.549,6.932 "/>
<path fill="#ED1C24" d="M43.612,88.53c0.08,0.283,0.139,0.561,0.189,0.828c-0.324,0.287-0.637,0.551-1.083,0.711
	c-0.43,0.154-0.889,0.156-1.34,0.094c-0.104-0.258-0.191-0.523-0.262-0.777c0.357,0.17,0.943,0.131,1.217,0.059
	C42.805,89.327,43.319,88.944,43.612,88.53"/>
<path fill="#ED1C24" d="M41.158,83.315c0.449,0.055,0.471,0.852,0.521,1.178c0.092,0.553,0.139,1.104,0.232,1.648
	c-0.123-0.002-0.236,0.012-0.348,0.043l-0.004-0.006l-0.031-0.012c-0.098-0.355-0.191-0.703-0.287-1.057
	c-0.072-0.471-0.176-0.939-0.303-1.398c-0.021-0.148-0.049-0.301-0.072-0.457C40.967,83.274,41.063,83.301,41.158,83.315"/>
<path fill="#B3479A" d="M41.564,86.184c0.105,0.055,0.033,0.217-0.076,0.17c-0.086-0.033-0.166-0.072-0.242-0.113
	c-0.008-0.082-0.025-0.174-0.033-0.262c0.107,0.074,0.217,0.135,0.316,0.186l0.01,0.023L41.564,86.184z"/>
<polygon fill="#B3479A" points="41.561,86.178 41.564,86.184 41.539,86.188 41.529,86.167 "/>
<path fill="#C4A790" d="M28.328,61.489c0.254,0.309,0.453,0.668,0.572,1.014l0.033,0.117l-0.076,0.168
	c-0.043,0.104,0.07,0.188,0.152,0.148c0.074,0.475-0.027,0.908-0.432,1.223c-0.012-0.225-0.02-0.451-0.014-0.684
	c0.025-0.082,0.039-0.166,0.029-0.268l0.027-0.029l-0.031-0.08l-0.012,0.006c-0.045-0.389-0.209-0.748-0.438-1.057l-0.061-0.086
	C28.158,61.799,28.238,61.641,28.328,61.489"/>
<path fill="#B3479A" d="M28.857,62.788l0.076-0.168c0.035,0.104,0.059,0.213,0.076,0.316C28.928,62.975,28.814,62.891,28.857,62.788
	"/>
<path fill="#C4A790" d="M28.328,61.489c-0.09,0.152-0.17,0.311-0.248,0.473c-0.1-0.131-0.197-0.256-0.299-0.365
	c0.08-0.143,0.16-0.287,0.238-0.43C28.133,61.264,28.234,61.368,28.328,61.489"/>
<path fill="#C4A790" d="M28.02,61.167c-0.08,0.145-0.158,0.287-0.238,0.432c-0.184-0.195-0.395-0.348-0.645-0.383
	c0.082-0.152,0.166-0.303,0.25-0.449c0.086,0.018,0.158,0.049,0.209,0.08C27.748,60.93,27.891,61.042,28.02,61.167"/>
<polygon fill="#B3479A" points="28.59,63.098 28.621,63.178 28.594,63.208 28.594,63.19 28.578,63.104 "/>
<line fill="none" x1="0" y1="0" x2="0" y2="114.139"/>
<line fill="none" x1="86.569" y1="114.139" x2="86.569" y2="0"/>
<path fill="#605044" d="M28.578,63.104l0.016,0.084v0.02l-0.076,0.084l0.047,0.133v0.051c-0.043,0.137-0.141,0.254-0.264,0.369
	c-0.045,0.037-0.084,0.068-0.127,0.09c-0.01-0.186-0.008-0.377,0.002-0.563c0.006-0.133,0.105-0.182,0.203-0.162
	C28.422,63.155,28.471,63.114,28.578,63.104"/>
<path fill="#7C695A" d="M27.781,61.596c0.104,0.109,0.199,0.234,0.297,0.365c-0.293,0.525-0.578,1.066-0.859,1.619
	c-0.043-0.055-0.074-0.115-0.102-0.17l-0.096,0.025c0.016,0.117,0.045,0.238,0.088,0.346l0.002,0.006
	c-0.766,1.461-1.492,2.947-2.188,4.453c-0.695,1.51-1.383,3.02-2.094,4.525c-0.506,1.084-0.932,2.303-1.609,3.283
	c0.484,0.295,0.893,0.688,1.158,1.23l0.01,0.01v0.02c0.049,0.104,0.098,0.209,0.137,0.318c0.041,0.102-0.053,0.164-0.133,0.158
	c-0.01,0.109-0.023,0.219-0.063,0.32c-0.07,0.197-0.123,0.475-0.328,0.564L21.9,78.631c0.076,0.396-0.063,0.885-0.182,1.234
	c-0.037,0.105-0.078,0.215-0.121,0.318c-0.193,0.189-0.375,0.387-0.535,0.596c0.078-0.15,0.152-0.291,0.195-0.4
	c0.242-0.596,0.592-1.385,0.35-2.035c-0.559-0.816-1.482-1.5-2.467-1.73c-0.572-0.137-1.072-0.125-1.633-0.102
	c-0.084,0.033-0.164,0.078-0.238,0.123c-0.803,0.801-1.256,1.889-1.813,2.865c-0.658,1.178-1.328,2.359-1.988,3.535
	c-1.313,2.35-2.617,4.705-3.846,7.1c-1.209,2.363-2.73,4.621-3.82,7.033c-0.357,0.785-1.846,2.898-1.4,3.742
	c0.049,0.09-0.029,0.156-0.115,0.156c0.299,1.047,1.461,2.025,2.418,2.303c1.398,0.398,2.541,0.193,3.605-0.793
	c1.588-3.34,3.299-6.605,5.047-9.852c0.875-1.617,1.656-3.244,2.344-4.943c0.439-1.088,0.764-2.43,1.664-3.238l0.004-0.004
	l0.021,0.02c-1.563,3.033-2.67,6.246-4.322,9.252c-1.619,2.951-2.934,6.109-4.615,9.01c-0.041,0.061-0.113,0.072-0.17,0.049
	c-0.707,1.221-2.496,1.334-3.717,0.824c-0.895-0.367-2.607-1.563-2.422-2.758c-0.395-0.943,0.906-2.771,1.275-3.549
	c1.203-2.504,2.697-4.875,3.975-7.35c1.406-2.736,2.895-5.426,4.416-8.104c0.672-1.195,1.365-2.385,2.033-3.584
	c0.285-0.516,0.566-1.016,0.955-1.434c0.105-0.326,0.467-0.602,0.811-0.623c0.129-0.98,1.184-0.98,1.984-0.832L19.6,75.36
	c0.092-0.096,0.174-0.201,0.256-0.307c0.029-0.07,0.068-0.139,0.125-0.193c0.373-0.604,0.568-1.305,1.029-1.852
	c0.434-0.986,0.811-2.016,1.277-2.951c0.756-1.523,1.4-3.094,2.158-4.611c0.719-1.451,1.469-2.887,2.244-4.299l0.109,0.061
	c0.125-0.018,0.229-0.014,0.338,0.008c-1.076,1.947-2.092,3.93-3.043,5.938c-0.717,1.508-1.424,3.006-2.145,4.502
	c-0.52,1.08-0.959,2.299-1.65,3.279l0.008,0.057c-0.092,0.207-0.283,0.336-0.412,0.52l0.043,0.021l0.105,0.037l0.027,0.002
	l0.016,0.006c0.334,0.096,0.648,0.211,0.936,0.357c0.875-1.453,1.387-3.24,2.133-4.771c0.738-1.531,1.367-3.107,2.105-4.637
	C26.064,64.864,26.904,63.221,27.781,61.596 M22.006,78.079c0.068-0.186,0.141-0.365,0.213-0.545
	c-0.396-0.836-1.129-1.385-2.023-1.641c-0.793-0.225-1.941-0.553-2.395,0.35c0.514-0.102,1.23,0.068,1.607,0.205
	c0.848,0.313,2.078,0.865,2.355,1.813l-0.002,0.041c0.059,0.08,0.098,0.178,0.123,0.273C21.846,78.399,21.949,78.247,22.006,78.079"
	/>
<polyline fill="none" points="73.549,6.932 0,52.891 0,94.995 11.963,114.139 "/>
<polyline fill="none" points="18.137,114.139 86.569,71.381 86.569,27.766 73.549,6.932 "/>
<path fill="#605044" d="M28.564,63.475c-0.004,0.232,0.002,0.459,0.014,0.684c-0.041,0.043-0.094,0.076-0.15,0.113
	c-0.078,0.051-0.162,0.086-0.238,0.109c-0.012-0.146-0.02-0.293-0.016-0.447c0.043-0.023,0.084-0.053,0.127-0.09
	C28.426,63.729,28.521,63.612,28.564,63.475"/>
<path fill="#605044" d="M28.428,64.272c0.059-0.037,0.109-0.07,0.15-0.113c0.063,1.502,0.342,2.961,0.082,4.475
	c-0.311,1.797-0.834,3.568-1.629,5.205c-0.768,1.574-1.707,3.059-2.859,4.383c-0.891,1.021-1.949,1.84-2.908,2.777
	c0.115-0.268,0.229-0.537,0.332-0.814c0.643-0.639,1.418-1.215,1.924-1.811c1.211-1.434,2.346-2.979,3.127-4.695
	c0.861-1.908,1.635-4.02,1.73-6.137c0.045-1.059-0.131-2.109-0.188-3.16C28.266,64.356,28.35,64.323,28.428,64.272"/>
<path fill="#C4A790" d="M26.922,60.717c0.143-0.023,0.316,0.004,0.465,0.049c-0.084,0.146-0.168,0.297-0.252,0.449
	c-0.107-0.021-0.213-0.025-0.336-0.008l-0.109-0.061C26.768,61.002,26.842,60.862,26.922,60.717"/>
<path fill="#867262" d="M27.137,61.215c0.25,0.035,0.461,0.188,0.645,0.381c-0.877,1.625-1.717,3.268-2.52,4.93
	c-0.74,1.529-1.369,3.105-2.107,4.637c-0.746,1.531-1.258,3.318-2.133,4.77c-0.287-0.145-0.602-0.26-0.936-0.355l-0.016-0.006
	l-0.027-0.002l-0.105-0.035l-0.043-0.023c0.129-0.184,0.32-0.313,0.412-0.52l-0.008-0.057c0.691-0.98,1.131-2.199,1.65-3.279
	c0.721-1.496,1.428-2.994,2.145-4.502C25.045,65.145,26.061,63.163,27.137,61.215"/>
<path fill="#C4A790" d="M26.664,61.104c-0.053-0.248,0.072-0.357,0.258-0.387c-0.08,0.145-0.152,0.285-0.232,0.43L26.664,61.104z"/>
<path fill="#C4A790" d="M28.174,63.936c-0.004,0.15,0.004,0.299,0.016,0.443c-0.486,0.158-0.896-0.141-1.078-0.592l-0.002-0.006
	c0.037-0.074,0.068-0.139,0.109-0.201C27.434,63.901,27.814,64.147,28.174,63.936"/>
<path fill="#007F58" d="M27.219,63.581c-0.041,0.061-0.074,0.127-0.109,0.201c-0.043-0.107-0.072-0.227-0.088-0.346l0.096-0.025
	C27.145,63.465,27.176,63.524,27.219,63.581"/>
<path fill="#7C695A" d="M26.641,94.03c0.029-0.086,0.064-0.172,0.098-0.258c-0.18-0.113-0.361-0.223-0.547-0.326
	c-0.924-0.518-2.088-0.809-1.352-2.232c0.664-1.277,1.215-2.607,1.838-3.906l0.01,0.01c0.131,0.078,0.244-0.08,0.143-0.184
	c-0.053-0.051-0.111-0.084-0.164-0.131c-0.016-0.07-0.055-0.135-0.104-0.207c-0.031-0.045-0.109-0.014-0.102,0.041
	c-0.459-0.324-1.006-0.545-1.492-0.811c-0.389-0.213-0.883-0.531-1.354-0.498c-0.154-0.285,0.135-0.848,0.512-1.064
	c0.137,0.057,0.268,0.109,0.398,0.154l0.031,0.014c0.23,0.084,0.455,0.17,0.676,0.264l0.107,0.049
	c0.104,0.051,0.213,0.092,0.318,0.146c0.379,0.209,0.752,0.432,1.125,0.643c0.307,0.209,0.619,0.396,0.875,0.674l0.031,0.047
	c0.086,0.994-0.453,1.834-0.863,2.721c-0.283,0.625-0.604,1.277-0.783,1.953c-0.076,0.168-0.127,0.332-0.145,0.502
	c-0.039,0.115-0.084,0.232-0.119,0.357c-0.115-0.057-0.254-0.127-0.256-0.166l-0.043,0.006c-0.053,0.355,0.535,0.598,0.785,0.744
	c0.238,0.135,0.5,0.287,0.768,0.414l0.029-0.076c0.037-0.088,0.082-0.176,0.121-0.264c-0.164-0.076-0.332-0.145-0.477-0.213
	c-0.213-0.105-0.43-0.207-0.643-0.311c0.061-0.176,0.125-0.34,0.195-0.506l-0.094-0.133c0.049-0.176,0.111-0.344,0.174-0.514
	c0.082-0.17,0.162-0.342,0.217-0.521l-0.008-0.035c0.27-0.66,0.592-1.307,0.879-1.961c0.227-0.51,0.576-1.104,0.498-1.66
	l0.043-0.084c-0.098-0.373-0.322-0.656-0.699-0.891c-0.244-0.184-0.506-0.346-0.793-0.453c-0.234-0.16-0.486-0.314-0.74-0.455
	c-0.094-0.055-0.197-0.084-0.291-0.139c0.287-0.797,0.949-2.793,0.316-3.619c-0.188-0.705-1.355-1.086-2.004-1.066
	c-1.307,0.041-2.145,0.887-2.773,1.912l-0.105-0.049c0.139-0.213,0.201-0.508,0.291-0.727c0.029-0.072,0.064-0.15,0.094-0.223
	c-0.209,0.195-0.408,0.4-0.6,0.609l-0.02,0.016l-0.002,0.092l-0.09-0.043c-0.473-0.064-0.789,0.738-0.906,1.066
	c-0.123,0.332-0.361,1.07,0.039,1.316c0.049,0.023,0.137-0.018,0.098-0.08c-0.045-0.08-0.053-0.182-0.049-0.289l0.08,0.086
	c0.07,0.063,0.15,0.117,0.229,0.145l-0.035,0.105l-0.031-0.008c-0.164,0.061-0.133,0.074-0.289,0.209
	c-0.355,0.307-0.635-0.209-0.668-0.504c-0.049-0.479,0.234-0.848,0.363-1.273c0.086-0.277,0.244-0.545,0.412-0.783
	c0.105-0.146,0.225-0.273,0.363-0.381c0.16-0.143,0.322-0.111,0.486,0.098l0.004,0.092c0.035-0.094,0.078-0.178,0.127-0.256
	l-0.004-0.006c-0.047-0.182-0.174-0.303-0.459-0.213c-0.563,0.166-0.934,0.854-1.119,1.367c-0.221,0.607-0.613,1.256-0.215,1.889
	c0.092,0.148,0.238,0.232,0.393,0.262c0.18,0.033,0.371-0.012,0.5-0.129c-0.439,1.266-0.656,2.662-0.121,3.895
	c0.441,1.008,1.623,1.311,2.6,1.016c1.154-0.203,2.182-2.191,2.498-3l0.002-0.014l0.105,0.068c0.516,0.305,1.059,0.563,1.568,0.869
	l0.08,0.053c-0.559,0.611-0.867,1.357-1.193,2.125c-0.314,0.744-0.941,1.58-1.111,2.361c-0.123,0.555-0.029,0.838,0.389,1.207
	c0.291,0.248,0.721,0.402,1.053,0.564C26.053,93.68,26.346,93.858,26.641,94.03 M23.736,85.899
	c-0.293,0.145-0.652,0.295-0.836-0.043c-0.18-0.32-0.07-0.777,0.049-1.102c0.158-0.404,0.453-0.76,0.814-1.002
	c0.152-0.107,0.344-0.186,0.539-0.158c0.156,0.016,0.262,0.162,0.338,0.32c-0.031,0.119-0.068,0.238-0.102,0.363
	C23.842,83.799,22.734,85.733,23.736,85.899 M19.75,83.549c0.01-0.076,0.025-0.148,0.033-0.211c0.057-0.33,0.182-0.656,0.354-0.941
	c0.1-0.178,0.209-0.281,0.355-0.373c0.107,0.09,0.227,0.172,0.354,0.213c-0.223,0.391-0.416,0.803-0.598,1.203l-0.064,0.158
	l-0.182-0.061C19.914,83.522,19.807,83.54,19.75,83.549 M20.383,83.917c0.295-0.781,0.703-1.504,1.152-2.195
	c0.543-0.828,1.393-1.439,2.422-1.305c0.359,0.045,0.848,0.164,1.215,0.395l-0.148-0.025c-1.43-0.084-2.809,2.504-3.26,3.498
	c-0.434,0.975-1.49,3.779-0.391,4.717l0.025,0.016C19.377,88.717,19.648,85.844,20.383,83.917 M24.604,86.192
	c-0.281,0.604-0.547,1.195-0.92,1.746c-0.514,0.744-2.104,1.629-2.379,0.162c-0.234-1.211,0.291-2.609,0.727-3.701
	c0.459-1.123,1.25-2.15,2.193-2.916c1.014-0.83,1.52,0.342,1.479,1.264c-0.027,0.66-0.303,1.295-0.441,1.941
	c-0.146-0.066-0.281-0.143-0.436-0.199l-0.164-0.051c0.031-0.131,0.043-0.268,0.041-0.402l0.064,0.145l0.051-0.008
	c0.035-0.492-0.27-0.979-0.828-0.813c-0.572,0.17-1.008,0.701-1.248,1.223c-0.199,0.447-0.301,1.059-0.01,1.486
	c0.305,0.465,1.021,0.197,1.33-0.113c0.047-0.043,0.037-0.104,0.006-0.145c0.197,0.098,0.391,0.221,0.57,0.34L24.604,86.192"/>
<path fill="#BFBFB6" d="M27.658,86.407c-0.256-0.277-0.568-0.465-0.875-0.674c-0.373-0.211-0.746-0.434-1.125-0.643
	c-0.105-0.055-0.215-0.096-0.318-0.146l-0.107-0.049c-0.221-0.094-0.445-0.182-0.676-0.264l-0.031-0.014
	c-0.131-0.047-0.262-0.098-0.398-0.154c-0.377,0.217-0.666,0.779-0.512,1.064c0.471-0.033,0.965,0.285,1.354,0.496
	c0.486,0.268,1.033,0.488,1.492,0.813c-0.008-0.055,0.07-0.088,0.102-0.041c0.049,0.072,0.088,0.137,0.104,0.207
	c0.053,0.047,0.111,0.08,0.164,0.131c0.102,0.104-0.012,0.262-0.143,0.184l-0.01-0.01c-0.623,1.299-1.174,2.629-1.838,3.906
	c-0.736,1.424,0.428,1.713,1.352,2.232c0.186,0.104,0.367,0.213,0.547,0.326c0.094-0.264,0.188-0.529,0.295-0.787
	c-0.268-0.127-0.531-0.279-0.768-0.414c-0.25-0.148-0.838-0.389-0.785-0.744l0.043-0.006c0.002,0.039,0.141,0.107,0.256,0.166
	c0.035-0.125,0.08-0.242,0.119-0.357c0.018-0.17,0.068-0.334,0.145-0.502c0.18-0.676,0.5-1.328,0.783-1.953
	c0.41-0.887,0.949-1.727,0.863-2.721L27.658,86.407"/>
<path fill="#BFBFB6" d="M25.172,80.811l-0.146-0.023c-1.432-0.086-2.813,2.502-3.264,3.496c-0.432,0.975-1.488,3.779-0.389,4.719
	l0.025,0.014c-2.021-0.299-1.75-3.172-1.016-5.1c0.295-0.781,0.703-1.502,1.152-2.195c0.543-0.828,1.391-1.439,2.422-1.303
	C24.316,80.463,24.803,80.581,25.172,80.811"/>
<path fill="#A7A588" d="M24.225,81.483c1.014-0.83,1.52,0.342,1.479,1.264c-0.029,0.66-0.303,1.295-0.441,1.941
	c-0.146-0.066-0.281-0.143-0.436-0.199l-0.164-0.051c0.031-0.131,0.043-0.268,0.041-0.402l0.064,0.143l0.049-0.006
	c0.037-0.494-0.27-0.979-0.826-0.813c-0.572,0.172-1.008,0.701-1.248,1.223c-0.199,0.447-0.301,1.059-0.01,1.486
	c0.305,0.465,1.023,0.197,1.33-0.113c0.047-0.043,0.037-0.104,0.006-0.145c0.197,0.098,0.393,0.221,0.57,0.34l-0.035,0.041
	c-0.281,0.604-0.547,1.195-0.92,1.746c-0.514,0.744-2.104,1.629-2.381,0.162c-0.232-1.213,0.293-2.609,0.729-3.701
	C22.49,83.276,23.281,82.249,24.225,81.483"/>
<path fill="#FFCF01" d="M22.219,77.534c-0.072,0.18-0.145,0.359-0.213,0.545c-0.057,0.168-0.16,0.32-0.121,0.496
	c-0.025-0.096-0.064-0.191-0.123-0.271l0.002-0.041c-0.277-0.949-1.51-1.502-2.355-1.816c-0.377-0.135-1.094-0.305-1.609-0.203
	c0.455-0.902,1.604-0.574,2.396-0.35C21.09,76.149,21.822,76.698,22.219,77.534"/>
<line fill="none" x1="0" y1="0" x2="0" y2="114.139"/>
<line fill="none" x1="86.569" y1="114.139" x2="86.569" y2="0"/>
<path fill="#BFBFB6" d="M24.641,83.917c-0.031,0.117-0.068,0.236-0.102,0.361c-0.697-0.479-1.805,1.455-0.803,1.619
	c-0.295,0.146-0.652,0.297-0.836-0.041c-0.18-0.32-0.07-0.779,0.049-1.102c0.158-0.404,0.453-0.76,0.814-1.002
	c0.152-0.107,0.344-0.186,0.539-0.16C24.459,83.608,24.564,83.756,24.641,83.917"/>
<path fill="#73C48D" d="M19.141,76.614c-0.572-0.137-1.072-0.125-1.633-0.102c-0.084,0.033-0.164,0.08-0.238,0.123
	c-0.52,0.518-0.893,1.154-1.242,1.805c-0.848,1.283-1.609,2.609-2.35,3.953c-1.213,1.889-2.434,3.773-3.471,5.783
	c-0.033,0.063-0.068,0.129-0.102,0.191c-1.871,2.77-3.428,5.809-4.945,8.699c-0.646,1.225-1.072,2.424-1.006,3.432
	c-0.381,0.84,0.313,1.75,0.92,2.338c0.434,0.426,1.898,1.354,2.676,1.014c0.561,0.348,1.764-0.291,2.324-0.893
	c0.256-0.195,0.461-0.441,0.572-0.756c0.264-0.277,0.469-0.648,0.619-0.936c0.191-0.361,0.359-0.736,0.516-1.121
	c0.117-0.193,0.227-0.391,0.33-0.582c0.242-0.443,0.475-0.924,0.68-1.42c1.002-1.666,1.887-3.43,2.715-5.064
	c0.979-1.939,1.668-4.033,2.518-6.033c0.295-0.543,0.57-1.098,0.777-1.668c0.088-0.174,0.172-0.352,0.266-0.521
	c0.094-0.111,0.191-0.217,0.299-0.313l0.006-0.004l0.002-0.025l-0.113-0.043c0.008-0.064-0.072-0.098-0.129-0.064
	c-0.059-0.043-0.111-0.09-0.152-0.154c-0.398-0.633-0.006-1.281,0.215-1.889c0.186-0.514,0.559-1.201,1.119-1.367
	c0.285-0.09,0.412,0.031,0.459,0.213c0.084-0.15,0.184-0.297,0.291-0.432c0.078-0.148,0.152-0.289,0.193-0.398
	c0.244-0.598,0.594-1.387,0.352-2.035C21.049,77.528,20.125,76.846,19.141,76.614"/>
<polyline fill="none" points="73.549,6.932 0,52.891 0,94.995 11.963,114.139 "/>
<polyline fill="none" points="18.137,114.139 86.569,71.381 86.569,27.766 73.549,6.932 "/>
<path fill="#B3479A" d="M21.598,80.184c-0.105,0.277-0.221,0.547-0.334,0.814c-0.209,0.195-0.408,0.4-0.6,0.609l-0.02,0.014
	l0.004-0.15c0.035-0.094,0.078-0.178,0.127-0.256l0.02,0.117c0.08-0.189,0.182-0.381,0.268-0.555
	C21.223,80.571,21.404,80.372,21.598,80.184"/>
<path fill="#B3479A" d="M20.771,81.209c0.084-0.15,0.182-0.295,0.291-0.432c-0.086,0.174-0.188,0.365-0.268,0.555l-0.02-0.117
	L20.771,81.209z"/>
<path fill="#A7A588" d="M20.645,81.379l0.002,0.09l-0.043,0.104l0.041,0.051l-0.004,0.092l-0.088-0.043
	c-0.473-0.064-0.791,0.738-0.906,1.066c-0.123,0.332-0.361,1.07,0.039,1.314c0.049,0.025,0.137-0.016,0.098-0.08
	c-0.045-0.078-0.053-0.18-0.051-0.287l0.082,0.086c0.07,0.063,0.15,0.115,0.229,0.145l-0.037,0.105l-0.029-0.008
	c-0.166,0.061-0.133,0.074-0.289,0.209c-0.355,0.307-0.635-0.209-0.67-0.504c-0.047-0.479,0.236-0.848,0.365-1.273
	c0.086-0.277,0.246-0.545,0.412-0.783c0.104-0.146,0.225-0.273,0.363-0.381C20.316,81.137,20.48,81.17,20.645,81.379"/>
<polygon fill="#B3479A" points="20.604,81.573 20.646,81.471 20.645,81.624 "/>
<path fill="#A7A588" d="M20.492,82.024c0.107,0.088,0.225,0.172,0.354,0.211c-0.223,0.393-0.418,0.805-0.596,1.203l-0.068,0.16
	l-0.18-0.059c-0.086-0.02-0.197,0-0.252,0.01c0.01-0.076,0.025-0.148,0.033-0.211c0.057-0.33,0.18-0.656,0.354-0.941
	C20.236,82.219,20.346,82.116,20.492,82.024"/>
<path fill="#FFCF01" d="M20.846,75.665c-0.563-0.285-3.063-0.713-3.006,0.365l0.082,0.109l0.102,0.008l0.084-0.111
	c0.059-0.238,0.465-0.246,0.648-0.264c0.418-0.037,0.855,0.02,1.271,0.098l0.033,0.115c0.238,0.111,0.469,0.238,0.701,0.363
	c0.25,0.191,0.506,0.381,0.785,0.535l0.041-0.072l-0.121-0.098l0.125,0.063h0.014c0.213,0.232,0.33,0.486,0.273,0.834
	c-0.025,0.121-0.064,0.24-0.115,0.352c-0.039,0.092-0.164,0.182-0.066,0.172c-0.164,0.018-0.199,0.217-0.088,0.318
	c0.445,0.402,0.721-0.684,0.758-0.922C22.506,76.653,21.512,76.002,20.846,75.665"/>
<path fill="#73C48D" d="M20.789,77.118c-0.434-0.254-1.094-0.566-1.721-0.646l-0.035-0.082c-0.234-0.094-0.49-0.064-0.738-0.045
	c-0.303,0.021-0.615,0.074-0.891,0.205c-0.133,0.063-0.037,0.238,0.078,0.191l0.002,0.008c0.193-0.053,0.383-0.088,0.576-0.115
	l-0.084,0.041c-0.072,0.053-0.018,0.152,0.059,0.15c0.691-0.029,1.479,0.303,2.086,0.6c0.377,0.186,0.746,0.41,1.029,0.725
	c0.195,0.217,0.178,0.465,0.26,0.723l0.033,0.049c-0.15,0.336-0.275,0.689-0.391,1.029c-0.07,0.209-0.133,0.434-0.148,0.66
	c-0.055,0.217-0.1,0.438-0.111,0.668l0.096,0.027l0.059-0.158l0.098-0.01l0.031-0.061l0.076-0.078l0.029-0.123
	c0.326-0.611,0.768-1.41,0.699-2.092C22.299,78.241,21.191,77.352,20.789,77.118"/>
<line fill="none" x1="0" y1="0" x2="0" y2="114.139"/>
<line fill="none" x1="86.569" y1="114.139" x2="86.569" y2="0"/>
<path fill="#4A8660" d="M19.074,76.293l-0.041,0.029c-0.486-0.127-1.051-0.176-1.49,0.029l0.025,0.066
	c0.344-0.088,0.666-0.098,1.014-0.051c0.217,0.029,0.426,0.074,0.643,0.086c0.471,0.271,0.959,0.504,1.416,0.799
	c0.803,0.525,1.051,1.18,1.141,2.063c-0.172,0.377-0.324,0.764-0.488,1.143c-0.09,0.209-0.184,0.416-0.283,0.619
	c-0.049,0.105-0.109,0.299-0.217,0.355l0.004,0.004c-0.072,0.033-0.072,0.189,0.059,0.152c0.287-0.082,0.398-0.551,0.516-0.799
	c0.193-0.408,0.355-0.84,0.471-1.279l0.066-0.043C22.332,77.739,20.4,76.766,19.074,76.293"/>
<path fill="#4A8660" d="M16.977,76.667c-1.518,1.641-2.361,3.9-3.354,5.873c-1.291,2.564-2.967,4.926-4.51,7.342
	c-1.273,1.994-2.182,4.121-3.291,6.197c-0.803,1.5-2.191,3.158-1.809,4.982l0.029-0.002l0.01-0.119
	c0.584,2.297,3.971,4.447,5.787,2.291l-0.057-0.057c-1.221,0.822-2.412,0.863-3.682,0.098c-0.982-0.594-1.682-1.57-2.023-2.654
	c0.172-2.006,1.525-3.666,2.408-5.418c1.141-2.266,2.273-4.438,3.66-6.566c1.184-1.82,2.371-3.631,3.412-5.537
	c0.584-1.068,1.07-2.189,1.643-3.266c0.57-1.074,1.305-2.039,1.891-3.098C17.131,76.663,17.025,76.616,16.977,76.667"/>
<polyline fill="none" points="73.549,6.932 0,52.891 0,94.995 11.963,114.139 "/>
<polyline fill="none" points="18.137,114.139 86.569,71.381 86.569,27.766 73.549,6.932 "/>
<path fill="#4A8660" d="M19.732,84.221c-0.113,0.063-0.166,0.162-0.221,0.273c-0.057-0.041-0.143-0.043-0.184,0.039
	c-1.439,2.947-2.854,5.904-4.336,8.832c-0.818,1.613-1.412,3.328-2.25,4.938c-0.844,1.621-1.891,3.133-2.672,4.781l0.037,0.023
	c2.025-2.852,3.48-5.973,4.895-9.152c1.4-3.15,3.289-6.109,4.551-9.328v-0.043l0.023-0.025c0.033-0.113,0.094-0.215,0.178-0.303
	L19.732,84.221"/>
<path fill="#FCAF17" d="M20.213,75.477c-0.639-0.225-2.273-0.582-2.283,0.533h0.039c0.254-0.939,1.791-0.328,2.348-0.082
	c0.43,0.188,0.828,0.439,1.186,0.742c0.342,0.289,0.406,0.572,0.578,0.949c0.023,0.055,0.066,0.088,0.115,0.107
	c-0.029,0.174-0.064,0.348-0.078,0.525l0.027,0.002c0.027-0.174,0.068-0.342,0.088-0.518c0.094,0.021,0.195-0.012,0.246-0.113
	C22.971,76.625,20.834,75.694,20.213,75.477"/>
<path fill="#865D00" d="M17.834,76.272h0.008c0.551-2.189,4.719-0.65,4.533,1.316l0.074,0.012
	C22.955,75.559,18.307,73.948,17.834,76.272"/>
<path fill="#865D00" d="M22.537,77.649c-0.158,0.273-0.354,0.531-0.572,0.762l0.029,0.029c0.268-0.207,0.447-0.469,0.557-0.787
	L22.537,77.649z"/>
<path fill="#73C48D" d="M17.283,76.793c-0.188,0.08-0.357,0.197-0.52,0.326h-0.012l-0.045,0.045
	c-0.686,0.584-1.16,1.539-1.578,2.262c-0.422,0.725-0.807,1.465-1.18,2.211c-0.693,1.248-1.367,2.5-1.93,3.816
	c-0.246,0.355-0.484,0.717-0.697,1.094c-0.797,1.418-1.461,2.93-2.129,4.414c-0.029,0.061,0.063,0.115,0.102,0.061
	c0.4-0.594,0.729-1.232,1.033-1.881c0.273-0.506,0.549-1.01,0.822-1.514l-0.018,0.035l0.006,0.057
	c-0.135,0.262-0.268,0.523-0.406,0.785l0.057,0.033c0.275-0.43,0.533-0.867,0.785-1.311l0.072-0.109l0.012-0.01l0.023-0.043
	c0.678-1.057,1.234-2.184,1.777-3.318c1.129-2.123,2.271-4.244,3.568-6.258l-0.023-0.023c-0.094,0.088-0.18,0.182-0.268,0.275
	c0.123-0.201,0.246-0.404,0.369-0.605l-0.037-0.029c-0.531,0.594-1.004,1.24-1.451,1.906c0.475-0.836,1.021-1.643,1.693-2.17
	L17.283,76.793"/>
<path fill="#73C48D" d="M19.271,84.663l-0.035-0.016c-0.674,1.428-1.434,2.803-2.199,4.174l0.049-0.105l-0.043-0.02
	c-0.109,0.225-0.227,0.447-0.338,0.672l-0.051,0.008c-1.553,2.221-2.666,4.74-3.861,7.164l0.01,0.004
	c0.977-1.768,1.945-3.537,2.922-5.305c-0.225,0.426-0.453,0.85-0.666,1.283l0.02,0.07c-0.52,1.059-1.014,2.127-1.416,3.227
	c-0.025,0.072,0.076,0.115,0.111,0.047c0.678-1.357,1.328-2.738,1.961-4.123C17.176,89.542,18.531,87.168,19.271,84.663"/>
<path fill="#989992" d="M22.137,80.792c-1.123,0.674-1.863,2.139-2.07,3.498c-0.289,0.869-0.434,1.777-0.33,2.68l0.025-0.002
	c0.004-0.617,0.094-1.207,0.244-1.785v0.037l0.041,0.002c0.006-0.107,0.021-0.219,0.039-0.334c0.082-0.277,0.178-0.555,0.293-0.828
	c0.303-0.727,0.727-1.404,1.025-2.131c0.967-1.236,2.34-1.996,3.758-1.004c0.119,0.084,0.275-0.063,0.184-0.184
	C24.576,79.741,23.033,80.252,22.137,80.792"/>
<path fill="#989992" d="M26.609,94.116c0.029-0.09,0.068-0.178,0.1-0.268c-0.598-0.275-1.135-0.625-1.637-1.07
	c-0.605-0.537-0.33-1.941,0.316-2.395l-0.01-0.021c-0.064,0.01-0.123,0.041-0.182,0.068c0.061-0.115,0.125-0.23,0.186-0.346
	c0.203-0.385,0.432-0.77,0.65-1.16c-0.082,0.23-0.156,0.463-0.23,0.695c-0.018,0.061,0.063,0.098,0.094,0.039
	c0.256-0.488,0.393-1.025,0.602-1.535l0.072-0.002c0.6-0.494,0.129-1.236-0.363-1.592c-0.209-0.15-0.434-0.264-0.664-0.359
	c-0.609-0.393-1.273-0.713-1.98-0.861l-0.006,0.023c0.484,0.148,0.936,0.371,1.375,0.609c-0.387-0.125-0.779-0.24-1.148-0.412
	l-0.037,0.064c0.428,0.391,0.996,0.586,1.521,0.816c0.334,0.146,0.652,0.32,0.932,0.559c0.139,0.121,0.207,0.248,0.238,0.385
	c-0.566,0.941-1.082,1.996-1.525,3c-0.219,0.494-0.559,1.027-0.457,1.563c-0.023,0.207-0.027,0.398-0.01,0.545
	c0.039,0.346,0.74,0.803,0.986,0.988C25.783,93.715,26.186,93.956,26.609,94.116"/>
<path fill="#989992" d="M20.33,81.125c-0.688,0.406-2.355,2.516-1.141,3.131l0.016-0.025c-0.926-0.775,0.582-2.482,1.172-3.047
	L20.33,81.125"/>
<path fill="#B0B1A9" d="M25.654,81.43l-0.016-0.029c-0.033-0.061-0.057-0.127-0.096-0.186c-0.16-0.328-0.461-0.572-0.811-0.689
	l-0.107-0.063c-0.258-0.141-0.504-0.203-0.797-0.18v0.029c0.193,0.006,0.359,0.059,0.518,0.137l-0.123-0.006l-0.014,0.014
	c-0.135-0.002-0.271,0.004-0.404,0.023c-0.012-0.1-0.074-0.189-0.184-0.209c-1.197-0.213-2.195,1.25-2.775,2.088
	c-0.697,1.012-0.879,2.248-0.951,3.475c-0.068,0.551-0.104,1.105-0.07,1.66c0.02,0.385,0.658,0.398,0.68,0.01
	c0.043-0.879,0.102-1.846,0.273-2.777c0.049-0.178,0.094-0.354,0.152-0.533c0.313-0.922,0.893-2.508,1.926-2.789v-0.102
	l-0.199-0.045c0.25-0.18,0.535-0.332,0.852-0.459c-0.543,0.375-0.996,1.053-1.281,1.488c-0.744,1.141-1.164,2.387-1.512,3.693
	c-0.033,0.117,0.137,0.17,0.205,0.086c0.586-0.732,0.814-1.744,1.268-2.572c0.627-1.15,1.283-1.957,2.449-2.547
	c0.063-0.033,0.098-0.094,0.111-0.158c0.068,0.029,0.139,0.061,0.201,0.096l0.045,0.029c0.092,0.063,0.178,0.131,0.254,0.219
	c0.168,0.195,0.215,0.422,0.332,0.643l0.021,0.01c0.068,0.459-0.002,0.936-0.09,1.418l0.072,0.02
	c0.162-0.373,0.244-0.775,0.219-1.16l0.066,0.143l0.072-0.018C25.877,81.922,25.777,81.668,25.654,81.43"/>
<path fill="#B0B1A9" d="M27.902,86.407c-0.26-0.234-0.553-0.439-0.857-0.633v-0.01c-0.416-0.521-1.029-0.76-1.646-0.969
	c-0.316-0.182-0.666-0.344-0.979-0.334l-0.141-0.064c-0.469,0.023-1.082,1.002-0.588,1.328l0.051-0.051l-0.016-0.029
	c0.072,0.047,0.17,0.072,0.309,0.063l0.01-0.059c-0.268-0.154-0.184-0.393-0.031-0.596c0.09-0.119,0.256-0.156,0.334-0.277
	c0.455,0.273,0.98,0.48,1.432,0.756c0.633,0.387,1.24,0.814,1.873,1.199l0.021,0.006l0.018,0.143
	c-0.059-0.053-0.162-0.057-0.197,0.037c-0.346,0.883-0.658,1.779-0.992,2.67c-0.023,0.063-0.1,0.291-0.199,0.582
	c-0.24,0.465-0.482,0.926-0.697,1.391c-0.037,0.082-0.008,0.145,0.041,0.191l-0.063-0.012l-0.031-0.014
	c-0.107-0.025-0.16,0.111-0.109,0.186l0.072,0.076l0.041,0.074c-0.002,0.061,0.004,0.123,0.035,0.182
	c0.053,0.107,0.139,0.135,0.217,0.117c0.094,0.078,0.195,0.148,0.305,0.205c0.227,0.121,0.541,0.346,0.818,0.336l0.105,0.076
	l0.025-0.068c0.049-0.115,0.105-0.229,0.158-0.346c-0.064-0.039-0.127-0.08-0.189-0.121c-0.17-0.115-0.342-0.209-0.518-0.309
	c-0.049-0.029-0.271-0.143-0.496-0.242c0.113-0.266,0.387-0.686,0.439-0.793c0.223-0.455,0.439-0.912,0.643-1.375
	c0.238-0.539,0.42-1.094,0.527-1.664c0.342-0.324,0.361-0.852,0.191-1.299C27.963,86.727,28.051,86.54,27.902,86.407"/>
<path fill="#5D5D59" d="M24.375,84.321l-0.023,0.031c0.459,0.482,1.197,0.691,1.762,1.029c0.523,0.314,1.016,0.76,1.572,1.029
	c0.381,0.912-0.453,2.271-0.803,3.127c-0.314,0.768-0.67,1.537-0.904,2.336l0.018,0.008c0.039-0.07,0.074-0.143,0.113-0.215
	l-0.004,0.045l0.064-0.008c-0.004-0.068,0.008-0.115,0.01-0.17c0.41-0.787,0.74-1.625,1.096-2.436
	c0.238-0.535,0.99-1.883,0.645-2.572l0.025,0.014c0.053,0.018,0.096-0.049,0.051-0.086C26.898,85.543,25.607,85.004,24.375,84.321"
	/>
<path fill="#5D5D59" d="M26.672,93.948l0.043-0.119c-0.855-0.387-2.199-0.684-2.17-1.666c0.295-1.162,0.639-2.26,1.148-3.359
	c0.236-0.508,0.488-1.008,0.732-1.512l0.035-0.104l-0.023-0.025c-0.045-0.111-0.207-0.244-0.258-0.295l-0.012,0.002
	c-0.264-0.229-0.584-0.406-0.877-0.568c-0.414-0.227-1.047-0.576-1.541-0.529l-0.006,0.035c0.813,0.27,1.902,0.615,2.486,1.316
	c0.027,0.645-1.016,2.369-1.166,2.727c-0.332,0.797-0.639,1.672-0.652,2.543l0.01,0.01C24.457,93.213,25.838,93.682,26.672,93.948"
	/>
<path fill="#5D5D59" d="M21.77,80.895c-0.303,0.363-0.568,0.752-0.816,1.154c-0.402,0.52-0.742,1.119-0.984,1.75
	c-0.467-0.494,0.025-1.248,0.213-1.783l-0.063-0.037c-0.311,0.391-0.828,1.592-0.182,1.896c-0.035,0.094-0.066,0.188-0.096,0.281
	c-0.137,0.156-0.318,0.338-0.486,0.15c-0.133-0.148-0.174-0.385-0.203-0.572c-0.063-0.391,0.016-0.736,0.176-1.09
	c0.172-0.385,0.396-0.752,0.66-1.078c0.107-0.131,0.232-0.266,0.387-0.336c0.25-0.111,0.287,0.412,0.309,0.547h0.057
	c0.023-0.309-0.072-0.895-0.512-0.633c-0.496,0.295-0.826,0.926-1.072,1.426c-0.256,0.52-0.305,1.086-0.117,1.641
	c0.135,0.396,0.418,0.473,0.68,0.354c-0.096,0.387-0.154,0.777-0.166,1.158l0.047,0.008c0.104-0.459,0.221-0.904,0.357-1.338
	c0.059-0.057,0.111-0.119,0.158-0.195c0.041-0.07,0.012-0.135-0.039-0.166c0.32-0.91,0.752-1.764,1.393-2.557l-0.012-0.008
	c-0.057,0.057-0.107,0.125-0.164,0.184c0.162-0.246,0.33-0.492,0.502-0.736L21.77,80.895"/>
<path fill="#AAABA3" d="M23.406,80.932c-1.111,1.004-1.744,2.51-2.186,3.91c-0.348,1.102-0.959,2.434-0.389,3.545l0.063-0.025
	c-0.072-0.248-0.086-0.525-0.072-0.811c0.033,0.344,0.105,0.688,0.23,1.029c-0.355-0.148-0.639-0.367-0.811-0.719l-0.041,0.014
	c0.076,0.184,0.186,0.359,0.324,0.496l-0.02,0.027l0.014,0.063c-1-1.129-0.809-2.891-0.348-4.271l-0.031-0.02
	c-0.809,1.105-1.197,4.363,0.572,4.832l0.111-0.039c0.152,0.125,0.34,0.176,0.535,0.051l-0.016-0.123
	c-0.107-0.043-0.201-0.033-0.318-0.043c-0.074-0.006-0.135-0.031-0.189-0.066l-0.018-0.029c-0.047-0.039-0.088-0.078-0.131-0.119
	c-0.041-0.063-0.074-0.133-0.094-0.207c0.133,0.111,0.289,0.195,0.473,0.219l0.006-0.004c0.021,0.057,0.035,0.113,0.061,0.172
	l0.025-0.012c-0.303-0.996-0.213-1.902-0.016-2.82c0.201-0.623,0.449-1.229,0.627-1.715c0.428-1.174,1.143-2.166,1.76-3.24
	C23.57,80.958,23.465,80.877,23.406,80.932"/>
<path fill="#AAABA3" d="M24.314,84.452c-0.434-0.094-0.654,0.375-0.738,0.73l0.074,0.033c0.178-0.273,0.27-0.715,0.664-0.723V84.452
	"/>
<path fill="#AAABA3" d="M23.682,83.463c-0.479,0.09-0.686,0.635-0.857,1.031c-0.178,0.408-0.404,0.979-0.26,1.428
	c0.113,0.354,0.574,0.525,0.822,0.203l-0.033-0.131c-0.207-0.078-0.43,0.002-0.463-0.271c-0.037-0.279,0.072-0.598,0.16-0.859
	c0.094-0.275,0.217-0.551,0.363-0.803c0.045-0.074,0.096-0.145,0.15-0.213c0.27-0.318,0.922-0.09,0.828,0.355l0.057,0.023
	C24.873,83.657,24.186,83.368,23.682,83.463"/>
<path fill="#83837E" d="M24.439,83.684l0.012-0.033c-0.141-0.359-0.482-0.338-0.77-0.152c-0.262,0.17-0.479,0.459-0.594,0.766
	c-0.119,0.139-0.225,0.285-0.301,0.439c-0.213,0.42-0.299,1.027-0.096,1.465c0.223,0.48,0.846,0.301,1.111-0.033l-0.047-0.063
	c-0.367,0.133-0.787,0.438-0.965-0.1c-0.119-0.363-0.023-0.814,0.117-1.156c0.037-0.09,0.084-0.176,0.137-0.258l0.01-0.006
	l0.002-0.012c0.166-0.242,0.395-0.441,0.645-0.598c0.129-0.08,0.277-0.152,0.432-0.168c0.158,0.098,0.262,0.273,0.352,0.439
	c-0.002,0.066-0.008,0.131-0.01,0.178l0.051,0.006l0.016-0.107l0.055-0.031c-0.006-0.07-0.023-0.135-0.047-0.195v-0.004l0.061-0.027
	l-0.033-0.09l0.002-0.004C24.561,83.836,24.508,83.754,24.439,83.684"/>
<path fill="#83837E" d="M25.35,80.772l-0.027,0.021c0.119,0.182,0.201,0.363,0.268,0.547c-0.117-0.137-0.27-0.229-0.443-0.277
	c-0.09-0.039-0.186-0.063-0.287-0.064c-0.102-0.025-0.205-0.037-0.316-0.025l0.006,0.037l0.074,0.008
	c-0.721,0.137-1.6,0.889-1.969,1.301c-0.949,1.059-1.453,2.586-1.684,4.012l-0.004,0.033c-0.025,0.164-0.051,0.328-0.07,0.488
	c-0.068,0.582-0.172,1.857,0.439,2.283c-0.143-0.023-0.279-0.049-0.414-0.146l-0.041,0.053c0.047,0.037,0.105,0.053,0.158,0.078
	c-1.193-0.268-1.713-1.422-1.723-2.617l0.055-0.018c0.051-0.328,0.051-0.66,0.111-0.988c0.043-0.229,0.1-0.453,0.16-0.678
	c0.039-0.086,0.08-0.174,0.125-0.256l-0.012-0.008l-0.064,0.098l0.051-0.178l-0.039-0.016c-0.189,0.357-0.367,0.844-0.428,1.311
	c-0.297,1.621,0.191,3.887,1.936,3.512l0.047-0.08c0.088,0.018,0.176,0.033,0.266,0.029l0.049,0.023
	c1.43,0.381,2.811-1.713,3.229-2.785c0.063-0.162-0.164-0.307-0.268-0.156c-0.635,0.906-1.439,2.656-2.775,2.621
	c-0.787-0.02-0.541-1.85-0.494-2.266c0.037-0.33,0.104-0.652,0.182-0.973c0.172-0.611,0.41-1.203,0.703-1.754
	c0.586-1.094,1.936-3.041,3.348-2.254c0.066,0.037,0.121,0.008,0.146-0.045c0.176,1.121-0.215,2.186-0.557,3.236
	c-0.023,0.072,0.074,0.113,0.109,0.047c0.129-0.256,0.242-0.537,0.336-0.83C26.064,83.03,26.205,81.702,25.35,80.772"/>
<path fill="#4F4F4B" d="M19.369,86.51c0.043-0.572,0.234-1.123,0.393-1.682c0.168-0.484,0.328-0.971,0.514-1.451l-0.02-0.008
	c-0.16,0.361-0.285,0.734-0.406,1.109c0.043-0.178,0.082-0.357,0.102-0.539l-0.01-0.002c-0.066,0.365-0.162,0.711-0.258,1.049
	c-0.074,0.229-0.154,0.457-0.244,0.682l0.01,0.004c0.066-0.156,0.117-0.318,0.178-0.479c-0.27,0.939-0.508,1.83-0.162,2.871
	c0.348,1.043,1.529,1.531,2.52,1.197l-0.012-0.051C20.234,89.399,19.25,88.17,19.369,86.51"/>
<path fill="#4F4F4B" d="M21.188,81.899l0.027,0.012c0.439-0.818,1.328-1.295,2.203-1.508c0.965-0.234,1.725,0.078,2.211,0.928
	l0.063-0.025C25.156,79.178,21.791,80.477,21.188,81.899"/>
<path fill="#4F4F4B" d="M24.232,84.245c-0.633,0.01-1.094,1.057-0.646,1.514l0.066-0.049c-0.387-0.543,0.162-1.137,0.607-1.393
	L24.232,84.245"/>
<path fill="#4F4F4B" d="M23.641,83.889l-0.016-0.035c-0.66,0.256-1.004,1.172-1.037,1.826c-0.035,0.732,0.572,0.949,1.143,0.582
	l-0.025-0.045l-0.021,0.006c0.133-0.15,0.264-0.299,0.395-0.447l-0.014-0.012c-0.139,0.156-0.275,0.313-0.414,0.469
	c-0.26,0.068-0.605,0.17-0.809-0.057c-0.174-0.195-0.131-0.543-0.096-0.779C22.832,84.854,23.129,84.159,23.641,83.889"/>
<path fill="#7C695A" d="M32.893,94.12c-0.076-0.043-0.152-0.078-0.23-0.119c-0.07-0.031-0.139-0.066-0.217-0.092l-0.135-0.096
	c-1.568-0.781-3.236-1.158-4.938-1.719c-0.166,0.063-0.336,0.107-0.506,0.143c-0.148,0.131-0.281,0.299-0.371,0.439
	c-0.162,0.25-0.236,0.553-0.217,0.848l-0.109-0.02v0.176l0.119,0.043c-0.301,0.639,0.395,1.059,0.941,1.377
	c1.402,0.797,2.818,2.08,4.373,2.574c0.219,0.121,0.521,0.057,0.795-0.225c0.512-0.516,0.951-1.6,1.006-2.434
	c-0.057-0.209-0.127-0.416-0.205-0.621C33.098,94.303,32.998,94.209,32.893,94.12 M32.633,96.551
	c-0.096,0.203-0.201,0.395-0.324,0.576c-0.227,0.398-0.438,0.201-0.619-0.59c0.234-0.736,0.662-1.525,1.457-1.734
	C33.156,95.395,32.855,96.034,32.633,96.551 M32.465,94.772c-0.242,0.129-0.385,0.396-0.525,0.617
	c-0.277,0.432-0.709,1.131-0.658,1.68l0.027,0.133c-0.77-0.494-1.613-0.914-2.383-1.41c-0.566-0.361-2.564-1.188-2.559-2.035
	l0.025,0.012c0.072,0.016,0.127-0.059,0.121-0.121c-0.021-0.379,0.057-0.672,0.281-0.973c0.119-0.16,0.309-0.275,0.434-0.438
	c0.676,0.377,1.412,0.576,2.158,0.768c1.174,0.313,2.313,0.83,3.408,1.338C33.416,94.629,32.777,94.606,32.465,94.772"/>
<path fill="#FFCF01" d="M31.689,96.538c0.232-0.736,0.664-1.525,1.457-1.734c0.01,0.592-0.291,1.232-0.516,1.746
	c-0.094,0.203-0.201,0.398-0.324,0.578C32.082,97.526,31.871,97.331,31.689,96.538"/>
<path fill="#73C48D" d="M32.986,94.198l-0.113-0.094l-0.063-0.045c-0.115-0.057-0.234-0.109-0.363-0.15
	c-0.121-0.039-0.174-0.123-0.182-0.217c-1.1-0.65-2.451-0.973-3.609-1.422c-0.34-0.133-0.84-0.244-1.236-0.191
	c-0.113,0.045-0.23,0.08-0.348,0.113c-0.152,0.094-0.258,0.24-0.266,0.473l-0.012,0.01c-0.225,0.301-0.303,0.594-0.281,0.973
	l-0.01,0.023l-0.07-0.002l-0.031,0.096l-0.01,0.004l-0.025-0.012l0.012,0.094c-0.133,0.781,1,1.533,1.52,1.912
	c0.896,0.652,2.02,1.396,3.125,1.629c0.158,0.031,0.238-0.104,0.221-0.229l0.064,0.039l-0.027-0.133
	c-0.051-0.549,0.381-1.248,0.658-1.68c0.141-0.223,0.283-0.488,0.523-0.617c0.057-0.031,0.123-0.053,0.191-0.072
	c0.152,0.068,0.299-0.004,0.373-0.129l0.02-0.035C33.094,94.428,33.086,94.301,32.986,94.198"/>
<path fill="#FFCF01" d="M33.291,94.768l-0.002-0.096c-0.02-0.063-0.039-0.125-0.061-0.188l-0.012-0.008l-0.004-0.002l-0.002-0.014
	c-0.035-0.102-0.15-0.131-0.242-0.102c-0.662,0.203-1.473,1.121-1.479,1.91c-0.135,0.42-0.195,0.822-0.145,1.07
	c0.014,0.061,0.055,0.119,0.109,0.152l0.102,0.074c0.262,0.021,0.52-0.141,0.67-0.367c0.414-0.131,0.623-0.674,0.754-1.041
	c0.145-0.402,0.311-0.918,0.311-1.375V94.768z M32.453,96.221l-0.066,0.008l-0.029,0.029l-0.064,0.008
	c-0.139,0.09-0.193,0.217-0.27,0.359c-0.055,0.104-0.119,0.188-0.188,0.268c0.066-0.318,0.152-0.631,0.289-0.932
	c0.189-0.42,0.441-0.711,0.766-0.971C32.822,95.411,32.488,95.79,32.453,96.221"/>
<path fill="#4A8660" d="M33.225,94.518c-1.514-1.139-3.408-2.184-5.322-2.385c-0.266-0.027-0.512-0.016-0.736,0.027
	c-0.072,0.023-0.143,0.041-0.213,0.059c-0.092,0.031-0.18,0.066-0.258,0.111c-0.17,0.248-0.324,0.51-0.457,0.785
	c-0.084,0.379-0.105,0.826,0.092,1.172c0.025,0.049,0.117,0.039,0.104-0.025l-0.014-0.129c0.443,0.914,1.316,1.555,2.137,2.109
	c0.576,0.391,1.299,0.895,2.01,1.18c0.025,0.051,0.047,0.102,0.08,0.15l0.025-0.01l-0.016-0.105
	c0.148,0.055,0.299,0.104,0.443,0.135l0.006,0.029l0.152,0.021l0.068,0.012c0.053,0.049,0.104,0.096,0.172,0.135l0.023-0.033
	l-0.061-0.082c0.182,0.012,0.363-0.029,0.504-0.15l-0.033-0.084c-0.182,0.002-0.336,0.045-0.486,0.063l-0.115-0.039
	c-0.232-0.488-0.092-1.084,0.125-1.572c0.305-0.688,0.791-1.104,1.48-1.344l0.004-0.004c0.076,0.047,0.141,0.088,0.178,0.113
	l0.014,0.002c0.072,0.135,0.129,0.277,0.207,0.414l0.049-0.027c-0.037-0.141-0.1-0.268-0.18-0.387
	C33.256,94.631,33.283,94.561,33.225,94.518 M30.438,96.999c-0.502-0.268-1.053-0.49-1.502-0.758
	c-0.986-0.584-1.826-1.299-2.518-2.213l-0.012-0.002c-0.029-0.252-0.039-0.5,0.014-0.756c0.039-0.199,0.121-0.395,0.229-0.563
	c0.066-0.105,0.158-0.188,0.232-0.281c1.168-0.334,3.824,0.896,5.279,1.676l-0.053,0.018l-0.002,0.006
	c-0.613,0.061-0.957,0.84-1.24,1.34C30.609,95.918,30.377,96.475,30.438,96.999 M31.262,95.809
	c-0.221,0.457-0.367,1.096-0.146,1.563L31,97.315l-0.008,0.01l0.045,0.039c-0.133-0.1-0.281-0.188-0.434-0.273
	c-0.029-0.5,0.098-0.941,0.359-1.432c0.15-0.277,0.332-0.537,0.51-0.797c0.262-0.383,0.391-0.551,0.863-0.664
	c0.133,0.072,0.256,0.141,0.359,0.201C32.049,94.473,31.502,95.313,31.262,95.809"/>
<path fill="#FCAF17" d="M33.145,95.176c-0.252,0.258-0.375,0.621-0.539,0.938c-0.184,0.355-0.434,0.658-0.727,0.922l-0.004-0.027
	c-0.047-0.131-0.105-0.209-0.102-0.359c0.004-0.244,0.074-0.49,0.158-0.719c0.107-0.301,0.393-1.012,0.797-1.002
	c0.068,0.002,0.096-0.08,0.033-0.113c-0.566-0.297-1.037,0.547-1.217,0.951c-0.09,0.203-0.291,0.813-0.217,1.193l-0.025,0.102
	l0.01,0.041l0.08,0.027c0.059,0.092,0.154,0.145,0.293,0.146l0.064,0.02l0.008-0.004l-0.053,0.043
	c-0.076,0.014-0.158,0.018-0.254,0.004l-0.012,0.035l0.092,0.037l-0.145,0.035l-0.012,0.082c0.346,0.145,0.664-0.07,0.908-0.305
	c0.178-0.172,0.51-0.543,0.486-0.838c0.225-0.344,0.453-0.748,0.52-1.146C33.303,95.151,33.197,95.124,33.145,95.176"/>
<path fill="#73C48D" d="M31.885,93.985c-0.52-0.479-1.26-0.76-1.893-1.053c-0.639-0.297-1.303-0.523-1.998-0.643l-0.012,0.033
	c-0.41-0.098-0.83-0.102-0.973,0.268l0.01,0.004c0.107-0.213,0.377-0.242,0.693-0.186l-0.01,0.025
	c0.535,0.244,1.09,0.422,1.643,0.611c0.623,0.293,1.205,0.652,1.811,0.971l0.057-0.039c0.15,0.094,0.305,0.188,0.465,0.275
	c0.055,0.031,0.109-0.047,0.074-0.094c-0.053-0.066-0.117-0.117-0.174-0.178c0.088,0.033,0.176,0.072,0.266,0.098L31.885,93.985z"/>
<path fill="#5D5D59" d="M26.322,91.979c-0.105-0.143-0.148-0.334-0.148-0.5h-0.037c-0.012,0.154,0.01,0.32,0.064,0.467l-0.033-0.008
	l-0.176-0.072l-0.01,0.023l0.008,0.004l-0.078-0.02l-0.037,0.082c0.146,0.078,0.295,0.141,0.449,0.199
	c0.057,0.072,0.131,0.125,0.217,0.16c0.063,0.053,0.127,0.105,0.195,0.156l0.057-0.057l-0.057-0.068l0.064,0.01l0.008,0.004
	l0.006-0.004h0.008l0.008-0.008l0.029-0.029v-0.016l-0.002-0.027C26.738,92.114,26.533,92.036,26.322,91.979"/>
<path fill="#5D5D59" d="M25.268,81.133L25.268,81.133h-0.002c-0.684-0.133-1.814,0.752-2.209,1.1
	c-1.711,1.516-2.574,4.047-2.033,6.293l0.018-0.002c-0.088-1.785,0.119-3.855,1.299-5.293c0.619-0.756,2.361-2.652,3.291-1.506
	c0.381,0.818,0.199,1.748-0.201,2.6l0.053,0.031c0.482-0.766,0.617-1.713,0.275-2.508l0.033-0.037
	C25.727,81.379,25.527,81.186,25.268,81.133"/>
<path fill="#5D5D59" d="M24.787,86.213c-0.885,0.777-1.826,3.836-3.457,2.725l-0.033,0.033c1.199,1.303,3.27-1.762,3.539-2.729
	L24.787,86.213z"/>
<line fill="none" stroke="#5D5D59" stroke-width="0" stroke-linecap="round" stroke-linejoin="round" x1="17.482" y1="76.204" x2="17.479" y2="76.192"/>
<path fill="#CACAC0" d="M23.957,83.864c-0.391,0.146-0.639,0.656-0.82,1.002c-0.182,0.342-0.332,0.77-0.123,1.127l0.094-0.037
	c-0.045-0.377,0.176-0.783,0.363-1.092c0.182-0.299,0.475-0.557,0.6-0.883C24.1,83.909,24.031,83.838,23.957,83.864"/>
<path fill="#CACAC0" d="M26.5,85.954c-0.26-0.217-0.566-0.387-0.887-0.516c-0.4-0.25-0.836-0.492-1.277-0.535
	c-0.129-0.012-0.242,0.176-0.109,0.254c0.273,0.16,1.881,1.365,2.611,1.59c0.063,0.178,0.082,0.375,0.068,0.582l-0.051,0.025
	c-0.172,0.627-0.396,1.238-0.631,1.846c-0.225,0.398-0.471,0.785-0.689,1.162c-0.039,0.066,0.064,0.146,0.119,0.094
	c0.047-0.045,0.094-0.1,0.141-0.146c-0.291,0.766-0.559,1.537-0.711,2.342c-0.021,0.109,0.049,0.227,0.148,0.268
	c0.314,0.129,0.537,0.221,0.871,0.23c0.131,0.002,0.189-0.133,0.096-0.225c-0.32-0.314-0.617-0.273-0.502-0.785
	c0.156-0.684,0.438-1.346,0.684-2.002c0.135-0.354,0.246-0.705,0.342-1.057c0.371-0.664,0.586-1.402,0.428-2.125
	c-0.014-0.064-0.045-0.121-0.064-0.182l0.1-0.066C27.295,86.452,26.869,86.163,26.5,85.954"/>
<path fill="#E0E1E2" d="M20.387,82.321c-0.375,0.191-0.4,0.705-0.463,1.07l0.043,0.006l0.029-0.135l0.012,0.002
	c0.133-0.303,0.248-0.623,0.406-0.916L20.387,82.321z"/>
<path fill="#E0E1E2" d="M23.691,84.038c-0.533,0.426-0.82,1.15-0.908,1.811l0.018,0.002c0.145-0.662,0.453-1.291,0.93-1.773
	L23.691,84.038"/>
<path fill="#AFB1B4" d="M22.922,80.729c-2.428,0.146-4.395,5.836-2.957,7.604c0.057,0.068,0.191,0.049,0.199-0.053
	c0.033-0.486-0.107-0.965-0.137-1.453c-0.053-0.922,0.178-1.867,0.477-2.729c0.24-0.695,0.611-1.334,1.047-1.922
	c0.406-0.547,0.984-0.871,1.41-1.379L22.922,80.729"/>
<path fill="#8FCEA0" d="M19.709,77.499c-0.523-0.35-1.596-0.457-2.219-0.125l0.027-0.07l-0.059-0.043
	c-0.582,0.508-0.906,1.186-1.248,1.871c-0.621,1.246-1.449,2.402-2.201,3.574c-1.428,2.219-2.82,4.445-4.117,6.742
	c-1.287,2.277-2.465,4.615-3.541,6.998c-0.705,1.559-1.738,2.988-0.926,4.707c0.123,0.26,0.527,0.174,0.496-0.125
	c-0.012-0.104-0.006-0.201-0.012-0.303c0.158,0.16,0.316,0.316,0.465,0.484l0.012-0.01c-0.152-0.172-0.314-0.334-0.477-0.496
	c-0.08-1.859,0.842-3.297,1.611-4.973c1.014-2.207,2.16-4.354,3.346-6.473c2.162-3.871,5.191-7.484,6.572-11.738
	c0.592-0.26,1.697,0.016,2.215,0.105C19.723,77.637,19.768,77.54,19.709,77.499"/>
<path fill="#8FCEA0" d="M8.432,103.336c-1.713-0.699-3.596-1.332-3.975-3.426L4.42,99.915c0.08,1.861,2.012,3.885,3.975,3.672
	C8.523,103.573,8.553,103.385,8.432,103.336"/>
<path fill="#8FCEA0" d="M18.213,76.645l0.004,0.043c0.635-0.006,1.195,0.373,1.699,0.723l0.025-0.033
	C19.438,76.971,18.887,76.61,18.213,76.645"/>
<path fill="#8FCEA0" d="M28.563,92.536c-1.072-0.277-1.729-0.084-1.832,1.078c-0.008,0.084,0.098,0.107,0.137,0.037
	c0.264-0.471,0.369-0.867,1.027-0.805c0.447,0.039,0.977,0.338,1.381,0.527c0.4,0.188,0.783,0.412,1.148,0.662
	c0.199,0.137,0.355,0.285,0.549,0.385c-0.141,0.195-0.242,0.416-0.223,0.662h0.047c0.02-0.242,0.111-0.443,0.242-0.633l0.178,0.063
	c0.1,0.021,0.217-0.084,0.191-0.188C31.176,93.37,29.4,92.75,28.563,92.536"/>
<path fill="#F79464" d="M42.877,86.6c-0.24-0.25-0.496-0.424-0.723-0.434c-0.225-0.096-0.443-0.143-0.475,0.02l0.01,0.016h-0.008
	c-0.924,0.148-1.395,1.328-1.045,2.135c-0.018,0.67,0.27,1.387,0.551,1.955c0.363,0.734,1.137,1.975,2.029,2.221l-0.033,0.063
	l0.02,0.02l0.092-0.061l0.082,0.025l0.051-0.088l-0.012-0.014c1.078-0.793,0.979-3.127,0.322-4.529
	C43.84,87.438,43.29,86.913,42.877,86.6 M41.531,90.272c-0.184-0.324-0.328-0.672-0.428-1.025l0.01-0.02
	c0.031,0.047,0.07,0.088,0.162,0.127c0.195,0.086,0.432,0.039,0.627-0.008c0.133-0.031,0.285-0.08,0.438-0.137
	c0.063-0.021,0.123-0.047,0.184-0.076l0.115-0.061l0.041-0.023l0.045-0.035c0.074-0.045,0.141-0.096,0.199-0.156
	c0.176-0.148,0.35-0.305,0.54-0.438l0.08,0.111c0.119,0.395,0.205,0.783,0.25,1.172C43.209,90.256,42.336,90.415,41.531,90.272"/>
<path fill="#F15D57" d="M40.834,83.065c-0.088-0.002-0.174,0.121-0.076,0.18l0.061,0.02l-0.002,0.002l0.033,0.008l0.01,0.002
	c0.18,0.018,0.336,0.248,0.514,0.277l0.078-0.096C41.381,83.221,41.064,83.073,40.834,83.065"/>
<path fill="#EF3750" d="M43.793,87.588c-0.119-0.305-0.969-1.564-1.559-1.514l-0.01-0.014c-0.234-0.053-0.486-0.014-0.727-0.012
	c-0.09-0.936-0.279-1.9-0.594-2.791c0.932,0.08,0.623,1.996,0.92,2.559c0.029,0.055,0.1,0.045,0.113-0.014
	c0.148-0.547,0.002-1.318-0.135-1.863c-0.143-0.566-0.486-1.088-1.133-0.988c-0.104,0.016-0.166,0.117-0.129,0.217
	c0.369,0.975,0.461,2.055,0.912,2.994l-0.037-0.008l-0.061,0.006c-1.303,1.162-0.711,3.055-0.029,4.408
	c0.375,0.746,1.436,2.619,2.514,1.932l0.004-0.092c0.029-0.074,0.057-0.145,0.084-0.217l-0.035-0.016
	c-0.031,0.07-0.064,0.141-0.098,0.211l-0.02-0.002l-0.025,0.004l0.045-0.021C44.579,90.938,44.374,89.047,43.793,87.588
	 M41.627,86.25l-0.01-0.047l-0.111-0.025l0.006-0.01l-0.006-0.059c0.119,0.012,0.242,0.012,0.363,0.014l0.035,0.029l0.119,0.008
	l0.006,0.023c1.1,0.287,1.614,1.078,1.831,2.039l-0.055,0.041v0.053l-0.033,0.002c-0.54,0.225-0.999,0.467-1.59,0.561
	c-0.42,0.068-0.846,0.053-1.256,0.189C40.652,87.825,40.789,86.624,41.627,86.25 M43.512,89.145l0.01,0.105
	c-0.219,0.129-0.456,0.23-0.686,0.334l0.068-0.086l-0.037-0.115c0.227-0.051,0.461-0.137,0.522-0.301l-0.051-0.127l-0.006-0.002
	c0.059-0.033,0.109-0.076,0.162-0.113l-0.059,0.209L43.512,89.145z M41.303,90.243l0.082,0.029c0.08,0.01,0.145-0.041,0.166-0.115
	l0.008-0.004c0.623,0.176,1.555,0.037,2.098-0.402c0.076-0.035,0.148-0.072,0.217-0.113l0.014-0.012l0.104-0.072
	c0,1.006-0.166,2.033-0.268,2.795l0.027,0.041C42.807,92.625,41.861,91.561,41.303,90.243"/>
<path fill="#848689" d="M46.323,92.958c0.023-0.07,0.043-0.139,0.047-0.209l-0.068-0.053c-0.313,0.174-0.402,1.041-0.074,1.258
	l0.006,0.023l0.066-0.027c-0.027-0.066-0.055-0.125-0.092-0.188l-0.016-0.004c-0.025-0.15,0.002-0.336,0.016-0.434
	c0.02-0.115,0.066-0.227,0.105-0.34c0.518,0.131,0.578,0.795,0.67,1.225l0.076,0.002C47.133,93.739,46.866,93.01,46.323,92.958"/>
<path fill="#848689" d="M44.752,95.948c-0.182-0.268-0.326-0.566-0.475-0.855c-0.037-0.07-0.139-0.029-0.115,0.047
	c0.096,0.316,0.521,1.691,1.076,1.375l0.01-0.082C45.088,96.254,44.893,96.157,44.752,95.948"/>
<path fill="#848689" d="M43.538,92.61l-0.082,0.018L43.43,92.6v-0.004h-0.002l-0.018-0.021c-0.064-0.102-0.213-0.004-0.176,0.102
	l-0.002-0.008c-0.117,0.051-0.061,0.205,0.053,0.205l0.121-0.01l0.059,0.07l0.021,0.014l0.004,0.004l0.047,0.018
	c0.086,0.15,0.145,0.33,0.215,0.48l0.025-0.012c-0.055-0.154-0.137-0.326-0.18-0.494l0.021-0.043l0.002-0.006l0.006-0.025
	l-0.035-0.094l0.018-0.07l-0.008-0.057L43.538,92.61z"/>
<path fill="#605044" d="M26.656,61.241c-0.039,0.031-0.064,0.076-0.068,0.148l0.07,0.129l0.047,0.055l0.094-0.039
	c-0.037-0.248,1.006,0.311,1.125,0.352c0.051,0.018,0.127-0.033,0.094-0.094c-0.154-0.283-0.469-0.43-0.766-0.521
	c-0.146-0.045-0.436-0.139-0.58-0.045c0.018-0.389,0.334-0.51,0.723-0.432c0.383,0.078,0.629,0.314,0.9,0.57l0.031-0.023
	C28.123,60.704,26.592,60.342,26.656,61.241"/>
<path fill="#605044" d="M27.623,62.846l-0.053-0.021c-0.201,0.357-0.451,0.684-0.67,1.029l0.045,0.035
	c0.172-0.223,0.35-0.434,0.49-0.668c-0.094,0.223-0.199,0.441-0.295,0.664l0.016,0.008c0.143-0.314,0.326-0.615,0.422-0.949
	L27.623,62.846z"/>
<path fill="#605044" d="M27.242,63.075c-0.139,0.279-0.258,0.559-0.428,0.822l0.029,0.023c0.176-0.26,0.324-0.537,0.434-0.832
	L27.242,63.075z"/>
<path fill="#605044" d="M36.02,47.674c-0.182-0.148-0.408-0.344-0.617-0.453l-0.025,0.008c-0.113,0.152,0.131,0.301,0.232,0.385
	c0.148,0.119,0.301,0.227,0.434,0.361c0.123,0.125,0.205,0.283,0.309,0.426l0.098-0.025C36.473,48.071,36.236,47.854,36.02,47.674"
	/>
<path fill="#605044" d="M46.733,33.204c-0.113-0.057-0.182,0.119-0.074,0.178c0.156,0.088,0.246,0.238,0.371,0.359
	c0.045,0.043,0.117-0.008,0.111-0.063C47.112,33.448,46.936,33.301,46.733,33.204"/>
<path fill="#605044" d="M46.84,33.954c-1.102,0.803-1.738,2.098-2.457,3.229c-0.908,1.432-2.071,2.752-3.114,4.088
	c-1.572,2.014-3.236,3.967-4.623,6.111l0.018,0.014c1.586-1.725,2.965-3.709,4.42-5.553c2.014-2.557,3.762-5.32,5.817-7.828
	L46.84,33.954z"/>
<path fill="#605044" d="M57.836,21.655c-0.697,0.332-1.193,0.879-1.709,1.441c-0.969,1.055-1.91,2.139-2.836,3.23
	c-1.828,2.156-3.723,4.291-5.48,6.502l0.021,0.021c3.693-3.354,6.143-7.982,10.045-11.121L57.836,21.655z"/>
<path fill="#605044" d="M70.047,10.274c-1.84,1.07-3.445,2.715-5.008,4.148c-1.619,1.484-3.1,3.127-4.65,4.68l0.059,0.061
	c1.68-1.408,3.125-3.074,4.713-4.582c1.578-1.498,3.305-2.809,4.955-4.215"/>
<path fill="#FFFFFF" d="M41.504,84.944c-0.008,0.303-0.012,0.566,0.092,0.855l0.008-0.002c0.029,0.066,0.135,0.035,0.107-0.045
	c-0.09-0.26-0.1-0.535-0.137-0.807L41.504,84.944z"/>
<path fill="#FFFFFF" d="M46.018,96.051c-0.311,0.08-0.541,0.195-0.873,0.139c-0.141-0.023-0.279-0.105-0.387-0.195
	c-0.049-0.041-0.063-0.049-0.061-0.043l-0.035-0.033l-0.016,0.006c0.018,0.637,1.24,0.799,1.475,0.234
	C46.151,96.086,46.083,96.036,46.018,96.051"/>
<path fill="#6CB985" d="M9.643,103.266c-0.068,0.045-0.139,0.086-0.209,0.123l0.018-0.029c0.002,0.002,0.004,0,0.006,0
	c0.023-0.016,0.102-0.148,0.223-0.369c-0.162,0.178-0.33,0.328-0.502,0.436c-0.24,0.15-0.488,0.215-0.734,0.145
	c0.002-0.002,0.002-0.002,0.004-0.004c0.02-0.012,0.033-0.027,0.045-0.045c0.172-0.043,0.338-0.121,0.5-0.223
	c0.537-0.336,1.008-0.932,1.332-1.338c0.463-0.584,0.873-1.23,1.248-1.902c-0.52,1.104-1.068,2.275-1.877,3.174
	C9.678,103.245,9.662,103.254,9.643,103.266"/>
<path fill="#5CA073" d="M9.51,103.43l-0.039,0.004l-0.043-0.033l0.006-0.012c0.07-0.039,0.141-0.08,0.209-0.123
	c0.02-0.012,0.035-0.021,0.053-0.033C9.635,103.299,9.574,103.366,9.51,103.43"/>
<path fill="#A4CEAE" d="M18.068,87.887c0.061-0.119,0.119-0.236,0.178-0.355C18.188,87.651,18.129,87.768,18.068,87.887"/>
<path fill="#6CB985" d="M12.045,99.174c0.361-0.709,0.699-1.428,1.035-2.115c0.193-0.396,0.389-0.793,0.588-1.186
	c0.018,0.025,0.053,0.035,0.082,0.018c0.008-0.006,0.018-0.014,0.023-0.025c0.488-0.979,0.961-1.965,1.424-2.961
	c0.182-0.344,0.363-0.688,0.543-1.031c-0.248,0.498-0.496,0.996-0.748,1.492c-0.533,1.053-0.973,2.148-1.445,3.23
	c-0.242,0.41-0.484,0.814-0.707,1.209C12.582,98.264,12.314,98.719,12.045,99.174"/>
<path fill="#5CA073" d="M13.547,96.596c0.473-1.082,0.912-2.178,1.445-3.23c0.252-0.498,0.5-0.994,0.748-1.492
	c0.137-0.26,0.273-0.518,0.41-0.777c1.08-1.697,2.08-3.49,2.766-5.365c0.027-0.055,0.055-0.111,0.082-0.166
	c-0.174,0.674-0.439,1.328-0.752,1.967c-0.059,0.117-0.119,0.236-0.178,0.355c-0.494,0.961-1.068,1.893-1.545,2.818
	c-0.582,1.133-1.227,2.26-1.705,3.438c-0.35,0.859-0.695,1.656-1.232,2.387C13.572,96.553,13.561,96.575,13.547,96.596"/>
<path fill="#6CB985" d="M16.152,91.096c0.939-1.781,1.877-3.561,2.766-5.367C18.229,87.604,17.229,89.399,16.152,91.096
	 M13.75,95.891c-0.027,0.018-0.064,0.008-0.082-0.018c0.5-0.994,1.012-1.982,1.529-2.969c-0.463,0.994-0.936,1.982-1.426,2.961
	C13.766,95.877,13.758,95.885,13.75,95.891"/>
<path fill="#6CB985" d="M13.084,95.592c0.119-0.434,0.25-0.861,0.449-1.268l0.092,0.025c-0.02,0.078-0.037,0.154-0.051,0.232
	C13.41,94.918,13.248,95.254,13.084,95.592 M12.258,97.293c0.064-0.293,0.145-0.582,0.244-0.865
	c0.037-0.109,0.105-0.271,0.174-0.432c0.076-0.258,0.154-0.514,0.229-0.771h0.109c0.043,0.133,0.057,0.266,0.057,0.396
	C12.801,96.18,12.529,96.737,12.258,97.293"/>
<path fill="#A4CEAE" d="M19.207,82.329c0-0.002,0-0.002,0-0.004C19.207,82.327,19.207,82.327,19.207,82.329 M19.205,82.331
	L19.205,82.331L19.205,82.331 M19.201,82.342c0.002-0.002,0.002-0.006,0.004-0.008C19.203,82.336,19.203,82.34,19.201,82.342
	 M19.197,82.356c0-0.002,0-0.002,0-0.002S19.197,82.354,19.197,82.356 M18.992,84.272c-0.004-0.006-0.01-0.012-0.014-0.02
	c0,0-0.002-0.002-0.002-0.004c0,0.002,0.002,0.004,0.002,0.004C18.982,84.26,18.988,84.266,18.992,84.272"/>
<path fill="#819674" d="M19.195,82.356c0,0,0.002,0,0.002-0.002c0.002-0.004,0.004-0.008,0.004-0.012
	c0.002-0.004,0.002-0.006,0.004-0.008c0-0.002,0-0.002,0-0.004h0.002c0-0.002,0-0.002,0-0.004c0,0,0,0,0.002-0.002
	c0.061-0.168,0.145-0.352,0.246-0.529c-0.045,0.129-0.096,0.26-0.146,0.389C19.27,82.241,19.232,82.297,19.195,82.356
	 M18.953,83.866c-0.049-0.152-0.053-0.316-0.021-0.49C18.92,83.538,18.926,83.702,18.953,83.866 M19.133,84.405
	c-0.002,0-0.002,0.002-0.002,0.002c-0.053-0.037-0.102-0.08-0.139-0.135c-0.006-0.006-0.01-0.014-0.014-0.02
	c0,0-0.002-0.002-0.002-0.004c-0.068-0.111-0.115-0.223-0.141-0.336c0.041,0.086,0.102,0.164,0.182,0.23
	c0.006,0.021,0.014,0.045,0.021,0.066c0,0.002,0.002,0.004,0.002,0.006c0.006,0.035,0.012,0.068,0.018,0.102l0.012-0.023
	C19.09,84.334,19.109,84.372,19.133,84.405"/>
<path fill="#6CB985" d="M19.131,84.729c-0.094-0.061-0.221-0.076-0.32-0.014c-0.023,0.014-0.043,0.031-0.063,0.053
	c-0.258-0.619-0.195-1.225,0.002-1.811c0.102-0.402,0.268-0.791,0.492-1.152l0.027,0.018l-0.008,0.023
	c0.059-0.104,0.113-0.203,0.172-0.305c0.006-0.01,0.012-0.016,0.02-0.021c0.035-0.021,0.088,0.01,0.072,0.063
	c-0.023,0.07-0.047,0.141-0.07,0.213c-0.102,0.178-0.184,0.361-0.248,0.529v0.002c0,0.002-0.002,0.002-0.002,0.002
	c0,0.002,0,0.002,0,0.004v0.002c-0.002,0.002-0.002,0.006-0.004,0.008c-0.002,0.004-0.002,0.008-0.004,0.012v0.002
	c-0.344,0.543-0.563,1.143-0.361,1.557c0.025,0.111,0.07,0.225,0.141,0.338c0.002,0,0.002,0.002,0.002,0.002
	c0.004,0.008,0.008,0.014,0.014,0.02c0.037,0.055,0.086,0.096,0.137,0.135c0.002-0.002,0.002-0.002,0.002-0.002
	c0.014,0.018,0.025,0.035,0.039,0.049C19.16,84.545,19.146,84.637,19.131,84.729"/>
<path fill="#88AB8D" d="M19.018,84.143c-0.08-0.066-0.141-0.145-0.182-0.23c-0.201-0.414,0.016-1.014,0.361-1.557
	c0.035-0.059,0.072-0.115,0.111-0.17c-0.029,0.078-0.061,0.156-0.092,0.234l0.006,0.01c0,0.004-0.002,0.006-0.002,0.01
	c-0.021,0.045-0.045,0.088-0.064,0.131c-0.129,0.26-0.205,0.531-0.225,0.805c-0.031,0.174-0.027,0.338,0.021,0.49
	C18.967,83.958,18.99,84.051,19.018,84.143"/>
<path fill="#75947B" d="M19.041,84.217c0-0.004-0.002-0.006-0.002-0.008c-0.008-0.021-0.016-0.045-0.021-0.066
	c-0.027-0.092-0.051-0.186-0.064-0.277c-0.027-0.164-0.033-0.328-0.021-0.49c0.02-0.275,0.096-0.545,0.225-0.805
	c0.02-0.043,0.043-0.086,0.064-0.131c-0.076,0.348-0.182,0.699-0.215,1.055C18.982,83.749,19.002,83.981,19.041,84.217
	 M19.17,84.456c-0.014-0.016-0.025-0.033-0.037-0.051c-0.021-0.033-0.043-0.07-0.061-0.111l0.002-0.002
	c0.004-0.01,0.01-0.016,0.016-0.02c0.037-0.023,0.092,0.02,0.088,0.064C19.176,84.375,19.174,84.415,19.17,84.456"/>
<path fill="#78BD8D" d="M8.191,103.313c-0.031,0.016-0.063,0.031-0.092,0.045c-0.055-0.049-0.105-0.111-0.15-0.188l0.021-0.018
	C8.041,103.227,8.115,103.28,8.191,103.313 M8.447,103.567c0,0.002-0.002,0.002-0.004,0.002c-0.004,0-0.008-0.002-0.014-0.004
	v-0.031c0.021-0.004,0.041-0.008,0.063-0.014C8.48,103.54,8.467,103.555,8.447,103.567"/>
<path fill="#6CB985" d="M20.979,79.229c-0.006,0.004-0.012,0.008-0.016,0.012c-0.094,0.055-0.186,0.029-0.238-0.066
	c-0.139-0.252-0.104-0.557-0.287-0.795c-0.236-0.303-0.547-0.516-0.879-0.701c-0.074-0.041-0.152-0.078-0.23-0.115
	c0.123,0.025,0.234,0.047,0.326,0.063c0.018,0.004,0.033,0,0.045-0.008c0.039-0.025,0.055-0.088,0.01-0.117
	c-0.307-0.205-0.799-0.326-1.279-0.326c-0.16-0.08-0.311-0.168-0.443-0.275l0.006-0.004c-0.037-0.027-0.051-0.08-0.039-0.121
	c0.016,0.029,0.045,0.053,0.084,0.051c0.488-0.021,1.025,0.141,1.516,0.342c0.123,0.08,0.244,0.162,0.361,0.244l0.027-0.033
	c-0.041-0.031-0.082-0.064-0.121-0.096c0.104,0.047,0.205,0.096,0.301,0.143c0.225,0.109,0.445,0.234,0.648,0.383
	C21.176,78.233,21.543,78.877,20.979,79.229"/>
<path fill="#6CB985" d="M19.551,77.167c-0.486-0.201-1.025-0.363-1.514-0.342c-0.037,0.002-0.07-0.021-0.084-0.051
	c0.006-0.021,0.02-0.041,0.041-0.057c0.012-0.008,0.029-0.014,0.049-0.016c0.143-0.018,0.295-0.008,0.451,0.01l0.002-0.002
	C18.875,76.772,19.225,76.956,19.551,77.167 M20.77,77.807c-0.203-0.148-0.424-0.273-0.648-0.383
	c-0.096-0.047-0.197-0.096-0.301-0.143c-0.295-0.229-0.605-0.432-0.949-0.545c0.297,0.057,0.584,0.184,0.846,0.355
	c0.248,0.119,0.48,0.25,0.666,0.379C20.494,77.547,20.633,77.665,20.77,77.807"/>
<path fill="#78BD8D" d="M19.699,77.618c-0.012,0.008-0.027,0.012-0.045,0.008c-0.092-0.016-0.203-0.037-0.326-0.063
	c-0.291-0.133-0.609-0.246-0.898-0.389c0.48,0,0.975,0.121,1.279,0.326C19.754,77.53,19.738,77.592,19.699,77.618"/>
<path fill="#78BD8D" d="M19.914,77.411c-0.117-0.082-0.238-0.166-0.361-0.244c-0.328-0.211-0.678-0.395-1.057-0.457l0.008-0.01
	c0.123,0,0.246,0.012,0.367,0.037c0.342,0.113,0.654,0.316,0.949,0.545c0.041,0.031,0.08,0.064,0.121,0.096L19.914,77.411"/>
<path fill="#6CB985" d="M16.48,77.811c0.027-0.074,0.061-0.148,0.1-0.221c0.018-0.027,0.035-0.055,0.053-0.084
	c0.211-0.25,0.438-0.475,0.678-0.664l-0.025-0.047c0.031-0.023,0.063-0.049,0.094-0.072c0.021,0.018,0.049,0.027,0.078,0.023
	c-0.25,0.188-0.463,0.406-0.645,0.654C16.699,77.536,16.59,77.672,16.48,77.811"/>
<path fill="#6CB985" d="M17.457,76.747c-0.029,0.004-0.057-0.006-0.078-0.023c0.084-0.061,0.166-0.117,0.248-0.168
	c0.02-0.012,0.037-0.023,0.055-0.035l0.039,0.051c-0.014,0.008-0.029,0.016-0.041,0.023C17.602,76.643,17.529,76.694,17.457,76.747"
	/>
<path fill="#5CA073" d="M16.58,77.59c0.012-0.021,0.025-0.043,0.037-0.064c0.006-0.006,0.01-0.014,0.016-0.02
	C16.615,77.536,16.598,77.563,16.58,77.59"/>
<path fill="#6CB985" d="M16.617,77.524c0.166-0.275,0.41-0.523,0.668-0.729l0.025,0.047c-0.24,0.188-0.467,0.414-0.678,0.664
	C16.627,77.512,16.623,77.518,16.617,77.524 M16.486,77.956l-0.045-0.014c0.01-0.045,0.023-0.088,0.039-0.131
	c0.107-0.139,0.219-0.275,0.334-0.41C16.689,77.571,16.58,77.756,16.486,77.956"/>
<path fill="#96BC9B" d="M23.143,85.331l-0.027,0.002c0.004-0.285,0.117-0.533,0.271-0.77l0.016,0.012
	C23.256,84.807,23.145,85.047,23.143,85.331"/>
<path fill="#6CB985" d="M30.5,96.319c-0.006-0.002-0.012-0.002-0.018-0.004c-0.707-0.219-1.383-0.656-2.014-1.043
	c-0.58-0.354-1.141-0.73-1.543-1.287l-0.014-0.1c0.035-0.063,0.049-0.088,0.078-0.105c0.021-0.014,0.051-0.023,0.104-0.041
	c0.064-0.025,0.123,0.066,0.061,0.109c-0.023,0.016,1.758,1.121,1.951,1.221c0.523,0.273,1.084,0.525,1.486,0.967
	C30.557,96.127,30.525,96.223,30.5,96.319"/>
<path fill="#5CA073" d="M30.613,96.295c-0.033,0.02-0.074,0.029-0.113,0.023c0.025-0.096,0.057-0.189,0.092-0.283
	c0.02,0.021,0.037,0.043,0.057,0.063C30.711,96.174,30.676,96.254,30.613,96.295"/>
<path fill="#6BB784" d="M13.486,95.116c0.025-0.178,0.053-0.355,0.088-0.531c0.063-0.133,0.127-0.264,0.189-0.395
	c0.854-1.748,1.713-3.492,2.641-5.201c0.75-1.385,1.373-2.955,2.332-4.205c0.004-0.006,0.008-0.01,0.012-0.016
	c0.004,0.01,0.008,0.021,0.014,0.031l0.018,0.018c-0.695,1.234-1.318,2.52-1.979,3.771c-1.074,2.035-2.313,3.988-3.139,6.141
	l0.006,0.012C13.607,94.866,13.547,94.991,13.486,95.116 M13.07,95.645c0-0.008,0-0.016,0-0.023c0.006-0.01,0.01-0.02,0.014-0.029
	C13.08,95.61,13.076,95.627,13.07,95.645 M11.572,100.059c0.068-0.145,0.137-0.289,0.205-0.432c0.09-0.152,0.178-0.303,0.268-0.453
	C11.893,99.471,11.736,99.768,11.572,100.059 M8.963,103.167c-0.17,0.107-0.34,0.176-0.5,0.189c-0.008-0.008-0.02-0.016-0.033-0.02
	c-0.053-0.021-0.105-0.043-0.158-0.064c0.061-0.033,0.119-0.068,0.18-0.105c1.375-0.859,2.232-2.711,2.91-4.055
	c0.303-0.605,0.602-1.211,0.896-1.818c-0.029,0.133-0.053,0.266-0.076,0.4c-0.322,0.623-0.648,1.244-0.99,1.844
	c-0.51,0.895-1.143,2.611-2.033,3.492C9.092,103.081,9.027,103.125,8.963,103.167"/>
<path fill="#6BB784" d="M13.459,95.305c0.01-0.063,0.018-0.125,0.027-0.189c0.061-0.125,0.121-0.25,0.182-0.375l0.047,0.107
	C13.627,94.999,13.545,95.153,13.459,95.305"/>
<path fill="#7E9D78" d="M19.117,84.899L19.1,84.887c0.008-0.031,0.014-0.063,0.02-0.092c0.012-0.016,0.027-0.031,0.039-0.047
	c0.008,0.006,0.014,0.014,0.021,0.02C19.158,84.811,19.137,84.854,19.117,84.899"/>
<path fill="#6BB784" d="M19.119,84.795c0.004-0.023,0.008-0.045,0.012-0.066c0.01,0.006,0.02,0.014,0.027,0.02
	C19.146,84.764,19.131,84.78,19.119,84.795"/>
<path fill="#5FA577" d="M18.998,85.565c0.018-0.066,0.033-0.131,0.047-0.197c0.063-0.182,0.123-0.363,0.18-0.547
	c0.045,0.07,0.057,0.16,0.012,0.256C19.156,85.239,19.078,85.403,18.998,85.565"/>
<path fill="#6BB784" d="M19.045,85.368c0.035-0.152,0.064-0.305,0.088-0.459l-0.016-0.01c0.021-0.045,0.041-0.088,0.063-0.131
	c0.016,0.016,0.031,0.033,0.045,0.053C19.168,85.004,19.107,85.186,19.045,85.368"/>
<path fill="#74BA89" d="M8.463,103.356c-0.094,0.006-0.184-0.006-0.27-0.043c0.025-0.014,0.053-0.027,0.078-0.041
	c0.053,0.021,0.105,0.043,0.158,0.064C8.443,103.34,8.455,103.348,8.463,103.356 M8.43,103.534c-0.143,0.029-0.289,0.031-0.436,0
	c-0.057-0.012-0.074-0.086-0.025-0.117c0.004-0.002,0.006-0.004,0.01-0.006c0.041-0.016,0.08-0.033,0.119-0.051
	c0.102,0.092,0.219,0.139,0.344,0.148l-0.012,0.006V103.534"/>
<path fill="#74A97D" d="M18.355,86.407c0.166-0.338,0.318-0.68,0.445-1.029c0.088-0.174,0.172-0.352,0.266-0.521
	c0.018-0.021,0.035-0.041,0.053-0.061c-0.006,0.029-0.012,0.061-0.02,0.092l0.018,0.012C18.871,85.407,18.617,85.909,18.355,86.407"
	/>
<path fill="#6AB582" d="M15.197,92.905c0.18-0.387,0.359-0.775,0.537-1.164c0.102-0.156,0.205-0.313,0.307-0.471
	c-0.1,0.201-0.199,0.402-0.301,0.604C15.561,92.217,15.379,92.561,15.197,92.905 M13.668,94.741l-0.006-0.012
	c0.826-2.154,2.066-4.105,3.141-6.143c0.658-1.25,1.279-2.533,1.977-3.77l-0.018-0.018c-0.004-0.012-0.01-0.021-0.014-0.031
	c0.02-0.021,0.039-0.039,0.063-0.053c0.1-0.063,0.227-0.049,0.32,0.014c-0.004,0.021-0.008,0.043-0.012,0.064
	c-0.018,0.021-0.035,0.041-0.053,0.063c-0.094,0.17-0.178,0.348-0.266,0.521c-0.127,0.35-0.279,0.691-0.445,1.029
	c-0.428,0.813-0.871,1.615-1.318,2.416l0.049-0.107l-0.043-0.02c-0.109,0.225-0.227,0.447-0.338,0.67l-0.051,0.01
	C15.482,91.051,14.563,92.895,13.668,94.741 M8.992,103.301c-0.162,0.1-0.33,0.178-0.502,0.219c0.029-0.051,0.023-0.123-0.027-0.164
	c0.16-0.012,0.328-0.082,0.5-0.189c0.064-0.041,0.131-0.086,0.195-0.137c0.891-0.881,1.523-2.596,2.033-3.492
	c0.342-0.6,0.668-1.221,0.99-1.844c0.021-0.133,0.049-0.268,0.076-0.4c0.271-0.557,0.543-1.113,0.813-1.672c0,0.008,0,0.016,0,0.023
	c0.004-0.018,0.01-0.035,0.014-0.053c0.164-0.338,0.326-0.674,0.488-1.01c-0.033,0.178-0.061,0.355-0.086,0.533
	c-0.23,0.477-0.459,0.953-0.693,1.424l0.01,0.002c0.977-1.766,1.945-3.537,2.922-5.303c-0.225,0.426-0.453,0.85-0.666,1.283
	l0.02,0.072c-0.52,1.057-1.014,2.125-1.416,3.225c-0.006,0.021-0.004,0.041,0.006,0.055c-0.197,0.395-0.395,0.789-0.588,1.186
	c-0.336,0.688-0.674,1.406-1.035,2.115c-0.09,0.15-0.18,0.303-0.268,0.453c-0.068,0.143-0.137,0.287-0.205,0.432
	c-0.375,0.672-0.785,1.318-1.25,1.902C10,102.368,9.529,102.963,8.992,103.301"/>
<path fill="#64AD7C" d="M18.916,85.729c0.045-0.119,0.088-0.24,0.129-0.361c-0.014,0.066-0.029,0.133-0.047,0.199
	C18.971,85.62,18.943,85.674,18.916,85.729 M15.74,91.874c0.1-0.201,0.201-0.402,0.301-0.605c0.037-0.057,0.074-0.113,0.109-0.172
	C16.014,91.356,15.877,91.616,15.74,91.874"/>
<path fill="#6AB582" d="M12.803,96.543l-0.008-0.004c0.23-0.473,0.461-0.947,0.691-1.424c-0.01,0.064-0.018,0.127-0.027,0.189
	c0.088-0.152,0.17-0.307,0.258-0.457l-0.049-0.107c0.895-1.846,1.814-3.689,2.986-5.365l0.049-0.01
	c0.113-0.223,0.23-0.445,0.34-0.67l0.043,0.02l-0.049,0.105c0.447-0.801,0.891-1.602,1.318-2.414c0.262-0.498,0.516-1,0.762-1.508
	l0.018,0.01c-0.025,0.154-0.055,0.307-0.088,0.459c-0.043,0.121-0.086,0.242-0.129,0.361c-0.889,1.805-1.826,3.588-2.768,5.367
	c-0.037,0.059-0.072,0.115-0.109,0.172c-0.102,0.16-0.203,0.316-0.307,0.473c-0.178,0.391-0.355,0.777-0.537,1.164
	c-0.516,0.986-1.029,1.975-1.529,2.969c-0.01-0.016-0.012-0.033-0.006-0.055c0.402-1.1,0.896-2.168,1.416-3.227l-0.02-0.07
	c0.213-0.434,0.441-0.857,0.666-1.283C14.748,93.006,13.779,94.776,12.803,96.543"/>
<path fill="#6EB684" d="M8.492,103.52c-0.021,0.006-0.041,0.01-0.063,0.014v-0.02l0.012-0.004c-0.127-0.012-0.242-0.059-0.344-0.152
	c0.033-0.014,0.064-0.029,0.094-0.045c0.086,0.037,0.178,0.049,0.271,0.043C8.514,103.395,8.52,103.467,8.492,103.52"/>
<path fill="#9D8673" d="M55.522,23.172c-1.535,1.029-2.707,2.551-3.881,3.959c-0.377,0.453-4.275,4.781-4.092,5.006l-0.07-0.033
	l-0.027-0.072l-0.064,0.016l-0.031,0.102c-0.057,0.057-0.025,0.148,0.061,0.146h-0.01c0.023,0.066,0.111,0.09,0.166,0.047
	c1.432-1.166,2.596-2.641,3.781-4.045c1.412-1.668,3.01-3.225,4.324-4.967C55.756,23.225,55.627,23.104,55.522,23.172"/>
<path fill="#9D8673" d="M46.399,33.805c-0.92,0.539-1.514,1.346-2.131,2.201c-0.842,1.168-1.723,2.309-2.583,3.463
	c-1.57,2.113-3.334,4.182-4.535,6.533c-0.064,0.131,0.121,0.221,0.207,0.123c3.404-3.775,5.887-8.334,9.1-12.262L46.399,33.805z"/>
<path fill="#9D8673" d="M35.281,48.278c-1.463,1.436-2.572,3.252-3.664,4.975c-1.223,1.93-2.328,3.908-3.182,6.029
	c-0.041,0.102,0.111,0.199,0.17,0.1c1.139-1.939,2.223-3.912,3.402-5.826c1.082-1.756,2.381-3.402,3.342-5.225L35.281,48.278z"/>
<path fill="#9D8673" d="M27.094,61.682c-2.199,3.119-4.055,6.771-4.762,10.559c-0.023,0.127,0.164,0.176,0.213,0.061
	c0.787-1.813,1.379-3.701,2.154-5.521c0.723-1.705,1.9-3.314,2.428-5.078L27.094,61.682z"/>
<line fill="none" x1="0" y1="0" x2="0" y2="114.139"/>
<line fill="none" x1="86.569" y1="114.139" x2="86.569" y2="0"/>
</svg>
