<?xml version="1.0" standalone="no"?>
<!DOCTYPE svg PUBLIC "-//W3C//DTD SVG 1.1//EN" "http://www.w3.org/Graphics/SVG/1.1/DTD/svg11.dtd" >
<svg xmlns="http://www.w3.org/2000/svg">
<metadata></metadata>
<defs>
<font id="eternal_promiseregular" horiz-adv-x="614" >
<font-face units-per-em="2048" ascent="1638" descent="-410" />
<missing-glyph horiz-adv-x="500" />
<glyph horiz-adv-x="2048" />
<glyph horiz-adv-x="2048" />
<glyph unicode="&#xd;" horiz-adv-x="681" />
<glyph unicode=" " />
<glyph unicode="!" horiz-adv-x="305" d="M193 1430q-2 12 6 22t20 12t22.5 -6t12.5 -20q6 -45 8 -97.5t2 -116t2 -91.5q4 -137 5 -280.5t0 -347.5t-1 -280q0 -31 -30.5 -30.5t-30.5 30.5q0 76 1 279t0 346t-5 278q-2 35 -2 97.5t-2 110.5t-8 94zM202.5 65.5q-0.5 30.5 30.5 30.5t31 -30.5t-30.5 -30.5t-31 30.5z " />
<glyph unicode="&#x22;" horiz-adv-x="342" d="M74 1341q0 31 30.5 31t30.5 -31q0 -213 27 -315q2 -12 -4 -23.5t-18.5 -14.5t-24 3t-15.5 19q-27 111 -26 331zM231 1333q2 14 11.5 22.5t23 6.5t21.5 -11.5t6 -21.5q-16 -158 22 -274q4 -12 -1 -23.5t-17 -15.5t-23.5 1t-15.5 17q-43 129 -27 299z" />
<glyph unicode="#" horiz-adv-x="935" d="M27 884.5q2 12.5 13 19.5t23 5q106 -20 230 -22q-8 219 -29 389q-2 12 6.5 22.5t20.5 12.5t22.5 -6.5t12.5 -20.5q20 -174 28 -399q86 2 181 12q-4 129 -5 371q0 31 31 30.5t31 -30.5q0 -236 4 -365q113 12 268 41q14 2 24.5 -5t12.5 -20.5t-5 -23.5t-19 -12 q-174 -31 -279 -41q8 -158 25 -289q143 0 264 -23q12 -2 19 -13t5 -23.5t-13 -19.5t-24 -5q-111 20 -243 23q25 -172 67 -314q4 -10 -2 -21.5t-17 -15.5t-22.5 2.5t-15.5 18.5q-47 148 -74 330q-94 -2 -202 -15q2 -190 8 -307q0 -14 -8.5 -23.5t-21.5 -9.5t-22.5 8.5 t-9.5 20.5q-4 119 -8 305q-86 -10 -213 -31q-12 -2 -22.5 6.5t-12.5 20.5t6.5 22.5t20.5 12.5q125 20 219 30q-2 131 -2 191q-2 55 -4 100q-129 4 -244 25q-12 2 -19 13t-5 23.5zM356 823q2 -45 4 -98q0 -59 2 -186q107 10 197 14q-14 127 -22 283q-94 -10 -181 -13z" />
<glyph unicode="$" horiz-adv-x="763" d="M41 500q-2 12 6 22t20.5 12.5t22.5 -6t12 -20.5q10 -84 91 -156.5t194 -107.5q109 -35 198 -11.5t117 105.5q12 39 13.5 75t-11 69.5t-32 64.5t-51 63.5t-61.5 59t-73 61.5q-14 10 -43 35l-49 37l-41 35q-25 20 -44 38.5t-36 36.5q-104 113 -90 222q12 96 96.5 145 t190.5 49q104 0 195.5 -43t121.5 -123q4 -12 -1 -23.5t-17 -15.5t-23.5 1.5t-15.5 17.5q-20 55 -94 90t-164 35q-92 0 -155.5 -38t-71.5 -104q-10 -80 73 -172l48 -45q29 -27 45 -39l59 -47l53 -43l76 -63q29 -25 65.5 -63t58 -73.5t38 -77.5t16.5 -89t-18 -97 q-27 -78 -93.5 -116.5t-142 -37.5t-155.5 21q-125 39 -220.5 124t-107.5 192zM440 1513q-2 12 6.5 22.5t20.5 12.5t22.5 -6t12.5 -20l6 -37q4 -25 6 -46.5t2 -39.5q0 -31 -30.5 -31t-30.5 31q0 16 -2 34.5t-6.5 41t-6.5 38.5zM473 94q0 12 8 21.5t20.5 10.5t22 -7.5 t11.5 -20.5q4 -47 4 -127q0 -31 -31 -30.5t-31 30.5q0 76 -4 123z" />
<glyph unicode="%" horiz-adv-x="954" d="M104 106l785 1176q16 27 41.5 9.5t7.5 -42.5l-780 -1175q-18 -27 -44 -9.5t-10 41.5zM465 1097.5q0 30.5 31 30.5t30.5 -30.5t-31 -30.5t-30.5 30.5zM506 139.5q0 30.5 31 30.5t30.5 -30.5t-31 -30.5t-30.5 30.5z" />
<glyph unicode="&#x26;" horiz-adv-x="735" d="M4 301q8 121 82 260q80 147 195 252q-70 -2 -123 14q-115 37 -109 152q4 96 74 191.5t162 154.5q96 63 174 59q98 -4 119 -104q2 -12 -5.5 -22.5t-19.5 -13.5t-22.5 4t-14.5 20q-10 53 -59 55q-57 2 -140 -49q-82 -53 -141 -135q-61 -84 -65 -164q-4 -68 65 -90 q63 -20 158 -4q16 2 47 13t45 15l14 6q13 3 21 5q6 2 8 2h6q6 0 12 -4q16 -8 15 -29q0 -10 -8 -19q-2 -2 -7 -4l-2 -2l-4 -2h-2l-10 -4l-16 -4q-78 -29 -166 -119q-84 -88 -146 -203q-70 -131 -75 -235q-8 -115 59 -174q63 -55 135 -41q66 12 141 82q82 74 205 252 q-78 -2 -129 -2q-31 0 -31 30.5t31 30.5q55 0 167 3t167 3q31 0 31 -30.5t-31 -30.5q-51 0 -129 -2q-2 0 -2 -2q-2 -2 -32 -46t-46 -65l-45 -59q-29 -39 -57.5 -70t-57.5 -57q-88 -82 -170 -99q-102 -20 -188 58q-88 80 -80 223z" />
<glyph unicode="'" horiz-adv-x="206" d="M53 1204q20 106 6 273q0 12 8.5 21t20.5 10t21.5 -7t11.5 -20q14 -170 -6 -289q-2 -12 -12.5 -19.5t-23.5 -5.5t-20.5 12.5t-5.5 24.5z" />
<glyph unicode="(" horiz-adv-x="292" d="M29 731q2 229 38.5 446.5t98.5 346.5q14 29 41.5 15.5t15.5 -40.5q-59 -123 -95 -333t-38 -435q-2 -240 40 -431t126 -282q20 -23 -2.5 -43t-42.5 2q-96 102 -140 305t-42 449z" />
<glyph unicode=")" horiz-adv-x="274" d="M29 18q61 117 110 328q47 209 62 436q16 246 -15 426q-31 201 -112 289q-20 23 2 43.5t43 -2.5q94 -100 129 -319q31 -190 14 -441q-16 -229 -65.5 -446t-114.5 -342q-14 -27 -40.5 -13t-12.5 41z" />
<glyph unicode="*" horiz-adv-x="634" d="M48 781.5q-19 23.5 3 43.5l225 185l-210 174q-25 20 -5.5 43.5t41.5 5.5l215 -176q2 156 9 276q0 12 10 20.5t22.5 8.5t20.5 -10.5t8 -22.5q-6 -106 -8 -235l201 153q25 18 43 -6t-7 -43l-237 -184v-6q129 -109 231 -185q25 -18 6.5 -42.5t-43.5 -6.5l-194 154v-115v-121 q0 -31 -31 -30.5t-31 30.5v131v142l-225 -189q-25 -18 -44 5.5z" />
<glyph unicode="+" horiz-adv-x="604" d="M43 562q2 13 11.5 21.5t23.5 6.5q76 -8 186 -4q-18 207 -20 221t6 23.5t21.5 11.5t22.5 -6.5t11 -21.5t21 -224q166 10 223 10q31 0 31 -30.5t-31 -30.5q-47 0 -219 -11q12 -104 26 -182q2 -12 -5 -23.5t-19.5 -13.5t-23.5 5.5t-13 19.5q-14 88 -27 190q-119 -4 -198 4 q-12 2 -20.5 11.5t-6.5 22.5z" />
<glyph unicode="," horiz-adv-x="411" d="M121 -176q-4 12 1 23.5t17 15.5q80 29 133.5 91t65.5 146q2 14 12 21.5t23.5 5.5t20.5 -12.5t5 -22.5q-16 -102 -79.5 -178t-159.5 -109q-12 -4 -23.5 1.5t-15.5 17.5z" />
<glyph unicode="-" d="M56 630.5q1 12.5 10.5 20.5t21.5 8q84 -6 229 7q172 16 236 16q31 0 31 -30.5t-31 -30.5q-59 0 -231 -17q-150 -12 -238 -6q-12 2 -20.5 11t-7.5 21.5z" />
<glyph unicode="." horiz-adv-x="329" d="M258 22.5q0 30.5 31 30.5t30.5 -30.5t-31 -30.5t-30.5 30.5z" />
<glyph unicode="/" horiz-adv-x="819" d="M59 72q131 252 398.5 701.5t359.5 615.5q14 27 41 12t12 -41q-92 -168 -359 -615.5t-398 -701.5q-14 -27 -41 -12.5t-13 41.5z" />
<glyph unicode="0" horiz-adv-x="921" d="M88 717q8 266 82 475q84 233 217 281q37 14 121 10q25 -2 29 -27q188 -68 294 -301q104 -229 95 -518q-10 -293 -135 -475q-145 -211 -383 -170q-168 29 -254 256q-72 193 -66 469zM150 717q-6 -264 61 -447q74 -195 209 -217q199 -35 319 144q115 168 125 442t-88 491 q-106 231 -293 277q-12 4 -18 16q-31 0 -57 -8q-106 -37 -181 -244q-72 -201 -77 -454z" />
<glyph unicode="1" horiz-adv-x="731" d="M107.5 1066.5q-17.5 25.5 7.5 41.5q78 53 145.5 150.5t85.5 183.5q4 12 14 18q8 14 23 15q12 0 22.5 -8.5t10.5 -20.5q23 -453 22 -1391h246q31 0 31 -30.5t-31 -30.5q-86 0 -257 -1t-257 -1q-31 0 -31 30.5t31 30.5h207q0 848 -17 1254q-82 -160 -208 -248 q-27 -18 -44.5 7.5z" />
<glyph unicode="2" horiz-adv-x="886" d="M86 20v33q2 35 6 90q8 131 17 168q57 252 149 361q27 31 63.5 63.5t90.5 75.5l77 63q139 119 162 218q33 141 -18 221t-139 86q-90 6 -167 -72t-89 -233q-2 -12 -11.5 -20.5t-21.5 -7.5t-20.5 10.5t-8.5 21.5q14 178 108.5 273t213.5 89q119 -8 185.5 -112.5t29.5 -268.5 q-29 -119 -185 -252q-25 -23 -78 -64.5t-86.5 -71t-60.5 -60.5q-80 -94 -133 -332q-6 -29 -16 -160q-2 -29 -4 -53l12 4q23 8 49.5 10t45.5 1t49 -6t43 -9t45 -12t40 -13q78 -25 189.5 -20.5t177.5 41.5q27 14 41 -12.5t-13 -40.5q-78 -45 -204.5 -49.5t-206.5 24.5 q-10 2 -41 11.5t-43 11.5t-38 8t-40 6t-34.5 -1t-39.5 -7q-2 0 -2 -2q-2 -2 -10 -17q-8 -16 -16 -24q-20 -18 -48 -8q-6 4 -10 8t-6 8l-2 4q0 2 -1 7t-1 11z" />
<glyph unicode="3" horiz-adv-x="946" d="M76 279q2 12 12 20t22.5 6t20.5 -12t6 -23q-16 -121 78 -182q90 -57 238 -43q150 14 268.5 103.5t138.5 226.5q31 199 -61 346q-100 158 -287 135q-20 -2 -63 -22q-51 -23 -78 -27h-9q-14 2 -22 10q-12 16 -4 35q2 4 6 10q6 4 16 10q4 4 15 11l12 6q59 35 94 69 q174 180 111 336q-27 68 -78 82q-47 12 -111 -16q-61 -27 -111 -81t-63 -105q-4 -12 -15 -18.5t-23.5 -3.5t-18.5 14.5t-4 23.5q18 66 78.5 130t132.5 97q84 37 151 19q82 -23 119 -117q76 -195 -121 -399q211 14 324 -166q51 -80 68.5 -182.5t3.5 -204.5q-18 -113 -92 -199 t-170.5 -130t-200.5 -54q-168 -16 -277 53q-127 82 -106 242z" />
<glyph unicode="4" horiz-adv-x="886" d="M90 520q0 2 2 6q0 2 2 4q2 4 6 9q4 10 15 24l45 68l33 47l30 43q10 16 13 20q131 201 217 351q145 254 159 354q2 12 12.5 20.5t22.5 6.5l12 -5q21 -7 19 -30q-6 -76 -7 -167t0 -148.5t4 -176.5t5 -158q2 -104 2 -264q168 2 233 4q14 0 23.5 -8t9.5 -21.5t-8 -22.5 t-20 -9q-68 -2 -238 -4q-2 -297 4 -436q0 -14 -8 -23.5t-21.5 -9.5t-22.5 8t-9 21q-6 139 -4 440h-134q-158 0 -251 4q-53 4 -84 6q-18 4 -29 6l-12 4q-12 6 -17 17q-6 10 -4 20zM168 535q27 -4 72 -7q92 -4 247 -4h134q0 160 -3 264q-10 412 -10 465q-39 -84 -102 -192 q-84 -147 -217 -352q-4 -4 -17 -21l-28 -45l-33 -47z" />
<glyph unicode="5" horiz-adv-x="1032" d="M80 434q0 12 10 20.5t22.5 8.5t20.5 -10.5t8 -22.5q-10 -178 91.5 -278.5t256 -106.5t284.5 84t165 256q20 84 15 204t-35 224q-78 248 -263 289q-145 33 -313 -64l-4 -6l-21 -14q-14 -12 -28 -14q-27 -8 -45 12l-8 14v4v4v6v21q2 18 4 57q2 18 3 40t2 36t1 16v29 q-2 41 -2 47v49q2 29 10 41q4 10 16 15l9 4q6 2 16 2q16 2 47 4q31 0 137 2q233 4 289 10q14 2 23.5 -6t11.5 -21.5t-6.5 -22.5t-20.5 -11q-59 -6 -295 -10q-106 -2 -137 -3q-25 -2 -37 -4q-2 -2 -2 -4v-43q0 -6 2 -47v-35q0 -2 -1 -15t-2 -35.5t-3 -41.5q-2 -20 -2 -37 q8 8 14 11q188 109 355 71q117 -27 192.5 -116t114.5 -216q35 -113 41 -241q4 -127 -17 -217q-41 -190 -189 -293t-325 -96q-113 4 -206 54t-150 153.5t-49 242.5z" />
<glyph unicode="6" horiz-adv-x="903" d="M61 643q4 147 38 291.5t87 249.5q41 84 111 151.5t147 94.5q88 31 162 -7q80 -39 127 -151q4 -12 0 -23.5t-16 -16.5t-23.5 -1t-17.5 16q-37 92 -98 121q-49 25 -115 4q-63 -23 -123.5 -82t-99.5 -135q-49 -98 -81 -235.5t-36 -278.5q-8 -328 133 -479q94 -100 193 -121 q-27 41 -37 106q-18 125 26 279q47 158 129 240q106 102 217 30q117 -76 111 -252q-6 -156 -104 -294q-94 -133 -222 -166q-10 -10 -26 -9q-2 0 -4 2q-170 -25 -328 144q-158 170 -150 522zM473 156q15 -97 68 -115q115 23 200 143q86 125 92.5 264.5t-81.5 194.5 q-72 47 -141.5 -22.5t-112.5 -212.5q-41 -141 -25 -252z" />
<glyph unicode="7" horiz-adv-x="759" d="M57 1389.5q2 13.5 11.5 21.5t23.5 6q41 -4 336 0q70 2 199 4q49 2 65 2h19h4h2h4h2q2 0 4 -2q6 -2 10 -6q12 -10 13 -26q0 -10 -2 -21q-2 -16 -13 -43q-14 -39 -47 -106l-37 -70l-35 -68q-16 -31 -18 -32l-98 -191q-33 -63 -92.5 -196.5t-88 -222.5t-51 -203.5 t-16.5 -206.5q0 -12 -8 -22.5t-20.5 -10.5t-23 8t-10.5 21q-6 84 6.5 174t45 193.5t59.5 177t84 188.5l78 164q23 45 82 155q0 2 16 33l37 66q18 37 35 71q31 63 45 101q4 8 6 14q-16 0 -55 -2q-131 -2 -201 -4q-299 -4 -344 0q-12 2 -20.5 11t-6.5 22.5z" />
<glyph unicode="8" horiz-adv-x="854" d="M80 489q39 182 151 302q35 36 74 63q-74 31 -117 104.5t-47 157.5q-6 131 74 235.5t238 116.5q143 12 219 -90q66 -86 53 -217q-6 -82 -46 -157.5t-104 -118.5q125 -39 193 -148q84 -135 57 -319q-14 -115 -70.5 -213.5t-156.5 -161.5t-223 -55q-190 12 -269 174 q-66 137 -26 327zM141 475.5q-35 -168.5 21 -287.5q61 -129 217 -139q154 -10 259 101.5t127.5 275.5t-48.5 279q-78 127 -246 135h-2q-11 -2 -23 -2q-20 -4 -38 -4q-72 -20 -132 -84q-100 -106 -135 -274.5zM203 1120q6 -94 59 -158.5t137 -66.5q35 8 70 8q82 20 133 94 q53 74 62 168q10 109 -41 176q-55 74 -166 66q-129 -10 -194.5 -94t-59.5 -193z" />
<glyph unicode="9" horiz-adv-x="878" d="M53 1042q2 156 112.5 277t305.5 133q180 10 277 -109l4 -4q-2 25 22 33q12 2 23.5 -4t15.5 -18q10 -43 12 -92.5t0 -114t-2 -86.5q2 -129 2 -274.5t-1 -322.5t-1 -274q0 -20 -1 -53t-1 -55.5t4 -46.5q2 -12 -6 -22.5t-20.5 -12.5t-22.5 6t-12 21q-4 27 -4 53t1 61t1 49 q0 84 1 330t1 379q-51 -92 -138 -148.5t-202 -56.5q-4 0 -10 2q-170 0 -265.5 102.5t-95.5 247.5zM115 1042q0 -131 90 -217t258 -69h8q123 16 201 112q76 94 86 217q12 133 -58 220q-76 96 -225 86q-170 -10 -264 -113q-94 -104 -96 -236z" />
<glyph unicode=":" horiz-adv-x="161" d="M28.5 186.5q-0.5 30.5 30.5 30.5t31 -30.5t-30.5 -30.5t-31 30.5zM57 915.5q0 30.5 31 30.5t31 -30.5t-31 -30.5t-31 30.5z" />
<glyph unicode=";" horiz-adv-x="208" d="M-61.5 -144.5q-4.5 11.5 1 23.5t15.5 17q129 51 129 204q0 31 30.5 31t30.5 -31q0 -88 -42 -158.5t-123 -103.5q-12 -4 -24.5 1t-17 16.5zM116.5 862q-0.5 31 30.5 31t31 -31t-30.5 -31t-31 31z" />
<glyph unicode="&#x3c;" horiz-adv-x="825" d="M109 541q-6 37 36 61q8 4 25 10q14 6 18 9q297 160 529 319q27 18 44.5 -7.5t-7.5 -41.5q-238 -164 -537 -324q-6 -4 -22 -10l-13 -6q20 -12 60 -31q66 -33 198 -92l140 -61l135 -60l65 -28q29 -14 15.5 -42t-39.5 -16q-16 8 -70 31l-131 59l-141 62q-129 57 -199 92 q-43 20 -65 35q-14 6 -23 12l-8 8q-8 8 -10 21z" />
<glyph unicode="=" horiz-adv-x="542" d="M60 434q1 12 10.5 20.5t21.5 8.5q68 -6 193 0q135 4 196 2q12 0 20.5 -10.5t8.5 -22.5t-10.5 -20.5t-22.5 -8.5q-57 2 -190 -2q-129 -6 -199 0q-12 2 -20.5 11.5t-7.5 21.5zM68 551q0 12 10 20.5t22 8.5q72 -4 185 0q168 6 190 6q31 0 31 -31t-31 -31q-8 0 -186 -6 q-119 -4 -193 0q-12 0 -20 10.5t-8 22.5z" />
<glyph unicode="&#x3e;" horiz-adv-x="819" d="M112.5 942q14.5 27 41.5 12l67 -32l129 -62l139 -65l197 -97q43 -23 66 -36q12 -8 20 -15l8 -8q8 -10 11 -21q6 -39 -39 -61q-8 -4 -25 -10q-14 -4 -18 -6q-344 -172 -537 -305q-27 -18 -44.5 7.5t7.5 41.5q193 133 545 309q8 4 25 10q10 4 12 6q-20 12 -60 33 q-51 27 -194 96l-139 68l-131 61l-68 33q-27 14 -12.5 41z" />
<glyph unicode="?" horiz-adv-x="686" d="M123 1008q-14 147 6 200q33 80 116 122t177 40q96 -4 171 -53t89 -141q18 -119 -27 -196t-131 -136q-27 -18 -75 -45q-53 -33 -72 -45q-76 -49 -105 -97q-12 -18 -20 -39.5t-12 -48.5l-7 -45q-4 -18 -3 -51t1 -49t6.5 -55t7.5 -49.5t8 -54.5t9 -50q2 -10 -5 -20.5 t-20.5 -12.5t-23.5 5.5t-12 21.5q0 4 -8.5 51t-10.5 64l-8 59q-6 43 -5 64.5t1 61.5t6 65.5t16.5 57.5t26.5 56q37 57 123 117l74 43q53 31 71 43q78 53 113 115.5t21 160.5q-10 66 -65.5 104t-135.5 40q-78 2 -144.5 -32t-89.5 -91q-16 -41 -2 -176q2 -12 -6 -20.5 t-21.5 -10.5t-22.5 5.5t-11 21.5zM217 55.5q0 30.5 31 30.5t31 -30.5t-31 -30.5t-31 30.5z" />
<glyph unicode="@" horiz-adv-x="1439" d="M74 545q-6 174 39 340q43 166 133 291q98 137 245.5 206.5t335.5 53.5q82 -6 165 -47t130 -105q55 -74 84 -194q31 -121 23 -244q-8 -135 -68 -236q-57 -100 -170 -131q-76 -18 -141.5 22t-85.5 113v9q-6 -14 -10 -27q-39 -92 -88 -137q-66 -63 -140 -39q-98 29 -123 155 q-23 106 13 236q37 133 110 215q90 96 199 80q51 -8 83 -50t42 -91q2 -12 -5 -22.5t-20 -14.5v-13v-24q-2 -16 -4 -39q-4 -61 -6 -74q-4 -94 10 -147q12 -51 56.5 -78t93.5 -12q88 23 137 106q47 82 55 203q8 113 -18.5 223.5t-75.5 173.5q-39 51 -108 86q-72 35 -142 41 q-336 29 -528 -235q-84 -117 -125 -271t-35 -323q4 -145 90 -258q86 -115 226 -178q135 -61 284 -68q152 -4 281 55q109 49 223 185q106 127 123 221q2 14 12 21t23.5 5t20.5 -12t5 -22q-18 -113 -139 -254q-123 -143 -244 -201q-143 -63 -305 -59q-162 6 -309 73 q-154 72 -250 197q-96 127 -102 295zM463 588q18 -90 80 -111q41 -12 80 26t73 118q47 111 64 239q4 47 4 78v33q8 0 16 -2h4q-20 68 -67 75q-78 12 -143.5 -59.5t-98.5 -189.5q-31 -115 -12 -207z" />
<glyph unicode="A" horiz-adv-x="845" d="M80 14v238q0 51 5 213t15.5 248t33 213t56.5 233q37 125 95 201q73 96 159 97q26 0 52 -9q125 -37 202 -238q61 -154 97 -417q23 -176 41 -451l22 -333q0 -9 -6 -17q-8 -10 -20 -12q-3 -1 -6 -1q-9 1 -17 7q-10 8 -12 20q-2 14 -23 332q-12 184 -24 311q-52 0 -182 -6 q-112 -5 -199 -5h-28q-97 1 -183 13q-16 -190 -17 -637q0 -31 -30.5 -31t-30.5 31zM164 713q84 -11 176 -13q17 0 36 -1q80 -1 184 5q128 6 183 7q-6 39 -10 73q-35 256 -92 406q-66 172 -162 201q-16 5 -31 5q-60 0 -114 -73q-51 -68 -86 -180q-59 -194 -84 -430z" />
<glyph unicode="B" horiz-adv-x="819" d="M104 1386v5q0 11 6 19q8 10 21.5 11.5t23 -6.5t11.5 -20l2 -27q78 58 168 64q12 1 23 0q76 0 139 -37q86 -45 134 -137q38 -73 38 -159q0 -22 -2 -44q-16 -143 -176 -258l-52 -33q72 -6 135 -35q78 -37 130.5 -103.5t76.5 -148.5q18 -64 18 -123q0 -104 -55 -194 q-96 -160 -315 -172q-18 -1 -36 -1q-120 0 -199 48v-33q0 -31 -31 -31t-31 31q0 100 2 338t2 368t-8 324.5t-25 353.5zM176 1292q18 -244 23 -565q145 41 256 119q139 100 151 217q2 19 2 38q0 70 -30 128q-39 76 -109 112q-48 30 -108 30q-17 0 -35 -2q-82 -11 -150 -77z M195 113q76 -65 202 -65q14 0 29 1q186 10 266 141q46 77 46 165q0 50 -15 104q-43 152 -174 215q-64 30 -136 30q-99 0 -214 -55q0 -104 -2 -300.5t-2 -235.5z" />
<glyph unicode="C" horiz-adv-x="925" d="M88 328q-16 86 -16 185q0 139 32 305q54 284 164 458q78 121 150 156q46 24 91 24q55 0 109 -38q96 -66 103 -173q0 -12 -8 -22.5t-20.5 -10.5t-23 8.5t-10.5 20.5q-3 78 -73 125q-40 27 -80 27q-30 0 -60 -15q-57 -29 -124 -135q-106 -164 -158 -436q-30 -159 -29 -290 q0 -95 15 -177q31 -164 133 -238q90 -66 201 -66q15 0 30 1q127 10 225.5 94t118.5 211q2 12 12.5 20.5t22.5 6.5q13 -3 21 -13q7 -8 6 -17q0 -135 -140 -254q-116 -97 -260 -110q-18 -1 -36 -1q-132 0 -238 78q-120 89 -158 276z" />
<glyph unicode="D" horiz-adv-x="917" d="M88 1430q0 13 10 24q11 10 23 10q13 1 27 1q98 0 198 -39q114 -44 205.5 -119.5t164 -169t111.5 -187.5q51 -125 59 -270q1 -23 1 -46q0 -119 -33 -228q-29 -104 -102.5 -196.5t-171.5 -152.5q-104 -63 -215 -79q-28 -4 -58 -3q-84 0 -174 33q-29 10 -16 39l2 2 q0 106 3 337.5t3 363.5q1 132 -9 324zM154 1403q16 -158 24 -347.5t8 -320.5t-3 -356.5t-3 -325.5q63 -22 127 -22q118 0 240 75q90 53 156.5 137.5t93.5 174.5q29 100 29 209q0 23 -2 47q-8 135 -54 252q-74 180 -253 327.5t-363 149.5z" />
<glyph unicode="E" horiz-adv-x="765" d="M77 346q3 113 46 225q53 145 147 220q-61 27 -107 83t-59 119q-7 35 -7 69q0 84 40 162q56 112 154 179q93 65 185 65h13q115 -6 177 -110q16 -27 -10 -43.5t-42 10.5q-47 76 -129 82h-10q-72 0 -151 -55q-82 -58 -130 -154q-35 -70 -35 -141q0 -25 5 -51 q10 -53 54 -102.5t97 -61.5q14 -4 39 -6q29 8 60 8h10q14 2 16 2h2v-10h17h2q0 4 -2 10q16 0 26 -10q16 -10 17 -27q0 -23 -23 -31q-6 -4 -18 -4h-21h-12q-16 -1 -33 -1l-33 1q-55 -20 -103 -79.5t-81 -145.5q-37 -101 -39 -203v-11q0 -94 33 -155q49 -80 139 -116 q71 -29 151 -29q22 0 44 2q104 12 190 64.5t121 131.5q14 29 42 16q19 -9 19 -24q0 -7 -4 -16q-47 -98 -145 -159.5t-217 -72.5q-26 -3 -52 -3q-90 0 -174 33q-106 42 -165 140q-44 81 -44 186v13zM446 846q6 1 10 1t7 -1h-17z" />
<glyph unicode="F" horiz-adv-x="552" d="M72 1350q0 27 2 43q0 8 2 16q4 14 14 23q4 4 10 4l2 2h2h2h3h6h14h57q27 0 174 2q244 2 289 2q31 0 31 -31t-31 -31q-45 0 -289 -2q-147 -2 -174 -2h-51q-2 -10 -2 -24q0 -43 4 -115q2 -39 6 -78q2 -43 4.5 -75.5t2.5 -34.5q6 -94 8 -201q174 -10 467 -10q31 0 30.5 -31 t-30.5 -31q-291 0 -465 10q3 -5 3 -176q0 -85 -1 -211q-2 -379 -2 -385q0 -12 -9.5 -21t-21.5 -9t-21.5 9t-9.5 21q0 86 1 250t1 296t-2 249q-2 6 -2 12q0 4 2 6q-4 115 -10 217q0 2 -2 35t-4 76q-4 37 -6 80q-4 74 -4 115z" />
<glyph unicode="G" horiz-adv-x="1024" d="M80 426q-2 39 -2 79q0 194 41 392q49 238 166 403q72 102 133 130q34 15 69 15q66 0 134 -54q94 -74 100 -174q0 -12 -8 -22.5t-20.5 -10.5t-23 8t-10.5 20q-4 72 -77 131q-50 38 -96 38q-22 0 -44 -9q-45 -20 -108 -108q-109 -156 -156 -382q-39 -187 -39 -373 q0 -40 2 -79q6 -123 62.5 -224.5t140.5 -150.5q57 -33 116 -38q9 -1 17 -1q52 0 111 28q67 32 131 103q57 66 86 265q-125 -4 -223 -4q-31 0 -31 30.5t31 30.5q145 0 430 14q12 0 22 -8t10 -20.5t-8 -22.5t-20 -10l-148 -6q-35 -227 -104.5 -309t-150.5 -119 q-71 -33 -138 -33q-9 0 -17 1q-75 5 -145 46q-100 59 -163.5 174t-69.5 250z" />
<glyph unicode="H" horiz-adv-x="700" d="M57 1411q0 12 8.5 21.5t20.5 10.5t21.5 -7.5t11.5 -20.5q25 -281 28 -653q59 -4 139 -4q54 0 117 2q213 6 234 6q-4 375 -33 659q-2 12 6 21.5t22 11.5h5q9 0 17 -6q10 -8 12 -22q16 -164 24 -367t9 -330v-99q0 -113 -1 -284q-2 -256 -2 -344q0 -31 -30.5 -31t-30.5 31 q0 92 2 330q1 119 1 212t-1 159l-234 -7q-62 -2 -116 -2q-80 0 -140 4q0 -129 -1 -362.5t-1 -316.5q0 -31 -30.5 -31t-30.5 31q0 82 1 334.5t1 373.5t-7 318.5t-22 361.5z" />
<glyph unicode="I" horiz-adv-x="149" d="M72 1417q0 14 8 23.5t21.5 9.5t22.5 -8.5t9 -20.5q8 -209 8 -440t-3 -523t-3 -440q0 -31 -30 -31l-1 1q-30 0 -30 30q0 147 3 438.5t3 522.5t-8 438z" />
<glyph unicode="J" horiz-adv-x="624" d="M37 465q4 96 6 194q0 12 9 20.5t22.5 8.5t21.5 -9t8 -24q-2 -98 -5 -191v-23q0 -82 19 -169q21 -98 70 -163q58 -76 142 -76q15 0 30 2q105 16 150 121q52 119 52 479q0 60 -1 125q-6 303 -39 651q-2 12 6.5 21.5t21.5 11.5h5q10 0 17 -6q10 -9 12 -23q33 -352 39 -653 q1 -63 1 -120q0 -379 -57 -511q-39 -86 -117 -130q-54 -31 -114 -31q-24 0 -49 5q-88 16 -148 97q-57 76 -81 186q-22 95 -22 180q0 14 1 27z" />
<glyph unicode="K" horiz-adv-x="847" d="M78 1417q0 14 8 23.5t21.5 9.5t22.5 -8t9 -21q8 -203 8 -462v-105q111 117 205 248q133 190 156 311q2 12 13 19.5t23.5 5.5t19.5 -13.5t5 -23.5q-25 -133 -168 -334q-76 -106 -168 -211q10 0 19 1q250 0 426 -255q88 -129 135 -291t47 -309q0 -31 -30.5 -31t-30.5 31 q0 137 -45 293q-45 152 -127 272q-156 228 -372 228q-42 0 -87 -9l-6 -8q-6 -4 -15 -6q0 -88 -3 -350t-3 -404q0 -31 -30.5 -30.5t-30.5 30.5q0 147 3 438.5t3 522.5t-8 438z" />
<glyph unicode="L" horiz-adv-x="835" d="M78 1417q0 14 8 23.5t21.5 9.5t22.5 -8.5t9 -20.5q8 -205 8 -430t-3 -517t-3 -431q113 0 347.5 5t357.5 5q31 0 31 -30.5t-31 -30.5q-123 0 -366.5 -5t-366.5 -5q-25 0 -31 24q-2 6 -2 12q0 147 3 438.5t3 522.5t-8 438z" />
<glyph unicode="M" horiz-adv-x="1155" d="M78 1374q0 14 8 23.5t21.5 9.5t22.5 -8t9 -21q4 -80 6 -166l5 15q12 47 65 119q61 82 129 96q11 2 23 1q51 0 102 -36q82 -63 131 -201q45 117 119 189q69 67 140 67q13 0 26 -2q96 -18 162 -155q88 -188 100 -625q4 -40 3 -158q0 -78 -1 -192q-4 -284 -4 -299 q0 -31 -31 -31t-31 31q1 13 5 297q2 111 1 189q0 121 -4 161q-12 424 -96 602q-49 109 -115 119q-8 1 -15 1q-46 0 -97 -50q-53 -49 -90 -130t-41 -153q1 -12 1 -37.5t-1 -63.5q-2 -76 -2 -98q0 -59 5 -266t5 -319q0 -31 -30.5 -31t-30.5 31q0 113 -5.5 319.5t-5.5 265.5 q0 31 2 81t2 67q-2 2 -2 6q-2 23 0 47q-4 47 -16 90q-43 137 -121 199q-31 23 -62 23q-7 0 -14 -1q-45 -8 -92 -71.5t-57 -98.5l-21 -86q-10 -45 -20 -103t-16 -87q-2 -2 -3 -4q0 -158 -3 -463t-3 -449q0 -31 -30 -31l-1 1q-30 0 -30 30q0 143 3 425t3 506.5t-8 424.5z" />
<glyph unicode="N" horiz-adv-x="823" d="M78 1374q0 14 8 23.5t21.5 9.5t22.5 -8t9 -21q4 -94 6 -194q41 102 74 143q59 73 137 97q38 11 74 12q38 0 74 -13q72 -23 128 -80t85 -135q70 -190 80 -592q4 -150 4 -219q0 -80 -2 -209t-2 -182q0 -31 -31 -31t-31 31q0 53 2 182t2 209q0 70 -4 217q-10 391 -76 574 q-25 66 -70.5 113t-103.5 65q-32 10 -61 10q-87 0 -156 -86q-33 -39 -71 -143q-39 -98 -47 -156q-1 -4 -3 -6q1 -58 1 -133q0 -150 -3 -366q-4 -326 -4 -468q0 -31 -30.5 -30.5t-30.5 30.5q0 143 3 426t3 507.5t-8 422.5z" />
<glyph unicode="O" horiz-adv-x="940" d="M94 717q8 266 82 475q84 233 217 281q29 11 86 11q16 0 35 -1q25 -2 29 -27q188 -68 295 -301q95 -209 95 -468q0 -25 -1 -50q-10 -293 -135 -475q-121 -177 -308 -177q-36 0 -75 7q-168 29 -254 256q-66 178 -66 427v42zM156 717v-43q0 -236 61 -404q74 -195 209 -217 q33 -6 63 -6q156 0 256 150q115 168 125 442l2 52q0 243 -90 439q-106 231 -293 277q-12 4 -18 16q-31 0 -57 -8q-106 -37 -181 -244q-72 -201 -77 -454z" />
<glyph unicode="P" horiz-adv-x="622" d="M74 1401q0 14 8 23.5t21.5 9.5t22.5 -8.5t9 -20.5l2 -31q96 82 244 103q30 4 58 4q157 0 239 -129q59 -92 59 -212q0 -55 -12 -116q-18 -90 -64.5 -171t-116.5 -145q-72 -64 -176 -96q-76 -24 -162 -23q-32 0 -65 3q-4 -463 -4 -574q0 -31 -30 -31l-1 1q-30 0 -30 30 q0 147 3 434t3 515.5t-8 433.5zM139 1294q4 -189 5 -455q0 -89 -1 -186q32 -4 63 -3q73 0 139 20q93 28 156.5 84.5t106.5 128.5q41 72 58 153q11 55 11 103q0 103 -50 180q-64 100 -188 100q-24 0 -50 -4q-78 -10 -133 -35q-57 -27 -111 -82q-4 -2 -6 -4z" />
<glyph unicode="Q" horiz-adv-x="958" d="M94 717q8 266 82 475q84 233 217 281q29 11 86 11q16 0 35 -1q25 -2 29 -27q188 -68 295 -301q95 -209 95 -468q0 -25 -1 -50q-10 -295 -135 -475l-13 -17q100 -109 215 -170q18 -9 18 -24q0 -7 -5 -17q-10 -17 -24 -17q-8 0 -17 5q-122 63 -226 176q-111 -112 -259 -112 q-35 0 -72 6q-168 29 -254 256q-66 178 -66 427v42zM156 717v-43q0 -236 61 -404q74 -195 209 -217q32 -6 62 -6q125 0 217 96q-63 74 -148 203q-18 25 7.5 42.5t41.5 -9.5q80 -119 137 -186l2 4q115 166 125 442q1 25 1 50q0 244 -89 441q-106 231 -293 277q-12 4 -18 16 q-31 0 -57 -8q-106 -37 -181 -244q-72 -201 -77 -454z" />
<glyph unicode="R" horiz-adv-x="884" d="M74 1401q0 14 8 23.5t21.5 9.5t22.5 -8.5t9 -20.5v-8q96 72 246 88q30 3 58 4q161 0 243 -113q56 -77 56 -178q0 -51 -15 -108q-43 -162 -180 -265q59 -12 119 -55q162 -117 204 -352q12 -59 17.5 -127t8.5 -157t5 -124q0 -12 -8 -22.5t-20.5 -10.5t-22.5 8.5t-10 20.5 q-2 39 -5.5 127t-8.5 151.5t-15 121.5q-41 211 -182 315q-66 48 -145 48q-19 0 -38 -3h-4q-104 -45 -225 -45q-34 0 -70 4q0 -57 -3 -313t-3 -394q0 -31 -30.5 -30.5t-30.5 30.5q0 147 3 434t3 515.5t-8 433.5zM137 1321q6 -182 6 -415v-120q40 -4 76 -5q157 -1 269 79 q138 98 176 246q13 49 13 92q0 81 -46 141q-63 87 -194 87q-23 0 -48 -3q-152 -16 -246 -98q-2 -2 -6 -4z" />
<glyph unicode="S" horiz-adv-x="757" d="M68 326l-2 28q0 91 49 193q14 29 41.5 15.5t15.5 -40.5q-43 -89 -43 -168q0 -11 1 -22q7 -88 48 -152.5t107 -105.5q67 -42 139 -48q11 -1 23 0q61 0 119 28q70 34 112 108q50 82 50 175q0 87 -36 168q-37 83 -98 159q-57 72 -135 133q-12 8 -92 67q-57 43 -93 76 q-106 100 -112 217v20q0 110 62 180q68 77 167 89q20 3 40 3q77 0 147 -44q88 -55 118 -168q4 -12 -2 -23.5t-18 -14.5t-23.5 3.5t-13.5 18.5q-25 90 -93 133q-55 35 -116 35q-14 -1 -30 -3q-78 -10 -130 -70q-48 -55 -47 -141v-14q4 -94 92 -178q33 -29 88 -70 q82 -59 93 -67q80 -63 143 -144q66 -80 110 -173q42 -88 42 -187q-1 -6 -1 -12q-2 -106 -59 -201q-55 -90 -140 -131q-71 -34 -144 -34q-14 0 -28 1q-87 8 -165 55q-80 49 -129 125.5t-57 180.5z" />
<glyph unicode="T" horiz-adv-x="669" d="M30 1394.5q0 30.5 31 30.5h730q31 0 31 -30q0 -31 -31 -31h-336q8 -201 8 -427t-3 -506.5t-3 -428.5q0 -31 -31 -31t-31 31q0 147 3 428t3 506t-8 428h-332q-31 0 -31 30.5z" />
<glyph unicode="U" horiz-adv-x="757" d="M82 1073q0 55 4 127l4 123q2 49 2 80q0 12 9.5 21.5t21.5 9.5t21.5 -9.5t9.5 -21.5q0 -31 -2 -80l-5 -123q-4 -74 -6 -129q-3 -108 -3 -203q0 -143 7 -258q18 -262 76 -407q63 -168 178 -178q6 -1 12 -1q78 0 134 99q43 74 71 203q59 249 59 676q0 183 -11 399 q0 12 8 22.5t20.5 10.5t22.5 -8.5t10 -20.5q11 -223 12 -412q0 -428 -59 -680q-33 -137 -80 -221q-74 -130 -184 -130q-9 0 -19 1q-154 14 -231 217q-61 158 -78 428q-8 111 -8 251q0 99 4 214z" />
<glyph unicode="V" horiz-adv-x="768" d="M23 1378q-2 4 -2 8q0 6 4 14q6 12 17 15q4 2 9 2q7 0 13 -4q12 -6 16 -18q162 -518 258 -1002q37 -184 51 -243l8 -39l70 239q61 209 156 506q111 348 163 533q2 12 13.5 18t24.5 3q12 -2 18 -14q4 -7 4 -14q0 -5 -2 -10q-51 -184 -162 -531t-158 -507l-80 -285 q-6 -27 -10 -39v-6v-2q0 -2 -2 -2q0 -4 -2 -6q-8 -14 -26 -16h-3q-15 0 -24 14q-6 4 -10 12q-4 12 -13 33q-10 35 -24 98q-23 94 -54 246q-104 512 -253 997z" />
<glyph unicode="W" horiz-adv-x="1140" d="M100 760v54q0 361 25 575q2 12 12 20t22.5 6t20.5 -12.5t6 -22.5q-24 -202 -24 -543v-77q2 -449 49 -590q14 -43 50 -77t79 -46q22 -7 41 -7q60 0 94 69q29 59 44.5 131.5t19.5 113.5t5 143.5t3 133.5q-2 27 -4 43q-2 12 6 22.5t20 12.5h9h4q12 0 20 -10.5t8 -22.5 q-2 -20 -2 -45q0 -12 2 -56.5t4 -72.5q10 -139 29 -232q27 -123 76 -180q41 -49 102 -49q17 0 37 4q66 14 103 57q29 37 55 119q51 160 51 541v29q-2 240 -27 602q0 12 8.5 22t20.5 10t22.5 -8t10.5 -20q25 -362 26 -604v-52q0 -374 -55 -540q-31 -92 -65 -138 q-49 -61 -138 -79q-26 -5 -51 -5q-87 0 -147 70q-57 68 -86 201q-18 -90 -58 -170q-31 -66 -88 -88q-31 -12 -63 -13q-27 0 -55 9q-55 16 -102.5 60t-65.5 102q-51 152 -54 610z" />
<glyph unicode="X" horiz-adv-x="948" d="M76 8q135 272 418 776q-209 383 -351 621q-15 27 11 43q10 6 18 6q14 0 25 -16q137 -231 331 -590l318 584q9 18 24 18q8 0 16 -6q26 -14 13 -41l-336 -619l426 -776q5 -9 5 -16q0 -14 -16 -24q-9 -5 -18 -5q-14 0 -24 17l-410 741q-264 -477 -397 -741q-8 -18 -23 -18 q-8 0 -17 4q-18 9 -18 24q0 8 5 18z" />
<glyph unicode="Y" horiz-adv-x="706" d="M84 1421q-2 5 -2 11t3 12q5 12 17 16q6 2 11 2q7 0 13 -3q11 -5 15 -17l156 -434q59 -162 96 -254q23 -55 37 -84v-2q4 6 8 14q0 2 35 84l90 207l103 244q47 111 84 208q4 12 15 17.5t23.5 1.5t17.5 -16q3 -6 3 -12t-2 -11q-37 -100 -84 -211l-102 -244l-91 -209 q-35 -84 -36 -86q-14 -29 -27 -43q-2 -4 -4 -6q0 -98 -9.5 -301t-9.5 -307q0 -31 -30.5 -31t-30.5 31q0 104 9 306t9 296q-2 2 -6 4l-6 12q-6 10 -14 27q-12 29 -37 86q-41 100 -98 258z" />
<glyph unicode="Z" horiz-adv-x="833" d="M68 63q2 6 4 15q4 12 12 28q12 31 37 78l29 49l24 48q10 18 12 22l332 684q96 190 109 213q37 80 55 127q6 14 10 27h-53q-55 0 -188 -2q-140 -1 -215.5 -1t-85.5 1q-12 2 -20.5 12t-6.5 22.5t12.5 20.5t22.5 6q5 -1 39 -1q68 0 254 3h188h61h21q4 -2 6 -2h6q8 -4 15 -8 q10 -12 10 -31q0 -8 -2 -20q-4 -18 -17 -49q-18 -49 -57 -131q-12 -23 -111 -216l-331 -684q-2 -4 -13 -22l-24 -47l-27 -49q-25 -47 -37 -74l-4 -10q20 -4 53 -6q34 -1 84 -1t115 1q37 0 207 3t231 3q12 0 21.5 -9.5t9.5 -21.5t-9 -21.5t-22 -9.5q-61 0 -230 -3t-208 -3 q-44 -1 -81 -1q-74 0 -120 3q-43 2 -67 6q-14 2 -25 6q-20 8 -24 25q-3 7 -3 13q0 4 1 7z" />
<glyph unicode="[" horiz-adv-x="1050" d="M-18.5 1300q14.5 56 61.5 93q45 35 104.5 44t120.5 -14q103 -36 203 -151q16 53 57 112q59 92 144 158q94 76 178 84q106 10 168 -84q96 -150 -86 -379q-23 -27 -148 -168q-84 -94 -110 -137q-45 -78 -60 -143l-2 -6q-2 -4 -3 -13.5t-3 -17.5q-4 -18 -8 -29q0 -6 -2 -10 t-2 -6q-2 -4 -4 -6q-8 -12 -25 -13q-27 0 -41 23q-8 12 -10 33q-6 37 -8 37q-39 70 -127 145q-23 20 -54.5 40.5t-78.5 49.5l-74 43q-143 94 -180 189q-25 70 -10.5 126zM51 1186q29 -70 158 -150l65 -39q49 -27 84 -49t62 -45q92 -76 137 -147q18 63 64 139q27 43 116 141 q111 117 144 156q156 186 82 295q-39 59 -109 51q-66 -4 -143 -68q-76 -57 -131 -137q-53 -76 -58 -125q0 -4 -2 -8l8 -10q18 -25 -7.5 -41.5t-41.5 6.5q-115 154 -229 195q-96 33 -166 -21q-70 -51 -33 -143z" />
<glyph unicode="\" horiz-adv-x="751" d="M16 1374q-14 27 12.5 41.5t41.5 -12.5q106 -190 337.5 -647t370.5 -695q16 -27 -10.5 -43t-42.5 11q-139 240 -370.5 696.5t-338.5 648.5z" />
<glyph unicode="]" horiz-adv-x="1433" d="M57 477q-18 76 74 127q63 37 180 62q63 10 142 20q-82 29 -158 64q-121 57 -170 106q-35 33 -41 70q-6 41 27 78q53 51 147 26q72 -16 168 -76l47 -30q-33 47 -61 92q-61 102 -76 176q-18 104 59 141q70 37 140 -43q45 -53 92 -155q-2 119 22 186q37 100 123 92 q78 -6 98 -108q12 -72 0 -195q-4 -33 -10 -72q33 63 68 117q68 100 129 143q84 59 149 9q59 -51 19 -148q-27 -63 -107 -160q-39 -43 -86 -92q53 25 101 43q115 41 186 39q104 -4 125 -90q14 -76 -74 -129q-61 -35 -178 -61q-68 -14 -158 -27q100 -27 180 -64 q113 -45 166 -96q74 -74 33 -149q-35 -70 -137 -47q-70 16 -174 75l-29 17q27 -33 45 -68q66 -100 80 -174q20 -102 -53 -141q-70 -39 -139 39q-47 51 -101 164l-26 53q2 -25 4 -43q2 -104 -15 -176q-25 -92 -82 -125q-20 -14 -52 -13.5t-52 19.5q-49 43 -59 135 q-6 70 8 172l8 45l-25 -49q-49 -88 -102 -141q-66 -68 -131 -66q-29 0 -53.5 18.5t-32.5 43.5q-23 61 16 145q29 66 95 145q20 27 43 54q-43 -18 -82 -31q-113 -37 -187 -33q-102 4 -123 86zM88 487q10 -41 72 -45q63 -4 172 31q109 37 223 98l29 29q-6 18 -11 37 q-160 -12 -268 -35q-115 -23 -172 -53q-55 -31 -45 -62zM117 940q2 -16 24 -37q45 -45 160 -96q125 -55 266 -96q2 31 11 57l-41 31q-90 70 -158 110q-92 55 -156 72q-66 16 -94 -14q-14 -12 -12 -27zM332 115q2 -8 13 -15.5t20 -7.5q45 0 94 49q47 47 96 133q57 107 94 226 l-2 2q-16 14 -31 33l-24 -15l-33 -33q-74 -74 -121 -133q-63 -78 -90 -137q-31 -63 -16 -102zM379 1217q10 -63 72 -160q66 -109 163 -219q9 10 21 20q4 6 10 10l4 2q-4 29 -10 60q-35 104 -70 180q-47 106 -90 156q-43 47 -71 32q-39 -20 -29 -81zM678 76q8 -70 41 -96 q16 -14 37 -3q39 23 57 91q16 66 14 163q-3 115 -32 232q-33 -6 -62 -2l-12 -47q-25 -104 -35 -174q-14 -98 -8 -164zM682 1145q2 -92 18 -201l2 -6l13 -37q30 10 61 10l4 17q23 117 33 200q14 117 0 181q-12 61 -45 63q-43 4 -66 -53q-23 -61 -20 -174zM858 895 q25 -12 45 -33l43 41q84 82 141 146q76 88 103 147q25 57 -2 78q-33 27 -84 -8q-53 -39 -117 -131q-74 -111 -129 -240zM870 487l19 -49q47 -125 78 -188q49 -104 94 -152q41 -45 72 -30q37 20 24 79q-12 66 -74 160q-72 115 -170 215q-18 -20 -43 -35zM948 797q6 -10 8 -19 q8 -23 13 -45l28 4q117 14 199 31q113 25 170 57q53 33 45 68q-8 41 -70 43q-63 2 -172 -37q-104 -39 -221 -102zM950 575q111 -80 197 -129q100 -57 164 -71q61 -14 78 16q18 37 -25 80q-47 45 -152 90q-110 45 -243 76q-4 -33 -19 -62z" />
<glyph unicode="^" horiz-adv-x="497" d="M55 1061q12 25 66.5 142.5t87.5 178.5q20 41 35 62q8 10 14 16t14 8q18 6 33 -6l8 -8q0 -2 2 -6l7 -12l16 -39l49 -121q74 -180 92 -213q14 -27 -12.5 -41t-40.5 12q-18 33 -96 219l-49 119l-5 8l-14 -26l-86 -178l-63 -140q-14 -29 -42 -15.5t-16 40.5z" />
<glyph unicode="_" horiz-adv-x="819" d="M53 -206q0 13 9.5 21.5t23.5 8.5q72 -2 144.5 -3t158.5 3l139 4q53 2 159 7t144 7q14 0 23.5 -8t9.5 -21.5t-8 -22.5t-20 -9q-39 -2 -146.5 -7t-161 -7.5t-140.5 -5.5t-160.5 -2t-145.5 3q-12 0 -20.5 9.5t-8.5 22.5z" />
<glyph unicode="`" horiz-adv-x="262" d="M23 1501q-20 25 3.5 44.5t41.5 -3.5q129 -152 190 -239q18 -27 -7.5 -44.5t-41.5 7.5q-59 88 -186 235z" />
<glyph unicode="a" horiz-adv-x="753" d="M41 269q-3 35 -3 70q0 92 23 179q31 125 91 240q57 115 124 180q82 76 179 86q10 1 19 1q105 0 142 -103l9 -4l8 -15v-4v-6v-16q0 -25 -2 -64q0 -10 -2 -31.5t-2 -25.5q-2 -35 -4 -133q0 -86 -7 -140q-8 -66 -8 -129q0 -54 6 -104q8 -72 27 -115q18 -43 50 -52t66 -13 t55.5 -6.5t69.5 -3.5t66 -1q12 0 20.5 -9t8.5 -22.5t-9.5 -21.5t-23.5 -8q-12 0 -62.5 1t-73 3t-61 7t-71.5 16q-57 14 -90 84q-23 51 -35 131q-18 -72 -47 -123q-72 -125 -189 -129h-18q-114 0 -174 71q-70 80 -82 210zM104 276q12 -112 64 -176q46 -51 130 -51h13 q84 4 138 98q47 86 73 244q16 102 29 287q10 168 16 205q-6 6 -8 12q-21 67 -86 67h-13q-76 -8 -143 -69q-57 -57 -111 -163.5t-85 -225.5q-21 -84 -20 -165q0 -31 3 -63z" />
<glyph unicode="b" horiz-adv-x="819" d="M106 74q0 31 3 51q2 85 7 371q4 238 4 409v65q-1 188 -14 371q0 12 8.5 22.5t23 10.5t24.5 -8t10 -20q14 -203 14 -461q45 63 113 94q66 28 126 27q77 0 146 -45q104 -70 164 -224q55 -137 60 -291q1 -20 1 -39q0 -129 -48 -212q-8 -16 -19 -33l27 -33q27 -35 47 -49 q25 -16 78 -21q16 -2 53 -2q33 0 53 -2q15 -2 23 -11q7 -7 6 -18q0 -16 -12 -26q-10 -8 -25 -6q-14 2 -47 2q-39 0 -55 2q-72 4 -113 33q-29 18 -64 63l-14 19q-94 -86 -227 -113q-47 -9 -90 -9q-112 0 -195 62v-37q0 -31 -31 -31l-1 1q-32 0 -33 30v45q-2 6 -3 13zM172 238 q16 12 43 22q76 37 158 47q24 3 49 3q58 0 118 -16q85 -24 144 -81q2 4 6 10q39 70 39 196v25q-4 144 -55 271q-55 137 -142 194q-52 35 -113 35q-48 0 -100 -22q-51 -23 -80.5 -71t-52.5 -126q-2 -6 -6 -10q-2 -88 -5 -250t-3 -227zM174 135q44 -53 116 -71q41 -11 85 -11 q33 0 69 6q123 25 203 105q-72 74 -188 82q-20 2 -39 2q-94 0 -174 -41q-49 -25 -66 -51q-4 -8 -6 -21z" />
<glyph unicode="c" horiz-adv-x="536" d="M41 260q-4 41 -4 87q0 84 14 183q27 145 72 265q53 131 117 180q54 40 104 40h2q51 -1 92 -38q34 -33 50 -83q11 -36 11 -72q0 -14 -1 -27q-2 -12 -13.5 -20.5t-25 -6.5t-21.5 12.5t-6 22.5q2 15 2 29q0 62 -43 102q-21 20 -46 20q-30 0 -66 -28q-49 -37 -95 -152 q-45 -113 -65 -254q-15 -91 -14 -170q0 -44 4 -84q12 -117 57 -155q72 -63 227 -68q14 -1 29 -1q100 0 237 24q16 2 26.5 -5.5t12.5 -20.5v-6q0 -10 -5 -18q-7 -10 -19 -12q-143 -23 -246 -23q-19 0 -37 1q-180 4 -270 84q-63 55 -80 194z" />
<glyph unicode="d" horiz-adv-x="745" d="M78 473q14 197 78 346q76 178 188 185h8q96 0 195 -130q2 84 4 196t4 181.5t2 102.5q0 31 30 31l1 -1q30 0 30 -30q0 -43 -5 -245t-7 -327l2 -4q10 -17 -2 -33q-2 -39 -2 -75q0 -297 2 -367q10 -12 4 -27l-2 -10q4 -80 10.5 -133t14.5 -70q4 -6 33 -10q33 -6 90 -6 q35 0 98.5 4t75.5 4q14 0 22.5 -9t8.5 -22.5t-9.5 -21.5t-21.5 -8q-6 0 -71.5 -4t-102.5 -4q-61 0 -101 6q-57 10 -75 43q-14 25 -23 90q-2 14 -2 29q-72 -109 -164 -150q-42 -19 -82 -19q-38 0 -73 17q-76 37 -123 150q-38 96 -38 237q0 40 3 84zM140 470q-3 -42 -3 -81 q0 -131 33 -213q37 -92 92 -119q23 -11 48 -11q27 0 57 13q53 25 103 83t77 134q-4 100 -4 394q0 47 2 96q-107 176 -193 176h-4q-76 -4 -137 -147q-59 -137 -71 -325z" />
<glyph unicode="e" horiz-adv-x="479" d="M53 539q6 168 45 292q45 141 129 177q31 13 58 13q33 0 59 -20q37 -27 53 -90q13 -55 13 -169v-17q-8 -436 -174 -676q16 -6 40 -8q28 -4 68 -3q27 0 59 1q143 6 224 24q12 2 22 -5q9 -7 13 -19q1 -4 2 -7q0 -8 -6 -16q-8 -10 -19 -14q-84 -18 -233 -25q-31 -1 -57 -1 q-47 0 -81 4q-74 8 -98 36q-61 66 -92 220q-25 127 -25 265v38zM115 539q-1 -21 0 -42q0 -134 22 -249q20 -101 53 -158q150 223 158 635v33q0 95 -10 139q-12 41 -30 55q-9 7 -21 7q-15 0 -35 -9q-57 -25 -96 -139q-35 -113 -41 -272z" />
<glyph unicode="f" horiz-adv-x="530" d="M116 47q9 8 23 6q10 -2 25 -4q-25 231 -25 425v28q4 215 39 340q49 168 156 178q7 1 14 1q83 0 115 -108q12 -39 22 -149q2 -23 2 -51q0 -58 -8 -140q-12 -119 -41 -239q-33 -141 -78 -225q-16 -31 -32 -54q30 1 67.5 1t83.5 -1q178 -2 223 -2q12 0 21.5 -8t9.5 -21.5 t-8 -22.5t-23 -9q-45 0 -225 2q-61 1 -104 1t-66 -1q82 -61 121 -148q27 -62 27 -125q0 -23 -4 -47q-10 -55 -48 -77q-21 -13 -47 -13t-57 13q-68 29 -94 145q-6 33 -15 86q-8 66 -8 70q-6 35 -12 86q-35 8 -39 8q-12 2 -21 11q-6 7 -6 18q0 16 12 26zM201 502v-44 q0 -183 22 -401h4q4 0 15 -4q33 25 63 84q43 80 74 211q27 115 39 232q8 79 8 132q0 27 -2 48q-10 102 -21 135q-19 63 -55 63h-6q-68 -6 -104 -133q-33 -119 -37 -323zM236 -37q4 -33 8 -57q0 -4 8 -70q6 -49 14 -82q18 -84 58 -100q19 -8 32 -8q9 0 15 4q14 6 18 35 q3 19 3 39q0 49 -21 98q-31 72 -101 123l-14 6z" />
<glyph unicode="g" horiz-adv-x="634" d="M33 469q8 213 61 322l35 69q12 23 42 60.5t60 58.5q47 26 96 26q13 0 26 -1q63 -9 110 -52v17q0 31 30.5 30.5t30.5 -30.5v-123q4 -20 2 -41q0 -4 -2 -10q0 -72 -1 -321t-1 -384l2 -35q43 4 105 4h102h84q12 0 21.5 -8t9.5 -21.5t-8.5 -22.5t-22.5 -9h-82h-104 q-59 0 -101 -4q2 -70 2 -121q0 -8 1 -39t1 -59.5t-2 -53.5q-16 -117 -106 -129q-13 -2 -25 -2q-71 0 -106 60q-24 39 -24 97q0 21 3 44q16 113 84 191q-35 -9 -70 -9h-7q-66 6 -121.5 49.5t-87.5 116.5q-39 92 -39 256q0 36 2 74zM94 467q-2 -39 -2 -74q0 -149 35 -229 q51 -121 156 -129q7 -1 14 -1q97 0 160 103l4 4q0 125 1 359.5t1 339.5q-14 61 -77 91q-30 14 -58 14q-33 0 -64 -19q-51 -31 -112 -160q-49 -98 -58 -299zM334 -217q-2 -19 -2 -36q0 -42 14 -66q15 -28 52 -28q8 0 18 1q43 6 53 76q2 20 2 45.5t-1 54.5t-1 43q0 50 -2 111 q-8 -2 -14 -4q-39 -14 -74 -72t-45 -125z" />
<glyph unicode="h" horiz-adv-x="765" d="M137 225q0 51 4 193.5t4 195.5q-4 8 -2 19l4 12v86q0 68 -2 210q-1 95 -1 175v77q1 110 6 210q0 12 9 20.5t22.5 8.5t21.5 -9.5t8 -23.5q-4 -68 -3 -271q0 -135 1 -331q59 102 135 155q63 45 123 44q22 0 43 -5q88 -25 147 -151q45 -100 52 -324v-32q0 -86 -7 -296 q0 -10 -1 -29.5t-1 -27.5t1 -21.5t3.5 -23.5t8.5 -23q9 -22 60 -22h13q20 2 68 8q43 4 61 4q12 0 20.5 -10t8.5 -22.5t-10 -20.5t-22.5 -8t-49.5 -4q-51 -6 -71 -8h-12q-95 0 -124 59q-8 20 -12 43.5t-4 34v41.5l2 30q6 206 6 291v35q-4 211 -47 301q-45 100 -108 117 q-13 3 -26 3q-41 0 -87 -32q-57 -41 -104.5 -115.5t-65.5 -148.5q-2 -63 -5 -203t-4 -202v-50q0 -59 1 -153q0 -12 -8.5 -21.5t-21.5 -9.5t-22.5 8t-9.5 23q-2 143 -2 194z" />
<glyph unicode="i" horiz-adv-x="268" d="M86 217q-1 31 -1 71q0 80 5 195q2 59 6 140q4 96 6 141t2 103.5t-4 88.5q-2 12 6.5 22.5t20.5 12.5t22.5 -6t12.5 -20q4 -33 4 -94.5t-2 -108.5l-6 -144q-4 -100 -6 -137q-5 -146 -5 -234v-28q4 -119 25 -151q2 -6 31 -13q31 -4 82 -6q29 0 92 2q28 1 45 1t24 -1 q12 -2 20 -11q7 -7 7 -18q0 -16 -11 -26q-9 -8 -22.5 -6t-60.5 0q-66 -2 -94 -2q-57 2 -95 8q-55 10 -71 39q-27 47 -33 182zM112 1154q0 30 31 30t31 -31t-30 -31q-32 0 -32 32z" />
<glyph unicode="j" horiz-adv-x="417" d="M70 14.5q0 12.5 8 22.5t20 10q16 2 54 0q35 0 53 2q51 4 76 27q2 0 2 2q2 10 4 26q4 33 6 95q3 69 3 170q0 50 -1 108q0 31 -6 293q-1 74 -1 119t1 63q0 12 10 20.5t22.5 8.5t20.5 -10.5t8 -22.5q-1 -16 -1 -60t1 -118q6 -262 6 -293q1 -57 1 -108q0 -100 -3 -172 q-2 -68 -6 -101v-2v-2q0 -16 2 -35q27 2 59.5 2t95 -2t83.5 -2q12 0 21 -8t9 -21.5t-8 -22.5t-22 -9q-18 0 -82 2t-96 2q-31 0 -56 -2q6 -76 8 -117q0 -8 3.5 -42t3.5 -53.5t-2 -55.5q-10 -119 -103 -136q-15 -2 -29 -2q-65 0 -100 54q-27 42 -27 108q0 14 1 29q4 74 34 145 q14 35 35 62q-12 -2 -26 -2q-35 2 -50 0q-12 0 -22 8t-10 20.5zM170 -223q-1 -11 -1 -21q0 -51 17 -80q16 -24 49 -24q10 0 21 2q43 6 49 78q2 35 2 51t-3 48t-3 44q-2 41 -6 115q-29 -6 -41 -15q-31 -16 -55 -73q-25 -61 -29 -125zM293 1147q0 31 31 31t31 -30 q0 -32 -31 -32t-31 31z" />
<glyph unicode="k" horiz-adv-x="673" d="M133 1395q0 12 8.5 22t20.5 10t22.5 -8t10.5 -20q12 -208 12 -522q0 -139 -2 -299q12 6 31 12l10 6q53 29 100 70q74 63 125 155q53 92 53 174q0 31 31 31t31 -31q0 -98 -59.5 -201.5t-139.5 -172.5l-4 -5q111 -4 172 -73q51 -57 70 -172q4 -33 10 -95q6 -68 10 -88 q12 -90 43 -118q14 -16 64 -17q12 -2 49 0q31 0 47 -2q12 -2 20 -11q7 -7 7 -17q-1 -3 -1 -5q-2 -14 -11 -22q-7 -6 -18 -6h-5q-10 2 -39 2q-37 -2 -51 0q-74 2 -107 33q-45 45 -59 155q-4 25 -11 90q-4 59 -10 90q-16 98 -55 144q-46 51 -140 51h-14q-31 -2 -78 -14 q-8 -4 -14 -6q-14 -8 -51 -33l-8 -6q-6 -326 -6 -473q0 -31 -31 -31t-31 31q0 147 5 430.5t5 511t-12 430.5z" />
<glyph unicode="l" horiz-adv-x="602" d="M100 55q139 0 191 35q-84 90 -117 252q-12 68 -17 149.5t-6 176t-4 133.5q-2 34 -2 69q0 121 21 267q16 119 45 190q39 98 102 111q6 1 11 1q46 0 77 -59q23 -43 39 -120q25 -109 31 -226q11 -202 11 -349q0 -74 -3 -134q-14 -326 -100 -455q39 -27 90 -43q25 -6 100 -6 h41q23 0 160 6q14 0 23.5 -8t9.5 -21.5t-8.5 -22.5t-20.5 -9q-139 -6 -162 -6h-33q-94 0 -126 10q-66 18 -115 53q-33 -27 -80 -40t-75.5 -14t-82.5 -1q-31 0 -31 30q0 31 31 31zM209 805q2 -45 3 -138.5t6 -170t18 -142.5q26 -141 96 -217q72 117 86 418q3 59 3 132 q0 145 -11 343q-6 111 -29 217q-16 68 -35 105q-6 12 -11 18t-7 6h-2q-31 -4 -58 -71q-27 -66 -41 -177q-20 -138 -20 -251q0 -37 2 -72z" />
<glyph unicode="m" horiz-adv-x="972" d="M156 45v965q0 31 31 31l1 -1q32 0 31 -30v-84l4 6q37 52 91 74q37 16 73 15q16 0 33 -3q94 -16 143 -105q0 4 2 9q27 60 83 88q36 17 73 18q22 0 44 -6q60 -16 97 -72q41 -61 53 -215q8 -98 9 -289q0 -236 2 -264q4 -57 10 -88l10 -31q6 -4 29 -6q20 -2 57 0q106 2 115 2 q13 -2 21 -11q7 -7 6 -17v-5q-2 -14 -11.5 -22t-23.5 -6q-2 0 -105 -2q-14 -1 -25 -1q-24 0 -40 3q-37 2 -56 16q-29 16 -39 66q-8 37 -12 98q-2 31 -2 268q0 190 -8 285q-10 137 -43 187t-87 50q-6 0 -12 -1q-62 -6 -87 -70q-18 -43 -25 -180q0 -18 -1 -54t-1 -53 q0 -6 -2 -12l-6 -133q-2 -45 -2 -412q0 -31 -32 -30.5t-32 30.5q0 365 2 416q6 152 11 242v6v18q0 73 -15 117q-30 92 -110 106q-12 2 -25 3q-64 0 -113 -66q-14 -18 -22 -39.5t-13.5 -51.5t-7.5 -46.5t-4 -57.5t-2 -53q0 -6 -4 -12v-590q0 -31 -31.5 -31t-31.5 31z" />
<glyph unicode="n" horiz-adv-x="759" d="M152 35q33 115 43 475q2 82 2 153t-2 132l-21 133q17 23 37 23q16 0 35 -15q59 59 147 76q26 4 51 5q44 -1 86 -15q66 -22 105 -81t39 -212q0 -59 -15 -285q-7 -106 -8 -177q0 -47 4 -79q6 -51 21 -78q12 -23 26 -29q26 -6 82 -6h29q113 2 126 2t21.5 -10t8.5 -22.5 t-10.5 -20.5t-24.5 -8q-8 0 -119 -2h-24q-70 0 -105 10q-45 10 -70 59q-16 37 -22 99q-5 38 -5 97q0 70 7 169q12 221 12 281q0 135 -30 180q-25 41 -72 57q-27 9 -56 9q-20 0 -42 -5q-53 -10 -94.5 -39.5t-57.5 -70.5q0 -20 2 -43q3 -62 3 -134t-3 -155q-12 -367 -47 -490 q-2 -12 -13.5 -18t-24.5 -3t-19 15q-4 6 -4 13q0 5 2 10z" />
<glyph unicode="o" horiz-adv-x="710" d="M23 348q-5 48 -5 95q0 121 30 242q40 169 130 267q25 37 62 54q4 2 6 2l4 2q10 2 18 6h4q30 7 58 7q107 0 182 -101q88 -115 109 -320q6 -58 5 -113q0 -135 -34 -253q-25 -78 -60 -136q12 -8 25 -12q83 -37 253 -37q38 0 79 2q14 0 23.5 -8t9.5 -21.5t-8.5 -22.5 t-20.5 -9q-46 -2 -88 -2q-176 0 -270 41q-20 8 -41 20q-35 -39 -76 -57q-64 -29 -120 -29q-92 0 -163 78q-92 102 -112 305zM86 356q16 -184 94 -272q49 -56 116 -56q43 0 93 23q28 12 53 37q-61 53 -123 139q-90 129 -131 254q-47 147 -49 287v6q-58 -146 -59 -314 q1 -51 6 -104zM207 760q2 -127 45 -264q37 -115 121 -236q51 -76 108 -125q31 51 49 119q30 110 30 233q0 51 -5 105q-14 184 -90 287q-55 74 -132 74q-27 0 -57 -9l-2 -4q-20 -14 -41 -35q-26 -43 -26 -127v-18z" />
<glyph unicode="p" horiz-adv-x="735" d="M139 -338q0 147 3 418.5t3 494t-6 420.5q0 12 8.5 21.5t21.5 9.5t22.5 -8t9.5 -23q0 -23 2 -45q45 45 98 62q25 7 49 7q46 0 92 -24q125 -63 201 -262q53 -142 53 -277q0 -54 -8 -106q-23 -152 -110 -244q35 -47 92 -55q47 -4 68.5 -4t74.5 5t76 5q14 0 23.5 -8 t9.5 -21.5t-8.5 -22.5t-20.5 -9q-16 0 -72.5 -5t-82 -5t-76.5 4q-80 12 -134 78q-18 -14 -39 -25q-74 -41 -186 -43h-10h-4h-86q-2 -203 -2 -338q0 -31 -31 -31t-31 31zM205 860q3 -147 3 -340q0 -97 -1 -205q52 63 123 63q27 0 57 -9q55 -16 92 -76q14 -23 49 -105l13 -26 q66 78 82 198q8 48 8 98q0 124 -49 255q-68 176 -170 229q-31 16 -60 16q-18 0 -35 -6q-53 -16 -104 -84zM221 211q-6 -23 -6 -44q0 -29 11 -53q20 -42 65 -51h11q96 0 157 33q19 11 35 23q-10 18 -21 45q-35 80 -45 96q-25 41 -57 51q-19 6 -37 6q-32 0 -58 -19 q-40 -30 -55 -87z" />
<glyph unicode="q" horiz-adv-x="585" d="M-4 393v34q0 128 26 255q31 143 82 211q43 55 102 84q48 23 98 23q12 0 24 -1q86 -8 137 -77l2 51q0 14 9 22.5t22.5 8.5t21.5 -9.5t8 -21.5q-27 -786 -32 -899q0 -4 -2 -11q18 -1 41 -1t51 1q72 1 116 1t60 -1q12 0 20.5 -10t8.5 -22.5t-10.5 -20.5t-22.5 -8 q-16 1 -59 1t-113 -1q-20 -1 -37 -1t-31 1q121 -66 162 -153q24 -51 24 -99q0 -34 -12 -67q-33 -84 -108 -101q-14 -3 -28 -3q-65 0 -110 73q-18 31 -22 98q-3 33 -3 78q0 23 1 49q2 41 4 105q-10 12 -4 28h-8q-25 -14 -52 -20q-27 -7 -66 -7q-26 0 -58 3q-119 14 -183 141 q-53 106 -59 266zM57 397q6 -152 52 -243q49 -96 137 -107q29 -4 52 -4q29 0 48 6q39 10 82 49l4 4q0 6 4 15q10 195 25 682q-15 6 -19 22q-25 109 -120 117q-7 1 -14 1q-38 0 -76 -19q-46 -21 -78 -64q-43 -57 -72 -190q-25 -118 -25 -236v-33zM483 -125q-1 -24 -1 -45 q0 -43 3 -76q4 -53 15 -69q24 -43 58 -43q6 0 13 2q43 8 63 61q9 21 9 44q0 36 -20 77q-32 68 -136 123q-4 -41 -4 -74z" />
<glyph unicode="r" horiz-adv-x="727" d="M147 84q23 45 40.5 99.5t25.5 96.5t11 110t4 102v45.5v68.5q-1 80 -1 105q0 162 -6 200q0 4 -6 13q0 2 -4 10l-6 12q-8 18 -8 33q2 27 30 39q8 3 16 3q4 0 9 -1l8 -4l10 -4q6 -6 19 -15q18 -12 51 -36l53 -41q20 -16 25 -19q12 -6 25.5 -9t33 -6t33.5 -7q39 -8 57 -25 q27 -23 31 -61q1 -16 1 -41q0 -50 -5 -136q-10 -164 -12 -225q0 -129 14 -207q18 -90 61 -116q29 -18 109 -23q30 -2 62.5 -2t68.5 2q13 0 25 -8q13 -9 13 -23q1 -11 -9 -20q-10 -10 -23 -10q-39 -2 -75 -2t-68 2q-98 6 -146 34q-63 41 -88 156q-15 67 -15 170q0 23 1 47 q0 63 10 230q6 78 6 124q0 27 -2 43q-2 14 -8 19.5t-24 9.5q-2 0 -27 4t-46.5 10.5t-39.5 14.5q-6 6 -35 28l-53 39l-2 2q8 -41 8 -204q0 -25 1 -104v-68.5v-46.5q-1 -36 -5 -107.5t-13.5 -116.5t-26.5 -103.5t-42 -105.5q-16 -29 -48 -15q-22 9 -22 25q0 7 4 15z" />
<glyph unicode="s" horiz-adv-x="722" d="M29 76q137 430 241 700q16 41 45 142l19 61l4 20l2 7l2 2q0 2 2 4q0 2 2 4q8 10 23 12q6 0 12 -2t10 -4l2 -4q2 -2 4 -5t4 -7l11 -21q8 -18 22 -55l45 -109q109 -268 135 -344q39 -119 52 -201q6 -43 6 -77q0 -53 -15 -86q-8 -16 -20 -31q86 -25 260 -29q14 0 22.5 -9 t8.5 -22.5t-9.5 -21.5t-21.5 -8q-80 2 -112.5 4t-90 11t-114.5 30q-14 -8 -29 -14q-72 -33 -158 -43q-28 -2 -54 -2q-58 0 -103 12q-84 25 -103 90q-7 21 -7 43q0 36 19 72q36 69 109 69h6q53 0 131 -43q35 -18 121 -76q41 -27 61 -39q20 16 27 31q11 25 11 66q0 28 -5 63 q-12 76 -51 193q-27 76 -133 338l-43 108l-2 4l-2 -10q-31 -100 -47 -143q-113 -295 -242 -701q-4 -10 -15.5 -16t-22.5 -2q-11 3 -17 15q-4 7 -4 14q0 5 2 10zM190 96q10 -31 62 -47q37 -11 84 -10q23 0 49 2q70 8 127 31l-33 22q-84 55 -119 74q-63 35 -102 36h-2 q-38 0 -57 -38q-12 -23 -12 -47q0 -11 3 -23z" />
<glyph unicode="t" horiz-adv-x="409" d="M-78 1102h158q12 233 12 295q0 31 28 31h1q29 0 29 -31q0 -61 -11 -295h166q29 0 29 -31t-29 -31h-168q-10 -199 -14 -342q-4 -123 -4 -218.5t4 -164.5q6 -84 14 -138t23 -73q41 -57 182 -65q25 -2 53 -1q75 0 170 11q12 2 21 -6q10 -9 12 -21v-4q0 -10 -6 -18 q-8 -10 -19 -12q-106 -12 -187 -12q-25 0 -48 1q-168 10 -225 91q-20 29 -33 98q-8 57 -14 145q-4 70 -4 167.5t4 221.5q4 141 12 340h-156q-29 0 -29 30q0 32 29 32z" />
<glyph unicode="u" horiz-adv-x="722" d="M86 539q29 266 82 434q4 12 16.5 18t23.5 2t17 -15t2 -22q-53 -168 -80 -424q-12 -115 -12 -203q0 -133 27 -204q35 -94 133 -95q21 0 45 5q61 12 115.5 48t79.5 79q2 4 4 6q-4 23 -7 47q-10 93 -10 235v48q0 90 3 190t8.5 186.5t5.5 99.5t10 21.5t23.5 8.5t21.5 -9.5 t8 -23t-5 -99.5t-8 -186t-3 -188v-55q0 -134 8 -220q6 -59 16 -96q10 -33 19 -39q37 -29 102 -31q27 0 66 2q57 4 63 4q14 0 23.5 -8t9.5 -21.5t-8 -22.5t-21 -9q-6 0 -63 -4q-27 -3 -49 -3q-11 0 -21 1q-90 2 -139 43q-20 16 -33 51q-82 -92 -207 -115q-28 -6 -55 -6 q-51 1 -95 21q-68 30 -98 114q-30 78 -30 223q0 93 12 212z" />
<glyph unicode="v" horiz-adv-x="722" d="M25 618q0 63 3 183.5t3 173.5q0 31 32.5 31t32.5 -31q0 -53 -3 -173t-3 -184q2 -193 39 -348q27 -109 68 -164q38 -57 89 -57h7q45 4 82 78q37 70 59 195q31 154 35 366q2 125 4 146q2 57 6 92q2 20 4 32q2 8 4 15q6 14 21 20q12 4 24 2q8 0 17 -2q16 -4 43 -12 q39 -14 106 -43l70 -29l63 -30q27 -10 37 -15q12 -4 18 -16q3 -7 3 -14q0 -6 -2 -10q-4 -12 -17.5 -16.5t-25.5 -0.5q-8 4 -34 14t-69 29q-37 18 -71 31q-66 29 -103 41q-12 6 -22 8q0 -4 -2 -10q-2 -33 -4 -89q-2 -23 -4 -143q-4 -215 -37 -377q-23 -135 -64 -211 q-53 -106 -137 -112h-12q-84 0 -144 82q-47 68 -75 186q-39 164 -41 362z" />
<glyph unicode="w" horiz-adv-x="1077" d="M56 25q0 11 8 19q10 9 22 11q74 6 92 35v6q2 10 4 27q6 37 8 98q6 98 13 285q7 241 7 361q0 80 -3 106q-2 16 8 25q11 10 25 12h5q11 0 19 -6q10 -8 12 -21q4 -31 4 -119q0 -124 -8 -360q-8 -184 -12 -277v-4q2 -33 1 -52t1 -38.5t12 -36.5q31 -56 94 -57q15 0 33 4 q43 6 76 31.5t45 62.5q45 115 49 389v152v143q0 78 4 129q0 12 11.5 21.5t26 9.5t23.5 -11.5t9 -23.5q-6 -51 -6 -127v-143v-150q-2 -119 -8 -202v-7q0 -150 16 -192q29 -82 131 -90h9q57 0 98 47q20 27 30 108q10 78 11 191q0 31 -8 350l-3 49q-2 51 -4 84q0 51 2 80 q2 18 5 29q6 27 28 35l19 2h4l2 -2h2l2 -2l4 -2l20 -9l60 -26l92 -41q130 -33 130 -69v-1q0 -16 -29 -16q-40 0 -134 30q-4 2 -90 41l-49 21q-2 -27 -2 -68q2 -35 4 -84t2 -51q12 -317 12 -350q0 -121 -14 -197q-10 -100 -41 -141q-57 -73 -148 -73q-9 0 -18 1 q-150 10 -192 129q-20 -47 -67.5 -78.5t-98.5 -41.5q-23 -4 -44 -4q-89 0 -143 69q-39 -45 -137 -53q-14 0 -24 9q-12 10 -12 24z" />
<glyph unicode="x" horiz-adv-x="888" d="M43 31.5q0 13.5 9 21.5t22 8h26q40 1 63 5q30 6 58 30q76 66 191 307l-23 46q-47 92 -125 268q-78 172 -108 229q-14 27 12.5 41t38.5 -12q29 -49 110 -232q80 -176 125 -266l4 -6l23 51q119 262 190 486q5 12 15 17q6 3 12 3q4 0 10 -2q12 -4 17.5 -15.5t1.5 -23.5 q-72 -219 -193 -491l-43 -93q141 -252 277 -327q55 -31 143 -34q20 -1 40 -1q64 0 118 8q12 0 22.5 -8t10.5 -20.5t-8.5 -22.5t-20.5 -10q-4 0 -36 -2t-43 -3t-40 -2q-14 0 -25.5 -0.5t-19.5 0.5q-16 1 -43 4t-44 7t-39.5 12t-41.5 19q-141 78 -280 315q-111 -221 -187 -287 q-31 -27 -65.5 -38t-58.5 -13q-12 -1 -28 -1t-36 1q-14 0 -22.5 9t-8.5 22.5z" />
<glyph unicode="y" horiz-adv-x="651" d="M43 489v22q0 226 39 476q2 12 10 20.5t21.5 6.5t21.5 -12.5t6 -22.5q-39 -246 -39 -468v-22q4 -166 29 -272q31 -119 84 -149q47 -25 137 -25q43 0 146 10l-2 27v4v2q0 150 1 450t1 449q0 31 30.5 31t30.5 -31q0 -150 -1 -449.5t-1 -449.5v-2l2 -35q31 5 79 5q16 0 34 -1 q78 -2 124.5 -2t61.5 2q12 2 24 -6q13 -10 13 -25q0 -10 -6 -18q-8 -10 -23 -12q-18 -2 -67 -2t-129 2h-33q-47 0 -76 -4q2 -68 2 -121q0 -8 1 -39t1 -59.5t-2 -53.5q-14 -117 -104 -129q-13 -2 -25 -2q-71 0 -106 60q-26 39 -26 98q0 21 3 43q20 121 90 199q-23 -2 -43 -2 q-104 0 -168 32q-78 43 -110 189q-29 113 -31 286zM371 -223q-2 -19 -2 -36q0 -42 14 -67q13 -28 47 -28q9 0 19 2q39 6 49 76q2 20 2 45.5t-1 54.5t-1 43q0 49 -2 110q-8 -2 -13 -4q-37 -14 -69.5 -71.5t-42.5 -124.5z" />
<glyph unicode="z" horiz-adv-x="671" d="M-72 -158q-12 26 -12 50q0 32 21 59q27 39 94 63q102 35 313 45q29 1 61 1q64 0 142 -3q4 18 6 37q5 38 5 73q0 65 -16 119q-26 86 -79 128q-49 42 -113 42q-85 0 -196 -75h-2q-2 -4 -5.5 -5t-5.5 -1q-4 -2 -10 -2q-23 2 -29 24q-4 12 4 23q0 2 3 4l2 2q2 2 4 2v2l10 6 l25 19q49 39 81 71q78 82 123 183q36 78 36 137q0 31 -9 57q-16 49 -55 58q-12 3 -26 3q-32 0 -73 -16q-55 -20 -106 -60t-70 -73q-16 -27 -43.5 -12.5t-11.5 41.5q25 45 84 92t125 70q54 20 99 20q20 0 38 -4q72 -18 96 -96q14 -38 13 -82q0 -74 -39 -164 q-41 -88 -111 -168q26 4 51 4q87 0 154 -55q68 -55 96 -155q20 -68 20 -146q0 -36 -4 -74q-2 -14 -6 -35q37 -2 78 -4q27 0 112 -4t105 -4q12 0 22.5 -8t10.5 -20.5t-8 -23t-21 -10.5q-25 0 -110.5 4.5t-112.5 4.5q-51 4 -94 4q-49 -129 -166 -201q-39 -25 -110.5 -41 t-143.5 -16q-195 0 -246 110zM-18 -82q-7 -9 -7 -20.5t7 -26.5q33 -70 188 -70q63 0 127.5 14.5t97.5 32.5q90 50 135 144q-69 3 -130 3q-30 0 -58 -1q-201 -6 -295 -37q-49 -16 -65 -39z" />
<glyph unicode="{" horiz-adv-x="409" d="M4 680q-2 25 23 43q8 4 11 6t5 4q47 43 67.5 65.5t38 58.5t19.5 81q2 27 -12 145q-12 119 -6 185q8 109 61 159q66 66 192 48q12 -2 20.5 -12.5t6.5 -23t-12.5 -20.5t-22.5 -6q-98 14 -141 -29q-37 -37 -43 -120q-6 -61 6 -174q14 -129 12 -156q-2 -55 -26.5 -103.5 t-46 -72t-72.5 -70.5l-4 -4q31 -10 45 -22q49 -51 57 -127q6 -51 -24 -127q-31 -80 -35 -105q-23 -152 53 -248q76 -98 223 -80q12 2 22.5 -6t12.5 -20t-6 -22.5t-20 -12.5q-182 -23 -281 104q-90 117 -66 293q4 29 39 119q25 63 21 96q-6 57 -41 90q-2 2 -29 13 q-43 16 -47 51z" />
<glyph unicode="|" horiz-adv-x="1730" d="M23 659q6 70 96 138q162 123 407 49q176 -53 330 -182q156 131 340 182q250 70 420 -49q94 -66 100 -138q6 -66 -22.5 -107.5t-83.5 -82.5q-152 -109 -396 -41q-154 43 -344 160q-8 -2 -16 -2h-12q-190 -115 -332 -156q-223 -61 -383 37q-115 72 -104 192zM84 655 q-8 -84 76 -135q137 -86 334 -31q129 38 303 142q-135 111 -289 155q-215 66 -352 -38q-68 -51 -72 -93zM913 633q174 -104 318 -146q217 -61 342 31q47 35 66.5 63.5t15.5 73.5q-4 43 -76 93q-145 100 -367 38q-158 -44 -299 -153z" />
<glyph unicode="}" horiz-adv-x="409" d="M-4 1442q-2 12 6 22.5t21 12.5q184 23 282 -105q86 -113 66 -293q-4 -31 -39 -118q-25 -61 -21 -97q6 -57 41 -90q2 -2 29 -12q43 -16 47 -51q0 -8 -4 -19q-2 -2 -4 -6q-4 -4 -8 -10q-8 -6 -21 -17q-6 -6 -13 -11t-11 -9l-2 -2q-96 -104 -103 -186q-2 -33 10 -86 q18 -74 21 -97q16 -143 -41 -245q-72 -129 -221 -107q-12 2 -20.5 12.5t-6.5 22.5t12.5 20t22.5 6q106 -16 160 76q47 84 32 207q-2 18 -18 90q-14 63 -12 105q6 104 118 223l33 29q-31 10 -45 22q-49 51 -57 127q-6 51 24 127q33 78 35 104q18 154 -53 248q-76 98 -225 80 q-12 -2 -22.5 6.5t-12.5 20.5z" />
<glyph unicode="~" d="M29 1161q33 90 125 133q45 20 82 15q31 -6 57 -35q10 -14 31 -51q18 -29 30 -43q51 -55 123 -27q61 27 121 98q20 23 44 3.5t5 -44.5q-70 -82 -147 -112q-111 -45 -191 41q-16 18 -37 53q-20 33 -26 41q-12 12 -23 14q-16 4 -45 -10q-68 -31 -92 -96q-4 -12 -15.5 -17.5 t-23.5 -1.5t-17 15.5t-1 23.5z" />
<glyph unicode="&#xa0;" />
<glyph unicode="&#xa1;" horiz-adv-x="342" d="M229 1210q-2 12 6.5 22.5t20.5 12.5t22.5 -6t12.5 -20q6 -45 8 -97.5t2 -116t2 -92.5q4 -137 5 -280.5t0 -347t-1 -279.5q0 -31 -30.5 -31t-30.5 31q0 76 1 278.5t0 346t-5 278.5q-2 35 -2 97.5t-2 110.5t-9 93zM233 1388.5q0 30.5 31 30.5t31 -30.5t-31 -30.5t-31 30.5z " />
<glyph unicode="&#xa2;" horiz-adv-x="522" d="M72 328q-20 260 84 426q45 70 104 97.5t119 8.5q57 -16 97 -69.5t48 -128.5q2 -12 -6 -22.5t-20.5 -12.5t-22.5 6t-12 20q-6 59 -35 98.5t-66 49.5q-86 27 -153 -80q-94 -150 -76 -389q8 -98 53 -147.5t103 -47.5q61 2 115.5 56.5t74.5 156.5q4 12 14.5 19.5t22.5 4.5 t19.5 -13.5t5.5 -22.5q-27 -121 -95.5 -190.5t-154.5 -71.5t-147.5 65.5t-71.5 186.5zM281 936q0 80 2 135q0 12 9 20.5t22.5 8.5t21.5 -9.5t8 -23.5q-2 -51 -2 -131q0 -31 -30.5 -31t-30.5 31zM289 -137q14 55 8 155q0 12 8 22.5t20.5 10.5t22.5 -8t10 -20q6 -111 -12 -177 q-2 -12 -13 -18t-23.5 -3t-18.5 14t-2 24z" />
<glyph unicode="&#xa3;" horiz-adv-x="1024" d="M-39 690q0 12 10.5 20.5t22.5 8.5q100 -6 233 -6l33 184q4 18 12.5 78.5t18.5 117t24 103.5q66 205 224 215q80 4 132 -21.5t113 -82.5q23 -20 2.5 -43t-43.5 -2q-57 53 -96 71q-43 20 -104 17q-117 -6 -168 -172q-14 -47 -23 -97q-10 -53 -18 -112.5t-12 -83.5l-31 -170 q33 0 93 1t110.5 2t95.5 1q12 0 21.5 -9.5t9.5 -21.5t-9.5 -21.5t-21.5 -9.5q-61 0 -177 -2t-134 -2q-20 -127 -35 -225q-25 -164 -45 -291q-2 -6 -2 -10q68 16 137 0q223 -55 354 -45q203 16 252 174q4 12 15.5 18.5t22.5 2t17 -15.5t2 -21q-61 -199 -303 -220 q-141 -10 -377 46q-70 18 -124 -5q-2 -2 -5 -4l-2 -4q-8 -10 -16 -14q-12 -6 -25 -4q-12 4 -20 14q-20 27 -2 68l14 28q27 160 45 291q14 94 35 217q-129 -2 -227 4q-12 0 -20.5 10.5t-8.5 22.5z" />
<glyph unicode="&#xa4;" horiz-adv-x="958" d="M55 322l152 139q-78 74 -95.5 166t11.5 175t92 154l-2 2q-59 78 -127 144q-20 23 1.5 44t43.5 1q66 -68 127 -146q63 59 139 93t162 33t156 -50q27 37 127 144q20 23 42.5 2t2.5 -43q-100 -106 -127 -142q129 -117 139 -266q8 -156 -104 -283q-8 -10 -19 -20 q86 -53 164 -152q18 -25 -6.5 -43t-42.5 7q-78 98 -164 147q-66 -51 -143.5 -72.5t-164.5 -6t-165 72.5q-125 -115 -154 -146q-23 -20 -44 1.5t-1 44.5zM171 646q13 -79 77 -140q82 -78 178 -95.5t178 16.5t146 103q96 109 88 238q-10 147 -158 256q-4 2 -6 6 q-92 53 -197.5 26.5t-193.5 -116.5q-63 -66 -94 -140.5t-18 -153.5z" />
<glyph unicode="&#xa5;" horiz-adv-x="858" d="M113 1421q-4 12 1 23.5t17 15.5t23.5 -1t15.5 -17l156 -434q59 -162 96 -254q23 -55 37 -84v-2q4 6 8 14q0 2 35 84l90 207l102 244q47 111 84 208q4 12 15.5 17.5t23.5 1.5t17.5 -15.5t1.5 -23.5q-37 -100 -84 -211l-103 -244l-90 -209q-35 -84 -37 -86q-8 -20 -16 -32 q53 4 168 10q12 0 22.5 -8.5t10.5 -20.5t-8.5 -22.5t-20.5 -10.5q-127 -6 -186 -10q-2 -59 -5 -133q94 8 191 8q31 0 31 -30.5t-31 -30.5q-98 0 -193 -8q-12 -270 -12 -369q0 -31 -30.5 -31t-30.5 31q0 100 10 362q-80 -8 -166 -24q-12 -2 -23.5 5t-13.5 19.5t5 23.5t20 13 q98 16 182 25q2 76 4 133q-90 -8 -166 -23q-12 -2 -23.5 5.5t-13.5 19.5t5.5 23.5t19.5 13.5q76 12 166 22q-6 10 -15 27q-12 29 -36 86q-41 100 -99 258z" />
<glyph unicode="&#xa6;" horiz-adv-x="278" d="M199 61q2 23 5 78.5t5 85t2 73.5t-4 81q0 12 7 21.5t20.5 10.5t22.5 -6.5t11 -21.5q4 -39 4 -85t-2 -77t-5 -87t-5 -77q0 -12 -10 -20t-22.5 -8t-20.5 10t-8 22zM199 657q10 80 10 301q0 31 30.5 31t30.5 -31q0 -225 -10 -309q-2 -12 -12 -20t-22.5 -6t-20.5 12t-6 22z " />
<glyph unicode="&#xa7;" d="M90 246q0 31 31 30.5t31 -30.5q0 -100 46 -145.5t111 -39.5q66 4 121 53.5t66 125.5q8 53 -1.5 96t-35 78t-50 58.5t-67.5 53.5q-4 4 -14 13q-20 14 -29.5 22t-28 22.5t-29 24.5t-23.5 26.5t-21.5 31t-16.5 33t-10 37t-2 41t4 44.5q10 45 25 68q12 16 28 31 q-20 18 -37 38q-68 84 -41 248q8 49 43 99.5t80 80.5q45 37 107.5 36t111.5 -52q35 -35 54.5 -86t22.5 -78.5t9 -93.5q2 -12 -6 -21.5t-21 -11.5t-22.5 6.5t-11.5 22.5q-6 61 -9 88t-18.5 65.5t-42.5 67.5q-59 61 -139 6q-37 -25 -63.5 -64.5t-32.5 -76.5q-23 -135 29 -199 q23 -27 53.5 -50t73.5 -52l69 -45q61 -45 95 -101.5t30 -142.5q-2 -57 -33 -92q-16 -18 -39 -31q88 -106 70 -250q-14 -98 -85 -161.5t-159 -69.5q-94 -6 -158.5 57.5t-64.5 188.5zM228 773.5q-1 -17.5 4.5 -34t10.5 -29t17 -27.5t20.5 -24.5t26.5 -23.5l29 -25 q12 -10 35 -26q6 -6 10 -9q37 -29 57 -47q29 8 41 23q16 20 19 57q4 66 -21.5 109t-79.5 82q-16 12 -57 39l-64 41q-20 -12 -28 -23q-8 -12 -15 -47q-4 -18 -5 -35.5z" />
<glyph unicode="&#xa8;" horiz-adv-x="323" d="M71.5 1312.5q-0.5 30.5 30.5 30.5t31 -30.5t-30.5 -30.5t-31 30.5zM237.5 1317q-0.5 31 30.5 31t31 -31t-30.5 -31t-31 31z" />
<glyph unicode="&#xa9;" horiz-adv-x="921" d="M94 717q8 266 82 475q84 233 217 281q37 14 121 10q25 -2 29 -27q188 -68 295 -301q104 -229 94 -518q-10 -293 -135 -475q-145 -211 -383 -170q-168 29 -254 256q-72 193 -66 469zM156 717q-6 -264 61 -447q74 -195 209 -217q199 -35 319 144q115 168 125.5 442 t-88.5 491q-106 231 -293 277q-12 4 -18 16q-31 0 -57 -8q-106 -37 -181 -244q-72 -201 -77 -454zM297 549q-18 326 76 479q33 51 81 66.5t93 -2.5q43 -18 73.5 -59.5t36.5 -92.5q2 -14 -6 -23.5t-21.5 -11.5t-22.5 6.5t-11 20.5q-4 37 -24.5 63.5t-47.5 38.5 q-59 23 -98 -39q-86 -137 -68 -442q6 -98 44 -156.5t83 -64.5q39 -4 78 46t49 171q2 12 11.5 20.5t21.5 7t20.5 -10.5t8.5 -21q-12 -135 -65.5 -209t-131.5 -64q-74 8 -124 86t-56 191z" />
<glyph unicode="&#xaa;" d="M45 979q0 127 57 256q61 135 154 188q111 66 219 -18q14 -10 12 -29q8 -27 0 -65q0 -6 -6 -29q-4 -14 -4 -20q-20 -147 10 -271q39 -150 142 -196q29 -14 15.5 -42t-40.5 -16q-131 61 -176 238q-2 10 -4 22q-20 -70 -45 -123q-45 -90 -98 -122q-76 -43 -154 18 q-82 66 -82 209zM106.5 978.5q-0.5 -114.5 57.5 -159.5q47 -37 84 -14q39 23 74 96q59 121 77 273q2 18 7.5 58t7.5 60q2 6 2 25q2 29 2 35q0 10 2 18q-68 39 -133 0q-76 -43 -129 -162q-51 -115 -51.5 -229.5z" />
<glyph unicode="&#xab;" horiz-adv-x="819" d="M8 498.5v9.5l2 2q2 2 4 6l2 2q0 2 4 4l9 10l32 33l107 109q162 170 209 254q14 27 40.5 12.5t12.5 -41.5q-51 -92 -217 -268l-107 -109l-26 -26l39 -39l123 -115q166 -152 211 -182q25 -16 7 -42t-44 -7q-45 33 -215 186l-123 115l-43 43q-20 20 -25 30q-2 8 -2 13.5z M395 535l4 14l2 4q2 0 5 4l10 10l33 39l104 113l106 119q53 59 56 61q18 25 42.5 6.5t6.5 -43.5q-8 -10 -59 -67l-107 -117l-102 -113l-33 -37l-2 -2l2 -4l33 -39q39 -45 108 -112q127 -121 201 -183q25 -20 5.5 -43.5t-42.5 -5.5q-78 63 -207 189q-66 66 -110 114 q-25 27 -37 45q-18 29 -19 48z" />
<glyph unicode="&#xac;" horiz-adv-x="819" d="M115 638q0 13 9 21.5t23 8.5q25 -2 297 30q121 14 174 19q37 4 60 4h20q6 0 11 -2q12 -2 18 -12q8 -10 12 -29q2 -12 4 -33q2 -29 2 -80q0 -131 3 -141q2 -12 -6.5 -22.5t-20.5 -12.5t-22.5 6t-12.5 21q-2 14 -2 147q0 51 -2 78q-2 10 -2 18q-20 0 -55 -4 q-51 -4 -172 -18q-272 -33 -310 -31q-12 0 -20 9.5t-8 22.5z" />
<glyph unicode="&#xad;" d="M56 630.5q1 12.5 10.5 20.5t21.5 8q84 -6 229 7q172 16 236 16q31 0 31 -30.5t-31 -30.5q-59 0 -231 -17q-150 -12 -238 -6q-12 2 -20.5 11t-7.5 21.5z" />
<glyph unicode="&#xae;" horiz-adv-x="921" d="M94 717q8 266 82 475q84 233 217 281q37 14 121 10q25 -2 29 -27q188 -68 295 -301q104 -229 94 -518q-10 -293 -135 -475q-145 -211 -383 -170q-168 29 -254 256q-72 193 -66 469zM156 717q-6 -264 61 -447q74 -195 209 -217q199 -35 319 144q115 168 125.5 442 t-88.5 491q-106 231 -293 277q-12 4 -18 16q-31 0 -57 -8q-106 -37 -181 -244q-72 -201 -77 -454zM352 401q0 20 6 256q4 154 -4 254v2q0 14 11 23v2q113 94 204 68q43 -12 70 -46t33 -79q12 -84 -41 -156q33 -12 53 -41q27 -39 31 -109q2 -39 -4 -112q-6 -76 -6 -88 q0 -31 -31 -31t-31 31q0 14 6 94q6 66 4 102q-4 53 -21.5 78t-53.5 25h-5q-63 -41 -153 -47q-6 -178 -6 -226q0 -31 -31 -30.5t-31 30.5zM418 899q6 -88 2 -211q106 8 153.5 64.5t36.5 119.5q-8 59 -57 74q-55 16 -135 -47z" />
<glyph unicode="&#xaf;" horiz-adv-x="765" d="M47 1343.5q2 12.5 12.5 20.5t22.5 6q233 -29 633 23q12 2 22.5 -6.5t12.5 -20.5t-6.5 -22.5t-20.5 -12.5q-408 -51 -649 -22q-12 2 -20.5 12t-6.5 22.5z" />
<glyph unicode="&#xb0;" horiz-adv-x="409" d="M61 1102q23 115 84 209q70 106 154 131q12 4 23.5 -2t13.5 -19q2 -2 2 -6q74 -27 102 -104q31 -82 9 -195q-23 -106 -78 -188q-61 -92 -135 -105q-119 -18 -164 78q-35 78 -11 201zM122 1088.5q-22 -103.5 7 -160.5q25 -55 98 -43q45 6 92 78q49 72 68 165q20 96 -4 160 q-25 68 -94 76q-4 0 -8 2q-43 -29 -82 -88q-55 -86 -77 -189.5z" />
<glyph unicode="&#xb1;" horiz-adv-x="819" d="M99 746.5q-3 13.5 3.5 23.5t18.5 14q123 29 248 43q-10 117 -19 185q-2 12 6.5 22t20.5 12.5t22.5 -6t12.5 -20.5q8 -70 18 -186q98 8 205 8q31 0 31 -31t-31 -31q-104 0 -201 -8l6 -70q18 -188 45 -311v-4q178 18 351 19q31 0 30.5 -31t-30.5 -31q-313 0 -666 -68 q-12 -2 -23.5 5.5t-13.5 19.5t5 23.5t20 13.5q137 27 266 41q-27 123 -43 317l-6 70q-121 -14 -238 -43q-14 -2 -24.5 4t-13.5 19.5z" />
<glyph unicode="&#xb2;" horiz-adv-x="692" d="M123 694q0 6 4 13.5t12 17.5q10 14 37 43q80 88 103 117q25 29 77 86l76 80q88 100 117 172q27 70 -4 116q-16 25 -56 25q-43 -2 -106 -31q-109 -49 -190 -123q-23 -20 -43.5 2.5t2.5 42.5q88 80 206 134q74 35 129 36q74 2 111 -53q47 -72 8 -170q-33 -84 -129 -192 l-74 -80q-53 -55 -75 -86l-84 -92q76 16 178 10q25 -2 66.5 -6t61 -5t49.5 4t58.5 19t42 -13.5t-13.5 -39.5q-35 -18 -74 -25.5t-63.5 -6.5t-68.5 6t-62 5q-129 8 -215 -24q-2 -2 -5 -4t-8 -6q-29 -18 -53 -4q-18 10 -14 32z" />
<glyph unicode="&#xb3;" horiz-adv-x="729" d="M108.5 659q14.5 27 41.5 13q92 -49 181 -50t151.5 30.5t105.5 86.5q63 80 55 158q-10 80 -98 111q-39 12 -107 0q-104 -18 -127 -19h-8q-12 4 -18 15q-14 18 0 36q4 4 8 7.5t14 7.5l12 4q4 2 7 2l20 10q12 6 15.5 8t10.5 6.5t11 8.5t11 9t18 13q61 53 90 90q41 55 30 94 q-8 37 -38 41q-35 4 -93 -20q-51 -25 -102 -62.5t-72 -64.5q-20 -25 -43.5 -5.5t-5.5 42.5q27 33 82 76q57 43 117 69q72 33 125 27q72 -10 92 -86q16 -70 -43 -148q-33 -41 -96 -96q63 8 110 -8q125 -43 137 -160q14 -104 -65 -205q-53 -66 -128 -103.5t-179 -35.5 q-102 0 -209 57q-27 14 -12.5 41z" />
<glyph unicode="&#xb4;" horiz-adv-x="268" d="M70 1280q57 72 129 217q12 27 39.5 13.5t13.5 -42.5q-74 -152 -133 -225q-20 -25 -44 -5.5t-5 42.5z" />
<glyph unicode="&#xb5;" horiz-adv-x="661" d="M25 -145q49 186 45 346q-14 129 6 338q25 264 80 434q4 12 15 18t22.5 2t17.5 -15t2 -22q-51 -168 -78 -424q-12 -131 -10 -231q2 -4 2 -8q4 -43 4 -88q6 -47 19 -80q41 -115 174 -90q59 12 112 48t78 79q2 4 4 6q-4 23 -6 47q-12 109 -10 283q0 90 3 190t8 186.5t5 99.5 t9.5 21.5t22.5 8.5t21.5 -9.5t8.5 -23t-5.5 -99.5t-8.5 -186t-3 -188q-2 -172 8 -275q6 -59 17 -96q10 -33 18 -39q35 -29 101 -31q25 0 63 2q55 4 61 4q14 0 23.5 -8t9.5 -21.5t-8 -22.5t-20 -9q-6 0 -62 -4q-41 -4 -67 -2q-88 2 -138 43q-20 16 -32 51q-80 -92 -201 -115 q-139 -27 -211 68q-12 -94 -39 -205q-4 -12 -15.5 -18t-23.5 -3t-18 14t-4 24z" />
<glyph unicode="&#xb6;" horiz-adv-x="819" d="M63 969q-29 123 42 222t198 161q117 53 241 62t220 -34q8 6 16 6q12 0 22.5 -8t10.5 -20q16 -297 21 -662q8 -8 8 -18q0 -12 -8 -23q4 -233 4 -643q0 -31 -31 -30.5t-31 30.5q0 403 -2 631q-47 -2 -92 -2q2 -231 2 -635q0 -31 -30.5 -31t-30.5 31q0 408 -2 639 q-133 8 -240 39q-266 78 -318 285zM125 985q41 -174 274 -244q96 -27 219 -34q-6 352 -20 641v6q-135 4 -268 -60q-113 -53 -171.5 -134t-33.5 -175zM659 1350q14 -291 21 -648q45 0 92 3q-4 336 -18 612l-9 4q-37 20 -86 29z" />
<glyph unicode="&#xb7;" horiz-adv-x="305" d="M200.5 794.5q-0.5 30.5 30.5 30.5t31 -30.5t-30.5 -30.5t-31 30.5z" />
<glyph unicode="&#xb8;" horiz-adv-x="409" d="M155.5 -174q-18.5 24 6.5 43q137 102 151 217q2 12 12.5 20.5t22.5 6.5t20.5 -12.5t6.5 -22.5q-18 -139 -176 -258q-25 -18 -43.5 6z" />
<glyph unicode="&#xb9;" horiz-adv-x="555" d="M152.5 1230q-13.5 27 13.5 40q80 41 172 143q14 16 35 8q22 -6 24 -26q10 -78 14.5 -176.5t5.5 -147.5t0 -186t-1 -156q59 4 116 4q31 0 31 -30.5t-31 -30.5q-150 0 -303 -29q-12 -2 -23 5t-13.5 19.5t5 23.5t19.5 14q74 12 137 18q0 37 1 146.5t1 163.5t-3 140.5 t-11 155.5q-72 -76 -147 -112q-29 -14 -42.5 13z" />
<glyph unicode="&#xba;" horiz-adv-x="671" d="M141 1040q6 143 66 260q70 129 176 158q17 2 29 -8q137 -12 206 -119q66 -102 50 -258q-16 -143 -90 -254q-84 -125 -197 -133q-127 -10 -193 107q-55 98 -47 247zM203 1036q-8 -131 39 -213q45 -82 135 -75q82 6 149 106q66 98 80 225q14 133 -41 219q-59 93 -188 93 q-68 -29 -115 -119q-53 -104 -59 -236z" />
<glyph unicode="&#xbb;" horiz-adv-x="765" d="M60 897.5q19 23.5 42 5.5q45 -35 181 -164q70 -66 102 -100l35 -39q6 -8 10 -16q8 -12 8 -25q-2 -18 -16 -43q-10 -20 -31 -45q-33 -39 -92 -98l-170 -164q-23 -20 -44.5 1t-0.5 44l172 162q57 57 88 94q16 23 25 37q4 6 6 10l-2 4q-10 12 -31 35q-37 39 -102 98 q-125 119 -174 160q-25 20 -6 43.5zM379 225q10 14 41 45l74 74l75 80q70 74 105 117q23 27 35 43q2 6 4 10l-25 24l-94 91l-197 188q-20 23 1 44t44 1l193 -188l96 -90l29 -31l10 -8q2 -2 3 -4.5t3 -4.5q0 -2 2 -4q4 -8 2 -18q-4 -16 -20 -43q-14 -20 -39 -49 q-37 -47 -107 -121l-75 -78l-74 -74q-29 -31 -41 -45q-18 -23 -42 -3t-3 44z" />
<glyph unicode="&#xbc;" horiz-adv-x="1159" d="M135 90l707 1063q16 25 41.5 7.5t7.5 -44.5l-703 -1059q-18 -27 -43.5 -9.5t-9.5 42.5zM279 633q20 152 20 473q0 31 30.5 31t30.5 -31q0 -326 -20 -481q-2 -12 -12.5 -20.5t-22.5 -6.5t-20.5 12.5t-5.5 22.5zM573 362q-6 35 31 66q6 4 14.5 10t12.5 10.5t6 8.5l51 59 q35 41 51 62l43 57q27 35 45.5 66.5t32.5 64.5q12 29 41 16q4 -2 8 -6q15 -6 17 -22q10 -94 22 -344l2 -39h176q31 0 31 -31t-31 -31h-174q8 -137 23 -237q2 -12 -6 -22.5t-20.5 -12.5t-23 6t-12.5 20q-14 102 -22 248q-23 0 -43 2q-8 0 -56.5 2t-78.5 4q-51 2 -78 7 q-18 2 -29 6q-8 2 -14 4q-16 10 -19 26zM651 385q23 -2 64 -4q33 -2 81 -4t56 -2q19 -2 37 -2l-2 35q-8 182 -15 249q-18 -31 -45 -65l-45 -57l-51 -64q-33 -39 -45 -55q-10 -10 -35 -31z" />
<glyph unicode="&#xbd;" horiz-adv-x="1024" d="M135 90l707 1063q16 25 41.5 7.5t7.5 -44.5l-703 -1059q-18 -27 -43.5 -9.5t-9.5 42.5zM279 633q20 152 20 473q0 31 30.5 31t30.5 -31q0 -326 -20 -481q-2 -12 -12.5 -20.5t-22.5 -6.5t-20.5 12.5t-5.5 22.5zM592 100q2 23 22 54q20 33 91 114q51 55 77.5 88t56 80 t35.5 82q10 41 -6 60q-16 14 -51 12q-39 -4 -81 -29.5t-64 -64.5q-14 -27 -41 -13t-13 41q31 53 85.5 88t109.5 39q63 4 98 -30q39 -41 25 -115q-10 -43 -45 -100.5t-60 -88.5l-79 -90q-68 -78 -86 -106q-10 -16 -13 -27q33 14 45 15q104 6 291 6q31 0 31 -31t-31 -31 q-186 0 -287 -6q-2 0 -28 -10q-39 -16 -64 6q-25 20 -18 57z" />
<glyph unicode="&#xbe;" horiz-adv-x="1357" d="M221 573q-20 23 2.5 43.5t42.5 -2.5q27 -29 78 -35t108.5 13.5t100.5 56.5t55 76q8 33 -22 76q-33 43 -68 47q-29 4 -41 0q-8 -2 -18 -6q-29 -18 -60 -31q-2 0 -4 -1t-4 -1q-6 -2 -14 0q-14 4 -21 18q-6 12 0 25q2 6 9 10l4 4l12 6q16 8 27 15q20 8 24 10q51 35 73.5 77 t14.5 66q-6 25 -43 21q-66 -8 -170 -92q-23 -18 -42.5 5.5t5.5 43.5q117 94 199 102q43 6 72.5 -11t38.5 -52q20 -70 -45 -150q57 -10 100 -71q49 -68 31 -127q-16 -59 -70.5 -104.5t-122.5 -69.5q-61 -25 -135 -17t-117 55zM344 90l707 1063q16 25 41.5 7.5t7.5 -44.5 l-703 -1059q-18 -27 -43.5 -9.5t-9.5 42.5zM782 362q-6 35 31 66q6 4 14.5 10t12.5 10.5t6 8.5l51 59q35 41 51 62l43 57q27 35 45.5 66.5t32.5 64.5q12 29 41 16q4 -2 8 -6q15 -6 17 -22q10 -94 22 -344l2 -39h176q31 0 31 -31t-31 -31h-174q8 -137 23 -237 q2 -12 -6.5 -22.5t-20.5 -12.5t-22.5 6t-12.5 20q-14 102 -22 248q-23 0 -43 2q-8 0 -56.5 2t-78.5 4q-51 2 -78 7q-18 2 -29 6q-8 2 -14 4q-16 10 -19 26zM860 385q23 -2 64 -4q33 -2 81 -4t56 -2q19 -2 37 -2l-2 35q-8 182 -15 249q-18 -31 -45 -65l-45 -57l-51 -64 q-33 -39 -45 -55q-10 -10 -35 -31z" />
<glyph unicode="&#xbf;" horiz-adv-x="677" d="M174 274q-27 115 12 196t125 144q25 20 72 52q49 35 70 49q72 53 96 100q20 43 27.5 94.5t-3 123t-17.5 103t-30 115.5q-2 12 4.5 22.5t19.5 13.5t23.5 -3t14.5 -18q2 -8 6 -27l27 -111q8 -41 16 -108.5t0 -124.5t-35 -107q-29 -59 -113 -120q-18 -14 -71 -50l-70 -49 q-74 -59 -105.5 -122.5t-6.5 -159.5q14 -63 72.5 -97t137 -31t141 40t83.5 96q4 14 5 28.5t0 37t-2 32.5t-6 40t-8 36q-2 12 6.5 22.5t20.5 11.5t22.5 -6.5t12.5 -19.5q0 -2 5 -32.5t5 -41.5l4 -41q2 -27 0 -46t-8 -37q-27 -82 -105.5 -129.5t-172.5 -49.5q-96 -4 -174 40 t-101 134zM524 1376.5q0 30.5 31 30.5t31 -30.5t-31 -30.5t-31 30.5z" />
<glyph unicode="&#xc0;" horiz-adv-x="763" d="M186 14v238q0 51 5.5 213t15.5 248t32.5 213t57.5 233q37 125 94 201q94 125 211 88q125 -37 203 -238q61 -154 96 -417q23 -176 41 -451q20 -311 23 -328q2 -12 -6.5 -22t-20.5 -12.5t-22.5 6t-12.5 20.5q-2 14 -22 332q-12 184 -25 311q-51 0 -181 -6t-227.5 -5 t-183.5 13q-16 -190 -16 -637q0 -31 -31 -31t-31 31zM270 713q84 -12 176.5 -13.5t220.5 5t183 6.5q-6 39 -10 73q-35 256 -92 406q-66 172 -162 201q-78 23 -146 -68q-51 -68 -86 -180q-59 -194 -84 -430zM405.5 1623q4.5 11 15.5 17t21 2q98 -31 256 -145 q25 -18 6.5 -42.5t-42.5 -6.5q-150 109 -236 137q-12 4 -18.5 15.5t-2 22.5z" />
<glyph unicode="&#xc1;" horiz-adv-x="763" d="M186 14v238q0 51 5.5 213t15.5 248t32.5 213t57.5 233q37 125 94 201q94 125 211 88q125 -37 203 -238q61 -154 96 -417q23 -176 41 -451q20 -311 23 -328q2 -12 -6.5 -22t-20.5 -12.5t-22.5 6t-12.5 20.5q-2 14 -22 332q-12 184 -25 311q-51 0 -181 -6t-227.5 -5 t-183.5 13q-16 -190 -16 -637q0 -31 -31 -31t-31 31zM270 713q84 -12 176.5 -13.5t220.5 5t183 6.5q-6 39 -10 73q-35 256 -92 406q-66 172 -162 201q-78 23 -146 -68q-51 -68 -86 -180q-59 -194 -84 -430zM424 1505l35 31q20 16 45 33l39 26q12 8 46 29t38 23 q27 16 43 -10.5t-11 -43.5q-6 -2 -38 -22l-43 -27l-37 -24q-25 -16 -41.5 -30.5t-30.5 -29.5q-23 -20 -44 1t-1 44z" />
<glyph unicode="&#xc2;" horiz-adv-x="763" d="M186 14v238q0 51 5.5 213t15.5 248t32.5 213t57.5 233q37 125 94 201q94 125 211 88q125 -37 203 -238q61 -154 96 -417q23 -176 41 -451q20 -311 23 -328q2 -12 -6.5 -22t-20.5 -12.5t-22.5 6t-12.5 20.5q-2 14 -22 332q-12 184 -25 311q-51 0 -181 -6t-227.5 -5 t-183.5 13q-16 -190 -16 -637q0 -31 -31 -31t-31 31zM270 713q84 -12 176.5 -13.5t220.5 5t183 6.5q-6 39 -10 73q-35 256 -92 406q-66 172 -162 201q-78 23 -146 -68q-51 -68 -86 -180q-59 -194 -84 -430zM332 1462q70 88 137 195q4 4 7 12t7 17q16 37 47 38q12 0 23 -6 l12 -8q10 -8 27 -24l70 -72q113 -119 118 -123q23 -20 3.5 -44t-44.5 -5l-123 129q-43 47 -67 69l-12 15q-10 -23 -15 -31q-72 -109 -141 -199q-20 -25 -43.5 -5.5t-5.5 42.5z" />
<glyph unicode="&#xc3;" horiz-adv-x="763" d="M186 14v238q0 51 5.5 213t15.5 248t32.5 213t57.5 233q37 125 94 201q94 125 211 88q125 -37 203 -238q61 -154 96 -417q23 -176 41 -451q20 -311 23 -328q2 -12 -6.5 -22t-20.5 -12.5t-22.5 6t-12.5 20.5q-2 14 -22 332q-12 184 -25 311q-51 0 -181 -6t-227.5 -5 t-183.5 13q-16 -190 -16 -637q0 -31 -31 -31t-31 31zM270 713q84 -12 176.5 -13.5t220.5 5t183 6.5q-6 39 -10 73q-35 256 -92 406q-66 172 -162 201q-78 23 -146 -68q-51 -68 -86 -180q-59 -194 -84 -430zM301 1481q63 111 113 141q53 29 104 -8q10 -8 33 -31 q20 -18 29 -27q31 -23 59 -14q23 4 53 37q2 2 56 61q20 23 42.5 2.5t2.5 -43.5q-53 -61 -58 -65q-43 -43 -84 -53q-55 -12 -108 28q-12 8 -35 31q-18 18 -27 25q-18 12 -37 4q-35 -20 -90 -117q-14 -27 -40.5 -12.5t-12.5 41.5z" />
<glyph unicode="&#xc4;" horiz-adv-x="763" d="M186 14v238q0 51 5.5 213t15.5 248t32.5 213t57.5 233q37 125 94 201q94 125 211 88q125 -37 203 -238q61 -154 96 -417q23 -176 41 -451q20 -311 23 -328q2 -12 -6.5 -22t-20.5 -12.5t-22.5 6t-12.5 20.5q-2 14 -22 332q-12 184 -25 311q-51 0 -181 -6t-227.5 -5 t-183.5 13q-16 -190 -16 -637q0 -31 -31 -31t-31 31zM270 713q84 -12 176.5 -13.5t220.5 5t183 6.5q-6 39 -10 73q-35 256 -92 406q-66 172 -162 201q-78 23 -146 -68q-51 -68 -86 -180q-59 -194 -84 -430zM426 1566.5q0 30.5 31 30.5t30.5 -30.5t-31 -30.5t-30.5 30.5z M608 1566.5q0 30.5 31 30.5t31 -30.5t-31 -30.5t-31 30.5z" />
<glyph unicode="&#xc5;" horiz-adv-x="763" d="M186 14v238q0 51 5.5 213t15.5 248t32.5 213t57.5 233q37 125 94 201q94 125 211 88q125 -37 203 -238q61 -154 96 -417q23 -176 41 -451q20 -311 23 -328q2 -12 -6.5 -22t-20.5 -12.5t-22.5 6t-12.5 20.5q-2 14 -22 332q-12 184 -25 311q-51 0 -181 -6t-227.5 -5 t-183.5 13q-16 -190 -16 -637q0 -31 -31 -31t-31 31zM270 713q84 -12 176.5 -13.5t220.5 5t183 6.5q-6 39 -10 73q-35 256 -92 406q-66 172 -162 201q-78 23 -146 -68q-51 -68 -86 -180q-59 -194 -84 -430zM344 1559q-6 45 55 90q39 29 109 34q63 4 113 -12q27 -10 46 -29.5 t7 -52.5q-14 -45 -115 -90q-8 -2 -14 -2q-74 -23 -139 0q-57 18 -62 62zM406 1565q2 -4 18 -11q29 -8 67.5 -5t61.5 20q10 6 20 6q33 18 41 31q-4 4 -14 8q-35 12 -88 8q-51 -4 -76 -23q-29 -20 -30 -32v-2z" />
<glyph unicode="&#xc6;" horiz-adv-x="1310" d="M186 14v238q0 51 5.5 213t15.5 248t32.5 213t57.5 233q37 125 94 201q68 90 152 96q6 2 14 2q147 -8 389 2q338 14 395 15q31 0 31 -31t-31 -31q-33 0 -391 -14q-154 -6 -256 -6q63 -61 111 -183q61 -156 96 -417q4 -41 10 -84q47 0 174 6q168 8 252 4q12 0 20.5 -10.5 t8.5 -22.5t-10 -20.5t-23 -8.5q-80 4 -243 -4q-123 -6 -172 -6q12 -127 24 -305q16 -272 21 -307q289 -16 514 8q14 2 23 -6t11 -21.5t-6 -22.5t-20 -11q-248 -27 -561 -7q-12 0 -20.5 10.5t-8.5 22.5q0 10 6 17q-4 39 -20 313q-12 182 -25 311h-12q-45 0 -176 -6t-224.5 -5 t-179.5 13q-16 -190 -16 -637q0 -31 -31 -30.5t-31 30.5zM270 713q82 -12 170 -13.5t218.5 4t175.5 7.5h8h4h4q-6 39 -10 73q-35 256 -92 406q-66 172 -162 201q-78 23 -146 -68q-51 -68 -86 -180q-59 -195 -84 -430z" />
<glyph unicode="&#xc7;" horiz-adv-x="620" d="M29 330q-39 205 15 489.5t165 458.5q78 121 149 156q104 53 200.5 -13.5t103.5 -173.5q0 -12 -8.5 -22.5t-20.5 -10.5t-22.5 8.5t-10.5 20.5q-4 78 -73.5 125t-139.5 12q-57 -29 -125 -135q-106 -164 -158 -438q-51 -272 -14 -465q31 -164 133.5 -238.5t231.5 -64.5 q127 10 225 94t119 211q2 12 12 20.5t22.5 6.5t20.5 -12.5t6 -22.5q-25 -152 -140.5 -249t-258.5 -110q-39 -2 -76 0q0 -63 -41 -137q-49 -84 -111 -123q-27 -16 -43 10.5t11 43.5q49 31 88 100q39 66 35 117q-109 27 -188 112.5t-107 229.5z" />
<glyph unicode="&#xc8;" horiz-adv-x="684" d="M77 346q3 113 46 225q55 145 149 220q-61 27 -108 83t-60 119q-23 119 34 230.5t155 179.5q102 70 203 65q115 -6 178 -110q16 -27 -10.5 -43.5t-42.5 10.5q-47 76 -129 82q-78 4 -164 -55q-84 -59 -132.5 -154.5t-29.5 -191.5q10 -53 54 -102.5t97 -61.5q16 -4 41 -6 q29 8 60 8h10q14 2 16 2h2v-10h17h2q0 4 -2 10q16 0 29 -10q16 -10 16 -27q0 -23 -23 -31q-8 -4 -20 -4h-21h-12q-33 -2 -65 0q-57 -20 -105.5 -79.5t-81.5 -145.5q-39 -102 -41 -203.5t35 -165.5q49 -80 140.5 -116.5t197.5 -26.5q104 12 191.5 64.5t123.5 131.5 q14 29 42 16t16 -40q-47 -98 -147.5 -159.5t-219.5 -72.5q-121 -12 -228.5 30t-168.5 140q-47 86 -44 199zM258.5 1672q13.5 28 42.5 14q92 -45 217 -140q25 -18 6.5 -42.5t-43.5 -6.5q-121 90 -209 135q-27 12 -13.5 40zM446 846q11 2 17 0q-8 59 -12 55q-4 -2 -5 -55z" />
<glyph unicode="&#xc9;" horiz-adv-x="684" d="M77 346q3 113 46 225q55 145 149 220q-61 27 -108 83t-60 119q-23 119 34 230.5t155 179.5q102 70 203 65q115 -6 178 -110q16 -27 -10.5 -43.5t-42.5 10.5q-47 76 -129 82q-78 4 -164 -55q-84 -59 -132.5 -154.5t-29.5 -191.5q10 -53 54 -102.5t97 -61.5q16 -4 41 -6 q29 8 60 8h10q14 2 16 2h2v-10h17h2q0 4 -2 10q16 0 29 -10q16 -10 16 -27q0 -23 -23 -31q-8 -4 -20 -4h-21h-12q-33 -2 -65 0q-57 -20 -105.5 -79.5t-81.5 -145.5q-39 -102 -41 -203.5t35 -165.5q49 -80 140.5 -116.5t197.5 -26.5q104 12 191.5 64.5t123.5 131.5 q14 29 42 16t16 -40q-47 -98 -147.5 -159.5t-219.5 -72.5q-121 -12 -228.5 30t-168.5 140q-47 86 -44 199zM276 1477q-18 25 7 43l104 86q88 72 141 100q27 14 41.5 -12.5t-12.5 -40.5q-49 -29 -129 -95.5t-109 -87.5q-25 -18 -43 7zM446 846q11 2 17 0q-8 59 -12 55 q-4 -2 -5 -55z" />
<glyph unicode="&#xca;" horiz-adv-x="684" d="M77 346q3 113 46 225q55 145 149 220q-61 27 -108 83t-60 119q-23 119 34 230.5t155 179.5q102 70 203 65q115 -6 178 -110q16 -27 -10.5 -43.5t-42.5 10.5q-47 76 -129 82q-78 4 -164 -55q-84 -59 -132.5 -154.5t-29.5 -191.5q10 -53 54 -102.5t97 -61.5q16 -4 41 -6 q29 8 60 8h10q14 2 16 2h2v-10h17h2q0 4 -2 10q16 0 29 -10q16 -10 16 -27q0 -23 -23 -31q-8 -4 -20 -4h-21h-12q-33 -2 -65 0q-57 -20 -105.5 -79.5t-81.5 -145.5q-39 -102 -41 -203.5t35 -165.5q49 -80 140.5 -116.5t197.5 -26.5q104 12 191.5 64.5t123.5 131.5 q14 29 42 16t16 -40q-47 -98 -147.5 -159.5t-219.5 -72.5q-121 -12 -228.5 30t-168.5 140q-47 86 -44 199zM238 1540q80 78 139 170q6 8 14 19l12 20l9 14q20 27 41 35q27 8 55 -16q14 -12 45 -49l168 -207q20 -25 -3.5 -44.5t-41.5 3.5l-172 211q-27 33 -35 39q-4 -2 -6 -9 q-4 -4 -10 -12l-13 -18l-10 -19q-63 -98 -147 -182q-23 -20 -44 1t-1 44zM446 846q11 2 17 0q-8 59 -12 55q-4 -2 -5 -55z" />
<glyph unicode="&#xcb;" horiz-adv-x="684" d="M77 346q3 113 46 225q55 145 149 220q-61 27 -108 83t-60 119q-23 119 34 230.5t155 179.5q102 70 203 65q115 -6 178 -110q16 -27 -10.5 -43.5t-42.5 10.5q-47 76 -129 82q-78 4 -164 -55q-84 -59 -132.5 -154.5t-29.5 -191.5q10 -53 54 -102.5t97 -61.5q16 -4 41 -6 q29 8 60 8h10q14 2 16 2h2v-10h17h2q0 4 -2 10q16 0 29 -10q16 -10 16 -27q0 -23 -23 -31q-8 -4 -20 -4h-21h-12q-33 -2 -65 0q-57 -20 -105.5 -79.5t-81.5 -145.5q-39 -102 -41 -203.5t35 -165.5q49 -80 140.5 -116.5t197.5 -26.5q104 12 191.5 64.5t123.5 131.5 q14 29 42 16t16 -40q-47 -98 -147.5 -159.5t-219.5 -72.5q-121 -12 -228.5 30t-168.5 140q-47 86 -44 199zM297 1587q0 31 31 31t30.5 -31t-31 -31t-30.5 31zM446 846q11 2 17 0q-8 59 -12 55q-4 -2 -5 -55zM518 1587q0 31 31 31t31 -31t-31 -31t-31 31z" />
<glyph unicode="&#xcc;" horiz-adv-x="75" d="M62 1667.5q17 25.5 42 7.5l177 -123q25 -16 7 -41.5t-44 -7.5l-172 123q-27 16 -10 41.5zM156 1417q0 14 8 23.5t21.5 9.5t22.5 -8.5t9 -20.5q8 -209 8 -440t-3 -523t-3 -440q0 -31 -30.5 -30.5t-30.5 30.5q0 147 3 438.5t3 522.5t-8 438z" />
<glyph unicode="&#xcd;" horiz-adv-x="77" d="M55 1495.5q-16 26.5 11 42.5q23 12 49 35l39 33q14 12 46.5 43.5t43.5 40.5q23 20 43 -2.5t-2 -42.5l-39 -39l-49 -45q-16 -14 -45 -37t-54 -39q-27 -16 -43 10.5zM156 1417q0 14 8 23.5t21.5 9.5t22.5 -8.5t9 -20.5q8 -209 8 -440t-3 -523t-3 -440q0 -31 -30.5 -30.5 t-30.5 30.5q0 147 3 438.5t3 522.5t-8 438z" />
<glyph unicode="&#xce;" horiz-adv-x="190" d="M31 1526l108 145q20 29 35 39q23 20 47 16q20 -2 41 -22l33 -41q66 -92 106 -141q20 -25 -3 -44.5t-42 3.5q-43 51 -112 145q-18 27 -27 35l-4 4q-8 -8 -25 -31l-108 -145q-18 -25 -42.5 -6.5t-6.5 43.5zM158 1417q0 14 8 23.5t21.5 9.5t22.5 -8.5t9 -20.5q8 -209 8 -440 t-3 -523t-3 -440q0 -31 -30.5 -30.5t-30.5 30.5q0 147 3 438.5t3 522.5t-8 438z" />
<glyph unicode="&#xcf;" horiz-adv-x="98" d="M71.5 1585q-0.5 31 30.5 31t31 -31t-30.5 -31t-31 31zM139 1417q0 14 8.5 23.5t21.5 9.5t22.5 -8.5t9.5 -20.5q8 -209 8 -440t-3 -523t-3 -440q0 -31 -31 -30.5t-31 30.5q0 147 3 438.5t3 522.5t-8 438zM237.5 1581q-0.5 31 30.5 31t31 -31t-30.5 -31t-31 31z" />
<glyph unicode="&#xd0;" horiz-adv-x="790" d="M53 723q-2 12 6.5 22.5t20.5 12.5q68 8 153 12q-4 375 -36 655q-2 16 10 29q10 10 22 10q111 6 224.5 -39t206 -122.5t165 -173t111.5 -191.5q51 -129 58 -277.5t-31 -281.5q-29 -106 -103 -200.5t-172 -155.5q-104 -66 -215 -81.5t-231 29.5q-29 12 -17 41l2 2 q0 109 3 340.5t3 354.5q-82 -4 -145 -13q-12 -2 -22.5 6.5t-12.5 20.5zM262 1403q29 -270 31 -633h104q31 0 31 -30.5t-31 -30.5h-102q0 -123 -3 -355t-3 -334q178 -63 366 56q90 55 157 140t93 179q35 123 28 261.5t-54 256.5q-74 186 -253.5 337t-363.5 153z" />
<glyph unicode="&#xd1;" horiz-adv-x="671" d="M152 1374q0 14 8 23.5t21.5 9.5t22.5 -8t9 -21q4 -94 6 -194q41 102 74 143q59 74 137 97.5t148 -1.5q72 -23 128 -80t85 -135q70 -190 79 -592q4 -150 4 -219q0 -80 -2 -209t-2 -182q0 -31 -30.5 -31t-30.5 31q0 53 2 182t2 209q0 70 -4 217q-10 391 -76 574 q-25 66 -71 113t-103 65q-125 39 -217 -76q-33 -39 -72 -143q-39 -98 -47 -156q0 -4 -2 -6q2 -174 -2 -499.5t-4 -467.5q0 -31 -30.5 -30.5t-30.5 30.5q0 143 3 426t3 507.5t-8 422.5zM264 1546q63 100 123 113q51 12 107 -37q8 -6 32.5 -30.5t40.5 -37.5q37 -25 76 -14 q23 8 53 35q10 8 29.5 26.5t28.5 24.5q25 20 44 -3.5t-3 -41.5q-10 -8 -28.5 -26.5t-29.5 -26.5q-43 -35 -78 -45q-66 -20 -127 22q-12 8 -27.5 21.5t-29.5 29.5l-22 21q-33 27 -52 22q-35 -8 -84 -86q-16 -27 -42.5 -10.5t-10.5 43.5z" />
<glyph unicode="&#xd2;" horiz-adv-x="724" d="M94 717q8 266 82 475q84 233 217 281q37 14 121 10q25 -2 29 -27q188 -68 295 -301q104 -229 94 -518q-10 -293 -135 -475q-145 -211 -383 -170q-168 29 -254 256q-72 193 -66 469zM156 717q-6 -264 61 -447q74 -195 209 -217q199 -35 319 144q115 168 125.5 442 t-88.5 491q-106 231 -293 277q-12 4 -18 16q-31 0 -57 -8q-106 -37 -181 -244q-72 -201 -77 -454zM313 1673.5q4 12.5 15.5 17.5t23.5 1q25 -8 48.5 -19.5t51 -29t42.5 -25.5l45 -35q35 -25 41 -29q25 -18 6 -42.5t-43 -6.5q-6 4 -41 29l-45 33q-10 8 -36 24.5t-46.5 25.5 t-42.5 17q-12 4 -17.5 15.5t-1.5 24z" />
<glyph unicode="&#xd3;" horiz-adv-x="724" d="M94 717q8 266 82 475q84 233 217 281q37 14 121 10q25 -2 29 -27q188 -68 295 -301q104 -229 94 -518q-10 -293 -135 -475q-145 -211 -383 -170q-168 29 -254 256q-72 193 -66 469zM156 717q-6 -264 61 -447q74 -195 209 -217q199 -35 319 144q115 168 125.5 442 t-88.5 491q-106 231 -293 277q-12 4 -18 16q-31 0 -57 -8q-106 -37 -181 -244q-72 -201 -77 -454zM312 1529.5q-15 25.5 10 41.5q70 39 237 174q23 18 42.5 -5.5t-5.5 -43.5q-170 -137 -242 -178q-27 -14 -42 11.5z" />
<glyph unicode="&#xd4;" horiz-adv-x="724" d="M94 717q8 266 82 475q84 233 217 281q37 14 121 10q25 -2 29 -27q188 -68 295 -301q104 -229 94 -518q-10 -293 -135 -475q-145 -211 -383 -170q-168 29 -254 256q-72 193 -66 469zM156 717q-6 -264 61 -447q74 -195 209 -217q199 -35 319 144q115 168 125.5 442 t-88.5 491q-106 231 -293 277q-12 4 -18 16q-31 0 -57 -8q-106 -37 -181 -244q-72 -201 -77 -454zM276 1544q29 43 72 98q27 37 45 58q12 14 23 20q16 14 30.5 14.5t32.5 -14.5l25 -20l55 -64q51 -59 92 -112q18 -25 -6 -43.5t-43 6.5l-88 110q-33 37 -55 58q-6 8 -13 12 l-6 -8q-18 -18 -43 -53q-41 -53 -67 -95q-18 -27 -44 -9.5t-10 42.5z" />
<glyph unicode="&#xd5;" horiz-adv-x="724" d="M94 717q8 266 82 475q84 233 217 281q37 14 121 10q25 -2 29 -27q188 -68 295 -301q104 -229 94 -518q-10 -293 -135 -475q-145 -211 -383 -170q-168 29 -254 256q-72 193 -66 469zM156 717q-6 -264 61 -447q74 -195 209 -217q199 -35 319 144q115 168 125.5 442 t-88.5 491q-106 231 -293 277q-12 4 -18 16q-31 0 -57 -8q-106 -37 -181 -244q-72 -201 -77 -454zM238 1575q74 98 145 115q49 10 119 -27q66 -33 92 -37q49 -6 111 43q23 18 42 -5.5t-6 -43.5q-80 -63 -155 -53q-37 4 -113 43q-49 25 -78 18q-47 -10 -108 -90 q-18 -25 -42.5 -6.5t-6.5 43.5z" />
<glyph unicode="&#xd6;" horiz-adv-x="724" d="M94 717q8 266 82 475q84 233 217 281q37 14 121 10q25 -2 29 -27q188 -68 295 -301q104 -229 94 -518q-10 -293 -135 -475q-145 -211 -383 -170q-168 29 -254 256q-72 193 -66 469zM156 717q-6 -264 61 -447q74 -195 209 -217q199 -35 319 144q115 168 125.5 442 t-88.5 491q-106 231 -293 277q-12 4 -18 16q-31 0 -57 -8q-106 -37 -181 -244q-72 -201 -77 -454zM340 1630q0 31 31 31t30.5 -31t-31 -31t-30.5 31zM547 1636.5q0 30.5 31 30.5t30.5 -30.5t-31 -30.5t-30.5 30.5z" />
<glyph unicode="&#xd7;" horiz-adv-x="548" d="M322 500q55 76 194 243q-76 104 -156 203q-18 23 5.5 42.5t44.5 -5.5l147 -192q92 113 150 194q16 27 41.5 9.5t7.5 -42.5q-59 -88 -162 -213q88 -121 170 -247q16 -27 -10.5 -43.5t-42.5 10.5q-76 118 -158 233q-129 -156 -182 -229q-18 -25 -43 -6.5t-6 43.5z" />
<glyph unicode="&#xd8;" horiz-adv-x="724" d="M94 717q8 266 82 475q84 233 217 281q37 14 121 10q25 -2 29 -27q188 -68 295 -301q104 -229 94 -518q-10 -293 -135 -475q-145 -211 -383 -170q-168 29 -254 256q-72 193 -66 469zM156 717q-4 -215 41 -379q346 315 620 698q-16 49 -35 94q-106 231 -293 277 q-12 4 -18 16q-31 0 -57 -8q-106 -37 -181 -244q-72 -201 -77 -454zM217 270q74 -195 209 -217q199 -35 319 144q115 168 125 442q7 166 -30 322q-283 -383 -623 -689v-2z" />
<glyph unicode="&#xd9;" horiz-adv-x="598" d="M154 1073q0 55 4 127l4 123q2 49 2 80q0 12 9 21.5t21.5 9.5t21.5 -9.5t9 -21.5q0 -31 -2 -80l-4 -123q-4 -74 -6 -129q-8 -270 4 -461q18 -262 76 -407q63 -168 178 -178q86 -8 145 98q43 74 72 203q84 356 47 1075q0 12 8.5 22.5t20.5 10.5t22.5 -8.5t10.5 -20.5 q37 -729 -47 -1092q-33 -137 -80 -221q-80 -141 -203 -129q-154 14 -231 217q-61 158 -78 428q-14 190 -4 465zM355 1669.5q17 25.5 42 9.5q86 -55 197 -139q25 -18 6.5 -42.5t-43.5 -6.5q-106 80 -192 135q-27 18 -10 43.5z" />
<glyph unicode="&#xda;" horiz-adv-x="598" d="M154 1073q0 55 4 127l4 123q2 49 2 80q0 12 9 21.5t21.5 9.5t21.5 -9.5t9 -21.5q0 -31 -2 -80l-4 -123q-4 -74 -6 -129q-8 -270 4 -461q18 -262 76 -407q63 -168 178 -178q86 -8 145 98q43 74 72 203q84 356 47 1075q0 12 8.5 22.5t20.5 10.5t22.5 -8.5t10.5 -20.5 q37 -729 -47 -1092q-33 -137 -80 -221q-80 -141 -203 -129q-154 14 -231 217q-61 158 -78 428q-14 190 -4 465zM384.5 1528.5q-16.5 26.5 10.5 42.5q35 20 97 67q74 55 98 72q27 18 44 -7.5t-7.5 -41.5t-98.5 -72l-100 -71q-27 -16 -43.5 10.5z" />
<glyph unicode="&#xdb;" horiz-adv-x="598" d="M154 1073q0 55 4 127l4 123q2 49 2 80q0 12 9 21.5t21.5 9.5t21.5 -9.5t9 -21.5q0 -31 -2 -80l-4 -123q-4 -74 -6 -129q-8 -270 4 -461q18 -262 76 -407q63 -168 178 -178q86 -8 145 98q43 74 72 203q84 356 47 1075q0 12 8.5 22.5t20.5 10.5t22.5 -8.5t10.5 -20.5 q37 -729 -47 -1092q-33 -137 -80 -221q-80 -141 -203 -129q-154 14 -231 217q-61 158 -78 428q-14 190 -4 465zM287 1528q23 35 67 90l66 86q2 2 3 6t5 10l6 15q16 37 49 39q12 0 25 -9q6 -4 10 -10q10 -10 23 -26q20 -27 51 -76q59 -92 80 -133q14 -27 -12.5 -41.5 t-41.5 12.5q-23 43 -79 129q-29 47 -50 72l-4 8q-10 -23 -16 -33q-16 -23 -68 -88q-41 -51 -61 -84q-18 -27 -43.5 -9.5t-9.5 42.5zM463 1712q-2 -2 12 0l-2 2l-2 2z" />
<glyph unicode="&#xdc;" horiz-adv-x="598" d="M154 1073q0 55 4 127l4 123q2 49 2 80q0 12 9 21.5t21.5 9.5t21.5 -9.5t9 -21.5q0 -31 -2 -80l-4 -123q-4 -74 -6 -129q-8 -270 4 -461q18 -262 76 -407q63 -168 178 -178q86 -8 145 98q43 74 72 203q84 356 47 1075q0 12 8.5 22.5t20.5 10.5t22.5 -8.5t10.5 -20.5 q37 -729 -47 -1092q-33 -137 -80 -221q-80 -141 -203 -129q-154 14 -231 217q-61 158 -78 428q-14 190 -4 465zM358 1558.5q0 30.5 31 30.5t31 -30.5t-31 -30.5t-31 30.5zM542.5 1558.5q-0.5 30.5 30.5 30.5t31 -30.5t-30.5 -30.5t-31 30.5z" />
<glyph unicode="&#xdd;" horiz-adv-x="720" d="M201 1421q-4 12 1 23.5t17 15.5t23.5 -1t15.5 -17l156 -434q59 -162 96 -254q23 -55 37 -84v-2q4 6 8 14q0 2 35 84l90 207l102 244q47 111 84 208q4 12 15.5 17.5t24 1.5t17.5 -15.5t1 -23.5q-37 -100 -84 -211l-103 -244l-90 -209q-35 -84 -37 -86q-14 -29 -26 -43 q-2 -4 -4 -6q0 -98 -9.5 -301t-9.5 -307q0 -31 -30.5 -31t-30.5 31q0 104 9 306t9 296q-2 2 -6 4l-6 12q-6 10 -14 27q-12 29 -37 86q-41 100 -99 258zM465.5 1443q-13.5 28 15.5 42q29 12 60.5 34.5t52.5 41.5l57 51l56 49q25 20 44 -3.5t-3 -41.5l-54 -47 q-37 -35 -60.5 -54.5t-59 -45t-68.5 -42.5q-27 -12 -40.5 16z" />
<glyph unicode="&#xde;" horiz-adv-x="561" d="M109 1444q-2 12 6 22.5t20 12.5t22.5 -6.5t12.5 -20.5q35 -248 55 -485q61 63 138 107t149 54q102 12 168 -45q72 -63 84 -204q18 -201 -164 -424q-78 -96 -170 -168q-94 -72 -186 -107q-6 -209 -29 -407q-2 -12 -11 -20.5t-22.5 -6.5t-21.5 11.5t-6 23.5 q84 758 -45 1663zM231 883q23 -328 15 -635q168 76 307 244q166 205 149 382q-10 115 -63 164q-45 39 -119 29q-70 -10 -149.5 -61.5t-134.5 -118.5z" />
<glyph unicode="&#xdf;" horiz-adv-x="874" d="M55 33q37 80 52.5 177t13.5 175t-15 195q0 10 -6 69.5t-7 76.5t-5 70.5t-4 77t1 69.5t4 77t10 68.5t18 72.5q33 117 125 198t194 95q115 14 180 -57q74 -80 60 -240q-12 -125 -119 -252q-20 -25 -57 -65q-37 -39 -45 -47q43 6 96 4q86 -4 180 -82q96 -80 111 -166 q53 -309 -140 -447q-25 -18 -55 -32q20 0 152 -9q180 -10 258 -10q31 0 30.5 -30.5t-30.5 -30.5q-80 0 -262 10q-178 10 -258 8q-53 -2 -146 -6q-49 -4 -104 -6h-8h-27h-4h-4h-2h-2h-2h-2q-2 0 -5 2q-8 2 -16 12q-10 16 0 33q4 6 12 10l9 4h2h2h2h2h39q6 0 23.5 2t25.5 2 l55 2q182 18 281 89q160 115 112 385q-10 66 -88 131t-145 67q-63 2 -111 -10q-31 -6 -45 -16q-4 -2 -4 -4q-4 -2 -8 -7l-8 -4q-16 -4 -29 8q-10 8 -10 23v8l4 6l2 2v2v2q31 43 99.5 120t72.5 79q94 113 104 217q12 133 -43 193q-45 49 -127 39q-84 -12 -162.5 -81 t-107.5 -167q-8 -33 -14 -69t-9.5 -63.5t-3.5 -72.5t-1 -65.5t4 -75.5l6 -66q0 -14 6 -76.5t6 -70.5q12 -121 14 -201t-14 -185.5t-55 -191.5q-14 -29 -42 -15.5t-16 40.5z" />
<glyph unicode="&#xe0;" horiz-adv-x="753" d="M41 269q-12 130 20 249q31 125 91 240q57 115 124 180q82 76 179 86q121 10 161 -102l9 -4l8 -15v-4v-6v-16q0 -25 -2 -64q0 -10 -2 -31.5t-2 -25.5q-2 -35 -4 -133q0 -86 -7 -140q-14 -123 -2 -233q8 -72 27 -115q18 -43 50 -52t66 -13t55.5 -6.5t69.5 -3.5t66 -1 q12 0 20.5 -9t8.5 -22.5t-9.5 -21.5t-23.5 -8q-12 0 -62.5 1t-73 3t-61 7t-71.5 16q-57 14 -90 84q-23 51 -35 131q-18 -72 -47 -123q-72 -125 -189 -129q-127 -6 -192 71q-70 80 -82 210zM103.5 275.5q11.5 -111.5 64.5 -175.5q49 -55 143 -51q84 4 138 98q47 86 73 244 q16 102 29 287q10 168 16 205q-6 6 -8 12q-23 74 -99.5 66.5t-142.5 -68.5q-57 -57 -111 -163.5t-85 -225.5q-29 -117 -17.5 -228.5zM292.5 1289.5q16.5 26.5 43.5 10.5q80 -51 188 -139q25 -20 5.5 -43.5t-42.5 -5.5q-109 88 -184 135q-27 16 -10.5 42.5z" />
<glyph unicode="&#xe1;" horiz-adv-x="753" d="M41 269q-12 130 20 249q31 125 91 240q57 115 124 180q82 76 179 86q121 10 161 -102l9 -4l8 -15v-4v-6v-16q0 -25 -2 -64q0 -10 -2 -31.5t-2 -25.5q-2 -35 -4 -133q0 -86 -7 -140q-14 -123 -2 -233q8 -72 27 -115q18 -43 50 -52t66 -13t55.5 -6.5t69.5 -3.5t66 -1 q12 0 20.5 -9t8.5 -22.5t-9.5 -21.5t-23.5 -8q-12 0 -62.5 1t-73 3t-61 7t-71.5 16q-57 14 -90 84q-23 51 -35 131q-18 -72 -47 -123q-72 -125 -189 -129q-127 -6 -192 71q-70 80 -82 210zM103.5 275.5q11.5 -111.5 64.5 -175.5q49 -55 143 -51q84 4 138 98q47 86 73 244 q16 102 29 287q10 168 16 205q-6 6 -8 12q-23 74 -99.5 66.5t-142.5 -68.5q-57 -57 -111 -163.5t-85 -225.5q-29 -117 -17.5 -228.5zM306.5 1110.5q-16.5 26.5 10.5 42.5q143 84 220 188q18 25 42.5 6.5t6.5 -42.5q-84 -115 -236 -205q-27 -16 -43.5 10.5z" />
<glyph unicode="&#xe2;" horiz-adv-x="753" d="M41 269q-12 130 20 249q31 125 91 240q57 115 124 180q82 76 179 86q121 10 161 -102l9 -4l8 -15v-4v-6v-16q0 -25 -2 -64q0 -10 -2 -31.5t-2 -25.5q-2 -35 -4 -133q0 -86 -7 -140q-14 -123 -2 -233q8 -72 27 -115q18 -43 50 -52t66 -13t55.5 -6.5t69.5 -3.5t66 -1 q12 0 20.5 -9t8.5 -22.5t-9.5 -21.5t-23.5 -8q-12 0 -62.5 1t-73 3t-61 7t-71.5 16q-57 14 -90 84q-23 51 -35 131q-18 -72 -47 -123q-72 -125 -189 -129q-127 -6 -192 71q-70 80 -82 210zM103.5 275.5q11.5 -111.5 64.5 -175.5q49 -55 143 -51q84 4 138 98q47 86 73 244 q16 102 29 287q10 168 16 205q-6 6 -8 12q-23 74 -99.5 66.5t-142.5 -68.5q-57 -57 -111 -163.5t-85 -225.5q-29 -117 -17.5 -228.5zM281 1153q39 41 88 111q43 63 65 75q27 14 53 2q20 -10 39 -36q31 -43 84 -166q12 -29 -16.5 -41.5t-40.5 16.5q-49 119 -76 154 q-8 12 -14 16q-10 -6 -45 -55q-55 -78 -92 -117q-20 -23 -42.5 -2.5t-2.5 43.5z" />
<glyph unicode="&#xe3;" horiz-adv-x="753" d="M41 269q-12 130 20 249q31 125 91 240q57 115 124 180q82 76 179 86q121 10 161 -102l9 -4l8 -15v-4v-6v-16q0 -25 -2 -64q0 -10 -2 -31.5t-2 -25.5q-2 -35 -4 -133q0 -86 -7 -140q-14 -123 -2 -233q8 -72 27 -115q18 -43 50 -52t66 -13t55.5 -6.5t69.5 -3.5t66 -1 q12 0 20.5 -9t8.5 -22.5t-9.5 -21.5t-23.5 -8q-12 0 -62.5 1t-73 3t-61 7t-71.5 16q-57 14 -90 84q-23 51 -35 131q-18 -72 -47 -123q-72 -125 -189 -129q-127 -6 -192 71q-70 80 -82 210zM103.5 275.5q11.5 -111.5 64.5 -175.5q49 -55 143 -51q84 4 138 98q47 86 73 244 q16 102 29 287q10 168 16 205q-6 6 -8 12q-23 74 -99.5 66.5t-142.5 -68.5q-57 -57 -111 -163.5t-85 -225.5q-29 -117 -17.5 -228.5zM209 1114q55 106 133 115q45 4 127 -39q70 -37 96 -39q43 -2 82 61q16 27 43 10.5t10 -42.5q-57 -92 -137 -90q-41 2 -123 47 q-63 33 -92 30q-45 -4 -86 -82q-14 -27 -40.5 -12.5t-12.5 41.5z" />
<glyph unicode="&#xe4;" horiz-adv-x="753" d="M41 269q-12 130 20 249q31 125 91 240q57 115 124 180q82 76 179 86q121 10 161 -102l9 -4l8 -15v-4v-6v-16q0 -25 -2 -64q0 -10 -2 -31.5t-2 -25.5q-2 -35 -4 -133q0 -86 -7 -140q-14 -123 -2 -233q8 -72 27 -115q18 -43 50 -52t66 -13t55.5 -6.5t69.5 -3.5t66 -1 q12 0 20.5 -9t8.5 -22.5t-9.5 -21.5t-23.5 -8q-12 0 -62.5 1t-73 3t-61 7t-71.5 16q-57 14 -90 84q-23 51 -35 131q-18 -72 -47 -123q-72 -125 -189 -129q-127 -6 -192 71q-70 80 -82 210zM103.5 275.5q11.5 -111.5 64.5 -175.5q49 -55 143 -51q84 4 138 98q47 86 73 244 q16 102 29 287q10 168 16 205q-6 6 -8 12q-23 74 -99.5 66.5t-142.5 -68.5q-57 -57 -111 -163.5t-85 -225.5q-29 -117 -17.5 -228.5zM348 1140.5q0 30.5 31 30.5t31 -30.5t-31 -30.5t-31 30.5zM495.5 1140.5q-0.5 30.5 30.5 30.5t31 -30.5t-30.5 -30.5t-31 30.5z" />
<glyph unicode="&#xe5;" horiz-adv-x="763" d="M41 269q-12 130 20 249q31 125 91 240q57 115 124 180q82 76 179 86q121 10 161 -102l9 -4l8 -15v-4v-6v-16q0 -25 -2 -64q0 -10 -2 -31.5t-2 -25.5q-2 -35 -4 -133q0 -86 -7 -140q-14 -123 -2 -233q8 -72 27 -115q18 -43 50 -52t66 -13t55.5 -6.5t69.5 -3.5t66 -1 q12 0 20.5 -9t8.5 -22.5t-9.5 -21.5t-23.5 -8q-12 0 -62.5 1t-73 3t-61 7t-71.5 16q-57 14 -90 84q-23 51 -35 131q-18 -72 -47 -123q-72 -125 -189 -129q-127 -6 -192 71q-70 80 -82 210zM103.5 275.5q11.5 -111.5 64.5 -175.5q49 -55 143 -51q84 4 138 98q47 86 73 244 q16 102 29 287q10 168 16 205q-6 6 -8 12q-23 74 -99.5 66.5t-142.5 -68.5q-57 -57 -111 -163.5t-85 -225.5q-29 -117 -17.5 -228.5zM281 1159q-6 45 55 90q39 29 108 35q63 4 113 -12q27 -10 46.5 -29.5t6.5 -52.5q-14 -45 -114 -90q-9 -2 -15 -2q-74 -23 -139 0 q-57 18 -61 61zM338 1169q2 -4 18 -10q29 -8 68 -5t61 20q10 6 21 6q33 18 41 30q-4 4 -15 9q-35 12 -88 8q-51 -4 -75 -23q-29 -20 -31 -33v-2z" />
<glyph unicode="&#xe6;" horiz-adv-x="1126" d="M24.5 330q4.5 86 20.5 178q31 135 92.5 260t128.5 188q80 76 178 86q119 10 160 -98q8 -4 12.5 -10t6.5 -12q72 76 165 92q186 31 259 -80q63 -94 16 -248q-47 -145 -171 -262t-282 -127q-10 0 -20 6q2 -35 10 -63q37 -164 285 -191q92 -6 148.5 -5t143.5 6t123 5 q31 0 31 -30.5t-30.5 -30.5t-119.5 -5t-148.5 -6t-153.5 7q-291 31 -340 237q0 5 -2 11q-18 -57 -43 -103q-72 -125 -189 -129q-98 -4 -155 37q-66 43 -98 122t-27.5 165zM92 253q19 -112 90 -161q43 -29 119 -24q84 4 139 98q47 86 74 244q16 102 29 286q10 168 16 205 q-6 6 -8 12q-25 74 -101.5 67t-142.5 -69q-57 -55 -115.5 -171.5t-85.5 -243.5q-33 -131 -14 -243zM588 352q8 6 18 6q135 8 246 111.5t152 235.5q39 125 -9 196q-51 76 -198 51q-106 -18 -176 -135q-2 -10 -5 -47q-4 -61 -4 -98q0 -45 -6 -111q-2 -16 -6 -54t-6 -58 q-4 -57 -6 -97z" />
<glyph unicode="&#xe7;" horiz-adv-x="403" d="M2 260q-12 117 10 270q23 145 66 265q49 131 108 180q53 41 101.5 40t85.5 -38q33 -33 47 -83t8 -99q-2 -12 -12 -20.5t-22.5 -6.5t-20.5 12.5t-6 22.5q12 82 -37 131q-43 43 -107 -8q-45 -37 -88 -152q-41 -113 -61 -254q-20 -143 -11 -254q12 -117 54 -155 q68 -63 215 -68q100 -4 248 23q14 2 24 -5.5t12 -20.5t-5 -23.5t-19 -12.5q-158 -27 -262 -22q-18 0 -37 2v-2q-27 -82 -125 -187q-20 -23 -43 -2t-2 43q84 92 108 156q-98 20 -155 74q-59 55 -74 194z" />
<glyph unicode="&#xe8;" horiz-adv-x="458" d="M53 539q6 168 45 290q45 143 129 179q70 29 117 -7q37 -27 53 -90q14 -59 13 -186q-8 -438 -174 -678q16 -6 40 -8q47 -6 127 -2q143 6 224 24q12 2 22 -5t13.5 -19t-4 -22.5t-19.5 -14.5q-84 -18 -233 -25q-84 -4 -138 2q-74 8 -98 37q-61 66 -92 222q-29 143 -25 303z M115 539q-4 -158 22 -291q20 -101 53 -158q150 223 158 635q2 121 -10 172q-12 41 -30.5 55.5t-55.5 -2.5q-57 -25 -96 -139q-35 -113 -41 -272zM151.5 1296q16.5 27 43.5 11q80 -51 188 -140q25 -20 5.5 -43.5t-42.5 -5.5q-109 88 -184 135q-27 16 -10.5 43z" />
<glyph unicode="&#xe9;" horiz-adv-x="458" d="M53 539q6 168 45 290q45 143 129 179q70 29 117 -7q37 -27 53 -90q14 -59 13 -186q-8 -438 -174 -678q16 -6 40 -8q47 -6 127 -2q143 6 224 24q12 2 22 -5t13.5 -19t-4 -22.5t-19.5 -14.5q-84 -18 -233 -25q-84 -4 -138 2q-74 8 -98 37q-61 66 -92 222q-29 143 -25 303z M115 539q-4 -158 22 -291q20 -101 53 -158q150 223 158 635q2 121 -10 172q-12 41 -30.5 55.5t-55.5 -2.5q-57 -25 -96 -139q-35 -113 -41 -272zM161.5 1110.5q-16.5 26.5 10.5 42.5q143 84 219 188q18 25 43 6.5t6 -42.5q-84 -115 -235 -205q-27 -16 -43.5 10.5z" />
<glyph unicode="&#xea;" horiz-adv-x="458" d="M53 539q6 168 45 290q45 143 129 179q70 29 117 -7q37 -27 53 -90q14 -59 13 -186q-8 -438 -174 -678q16 -6 40 -8q47 -6 127 -2q143 6 224 24q12 2 22 -5t13.5 -19t-4 -22.5t-19.5 -14.5q-84 -18 -233 -25q-84 -4 -138 2q-74 8 -98 37q-61 66 -92 222q-29 143 -25 303z M115 539q-4 -158 22 -291q20 -101 53 -158q150 223 158 635q2 121 -10 172q-12 41 -30.5 55.5t-55.5 -2.5q-57 -25 -96 -139q-35 -113 -41 -272zM127 1133q39 41 88 110q43 63 66 76q27 14 53 2q20 -10 39 -37q31 -43 84 -166q12 -29 -16.5 -41t-41.5 17q-49 119 -75 153 q-8 12 -15 17q-10 -6 -45 -56q-55 -78 -92 -116q-20 -23 -42.5 -2.5t-2.5 43.5z" />
<glyph unicode="&#xeb;" horiz-adv-x="458" d="M53 539q6 168 45 290q45 143 129 179q70 29 117 -7q37 -27 53 -90q14 -59 13 -186q-8 -438 -174 -678q16 -6 40 -8q47 -6 127 -2q143 6 224 24q12 2 22 -5t13.5 -19t-4 -22.5t-19.5 -14.5q-84 -18 -233 -25q-84 -4 -138 2q-74 8 -98 37q-61 66 -92 222q-29 143 -25 303z M115 539q-4 -158 22 -291q20 -101 53 -158q150 223 158 635q2 121 -10 172q-12 41 -30.5 55.5t-55.5 -2.5q-57 -25 -96 -139q-35 -113 -41 -272zM190 1140.5q0 30.5 31 30.5t31 -30.5t-31 -30.5t-31 30.5zM317 1136.5q0 30.5 31 30.5t31 -30.5t-31 -30.5t-31 30.5z" />
<glyph unicode="&#xec;" horiz-adv-x="268" d="M34.5 1284q20.5 23 43 2.5t45.5 -49.5l49 -61l37 -52q18 -25 -6.5 -43t-42.5 6q-14 16 -39 51.5t-43 59.5q-20 25 -41 43q-23 20 -2.5 43zM102 217q-4 94 4 266q2 59 7 140q4 96 6 141t2 103.5t-4 88.5q-2 12 6 22.5t20.5 12.5t22.5 -6t12 -20q4 -33 4 -94.5t-2 -108.5 l-6 -144q-4 -100 -6 -137q-6 -170 -4 -262q4 -119 24 -151q2 -6 31 -13q31 -4 82 -6q29 0 92 2q55 2 70 0q12 -2 20.5 -11t6 -22.5t-11.5 -21.5t-22.5 -6t-60.5 0q-66 -2 -94 -2q-57 2 -94 8q-55 10 -72 39q-27 47 -33 182z" />
<glyph unicode="&#xed;" horiz-adv-x="268" d="M98 1106q53 61 123 188q14 27 41 12.5t12 -40.5q-72 -131 -127 -201q-20 -23 -43.5 -3.5t-5.5 44.5zM100 217q-4 94 4 266q2 59 7 140q4 96 6 141t2 103.5t-4 88.5q-2 12 6 22.5t20.5 12.5t22.5 -6t12 -20q4 -33 4 -94.5t-2 -108.5l-6 -144q-4 -100 -6 -137 q-6 -170 -4 -262q4 -119 24 -151q2 -6 31 -13q31 -4 82 -6q29 0 92 2q55 2 70 0q12 -2 20 -11t6 -22.5t-11 -21.5t-22.5 -6t-60.5 0q-66 -2 -94 -2q-57 2 -94 8q-55 10 -72 39q-27 47 -33 182z" />
<glyph unicode="&#xee;" horiz-adv-x="268" d="M-6 1083l43 93q27 55 37 73q16 31 28 45q20 25 45 26t48 -20q12 -14 32 -43l97 -151q18 -25 -7.5 -42t-42.5 9l-98 150q-16 25 -24 32q-10 -10 -23 -34q-10 -18 -37 -74l-45 -92q-12 -27 -39.5 -14t-13.5 42zM96 217q-4 94 4 266q2 59 6 140q4 96 6.5 141t2.5 103.5 t-4 88.5q-2 12 6 22.5t20.5 12.5t22.5 -6t12 -20q4 -33 4 -94.5t-2 -108.5l-6 -144q-4 -100 -6 -137q-6 -170 -4 -262q4 -119 24 -151q2 -6 31 -13q31 -4 82 -6q29 0 92 2q55 2 70 0q12 -2 20 -11t6 -22.5t-11 -21.5t-22.5 -6t-60.5 0q-66 -2 -94 -2q-57 2 -94 8 q-55 10 -72 39q-27 47 -33 182z" />
<glyph unicode="&#xef;" horiz-adv-x="268" d="M45 1153q0 31 31 31t30.5 -31t-31 -31t-30.5 31zM82 217q-4 94 4 266q2 59 6 140q4 96 6 141t2 103.5t-4 88.5q-2 12 6.5 22.5t20.5 12.5t22.5 -6t12.5 -20q4 -33 4 -94.5t-2 -108.5l-6 -144q-4 -100 -7 -137q-6 -170 -4 -262q4 -119 25 -151q2 -6 31 -13q31 -4 82 -6 q29 0 92 2q55 2 69 0q12 -2 20.5 -11t6.5 -22.5t-11 -21.5t-22.5 -6t-60.5 0q-66 -2 -94 -2q-57 2 -95 8q-55 10 -71 39q-27 47 -33 182zM164 1153q0 31 31 31t30.5 -31t-31 -31t-30.5 31z" />
<glyph unicode="&#xf0;" horiz-adv-x="901" d="M46.5 1190q14.5 27 41.5 12q104 -59 227 -172q160 160 193 191q23 20 43 -2.5t-2 -42.5q-27 -25 -191 -189q113 -109 193 -225q31 14 57 22q12 4 23.5 -2t15.5 -17t-2 -22.5t-16 -15.5q-20 -6 -43 -16q106 -164 125 -305q2 -5 4 -11q6 -39 8 -104q2 -68 6 -96 q12 -94 129 -127q82 -23 225 -15q12 0 22.5 -8t10.5 -20.5t-8 -22.5t-21 -10q-154 -8 -245 16q-150 41 -172 170q-14 -25 -35 -47q-63 -78 -140 -108.5t-179.5 -24.5t-161.5 100q-31 51 -37 107.5t11 112t46 105.5t70 99q109 127 254 211q-78 109 -183 211 q-123 -119 -219 -186q-27 -18 -44 7.5t7 41.5q94 66 211 180q-115 106 -211 162q-27 14 -12.5 41zM207 131q41 -68 112 -72q88 -4 152 21.5t119 91.5q153 182 -58 510q-137 -76 -241 -201q-172 -205 -84 -350z" />
<glyph unicode="&#xf1;" horiz-adv-x="796" d="M119 41q31 115 41 473q4 164 0 285l-21 133q31 41 70 8q57 59 141 76q68 12 130.5 -9.5t99 -81t36.5 -212.5q0 -59 -12 -283q-12 -176 -4 -256q6 -51 18 -78q12 -23 27 -28q31 -8 105 -7q109 2 121 2t20 -10t8 -22.5t-10 -20.5t-23 -8q-8 0 -114 -2q-84 -2 -123 10 q-43 10 -66 60q-16 37 -22 98q-10 84 2 266q12 219 12 279q0 135 -29 180q-25 41 -69.5 56.5t-94.5 4.5q-51 -10 -90 -39.5t-53 -70.5q0 -20 2 -43q4 -123 0 -289q-12 -365 -45 -487q-2 -12 -13 -18.5t-23.5 -3.5t-18.5 14.5t-2 23.5zM184 1122q66 131 140 125 q43 -4 108 -73q27 -27 39 -37q16 -12 27 -11q10 0 26 19q25 27 51 88q12 29 41 16.5t17 -41.5q-31 -70 -62 -104q-35 -39 -71 -39q-33 -2 -66 22q-16 12 -47 46q-49 51 -68 53q-35 2 -81 -92q-12 -27 -40 -14t-14 42z" />
<glyph unicode="&#xf2;" horiz-adv-x="710" d="M23 348q-16 168 24.5 337t130.5 267q25 37 62 54q4 2 6 2l4 2q10 2 18 6h4q145 33 240 -94q88 -115 109 -320q20 -199 -29 -366q-25 -78 -60 -136q12 -8 25 -12q102 -45 332 -35q14 0 23.5 -8t9.5 -21.5t-8.5 -22.5t-20.5 -9q-242 -12 -358 39q-20 8 -41 20 q-35 -39 -76 -57q-170 -76 -283 49q-92 102 -112 305zM86 356q16 -184 94 -272q80 -92 209 -33q28 12 53 37q-61 53 -123 139q-90 129 -131 254q-47 147 -49 287v6q-76 -190 -53 -418zM207 760q2 -127 45 -264q37 -115 121 -236q51 -76 108 -125q31 51 49 119q43 156 25 338 q-14 184 -90 287q-74 100 -189 65l-2 -4q-20 -14 -41 -35q-29 -47 -26 -145zM210.5 1271.5q16.5 26.5 43.5 10.5q80 -51 188 -139q25 -20 5.5 -44t-41.5 -5q-109 88 -185 135q-27 16 -10.5 42.5z" />
<glyph unicode="&#xf3;" horiz-adv-x="710" d="M23 348q-16 168 24.5 337t130.5 267q25 37 62 54q4 2 6 2l4 2q10 2 18 6h4q145 33 240 -94q88 -115 109 -320q20 -199 -29 -366q-25 -78 -60 -136q12 -8 25 -12q102 -45 332 -35q14 0 23.5 -8t9.5 -21.5t-8.5 -22.5t-20.5 -9q-242 -12 -358 39q-20 8 -41 20 q-35 -39 -76 -57q-170 -76 -283 49q-92 102 -112 305zM86 356q16 -184 94 -272q80 -92 209 -33q28 12 53 37q-61 53 -123 139q-90 129 -131 254q-47 147 -49 287v6q-76 -190 -53 -418zM207 760q2 -127 45 -264q37 -115 121 -236q51 -76 108 -125q31 51 49 119q43 156 25 338 q-14 184 -90 287q-74 100 -189 65l-2 -4q-20 -14 -41 -35q-29 -47 -26 -145zM210.5 1098q-16.5 27 10.5 43q143 84 219 188q18 25 43 6.5t6 -43.5q-84 -115 -235 -205q-27 -16 -43.5 11z" />
<glyph unicode="&#xf4;" horiz-adv-x="710" d="M23 348q-16 168 24.5 337t130.5 267q25 37 62 54q4 2 6 2l4 2q10 2 18 6h4q145 33 240 -94q88 -115 109 -320q20 -199 -29 -366q-25 -78 -60 -136q12 -8 25 -12q102 -45 332 -35q14 0 23.5 -8t9.5 -21.5t-8.5 -22.5t-20.5 -9q-242 -12 -358 39q-20 8 -41 20 q-35 -39 -76 -57q-170 -76 -283 49q-92 102 -112 305zM86 356q16 -184 94 -272q80 -92 209 -33q28 12 53 37q-61 53 -123 139q-90 129 -131 254q-47 147 -49 287v6q-76 -190 -53 -418zM152 1153q39 41 88 111q43 63 65 75q27 14 53 2q20 -10 39 -36q31 -43 84 -166 q12 -29 -16.5 -41.5t-40.5 16.5q-49 119 -76 154q-8 12 -14 16q-10 -6 -45 -55q-55 -78 -92 -117q-20 -23 -42.5 -2.5t-2.5 43.5zM207 760q2 -127 45 -264q37 -115 121 -236q51 -76 108 -125q31 51 49 119q43 156 25 338q-14 184 -90 287q-74 100 -189 65l-2 -4 q-20 -14 -41 -35q-29 -47 -26 -145z" />
<glyph unicode="&#xf5;" horiz-adv-x="710" d="M23 348q-16 168 24.5 337t130.5 267q25 37 62 54q4 2 6 2l4 2q10 2 18 6h4q145 33 240 -94q88 -115 109 -320q20 -199 -29 -366q-25 -78 -60 -136q12 -8 25 -12q102 -45 332 -35q14 0 23.5 -8t9.5 -21.5t-8.5 -22.5t-20.5 -9q-242 -12 -358 39q-20 8 -41 20 q-35 -39 -76 -57q-170 -76 -283 49q-92 102 -112 305zM86 356q16 -184 94 -272q80 -92 209 -33q28 12 53 37q-61 53 -123 139q-90 129 -131 254q-47 147 -49 287v6q-76 -190 -53 -418zM117 1114q55 106 133 115q45 4 127 -39q70 -37 96 -39q43 -2 82 61q16 27 43 10.5 t10 -42.5q-57 -92 -137 -90q-41 2 -123 47q-63 33 -92 30q-45 -4 -86 -82q-14 -27 -40.5 -12.5t-12.5 41.5zM207 760q2 -127 45 -264q37 -115 121 -236q51 -76 108 -125q31 51 49 119q43 156 25 338q-14 184 -90 287q-74 100 -189 65l-2 -4q-20 -14 -41 -35 q-29 -47 -26 -145z" />
<glyph unicode="&#xf6;" horiz-adv-x="710" d="M23 348q-16 168 24.5 337t130.5 267q25 37 62 54q4 2 6 2l4 2q10 2 18 6h4q145 33 240 -94q88 -115 109 -320q20 -199 -29 -366q-25 -78 -60 -136q12 -8 25 -12q102 -45 332 -35q14 0 23.5 -8t9.5 -21.5t-8.5 -22.5t-20.5 -9q-242 -12 -358 39q-20 8 -41 20 q-35 -39 -76 -57q-170 -76 -283 49q-92 102 -112 305zM86 356q16 -184 94 -272q80 -92 209 -33q28 12 53 37q-61 53 -123 139q-90 129 -131 254q-47 147 -49 287v6q-76 -190 -53 -418zM205 1140.5q0 30.5 31 30.5t30.5 -30.5t-31 -30.5t-30.5 30.5zM207 760q2 -127 45 -264 q37 -115 121 -236q51 -76 108 -125q31 51 49 119q43 156 25 338q-14 184 -90 287q-74 100 -189 65l-2 -4q-20 -14 -41 -35q-29 -47 -26 -145zM348 1140.5q0 30.5 31 30.5t31 -30.5t-31 -30.5t-31 30.5z" />
<glyph unicode="&#xf7;" horiz-adv-x="622" d="M108 682q0 31 31 31q338 0 467 8q12 0 22.5 -8t10.5 -20.5t-8 -23t-21 -10.5q-133 -8 -471 -8q-31 0 -31 31zM323.5 839.5q-0.5 30.5 30.5 30.5t31 -30.5t-30.5 -30.5t-31 30.5zM325.5 516q-0.5 31 30.5 31t31 -31t-30.5 -31t-31 31z" />
<glyph unicode="&#xf8;" horiz-adv-x="710" d="M23 348q-16 168 24.5 337t130.5 267q25 37 62 54q4 2 6 2l4 2q10 2 18 6h4q145 33 240 -94q88 -115 109 -320q20 -199 -29 -366q-25 -78 -60 -136q12 -8 25 -12q102 -45 332 -35q14 0 23.5 -8t9.5 -21.5t-8.5 -22.5t-20.5 -9q-242 -12 -358 39q-20 8 -41 20 q-35 -39 -76 -57q-170 -76 -283 49q-92 102 -112 305zM86 356q16 -184 94 -272q80 -92 209 -33q28 12 53 37q-61 53 -123 139q-90 129 -131 254q-47 147 -49 287v6q-76 -190 -53 -418zM207 760q2 -127 45 -264q37 -115 121 -236q51 -76 108 -125q31 51 49 119q43 156 25 338 q-14 184 -90 287q-74 100 -189 65l-2 -4q-20 -14 -41 -35q-29 -47 -26 -145z" />
<glyph unicode="&#xf9;" horiz-adv-x="661" d="M76 539q27 266 82 434q4 12 16 18t23.5 2t17.5 -15t2 -22q-53 -168 -80 -424q-31 -289 15 -407q43 -115 180 -90q61 12 116.5 48t81.5 79q2 4 5 6q-4 23 -7 47q-12 109 -10 283q0 90 3 190t8.5 186.5t5.5 99.5t9 21.5t23.5 8.5t22.5 -9.5t8 -23t-5 -99.5t-8 -186t-3 -188 q-2 -172 8 -275q6 -59 16 -96q10 -33 21 -39q35 -29 102 -31q27 0 68 2q57 4 63 4q14 0 23.5 -8t9.5 -21.5t-8 -22.5t-21 -9q-6 0 -63 -4q-43 -4 -72 -2q-90 2 -141 43q-23 16 -35 51q-82 -92 -209 -115q-82 -16 -151.5 14.5t-100.5 114.5q-49 127 -16 435zM288.5 1218.5 q20.5 22.5 43.5 2.5l80 -82q51 -51 67 -66q20 -23 -1 -44t-44 -1q-14 16 -64.5 68.5t-78.5 79.5q-23 20 -2.5 42.5z" />
<glyph unicode="&#xfa;" horiz-adv-x="661" d="M80 539q29 266 84 434q4 12 15 18t22.5 2t18.5 -15t3 -22q-53 -168 -82 -424q-29 -289 17 -407q41 -115 178 -90q61 12 116.5 48t79.5 79q2 4 5 6q-4 23 -7 47q-12 109 -10 283q0 90 3 190t8.5 186.5t5.5 99.5t9 21.5t23.5 8.5t22.5 -9.5t8 -23t-5 -99.5t-8 -186t-3 -188 q-2 -172 8 -275q6 -59 16 -96q10 -33 19 -39q37 -29 104 -31q25 0 66 2q57 4 63 4q14 0 23.5 -8t9.5 -21.5t-8 -22.5t-21 -9q-6 0 -63 -4q-43 -4 -70 -2q-90 2 -141 43q-20 16 -35 51q-82 -92 -207 -115q-82 -16 -150.5 14.5t-99.5 114.5q-49 127 -18 435zM311 1046.5 q-4 12.5 1.5 23.5t17.5 15q27 10 51.5 27.5t58.5 46.5l54 43q25 18 43 -6.5t-7 -42.5l-49 -39q-37 -33 -67.5 -53.5t-63.5 -32.5q-12 -4 -23.5 1t-15.5 17.5z" />
<glyph unicode="&#xfb;" horiz-adv-x="661" d="M76 539q27 266 82 434q4 12 16 18t23.5 2t17.5 -15t2 -22q-53 -168 -80 -424q-31 -289 15 -407q43 -115 180 -90q61 12 116.5 48t81.5 79q2 4 5 6q-4 23 -7 47q-12 109 -10 283q0 90 3 190t8.5 186.5t5.5 99.5t9 21.5t23.5 8.5t22.5 -9.5t8 -23t-5 -99.5t-8 -186t-3 -188 q-2 -172 8 -275q6 -59 16 -96q10 -33 21 -39q35 -29 102 -31q27 0 68 2q57 4 63 4q14 0 23.5 -8t9.5 -21.5t-8 -22.5t-21 -9q-6 0 -63 -4q-43 -4 -72 -2q-90 2 -141 43q-23 16 -35 51q-82 -92 -209 -115q-82 -16 -151.5 14.5t-100.5 114.5q-49 127 -16 435zM250 1124l86 138 q18 29 33 43q18 20 39 24q27 6 49 -16q14 -12 28 -41q20 -39 66 -160q4 -12 -1 -23.5t-17.5 -15.5t-23.5 1t-15 18q-43 117 -62 151q-8 16 -14 23l-4 -4q-10 -10 -27 -35l-84 -135q-16 -27 -42.5 -11t-10.5 43z" />
<glyph unicode="&#xfc;" horiz-adv-x="661" d="M80 539q29 266 84 434q4 12 15 18t22.5 2t18.5 -15t3 -22q-53 -168 -82 -424q-29 -289 17 -407q41 -115 178 -90q61 12 116.5 48t79.5 79q2 4 5 6q-4 23 -7 47q-12 109 -10 283q0 90 3 190t8.5 186.5t5.5 99.5t9 21.5t23.5 8.5t22.5 -9.5t8 -23t-5 -99.5t-8 -186t-3 -188 q-2 -172 8 -275q6 -59 16 -96q10 -33 19 -39q37 -29 104 -31q25 0 66 2q57 4 63 4q14 0 23.5 -8t9.5 -21.5t-8 -22.5t-21 -9q-6 0 -63 -4q-43 -4 -70 -2q-90 2 -141 43q-20 16 -35 51q-82 -92 -207 -115q-82 -16 -150.5 14.5t-99.5 114.5q-49 127 -18 435zM307 1124.5 q0 30.5 31 30.5t31 -30.5t-31 -30.5t-31 30.5zM467 1124.5q0 30.5 31 30.5t30.5 -30.5t-31 -30.5t-30.5 30.5z" />
<glyph unicode="&#xfd;" horiz-adv-x="651" d="M43 489q-2 236 39 498q2 12 10 20.5t21.5 6.5t21.5 -12.5t6 -22.5q-41 -258 -39 -490q4 -166 29 -272q31 -119 84 -149q47 -25 137 -25q43 0 146 10l-2 27v4v2q0 150 1 450t1 449q0 31 30.5 31t30.5 -31q0 -150 -1 -449.5t-1 -449.5v-2l2 -35q41 6 113 4q156 -4 186 0 q12 2 23.5 -6t13.5 -20.5t-6 -22.5t-23 -12q-35 -4 -196 0q-70 2 -109 -4q2 -68 2 -121q0 -8 1 -39t1 -59.5t-2 -53.5q-14 -117 -104 -129t-131 58q-35 53 -23 141q20 121 90 199q-23 -2 -43 -2q-104 0 -168 32q-78 43 -110 189q-29 113 -31 286zM210.5 1271.5 q16.5 26.5 43.5 10.5q80 -51 188 -139q25 -20 5.5 -44t-41.5 -5q-109 88 -185 135q-27 16 -10.5 42.5zM371 -223q-8 -68 12 -103q16 -35 66 -26q39 6 49 76q2 20 2 45.5t-1 54.5t-1 43q0 49 -2 110q-8 -2 -13 -4q-37 -14 -69.5 -71.5t-42.5 -124.5z" />
<glyph unicode="&#xfe;" horiz-adv-x="786" d="M98 -334q0 135 15 369q18 315 20 364q4 182 -4 756q0 6 2 158q0 92 -6 151q-2 14 6 23.5t21.5 11.5t22.5 -6t11 -20q6 -66 7 -162q-2 -150 -3 -156q0 -45 2.5 -130t2.5 -112q82 94 211 109q80 8 152.5 -22.5t117.5 -102.5q47 -78 63 -188q16 -109 -2 -199 q-18 -94 -73 -191q-53 -96 -127 -174q-49 -49 -103 -84q174 8 522 0q14 0 22.5 -9t8.5 -22.5t-9 -21.5t-22 -8q-526 12 -780 -23h-4q-12 -186 -12 -311q0 -31 -31 -31t-31 31zM176 55q162 -25 316 133q70 72 118.5 162t65.5 172q18 78 4 176q-16 96 -57 166q-33 55 -91 80 q-55 25 -120 17q-63 -6 -118.5 -42t-84.5 -92q-4 -8 -12 -12q2 -231 -2 -416q-3 -113 -19 -344z" />
<glyph unicode="&#xff;" horiz-adv-x="651" d="M43 489q-2 236 39 498q2 12 10 20.5t21.5 6.5t21.5 -12.5t6 -22.5q-41 -258 -39 -490q4 -166 29 -272q31 -119 84 -149q47 -25 137 -25q43 0 146 10l-2 27v4v2q0 150 1 450t1 449q0 31 30.5 31t30.5 -31q0 -150 -1 -449.5t-1 -449.5v-2l2 -35q41 6 113 4q156 -4 186 0 q12 2 23.5 -6t13.5 -20.5t-6 -22.5t-23 -12q-35 -4 -196 0q-70 2 -109 -4q2 -68 2 -121q0 -8 1 -39t1 -59.5t-2 -53.5q-14 -117 -104 -129t-131 58q-35 53 -23 141q20 121 90 199q-23 -2 -43 -2q-104 0 -168 32q-78 43 -110 189q-29 113 -31 286zM205 1140.5q0 30.5 31 30.5 t30.5 -30.5t-31 -30.5t-30.5 30.5zM371 -223q-8 -68 12 -103q16 -35 66 -26q39 6 49 76q2 20 2 45.5t-1 54.5t-1 43q0 49 -2 110q-8 -2 -13 -4q-37 -14 -69.5 -71.5t-42.5 -124.5zM409.5 1133.5q-0.5 29.5 30.5 29.5t31 -29.5t-30.5 -29.5t-31 29.5z" />
<glyph unicode="&#x152;" horiz-adv-x="1124" d="M94 717q8 266 82 475q84 233 217 281q37 14 121 10q15 -1 23 -15q106 -12 218.5 -15t284.5 0t224 3q31 0 30.5 -30.5t-30.5 -30.5q-59 0 -187.5 -2t-231 -2t-192.5 6q113 -84 185 -242q78 -172 92 -387q39 -4 96 -2q98 4 113 4q31 0 30.5 -30.5t-30.5 -30.5 q-14 0 -109 -4q-59 -2 -98 0q2 -33 0 -68q-10 -295 -135 -475q-39 -59 -90 -99h593q31 0 31 -30.5t-31 -30.5h-702h-4q-84 -27 -180 -10q-168 29 -254 256q-72 193 -66 469zM156 717q-6 -264 61 -447q74 -195 209 -217q199 -35 319 144q115 168 125.5 442t-88.5 491 q-106 231 -293 277q-12 4 -18 16q-31 0 -57 -8q-106 -37 -181 -244q-72 -201 -77 -454z" />
<glyph unicode="&#x153;" horiz-adv-x="1249" d="M53 449q8 199 84 364q70 154 164 195v2q4 12 14.5 19t22.5 5q190 -39 283 -266q53 92 115.5 152.5t124 83t118.5 15.5t102 -44q63 -51 78 -135q14 -86 -35 -195q-49 -106 -161 -207q-57 -49 -86 -73q-33 -25 -90.5 -50.5t-114.5 -29.5q-29 -61 -25 -105q4 -35 35 -61 q63 -53 223 -70q123 -8 205 -6t188.5 8t133.5 6q31 0 30.5 -30.5t-30.5 -30.5q-20 0 -129 -6t-194 -8t-210 6q-180 18 -256 84q-29 25 -43 55q-74 -123 -194 -145q-193 -33 -287 122q-78 127 -66 345zM115 444q-10 -199 57 -307q72 -121 221 -94q111 18 172 152 q59 127 51 305q-6 168 -75 295q-68 131 -181 170q-6 -7 -14 -9q-84 -16 -153 -170q-70 -152 -78 -342zM647 692q27 -90 31 -190q4 -80 -6 -156q45 4 91 24.5t77.5 44t81.5 68.5q80 72 124 143.5t50 129t-8.5 101.5t-45.5 71q-31 25 -73.5 29t-95 -14.5t-110.5 -80 t-108 -160.5q-2 -6 -8 -10z" />
<glyph unicode="&#x2000;" horiz-adv-x="900" />
<glyph unicode="&#x2001;" horiz-adv-x="1800" />
<glyph unicode="&#x2002;" horiz-adv-x="900" />
<glyph unicode="&#x2003;" horiz-adv-x="1800" />
<glyph unicode="&#x2004;" horiz-adv-x="600" />
<glyph unicode="&#x2005;" horiz-adv-x="450" />
<glyph unicode="&#x2006;" horiz-adv-x="300" />
<glyph unicode="&#x2007;" horiz-adv-x="300" />
<glyph unicode="&#x2008;" horiz-adv-x="225" />
<glyph unicode="&#x2009;" horiz-adv-x="360" />
<glyph unicode="&#x200a;" horiz-adv-x="100" />
<glyph unicode="&#x2010;" d="M56 630.5q1 12.5 10.5 20.5t21.5 8q84 -6 229 7q172 16 236 16q31 0 31 -30.5t-31 -30.5q-59 0 -231 -17q-150 -12 -238 -6q-12 2 -20.5 11t-7.5 21.5z" />
<glyph unicode="&#x2011;" d="M56 630.5q1 12.5 10.5 20.5t21.5 8q84 -6 229 7q172 16 236 16q31 0 31 -30.5t-31 -30.5q-59 0 -231 -17q-150 -12 -238 -6q-12 2 -20.5 11t-7.5 21.5z" />
<glyph unicode="&#x2012;" d="M56 630.5q1 12.5 10.5 20.5t21.5 8q84 -6 229 7q172 16 236 16q31 0 31 -30.5t-31 -30.5q-59 0 -231 -17q-150 -12 -238 -6q-12 2 -20.5 11t-7.5 21.5z" />
<glyph unicode="&#x2013;" horiz-adv-x="1109" d="M55 630.5q2 12.5 20.5 20.5t41.5 8q163 -6 444 7q334 16 458 16q60 0 60 -30.5t-60 -30.5q-115 0 -448 -17q-291 -12 -462 -6q-23 2 -39.5 11t-14.5 21.5z" />
<glyph unicode="&#x2014;" horiz-adv-x="2133" d="M55.5 630.5q3.5 12.5 40.5 20.5t84 8q325 -6 888 7q667 16 915 16q120 0 120 -30.5t-120 -30.5q-229 0 -896 -17q-582 -12 -923 -6q-47 2 -79.5 11t-29 21.5z" />
<glyph unicode="&#x2018;" horiz-adv-x="286" d="M35 1225q25 96 66.5 165.5t115.5 114.5q27 16 43.5 -10.5t-10.5 -42.5q-61 -37 -97 -96.5t-61 -147.5q-2 -12 -13 -18t-23.5 -3t-18.5 14t-2 24z" />
<glyph unicode="&#x2019;" horiz-adv-x="317" d="M82.5 1174.5q-19.5 23.5 3.5 42.5q145 123 170 272q2 14 12.5 21.5t23.5 5t20 -12.5t5 -22q-29 -174 -190 -310q-25 -20 -44.5 3.5z" />
<glyph unicode="&#x201c;" horiz-adv-x="409" d="M25 1157q-2 49 10 97.5t25.5 79t50 75.5t51.5 61l63 64q23 20 44 -1t1 -44q-55 -53 -77.5 -78t-55.5 -70t-43 -87t-8 -93q0 -12 -8 -22.5t-20.5 -10.5t-22.5 8.5t-10 20.5zM131 1184q10 176 219 325q25 18 43.5 -6.5t-6.5 -42.5q-186 -133 -194 -280q0 -12 -10.5 -20.5 t-23 -8.5t-20.5 10t-8 23z" />
<glyph unicode="&#x201d;" horiz-adv-x="409" d="M82.5 1179q-19.5 23 3.5 42q141 121 141 274q0 31 31 31t31 -31q0 -182 -162 -319q-25 -20 -44.5 3zM179 1129.5q-19 23.5 5 44.5q78 63 128 151t42 174q0 12 8.5 21.5t20.5 10.5t21.5 -7.5t11.5 -20.5q8 -104 -48.5 -205.5t-146.5 -173.5q-23 -18 -42 5.5z" />
<glyph unicode="&#x202f;" horiz-adv-x="360" />
<glyph unicode="&#x205f;" horiz-adv-x="450" />
<glyph unicode="&#x20ac;" horiz-adv-x="962" d="M117 565.5q2 12.5 12.5 20.5t22.5 6q233 -29 632 22q12 2 22.5 -6t12.5 -20.5t-6 -22.5t-20 -12q-408 -51 -650 -23q-12 2 -20 12.5t-6 23zM117 770q2 12 12.5 20.5t22.5 6.5q233 -29 632 22q12 2 22.5 -6t12.5 -20.5t-6 -22.5t-20 -12q-408 -51 -650 -23q-12 2 -20 12.5 t-6 22.5zM371 322q-39 205 15 489.5t165 458.5q78 121 149 155q104 53 200.5 -13t103.5 -173q0 -12 -8.5 -22.5t-20.5 -10.5t-22.5 8.5t-10.5 20.5q-4 78 -73.5 125t-139.5 12q-57 -29 -125 -135q-106 -164 -158 -438q-51 -272 -14 -465q31 -164 133.5 -239t231.5 -64 q127 10 225 94t119 211q2 12 12 20.5t22.5 6t20.5 -12.5t6 -22q-25 -152 -140.5 -249t-258.5 -110q-154 -12 -274.5 77t-157.5 276z" />
<glyph unicode="&#x2122;" horiz-adv-x="1433" d="M51 1242q0 13 8.5 22.5t20.5 9.5q90 4 184 27.5t214 63.5t186 58q10 2 20 -2q17 2 27 -12q29 -35 94 -123q90 -121 108 -149l43 -62q2 16 5 29q27 113 98 276q2 2 2 6q2 8 4 13q10 31 37 35q25 4 41 -23q8 -12 16 -33q10 -29 23 -88q39 -186 39 -190q18 -61 45.5 -132 t46.5 -112l63 -131l56 -119q12 -27 -15.5 -40t-42.5 16q-10 20 -55 114l-62 135q-18 41 -46.5 115t-47.5 137q-2 6 -43 193q-6 37 -12 59q-63 -141 -86 -243q-6 -27 -10 -74q-2 -23 -2 -29q-2 -8 -4 -12q-2 -6 -5 -10q-8 -12 -22 -15q-20 -4 -35 15q-6 8 -10 20q-2 10 -4 14 q-20 35 -66 103l-108 145l-13 17q66 -268 17 -611q-2 -12 -12.5 -20t-22.5 -6t-20.5 12t-6.5 23q59 410 -45 692q-49 -14 -141 -45l-133 -41q51 -238 51 -645q0 -31 -30.5 -31t-30.5 31q0 399 -50 628q-131 -37 -235 -41q-14 0 -23.5 8.5t-9.5 21.5z" />
<glyph unicode="&#x25fc;" horiz-adv-x="1024" d="M0 0v1024h1024v-1024h-1024z" />
</font>
</defs>
</svg>
